<svg id="Capa_1" enable-background="new 0 0 512 512" height="512" viewBox="0 0 512 512" width="512" xmlns="http://www.w3.org/2000/svg"><g><path d="m414.936 300.901-158.936 98.957-158.932-98.957c-37.157 4.466-66.068 35.737-66.068 74.099v137h60l15-32 15 32h135 135l15-32 15 32h60v-137c0-38.361-28.907-69.635-66.064-74.099z" fill="#8cd96b"/><path d="m406 480 15 32h60v-137c0-38.361-28.907-69.635-66.064-74.099l-158.936 98.957v112.142h135z" fill="#5ab267"/><path d="m406 300h-75l-75 45-74.995-45h-75.005c-3.06 0-5.967.546-8.932.901l158.932 158.957 158.936-158.958c-2.965-.356-5.874-.9-8.936-.9z" fill="#ff7559"/><path d="m406 300h-75l-75 45v114.858l158.936-158.958c-2.965-.356-5.874-.9-8.936-.9z" fill="#e63a3a"/><path d="m256.264 0c-.088 0-.176.015-.264.015-50.636.08-105 24.565-105 74.985h105 105c0-50.149-53.824-75-104.736-75z" fill="#ffbe40"/><path d="m256.264 0c-.088 0-.176.015-.264.015v74.985h105c0-50.149-53.824-75-104.736-75z" fill="#ff9f40"/><path d="m346 150v-60h-90-90v60c0 50.83 24.111 96.313 60 113.174v.015c0 20.302-16.494 36.811-36.797 36.811h-8.198l74.995 75 75-75h-8.203c-20.303 0-36.797-16.509-36.797-36.812 35.889-16.875 60-62.358 60-113.188z" fill="#ffd9b3"/><path d="m322.797 300c-20.303 0-36.797-16.509-36.797-36.812 35.889-16.875 60-62.358 60-113.188v-60h-90v285l75-75z" fill="#fb9"/><g><path d="m376 60h-120l14.566 29.566 45.434 30.434 43.737-28.737z" fill="#5ab267"/><path d="m376 60 14.961 29.961 42.937 27.937c18.523-5.574 32.102-22.56 32.102-42.898v-15z" fill="#5ab267"/><g fill="#8cd96b"><path d="m256 60h-120l13.46 28.46 46.54 31.54 42.987-27.987z"/><path d="m46 60v15c0 20.343 13.585 37.332 32.113 42.902l41.549-26.555 16.338-31.347z"/></g></g><path d="m91 450h30v62h-30z" fill="#5ab267"/><path d="m391 450h30v62h-30z" fill="#3d994c"/><path d="m256 60-60 60h60 60z" fill="#ff7559"/><path d="m256 60v60h60z" fill="#e63a3a"/><path d="m196 120-60-60-57.887 57.902c4.109 1.236 8.377 2.098 12.887 2.098z" fill="#ff7559"/><path d="m316 120h105c4.515 0 8.787-.864 12.898-2.102l-57.898-57.898z" fill="#e63a3a"/></g></svg>