<svg id="Capa_1" enable-background="new 0 0 512 512" height="512" viewBox="0 0 512 512" width="512" xmlns="http://www.w3.org/2000/svg"><g><path d="m421 301.512c-4.849-.985-9.862 28.488-15 28.488l-15-30h-41.373l-93.627 15-93.62-15h-41.38l-15 30c-5.138 0-10.151-29.473-15-28.488-34.233 6.951-60 37.204-60 73.488v137h60l15.236-32 14.764 32h135 135l17.21-32 12.79 32h60v-137c0-36.284-25.767-66.537-60-73.488z" fill="#f3f5f9"/><path d="m408.21 480 12.79 32h60v-137c0-36.284-25.767-66.537-60-73.488-4.849-.985-9.862 28.488-15 28.488l-15-30h-41.373l-93.627 15v197h135z" fill="#e1e6f0"/><path d="m301 0c-24.814 0-45 20.186-45 45 0-24.814-20.186-45-45-45s-45 20.186-45 45v75h90 90v-75c0-24.814-20.186-45-45-45z" fill="#4d2e2e"/><path d="m346 45c0-24.814-20.186-45-45-45s-45 20.186-45 45v75h90z" fill="#331e1e"/><path d="m256 120h-90v30c0 50.757 24.111 96.211 60 113.086v.015c0 14.055-8.181 25.891-19.779 32.12l49.779 49.779 49.779-49.779c-11.598-6.229-19.779-18.065-19.779-32.12 35.889-16.89 60-62.344 60-113.101v-30z" fill="#ffd9b3"/><path d="m286 263.101c35.889-16.89 60-62.344 60-113.101v-30h-90v225l49.779-49.779c-11.598-6.229-19.779-18.065-19.779-32.12z" fill="#fb9"/><path d="m106 300c-5.138 0-10.151.527-15 1.512v210.488h30v-212z" fill="#663d3d"/><path d="m406 300h-15v212h30v-210.488c-4.849-.985-9.862-1.512-15-1.512z" fill="#4d2e2e"/><path d="m296.605 445.605-21.21-21.21-19.395 19.394-19.395-19.394-21.21 21.21 19.394 19.395-19.394 19.395 21.21 21.21 19.395-19.394 19.395 19.394 21.21-21.21-19.394-19.395z" fill="#663d3d"/><path d="m296.605 484.395-19.394-19.395 19.394-19.395-21.21-21.21-19.395 19.394v42.422l19.395 19.394z" fill="#4d2e2e"/><path d="m256 105h-150v30h150 150v-30z" fill="#663d3d"/><path d="m256 105h150v30h-150z" fill="#4d2e2e"/><path d="m322.914 300c-6.295 0-11.944-1.992-17.135-4.779l-49.779 34.779-49.779-34.779c-5.191 2.787-10.84 4.779-17.135 4.779h-26.706l51.198 87.422 42.422-42.422 42.422 42.422 51.205-87.422z" fill="#e1e6f0"/><path d="m349.627 300h-26.713c-6.295 0-11.944-1.992-17.135-4.779l-49.779 34.779v15l42.422 42.422z" fill="#cfd7e6"/></g></svg>