<svg id="Capa_1" enable-background="new 0 0 512 512" height="512" viewBox="0 0 512 512" width="512" xmlns="http://www.w3.org/2000/svg"><g><path d="m464.169 328.326-35.795 8.864-172.374 114.918-31.82 21.213-32.518 38.679h64.338 135l15-32 15 32h60v-137c0-17.704-6.473-33.809-16.831-46.674z" fill="#ffdf40"/><path d="m406 480 15 32h60v-137c0-17.704-6.473-33.809-16.831-46.674l-35.795 8.864-172.374 114.918v59.892h135z" fill="#ffbe40"/><g><path d="m346 150v-105l-30-15h-60-57.394l-32.606 15v105c0 50.757 24.111 96.211 60 113.086v.015c0 20.346-16.553 36.899-36.914 36.899l21.914 15 45 30 45-30 21.914-15c-20.361 0-36.914-16.553-36.914-36.899 35.889-16.89 60-62.344 60-113.101z" fill="#ffd9b3"/><path d="m322.914 300c-20.361 0-36.914-16.553-36.914-36.899 35.889-16.89 60-62.344 60-113.101v-105l-30-15h-60v315l45-30z" fill="#fb9"/></g><path d="m286 0h-30-30c-49.629 0-90 40.371-90 90v30h60c24.443 0 44.718-6.156 60-16.736 18.896-13.085 30-33.076 30-58.264 0 37.324 3.779 71.118 49.453 74.634l10.693.82c1.82-5.358 16.36-31.575 14.566-60.211-2.369-37.803-32.063-60.243-74.712-60.243z" fill="#663d3d"/><path d="m286 45c0 37.324 3.779 71.118 49.453 74.634l10.693.82c1.82-5.358 16.36-31.575 14.566-60.211-2.369-37.803-32.063-60.243-74.712-60.243h-30v103.264c18.896-13.085 30-33.076 30-58.264z" fill="#4d2e2e"/><path d="m331 300v-15h-15c-26.688 0-48.684 14.134-60 30.3-14.491-19.664-36.855-30.3-60-30.3h-15v15h-75c-41.25 0-75 33.75-75 75v137h60l15-32 5.621 11.241 36.422-9.282 107.957-71.971 111.213-74.143 31.267-35.845z" fill="#ffdf40"/><path d="m398.48 300h-67.48v-15h-15c-26.688 0-48.684 14.134-60 30.3v94.688l111.213-74.143z" fill="#ffbe40"/><path d="m406 300h-7.52l-142.48 94.988-144.379 96.253 9.379 20.759h70.662l64.338-44.892 208.169-138.781c-13.777-17.112-34.623-28.327-58.169-28.327z" fill="#ff7559"/><path d="m406 300h-7.52l-142.48 94.988v72.12l208.169-138.781c-13.777-17.112-34.623-28.327-58.169-28.327z" fill="#e63a3a"/><path d="m91 450h30v62h-30z" fill="#ffbe40"/><path d="m391 450h30v62h-30z" fill="#ff9f40"/></g></svg>