<svg id="Capa_1" enable-background="new 0 0 512 512" height="512" viewBox="0 0 512 512" width="512" xmlns="http://www.w3.org/2000/svg"><g><path d="m428.419 303.79-172.419 56.21-172.419-56.21c-30.394 9.577-52.581 37.652-52.581 71.21v137h60l15-32 15 32h135 135l15-32 15 32h60v-137c0-33.558-22.187-61.633-52.581-71.21z" fill="#f3f5f9"/><path d="m406 480 15 32h60v-137c0-33.558-22.187-61.633-52.581-71.21l-172.419 56.21v152h135z" fill="#e1e6f0"/><path d="m256 105h-90v45c0 50.83 24.111 96.313 60 113.174v.015c0 13.27-7.419 24.391-17.97 30.87l4.36 38.719 43.61 57.222 43.577-57.16 4.391-38.784c-10.549-6.48-17.968-17.6-17.968-30.868 35.889-16.875 60-62.358 60-113.188v-45z" fill="#ffd9b3"/><path d="m303.968 294.056c-10.549-6.48-17.968-17.6-17.968-30.868 35.889-16.875 60-62.358 60-113.188v-45h-90v285l43.577-57.16z" fill="#fb9"/><path d="m256 0h-90v105h90 90v-105z" fill="#4d2e2e"/><path d="m256 0h90v105h-90z" fill="#331e1e"/><path d="m91 450h30v62h-30z" fill="#e1e6f0"/><path d="m391 450h30v62h-30z" fill="#cfd7e6"/><path d="m286 180c-8.262 0-15-6.724-15-15h-15-15c0 8.276-6.738 15-15 15h-15v30h15c11.567 0 22.02-4.508 30-11.704 7.98 7.196 18.433 11.704 30 11.704h15v-30z" fill="#663d3d"/><path d="m301 210v-30h-15c-8.262 0-15-6.724-15-15h-15v33.296c7.98 7.196 18.433 11.704 30 11.704z" fill="#4d2e2e"/><path d="m256 90h-150v30h150 150v-30z" fill="#663d3d"/><path d="m256 90h150v30h-150z" fill="#4d2e2e"/><path d="m428.5 303.9c-7.2-2.401-14.7-3.9-22.5-3.9h-83.101c-7.2 0-13.2-2.401-18.9-6l-47.999 81-47.999-81c-5.7 3.6-11.7 6-18.9 6h-83.101c-7.8 0-15.3 1.5-22.5 3.9l152.999 76.5-24 47.999 27.001 13.2 16.5-32.999 16.5 32.999 27.001-13.2-24-47.999z" fill="#ff7559"/><path d="m299.5 428.399-24-47.999 153-76.5c-7.2-2.401-14.7-3.9-22.5-3.9h-83.101c-7.2 0-13.2-2.401-18.9-6l-47.999 81v33.6l16.5 32.999z" fill="#e63a3a"/></g></svg>