<svg id="Capa_1" enable-background="new 0 0 512 512" height="512" viewBox="0 0 512 512" width="512" xmlns="http://www.w3.org/2000/svg"><g><path d="m256 0c-82.842 0-150 67.158-150 150v210h150 150v-210c0-82.842-67.158-150-150-150z" fill="#663d3d"/><path d="m406 150c0-82.842-67.158-150-150-150v360h150z" fill="#4d2e2e"/><path d="m376 300h-15.831l-17.089 9-8.126-5.585-78.954-.061-79.565-.062-9.567 5.708-14.874-9h-15.994c-41.422 0-75 33.578-75 75v137h60l15-32 15 32h105 105l15-32 15 32h60v-137c0-41.422-33.578-75-75-75z" fill="#4d4d80"/><path d="m376 480 15 32h60v-137c0-41.422-33.578-75-75-75h-15.831l-17.089 9-8.126-5.585-78.954-.061v208.646h105z" fill="#443d66"/><path d="m344.841 169.21c6.211-51.055-26.614-102.352-77.673-108.532-3.807-.461-7.452-.143-11.168-.137v14.459c0 41.42-33.578 75-75 75h-15c0 50.83 24.111 96.313 60 113.174v.015c0 20.302-16.494 36.811-36.797 36.811h-7.251l-5.517 3.292c38.132 28.253 77.294 26.078 79.565 26.708 28.702 0 56.036-9.688 78.953-26.585l-4.967-3.415h-7.189c-20.303 0-36.797-16.509-36.797-36.812 31.295-14.714 53.633-51.181 58.841-93.978z" fill="#ffd9b3"/><path d="m329.986 300h-7.189c-20.303 0-36.797-16.509-36.797-36.812 31.295-14.714 53.633-51.182 58.841-93.979 6.211-51.055-26.614-102.352-77.673-108.532-3.807-.461-7.452-.143-11.168-.137v14.46 255c28.702 0 56.036-9.688 78.953-26.585z" fill="#fb9"/><path d="m361 450h30v62h-30z" fill="#382e4d"/><path d="m335.118 372.922c13.698-20.872 22.606-46.404 25.051-72.922h-30.183c-5.098 45.397-31.893 89.621-73.986 89.603-41.733-.018-68.943-43.784-74.048-89.603h-29.958c2.455 26.602 11.356 52.046 24.974 72.836l-27.023 27.023 21.211 21.211 25.133-25.133c12.664 11.477 27.724 19.202 44.711 22.218v31.845h15 15v-31.846c17.045-3.007 32.135-10.697 44.789-22.139l25.054 25.054 21.211-21.211z" fill="#ffbe40"/><path d="m271 418.154c17.045-3.007 32.135-10.697 44.789-22.139l25.054 25.054 21.211-21.211-26.937-26.937c13.698-20.872 22.606-46.404 25.051-72.922h-30.183c-5.098 45.397-31.893 89.621-73.986 89.603v60.398h15v-31.846z" fill="#ff9f40"/><path d="m121 450h30v62h-30z" fill="#443d66"/></g></svg>