<svg id="Capa_1" enable-background="new 0 0 512 512" height="512" viewBox="0 0 512 512" width="512" xmlns="http://www.w3.org/2000/svg"><g><path d="m431.107 266.426c-3.281-3.003-10.107-9.243-10.107-11.426s6.826-8.423 10.107-11.426c8.877-8.1 19.893-18.178 19.893-33.574s-11.016-25.474-19.893-33.574c-3.281-3.003-10.107-9.243-10.107-11.426 0-90.981-74.033-165-165-165s-165 74.019-165 165c0 2.183-6.826 8.423-10.107 11.426-8.877 8.1-19.893 18.178-19.893 33.574s11.016 25.474 19.893 33.574c3.281 3.003 10.107 9.243 10.107 11.426s-6.826 8.423-10.107 11.426c-8.877 8.1-19.893 18.178-19.893 33.574 0 18.849 16.326 29.431 25.869 39.272h169.131 169.131c8.935-9.215 25.869-20.154 25.869-39.272 0-15.396-11.016-25.474-19.893-33.574z" fill="#663d3d"/><path d="m451 300c0-15.396-11.016-25.474-19.893-33.574-3.281-3.003-10.107-9.243-10.107-11.426s6.826-8.423 10.107-11.426c8.877-8.1 19.893-18.178 19.893-33.574s-11.016-25.474-19.893-33.574c-3.281-3.003-10.107-9.243-10.107-11.426 0-90.981-74.033-165-165-165v339.272h169.131c8.935-9.215 25.869-20.154 25.869-39.272z" fill="#4d2e2e"/><path d="m376 300h-53.101c-4.711 0-9.135-1.071-13.275-2.675l-53.624 29.672-53.557-29.687c-4.156 1.62-8.608 2.69-13.343 2.69h-53.1c-17.476 0-33.395 6.308-46.181 16.426l136.181 195.574h30 30l136.141-195.608c-12.781-10.099-28.684-16.392-46.141-16.392z" fill="#f3f5f9"/><path d="m422.141 316.392c-12.781-10.099-28.684-16.392-46.141-16.392h-53.101c-4.711 0-9.135-1.071-13.275-2.675l-53.624 29.672v185.003h30z" fill="#e1e6f0"/><g><path d="m89.819 316.426c-17.397 13.768-28.819 34.8-28.819 58.574v137h60l15-32 15 32h75v-47c0-78.089-59.854-141.55-136.181-148.574z" fill="#6cf"/><path d="m121 450h30v62h-30z" fill="#59abff"/></g><g><path d="m422.141 316.392c-77.412 7.095-136.141 72.215-136.141 148.608v47h75l15-32 15 32h60v-137c0-23.793-11.44-44.843-28.859-58.608z" fill="#59abff"/><path d="m361 450h30v62h-30z" fill="#4d87ff"/></g><path d="m342.7 120h-26.7c-24.6 0-46.199-11.7-60-30-13.801 18.3-35.4 30-60 30h-26.7c-12.9 68.099 17.4 124.799 56.7 143.099 0 15.667-9.803 28.852-23.557 34.211 21.088 15.961 39.337 36.028 53.557 59.672 14.183-23.593 32.476-43.667 53.624-59.658-13.786-5.344-23.624-18.535-23.624-34.225 41.1-19.199 68.699-77.699 56.7-143.099z" fill="#ffd9b3"/><path d="m309.624 297.325c-13.786-5.345-23.624-18.536-23.624-34.226 41.1-19.199 68.699-77.699 56.7-143.099h-26.7c-24.6 0-46.199-11.7-60-30v266.982c14.183-23.593 32.476-43.667 53.624-59.657z" fill="#fb9"/></g></svg>