<svg width="114" height="114" viewBox="0 0 114 114" fill="none" xmlns="http://www.w3.org/2000/svg">
<path d="M97.2451 80.6018H16.7549C16.2272 80.6018 15.7068 80.4766 15.2366 80.2366C5.90841 75.4758 0.805573 65.3371 2.53828 55.0083L6.75383 29.8813C6.84178 29.3576 7.05331 28.8622 7.37081 28.4367L15.7794 17.1672C15.8876 17.022 16.0076 16.886 16.1379 16.7604C22.763 10.3715 32.2656 6.70728 42.2085 6.70728H71.7922C81.7347 6.70728 91.237 10.3715 97.8625 16.76C97.9928 16.8856 98.1128 17.0218 98.221 17.167L106.63 28.4367C106.947 28.8625 107.159 29.3576 107.247 29.8813L111.462 55.0083C113.195 65.3371 108.092 75.4755 98.7641 80.2366C98.2932 80.4766 97.7728 80.6018 97.2451 80.6018Z" fill="#F96C46"/>
<path d="M107.246 29.8818C107.158 29.3581 106.947 28.8627 106.629 28.4372L98.2206 17.1675C98.1124 17.0223 97.9924 16.8863 97.8621 16.7605C91.2365 10.3718 81.7342 6.70776 71.7917 6.70776H56.9998V80.602H97.2451C97.7728 80.602 98.2932 80.4769 98.7634 80.2369C108.092 75.476 113.194 65.3374 111.462 55.0086L107.246 29.8818Z" fill="#FF405C"/>
<path d="M57 20.1226C55.1555 20.1226 53.6602 21.6179 53.6602 23.4624V50.2925C53.6602 52.137 55.1555 53.6323 57 53.6323C58.8445 53.6323 60.3398 52.137 60.3398 50.2925V23.4624C60.3398 21.6179 58.8445 20.1226 57 20.1226Z" fill="#FF8759"/>
<path d="M57 20.1226L56.9998 53.6323C58.8443 53.6323 60.3396 52.137 60.3396 50.2925V23.4624C60.3399 21.6179 58.8445 20.1226 57 20.1226Z" fill="#F96C46"/>
<path d="M57 26.8023C64.4012 26.8023 70.401 20.8024 70.401 13.4013C70.401 6.00008 64.4012 0.000244141 57 0.000244141C49.5988 0.000244141 43.599 6.00008 43.599 13.4013C43.599 20.8024 49.5988 26.8023 57 26.8023Z" fill="#FF405C"/>
<path d="M57 0L56.9998 26.8022C64.3893 26.8022 70.401 20.7905 70.401 13.4012C70.4012 6.01172 64.3895 0 57 0Z" fill="#D00050"/>
<path d="M14.8926 45.3582C11.0193 41.4847 8.8862 36.3351 8.8862 30.8582L8.8842 19.1545C8.88398 18.3026 9.25203 17.4921 9.89306 16.9315C10.5345 16.3706 11.3871 17.7413 12.2309 17.8551C16.799 18.4705 21.1009 19.775 25.0177 21.7322C26.0183 22.2323 26.6504 21.6275 26.6504 22.7462V30.2673C26.6504 32.1048 28.1453 33.5998 29.9829 33.5998H38.1613C39.2407 33.5998 37.8836 34.1889 38.4015 35.1361C40.7786 39.485 42.0878 44.1995 42.0878 48.4115C42.0878 50.042 41.4858 51.3639 41.4858 51.3639H29.3931C29.3913 51.3639 29.3906 51.3639 29.3888 51.3639C23.9137 51.3639 18.765 49.2309 14.8926 45.3582Z" fill="#F5FAFF"/>
<path d="M20.1237 29.7669V21.2592C20.1237 20.1016 20.723 19.0264 21.7079 18.4178C22.6929 17.8093 22.0458 19.6311 23.081 20.1488C30.6328 23.9268 36.9536 29.9652 40.8788 37.1519C41.4441 38.1866 43.2984 37.5661 42.6968 38.5803C42.0954 39.5942 41.0037 40.2161 39.8245 40.2161H30.5731C24.8112 40.2161 20.1237 35.5285 20.1237 29.7669Z" fill="#FF8759"/>
<path d="M13.503 46.8377C9.12156 42.4561 6.70863 36.6307 6.70863 30.4353L6.70641 17.1962C6.70618 16.2325 7.12233 15.3158 7.84774 14.6815C8.57338 14.0471 9.5377 15.5975 10.4922 15.7264C15.6594 16.4227 20.5258 17.8982 24.9564 20.1123C26.0884 20.6781 26.8034 19.9938 26.8034 21.2592V29.7669C26.8034 31.8454 28.4944 33.5365 30.5732 33.5365H39.8245C41.0456 33.5365 39.5104 34.2029 40.0962 35.2745C42.785 40.1939 44.2661 45.527 44.2661 50.2914C44.2661 52.1358 43.5852 53.6312 43.5852 53.6312H29.9059C29.9038 53.6312 29.903 53.6312 29.9012 53.6312C23.7075 53.6312 17.8833 51.2185 13.503 46.8377ZM42.6327 37.3573L23.5688 19.2582C17.9839 21.1924 15.7324 20.2054 13.3868 19.6679L13.3883 30.4349C13.3883 34.8466 15.1066 38.9944 18.2264 42.1145C21.3456 45.2339 25.4915 46.9515 29.9021 46.9515H29.9054H41.5628C41.1814 44.757 40.2398 42.4661 42.6327 37.3573Z" fill="#3D4566"/>
<path d="M43.585 53.6323C45.4294 53.6323 46.9248 52.137 46.9248 50.2925C46.9248 34.8319 31.7784 13.415 3.33984 13.415C1.49536 13.415 0 14.9104 0 16.7549C0 18.5994 1.49536 20.0947 3.33984 20.0947C29.4198 20.0947 40.2451 39.7626 40.2451 50.2925C40.2451 52.137 41.7405 53.6323 43.585 53.6323Z" fill="#FF405C"/>
<path d="M84.6111 51.364C84.6094 51.364 84.6087 51.364 84.6069 51.364H72.5142C72.5142 51.364 71.9122 50.042 71.9122 48.4115C71.9122 44.1998 73.2214 39.485 75.5985 35.1361C76.1164 34.1889 74.7591 33.5998 75.8387 33.5998H84.0171C85.8547 33.5998 87.3496 32.1049 87.3496 30.2673V22.7462C87.3496 21.6276 87.9817 22.2323 88.9823 21.7322C92.8991 19.7748 97.201 18.4705 101.769 17.8551C102.613 17.7411 103.465 16.3706 104.107 16.9315C104.748 17.4922 105.116 18.3026 105.116 19.1545L105.114 30.8582C105.114 36.3351 102.981 41.4847 99.1074 45.3583C95.235 49.2309 90.0863 51.364 84.6111 51.364Z" fill="#E9F3FB"/>
<path d="M83.4268 40.2161H74.1755C72.9963 40.2161 71.9046 39.5945 71.3032 38.5803C70.7016 37.5661 72.5559 38.1866 73.1212 37.1519C77.0464 29.9655 83.3672 23.9268 90.919 20.1488C91.9541 19.6309 91.3071 17.8093 92.2921 18.4179C93.2769 19.0264 93.8763 20.1016 93.8763 21.2592V29.7669C93.8763 35.5285 89.1887 40.2161 83.4268 40.2161Z" fill="#F96C46"/>
<path d="M84.0991 53.6312C84.0971 53.6312 84.0962 53.6312 84.0944 53.6312H70.415C70.415 53.6312 69.7342 52.1358 69.7342 50.2914C69.7342 45.527 71.2151 40.1939 73.9041 35.2745C74.4899 34.2031 72.9547 33.5365 74.1757 33.5365H83.4271C85.5058 33.5365 87.1969 31.8454 87.1969 29.7669V21.2592C87.1969 19.9938 87.9118 20.6778 89.0438 20.1123C93.4742 17.8982 98.3408 16.4227 103.508 15.7264C104.463 15.5975 105.427 14.0471 106.152 14.6815C106.878 15.3158 107.294 16.2325 107.294 17.1962L107.292 30.4353C107.292 36.6307 104.879 42.4559 100.497 46.8377C96.1167 51.2185 90.2925 53.6312 84.0991 53.6312ZM72.4374 46.9515H84.0948H84.0982C88.5088 46.9515 92.6546 45.2339 95.7738 42.1145C98.8937 38.9944 100.612 34.8466 100.612 30.4349L100.613 19.6679C98.268 20.2054 96.0165 21.1924 91.2882 19.5285L72.2244 37.6276C73.7602 42.4661 72.8186 44.757 72.4374 46.9515Z" fill="#2E2E4D"/>
<path d="M70.415 53.6323C68.5706 53.6323 67.0752 52.137 67.0752 50.2925C67.0752 34.8319 82.2216 13.415 110.66 13.415C112.505 13.415 114 14.9104 114 16.7549C114 18.5994 112.505 20.0947 110.66 20.0947C84.5802 20.0947 73.7549 39.7626 73.7549 50.2925C73.7549 52.137 72.2595 53.6323 70.415 53.6323Z" fill="#D00050"/>
<path d="M50.2925 54.9683C52.8748 54.9683 54.9683 52.8748 54.9683 50.2925C54.9683 47.7101 52.8748 45.6167 50.2925 45.6167C47.7101 45.6167 45.6167 47.7101 45.6167 50.2925C45.6167 52.8748 47.7101 54.9683 50.2925 54.9683Z" fill="#3D4566"/>
<path d="M63.8745 54.9683C66.4569 54.9683 68.5503 52.8748 68.5503 50.2925C68.5503 47.7101 66.4569 45.6167 63.8745 45.6167C61.2921 45.6167 59.1987 47.7101 59.1987 50.2925C59.1987 52.8748 61.2921 54.9683 63.8745 54.9683Z" fill="#2E2E4D"/>
<path d="M63.7075 40.2451C61.1318 40.2451 58.7801 41.2204 57 42.8197C55.2199 41.2204 52.8682 40.2451 50.2925 40.2451C44.7523 40.2451 40.2451 44.7523 40.2451 50.2925C40.2451 55.8326 44.7523 60.3398 50.2925 60.3398C52.8682 60.3398 55.2199 59.3646 57 57.7653C58.7801 59.3646 61.1318 60.3398 63.7075 60.3398C69.2477 60.3398 73.7549 55.8326 73.7549 50.2925C73.7549 44.7523 69.2477 40.2451 63.7075 40.2451ZM50.2925 53.6602C48.4355 53.6602 46.9248 52.1494 46.9248 50.2925C46.9248 48.4355 48.4355 46.9248 50.2925 46.9248C52.1494 46.9248 53.6602 48.4355 53.6602 50.2925C53.6602 52.1494 52.1494 53.6602 50.2925 53.6602ZM63.7075 53.6602C61.8506 53.6602 60.3398 52.1494 60.3398 50.2925C60.3398 48.4355 61.8506 46.9248 63.7075 46.9248C65.5645 46.9248 67.0752 48.4355 67.0752 50.2925C67.0752 52.1494 65.5645 53.6602 63.7075 53.6602Z" fill="#FFC178"/>
<path d="M63.7075 40.2451C61.1318 40.2451 58.7801 41.2204 57 42.8197C57 42.8197 57 42.8197 56.9998 42.8195V57.7653C58.7801 59.3646 61.1318 60.3398 63.7075 60.3398C69.2477 60.3398 73.7549 55.8326 73.7549 50.2925C73.7549 44.7523 69.2477 40.2451 63.7075 40.2451ZM63.7075 53.6602C61.8506 53.6602 60.3399 52.1494 60.3399 50.2925C60.3399 48.4355 61.8506 46.9248 63.7075 46.9248C65.5645 46.9248 67.0752 48.4355 67.0752 50.2925C67.0752 52.1494 65.5645 53.6602 63.7075 53.6602Z" fill="#FF936B"/>
<path d="M72.4699 114H41.5301C29.7259 114 20.1226 104.397 20.1226 92.5925V77.1226C20.1226 75.2781 21.6179 73.7827 23.4624 73.7827H90.5376C92.3821 73.7827 93.8774 75.2781 93.8774 77.1226V92.5925C93.8774 104.397 84.2741 114 72.4699 114Z" fill="#F96C46"/>
<path d="M90.5376 73.7827H56.9998V114H72.4699C84.2741 114 93.8775 104.397 93.8775 92.5925V77.1226C93.8775 75.2781 92.3821 73.7827 90.5376 73.7827Z" fill="#FF405C"/>
<path d="M71.802 100.585H42.198C37.4227 100.585 33.5376 96.6998 33.5376 91.9245V77.1226C33.5376 75.2781 35.033 73.7827 36.8774 73.7827H77.1226C78.967 73.7827 80.4624 75.2781 80.4624 77.1226V91.9245C80.4624 96.6998 76.5775 100.585 71.802 100.585Z" fill="#3D4566"/>
<path d="M77.1226 73.7827H56.9998V100.585H71.802C76.5773 100.585 80.4624 96.6998 80.4624 91.9245V77.1226C80.4624 75.2781 78.9671 73.7827 77.1226 73.7827Z" fill="#2E2E4D"/>
<path d="M71.8191 76.4204C71.8191 80.5126 75.1365 83.83 79.2287 83.83C83.3209 83.83 86.6382 80.5126 86.6382 76.4204L88.3945 72.1405L86.638 69.0109H71.8189L69.3944 72.2147L71.8191 76.4204Z" fill="#E9F3FB"/>
<path d="M94.2557 69.0138C98.2916 69.1245 101.457 72.5373 101.457 76.5745C101.457 81.3458 100.346 86.0517 98.2121 90.3193L97.0345 92.6744C95.8036 95.1361 92.2908 95.1361 91.0599 92.6744L89.8823 90.3193C87.7486 86.0517 86.6375 81.3458 86.6375 76.5745V69.0138C86.638 69.0138 94.1204 69.0102 94.2557 69.0138Z" fill="#E9F3FB"/>
<path d="M19.7443 69.0138C15.7084 69.1245 12.5431 72.5373 12.5431 76.5745C12.5431 81.3458 13.654 86.0517 15.7879 90.3193L16.9655 92.6744C18.1964 95.1361 21.7092 95.1361 22.9401 92.6744L24.1177 90.3193C26.2514 86.0517 27.3625 81.3458 27.3625 76.5745L29.7622 72.8827L27.3625 69.0138C27.362 69.0138 19.8796 69.0102 19.7443 69.0138Z" fill="#F5FAFF"/>
<path d="M42.1809 76.4204C42.1809 80.5126 45.4983 83.83 49.5905 83.83C53.6827 83.83 57 80.5126 57 76.4204L59.0781 72.2888L57 69.0109H42.1809L40.1523 72.5858L42.1809 76.4204Z" fill="#F5FAFF"/>
<path d="M27.362 76.4204C27.362 80.5126 30.6794 83.83 34.7716 83.83C38.8638 83.83 42.1811 80.5126 42.1811 76.4204V69.0109H27.362V76.4204Z" fill="#E9F3FB"/>
<path d="M57 76.4204C57 80.5126 60.3174 83.83 64.4096 83.83C68.5018 83.83 71.8191 80.5126 71.8191 76.4204V69.0109H57V76.4204Z" fill="#E9F3FB"/>
</svg>
