<svg width="385" height="430" viewBox="0 0 385 430" fill="none" xmlns="http://www.w3.org/2000/svg">
<path opacity="0.4" d="M350.871 208.971C369.72 208.971 385 200.119 385 189.2C385 178.28 369.72 169.428 350.871 169.428C332.023 169.428 316.743 178.28 316.743 189.2C316.743 200.119 332.023 208.971 350.871 208.971Z" fill="#D6D8E5"/>
<path d="M356.264 12.04C357.592 9.88996 367.769 8.47956 371.112 17.1226C372.381 20.4078 372.192 28.7842 373.255 34.056C374.318 39.3278 376.813 42.3034 377.713 46.5776C378.613 50.8518 377.147 58.0328 366.92 59.34C356.692 60.6472 348.762 56.9922 346.345 53.7156C343.927 50.439 343.867 43.4558 346.388 39.7062C348.908 35.9566 350.82 32.9122 350.76 28.036L356.264 12.04Z" fill="#3A2C6D"/>
<path d="M344.073 48.2545C344.073 48.2545 341.664 65.3169 346.216 77.4945C350.768 89.6721 349.517 74.3641 349.517 74.3641L348.419 70.7435C348.419 70.7435 347.502 56.7599 347.879 53.3199C348.257 49.8799 348.171 46.9559 348.419 46.6807C348.668 46.4055 347.511 45.8637 347.031 45.8207C346.551 45.7777 344.073 48.2545 344.073 48.2545Z" fill="#FFCEA9"/>
<path d="M362.985 10.5694C362.985 10.5694 355.321 8.35918 350.674 12.513C349.141 13.9282 348.025 15.7385 347.448 17.7463C346.87 19.7542 346.854 21.8826 347.399 23.8994C348.017 26.3246 349.26 29.6356 351.18 29.8162C353.1 29.9968 362.985 10.5694 362.985 10.5694Z" fill="#3A2C6D"/>
<path d="M365.908 31.5275C365.908 31.5275 365.411 40.1275 365.565 40.7209C365.72 41.3143 368.917 41.9593 369.809 42.7075C370.7 43.4557 365.171 52.1675 362.35 53.4317C359.53 54.6959 350.811 51.4279 350.211 47.0763C349.645 43.0687 352.706 39.9555 353.88 38.8719C354.681 38.7916 355.486 38.7715 356.289 38.8117L356.547 34.6579C360.361 33.4367 365.908 31.5275 365.908 31.5275Z" fill="#FFCEA9"/>
<path d="M367.083 41.5553C369.483 41.9251 372.226 43.2151 372.595 44.5309C373.041 46.0703 373.984 53.3115 371.909 58.8241C369.835 64.3367 368.437 67.8455 367.237 70.2191C367.237 70.2191 356.864 74.6911 348.497 69.4795C348.497 69.4795 347.914 63.5713 347.879 60.4065C340.164 53.6469 346.756 45.3135 353.306 38.8377C354.09 38.769 354.879 38.769 355.664 38.8377C355.664 38.8377 349.825 45.7177 353.88 49.6995C362.573 47.0335 364.296 43.1205 367.083 41.5553Z" fill="#C4CAFA"/>
<path d="M349.963 20.9151C350.82 15.4111 354.781 11.2573 360.439 11.5927C361.872 11.6728 363.275 12.0358 364.568 12.6608C365.861 13.2859 367.019 14.1607 367.975 15.2351C368.93 16.3096 369.665 17.5626 370.137 18.9225C370.609 20.2823 370.81 21.7222 370.726 23.1597C370.626 24.8311 370.141 26.4565 369.31 27.9083C368.478 29.3602 367.323 30.599 365.934 31.5275C365.739 32.36 365.452 33.1678 365.077 33.9355C363.062 36.2747 357.747 37.7625 355.989 37.7797C354.472 37.7797 353.16 36.3779 351.703 34.0129C348.737 29.0937 349.491 23.6327 349.963 20.9151Z" fill="#FFCEA9"/>
<path d="M362.196 11.6873C366.165 12.4699 369.423 13.5879 370.503 17.5009C371.24 20.1927 372.218 25.3183 371.283 27.4855L370.718 29.0421L365.908 31.5275C365.908 31.5275 363.671 29.6527 364.365 24.1573C364.338 23.4136 364.103 22.6925 363.688 22.0761C363.39 21.5574 363.167 20.9984 363.028 20.4163C362.457 18.9334 361.344 17.7246 359.916 17.0365C356.332 15.0241 351.094 16.7613 350.366 17.4923C351.373 15.3089 353.099 13.5399 355.253 12.4828C357.408 11.4256 359.859 11.1447 362.196 11.6873V11.6873Z" fill="#3A2C6D"/>
<path d="M372.921 81.5711C373.778 75.9983 375.493 72.3777 374.704 69.3161C372.977 63.1114 370.717 57.0687 367.949 51.2561C366.234 47.8161 366.723 45.3737 368.54 44.0063C370.589 42.4669 372.544 43.1463 374.387 46.9819C376.701 51.8151 379.316 56.7773 380.585 63.9755C381.211 67.4671 381.537 70.8555 380.413 78.0279C379.625 83.0417 378.039 85.8539 376.127 90.5581C375.604 91.8395 372.115 86.3011 372.921 81.5711Z" fill="#FFCEA9"/>
<path d="M369.406 185.571C367.4 187.213 364.262 186.078 364.125 186.233C362.076 188.288 359.033 190.077 356.761 191.866C355.509 192.855 353.563 194.179 353.915 196.071C354.549 199.468 359.967 198.428 362.008 197.387C364.048 196.347 365.72 194.627 367.657 193.423C369.029 192.563 370.392 192.115 370.606 190.37C370.735 189.312 369.757 185.536 369.406 185.571Z" fill="#38226D"/>
<path d="M370.58 189.664C370.315 191.384 368.977 191.797 367.606 192.649C365.642 193.878 363.911 195.641 361.87 196.682C359.976 197.637 355.269 198.591 353.94 196.166C354.661 199.443 359.984 198.411 362.008 197.387C364.031 196.364 365.72 194.627 367.657 193.423C369.029 192.563 370.392 192.115 370.606 190.37C370.622 190.134 370.613 189.898 370.58 189.664V189.664Z" fill="#9C73FF"/>
<path d="M355.312 182.75C353.477 184.255 350.7 183.412 350.563 183.55C348.694 185.433 345.916 187.05 343.842 188.71C342.693 189.621 340.901 190.825 341.227 192.571C341.81 195.676 346.765 194.721 348.642 193.767C350.52 192.812 352.071 191.238 353.786 190.137C355.046 189.355 356.289 188.942 356.487 187.342C356.632 186.353 355.638 182.716 355.312 182.75Z" fill="#38226D"/>
<path d="M356.495 186.672C356.247 188.202 355.021 188.624 353.769 189.406C351.969 190.533 350.34 192.15 348.514 193.096C346.799 193.956 342.513 194.816 341.253 192.631C341.913 195.624 346.791 194.687 348.642 193.741C350.494 192.795 352.072 191.212 353.786 190.112C355.046 189.329 356.289 188.916 356.487 187.317C356.514 187.103 356.517 186.886 356.495 186.672V186.672Z" fill="#9C73FF"/>
<path d="M344.485 89.0357C345.342 82.0955 347.914 71.9991 347.914 71.9991C350.336 73.1367 352.957 73.7882 355.629 73.9169C360.096 74.1491 367.246 72.7817 367.246 72.7817C368.488 74.9683 369.851 77.0843 371.326 79.1199C373.324 81.8977 377.199 87.9951 376.264 98.6334C375.647 105.591 371.763 135.123 371.763 135.123C373.277 140.111 374.082 145.287 374.155 150.5C374.112 154.8 372.989 162.093 371.721 168.844L369.406 185.605C369.406 185.605 366.32 187.841 364.125 186.267L364.399 169.859C364.134 165.842 363.731 159.917 363.482 156.099C363.062 149.941 361.965 140.154 361.647 137.712C361.33 135.269 360.55 131.004 360.173 126.214C359.796 121.423 358.004 97.1197 358.004 97.1197L357.755 101.678C357.755 101.678 357.524 109.065 356.461 118.19C355.398 127.314 355.029 131.356 355.029 131.356C355.029 131.356 356.872 134.745 357.104 137.247C357.292 139.217 359.539 154.809 358.193 162.738L355.441 182.905C354.753 183.379 353.964 183.683 353.137 183.792C352.31 183.901 351.469 183.812 350.683 183.533L349.062 163.211C347.974 155.471 345.633 139.079 345.316 136.946C344.853 134.143 344.459 132.758 343.944 123.943C343.43 115.128 343.601 95.9845 344.485 89.0357Z" fill="#FFCEA9"/>
<path d="M367.237 70.219L373.238 82.259C373.238 82.259 382.334 95.6234 372.912 129.963L374.635 140.533C374.635 140.533 356.787 152.022 344.845 140.533C344.845 140.533 340.704 108.799 342.907 94.1614C344.13 85.7442 345.99 77.4327 348.471 69.2988C348.471 69.2988 351.394 72.541 366.474 70.3996" fill="#737DBA"/>
<path d="M377.936 53.7156C377.936 53.7156 373.795 57.8522 368.883 57.3362L366.525 49.2866C366.525 49.2866 364.991 45.0726 368.574 43.2666C372.158 41.4606 375.878 45.4682 377.936 53.7156Z" fill="#EDEDED"/>
<path d="M353.306 38.8375C353.306 38.8375 348.565 37.3927 343.533 47.9191L345.41 49.0629C345.41 49.0629 350.365 41.5465 353.306 38.8375Z" fill="#EDEDED"/>
<path opacity="0.4" d="M34.1287 289.381C52.9774 289.381 68.2574 280.529 68.2574 269.61C68.2574 258.691 52.9774 249.839 34.1287 249.839C15.2799 249.839 0 258.691 0 269.61C0 280.529 15.2799 289.381 34.1287 289.381Z" fill="#D6D8E5"/>
<path d="M16.6228 263.538C19.0661 265.534 22.6667 263.71 22.8468 263.891C25.7167 266.562 28.7272 269.077 31.8654 271.425C33.3828 272.629 35.7575 274.228 35.2946 276.542C34.523 280.67 27.9391 279.397 25.4529 278.133C22.9668 276.869 20.935 274.779 18.5946 273.317C16.88 272.267 15.2597 271.726 15.0026 269.601C14.8654 268.32 16.1856 263.487 16.6228 263.538Z" fill="#38226D"/>
<path d="M15.0625 268.741C15.3797 270.78 17.0086 271.321 18.6803 272.379C21.0636 273.867 23.1725 276.017 25.6586 277.281C27.9562 278.442 33.6829 279.603 35.2946 276.653C34.4373 280.635 27.9476 279.388 25.4872 278.133C23.0268 276.877 20.9693 274.779 18.6289 273.317C16.9143 272.267 15.294 271.726 15.0368 269.601C15.0135 269.315 15.0221 269.026 15.0625 268.741Z" fill="#9C73FF"/>
<path d="M37.8236 255.635C40.2583 257.63 44.5361 255.446 44.6819 255.635C47.2266 258.216 49.9142 260.65 52.7318 262.928C54.2578 264.132 56.6325 265.731 56.161 268.045C55.3894 272.173 48.8054 270.9 46.3193 269.636C43.8332 268.372 41.8014 266.282 39.461 264.82C37.7464 263.771 36.1347 263.229 35.8775 261.105C35.7746 259.823 37.3863 255.583 37.8236 255.635Z" fill="#38226D"/>
<path d="M36.0061 260.58C36.3319 262.618 37.9607 263.16 39.6239 264.218C42.0157 265.706 44.1246 267.856 46.6022 269.12C48.8997 270.281 54.635 271.442 56.2467 268.492C55.3894 272.474 48.8912 271.227 46.4308 269.971C43.9703 268.716 41.9214 266.617 39.5724 265.155C37.9007 264.106 36.2462 263.564 35.989 261.44C35.9621 261.154 35.9678 260.865 36.0061 260.58V260.58Z" fill="#9C73FF"/>
<path d="M16.4771 173.083C16.5971 176.79 17.7459 192.863 18.2602 201.403C18.7746 209.943 18.8946 220.323 18.8946 220.323C18.8946 220.323 17.4287 226.532 16.4771 233.825C15.5255 241.118 16.4771 264.14 16.4771 264.14C17.4108 264.741 18.4968 265.06 19.6062 265.06C20.7155 265.06 21.8015 264.741 22.7353 264.14C22.7353 264.14 26.6445 245.719 28.4534 237.42C30.2623 229.121 30.5795 224.331 31.5225 219.188C32.6541 212.962 35.106 183.928 35.106 183.928L36.0833 183.988L38.6551 216.78C37.8514 219.196 37.2998 221.689 37.0091 224.219C36.2976 229.56 37.755 256.435 37.755 256.435C38.7988 257.017 39.9823 257.299 41.1755 257.25C42.3688 257.202 43.5256 256.824 44.519 256.159C44.519 256.159 51.0515 220.564 51.0515 215.146C51.0515 211.568 50.4429 164.329 50.4429 164.329L16.4771 173.083Z" fill="#63709F"/>
<path d="M25.3329 101.48C25.3329 101.48 25.753 109.555 25.5729 110.269C25.3929 110.983 21.8695 113.357 20.8493 114.208C19.8291 115.059 26.4217 121.578 29.6193 123.049C32.817 124.519 42.9845 120.641 43.1645 115.636C43.3445 110.63 41.4499 106.425 39.8639 106.176C38.278 105.926 25.3329 101.48 25.3329 101.48Z" fill="#FFCEA9"/>
<path d="M47.3909 116.461C47.8624 112.901 45.522 109.512 47.7939 106.674C55.7409 114.492 54.7293 135.183 56.5382 148.419C62.4364 154.611 74.3012 160.708 77.6447 162.179C78.2533 162.454 78.7763 162.746 78.6563 163.409C78.1762 165.989 77.4303 166.969 75.8958 169.429C68.043 166.032 62.3849 164.079 52.5775 154.731C51.6472 153.724 50.8147 152.629 50.0914 151.463C47.288 143.104 46.5851 122.61 47.3909 116.461Z" fill="#FFCEA9"/>
<path d="M24.4327 111.662C24.4327 111.662 30.2794 120.4 38.4323 121.26C41.0041 118.68 41.2356 109.667 37.6778 106.778C37.6778 106.778 40.9527 104.129 43.1902 104.645C45.593 106.106 47.3822 108.396 48.2225 111.086C50.2967 117.096 51.2697 123.433 51.0944 129.791C50.9572 138.391 51.0944 164.552 51.0944 164.552C51.0944 164.552 49.9542 170.091 42.5815 174.21C35.2088 178.33 29.7222 178.734 24.7242 177.564C20.5921 176.601 17.1801 175.139 15.7655 172.138C16.1342 166.118 18.8089 150.448 17.8059 142.898C16.8029 135.347 15.234 129.697 14.8054 123.591C14.3767 117.485 15.6112 117.571 18.6632 115.429C20.4947 114.038 22.4228 112.779 24.4327 111.662V111.662Z" fill="#C9E1FC"/>
<path d="M43.5588 89.44C42.5987 83.1706 38.0979 78.4148 31.6511 78.776C28.3579 78.9602 25.2724 80.4489 23.0732 82.9148C20.8739 85.3806 19.7409 88.6217 19.9234 91.9254C20.0287 93.8288 20.572 95.6819 21.5104 97.3395C22.4489 98.9971 23.7572 100.414 25.3328 101.48C25.5585 102.431 25.8951 103.352 26.3359 104.223C28.6077 106.898 35.5089 108.523 37.4806 108.265C40.0525 107.904 41.407 106.838 42.6244 104.051C44.759 99.1064 44.0903 92.5274 43.5588 89.44Z" fill="#FFCEA9"/>
<path d="M25.3329 101.48L25.9244 96.0104C25.9244 96.0104 21.4322 84.4176 32.0026 86.645C38.9466 88.107 40.6955 88.7434 42.813 84.065C44.9305 79.3866 37.4635 75.1812 28.6077 76.325C25.5573 76.6476 22.7388 78.1071 20.7099 80.4148C18.681 82.7224 17.5895 85.7101 17.6516 88.7864C17.883 92.2522 18.8003 99.2182 25.3329 101.48Z" fill="#3A2C6D"/>
<path d="M13.005 119.944C16.057 119.084 13.7337 119.798 16.057 119.084C24.0041 126.91 23.0182 140.309 24.8185 153.553C29.2078 160.829 45.4963 170.693 45.4963 170.693C45.702 172.103 45.2048 172.516 43.4474 175.363C35.6032 171.966 29.0278 169.033 19.2204 159.693C18.8346 159.324 18.2688 159.229 18.1059 158.722C15.3026 150.268 12.1906 126.102 13.005 119.944Z" fill="#FFCEA9"/>
<path d="M85.4803 136.258L73.6411 176.868L47.6653 187.282L57.1383 147.722L85.4803 136.258Z" fill="#F4F4F4"/>
<path d="M41.3985 170.968C41.7843 169.583 42.7873 169.927 43.9104 170.271C45.1283 170.766 46.4662 170.883 47.751 170.607C48.8226 170.271 49.5942 169.351 50.5029 168.741C51.0226 168.43 51.6129 168.258 52.2175 168.242C52.1661 168.594 51.626 170.658 51.626 170.658C51.626 170.658 57.3184 170.718 57.9013 170.598C58.0943 170.572 58.2908 170.605 58.4645 170.693C58.6383 170.782 58.7812 170.921 58.8742 171.093C58.9672 171.264 59.006 171.46 58.9853 171.655C58.9647 171.849 58.8856 172.032 58.7586 172.181L59.1444 172.12C60.3103 171.862 60.8075 173.651 59.633 173.918C59.3244 173.986 59.0072 174.021 58.6815 174.064C59.4444 174.356 59.633 175.62 58.6815 175.784L58.39 175.836C58.2561 175.886 58.1126 175.907 57.9699 175.896H57.7899C57.8169 176.032 57.8159 176.173 57.7869 176.309C57.7579 176.445 57.7016 176.574 57.6214 176.687C57.5411 176.801 57.4387 176.896 57.3202 176.969C57.2018 177.041 57.0699 177.089 56.9326 177.108C54.155 177.478 50.0743 178.588 47.5538 176.291C45.8097 176.119 44.1062 175.657 42.513 174.924C40.9784 174.193 40.9356 172.628 41.3985 170.968Z" fill="#FFCEA9"/>
<path d="M69.8176 167.648H70.2034C70.0496 167.527 69.9363 167.362 69.8784 167.175C69.8206 166.988 69.8211 166.788 69.8798 166.601C69.9384 166.414 70.0526 166.249 70.2069 166.129C70.3612 166.009 70.5484 165.939 70.7435 165.928C71.3436 165.928 77.1989 164.698 77.1989 164.698L77.9019 162.282C77.9019 162.144 78.922 162.763 78.9563 162.789C79.4521 163.115 79.8683 163.548 80.174 164.058C80.4797 164.567 80.6672 165.139 80.7223 165.731C80.7507 166.562 80.6138 167.391 80.3194 168.17C80.025 168.948 79.5791 169.659 79.0078 170.263C77.9554 171.328 76.5332 171.945 75.0385 171.983C74.327 172.026 73.6411 172.06 73.0325 172.112C72.8978 172.112 72.7644 172.085 72.6401 172.033C72.5157 171.981 72.4029 171.905 72.308 171.809C72.2132 171.713 72.1382 171.599 72.0875 171.474C72.0367 171.349 72.0112 171.215 72.0123 171.08H71.8323C71.6941 171.112 71.5503 171.112 71.4122 171.08H71.1121C70.1177 171.08 70.0405 169.841 70.7178 169.36C70.4006 169.36 70.0748 169.42 69.7576 169.42C68.5145 169.497 68.5831 167.64 69.8176 167.648Z" fill="#FFCEA9"/>
<path d="M50.7086 121.759C50.7086 121.759 53.7091 121.604 54.9522 119.85C54.7207 116.848 50.8886 105.453 43.1902 104.602C45.2887 106.076 46.9529 108.09 48.0082 110.433C49.4055 113.864 50.7086 121.759 50.7086 121.759Z" fill="#C9E1FC"/>
<path d="M11.6162 136.817C11.6162 136.817 19.2804 139.466 24.6813 135.011C25.2729 133.988 21.5522 120.907 21.5522 120.907C21.5522 120.907 18.3374 114.217 13.3051 116.874C8.27282 119.531 11.6162 136.817 11.6162 136.817Z" fill="#CAE2FB"/>
<path opacity="0.4" d="M89.7582 347.62C92.2013 347.62 94.1818 346.473 94.1818 345.058C94.1818 343.642 92.2013 342.495 89.7582 342.495C87.3151 342.495 85.3346 343.642 85.3346 345.058C85.3346 346.473 87.3151 347.62 89.7582 347.62Z" fill="#D6D8E5"/>
<path opacity="0.4" d="M172.607 395.015C175.05 395.015 177.03 393.868 177.03 392.452C177.03 391.037 175.05 389.89 172.607 389.89C170.164 389.89 168.183 391.037 168.183 392.452C168.183 393.868 170.164 395.015 172.607 395.015Z" fill="#D6D8E5"/>
<path opacity="0.4" d="M316.211 307.158C318.654 307.158 320.635 306.01 320.635 304.595C320.635 303.179 318.654 302.032 316.211 302.032C313.768 302.032 311.788 303.179 311.788 304.595C311.788 306.01 313.768 307.158 316.211 307.158Z" fill="#D6D8E5"/>
<path d="M86.8777 258.267V344.542C86.8973 344.808 86.987 345.065 87.1376 345.286C87.2882 345.506 87.4943 345.683 87.735 345.797C88.4082 346.141 89.1529 346.32 89.9082 346.32C90.6636 346.32 91.4082 346.141 92.0814 345.797C92.3216 345.682 92.5272 345.505 92.6777 345.285C92.8282 345.064 92.9182 344.808 92.9387 344.542V344.542V258.267H86.8777Z" fill="#C1C4D3"/>
<path d="M169.923 291.841V391.971C169.938 392.23 170.017 392.482 170.153 392.702C170.289 392.923 170.479 393.106 170.703 393.235C171.28 393.577 171.937 393.758 172.607 393.758C173.276 393.758 173.933 393.577 174.51 393.235C174.736 393.107 174.926 392.924 175.064 392.703C175.202 392.482 175.282 392.231 175.298 391.971V391.971V291.841H169.923Z" fill="#C1C4D3"/>
<path d="M313.519 222.293V303.941C313.535 304.2 313.615 304.451 313.753 304.671C313.891 304.89 314.082 305.071 314.308 305.197C314.883 305.539 315.539 305.719 316.207 305.719C316.875 305.719 317.531 305.539 318.106 305.197C318.332 305.071 318.523 304.89 318.661 304.671C318.799 304.451 318.879 304.2 318.894 303.941V303.941V222.293H313.519Z" fill="#C1C4D3"/>
<path d="M172.607 317.538L81.511 264.777V258.611L172.607 311.38V317.538Z" fill="#D5D7E2"/>
<path d="M326.199 222.602L172.589 311.569L81.4854 258.808L235.094 169.841L326.199 222.602Z" fill="#E9EAF4"/>
<path d="M326.216 228.571L172.607 317.538V311.38L326.216 222.413V228.571Z" fill="#D5D7E2"/>
<path d="M282.374 204.852L257.881 225.432L235.506 216.496L259.999 195.917L282.374 204.852Z" fill="#F4F4F4"/>
<path d="M276.69 205.807L246.179 223.48L226.967 212.351L257.478 194.678L276.69 205.807Z" fill="#F4F4F4"/>
<path d="M248.22 218.707L246.351 219.79L233.68 212.454L235.549 211.371L248.22 218.707Z" fill="#D6D8E5"/>
<path d="M252.42 216.273L250.551 217.356L237.889 210.021L239.758 208.937L252.42 216.273Z" fill="#D6D8E5"/>
<path d="M256.467 213.933L254.598 215.008L241.936 207.681L243.804 206.598L256.467 213.933Z" fill="#D6D8E5"/>
<path d="M265.965 208.43L264.097 209.513L256.724 205.248L258.593 204.164L265.965 208.43Z" fill="#D6D8E5"/>
<path d="M270.012 206.09L268.143 207.165L260.77 202.9L262.639 201.816L270.012 206.09Z" fill="#D6D8E5"/>
<path d="M249.634 222.138C250.14 221.923 276.69 205.798 276.69 205.798L248.957 221.88L249.634 222.138Z" fill="#D6D6D6"/>
<path opacity="0.2" d="M253.972 247.035C257.646 247.035 260.624 245.31 260.624 243.182C260.624 241.054 257.646 239.329 253.972 239.329C250.298 239.329 247.319 241.054 247.319 243.182C247.319 245.31 250.298 247.035 253.972 247.035Z" fill="black"/>
<path d="M261.276 242.632V232.355L247.997 232.69V242.15C247.748 243.285 248.374 244.481 249.891 245.358C251.352 246.104 252.967 246.493 254.606 246.493C256.245 246.493 257.861 246.104 259.321 245.358C259.86 245.12 260.325 244.741 260.669 244.262C261.012 243.783 261.222 243.22 261.276 242.632V242.632Z" fill="#A6CE28"/>
<path d="M254.623 236.208C258.298 236.208 261.276 234.483 261.276 232.355C261.276 230.227 258.298 228.502 254.623 228.502C250.949 228.502 247.971 230.227 247.971 232.355C247.971 234.483 250.949 236.208 254.623 236.208Z" fill="#BCD64D"/>
<path d="M260.222 232.355C260.222 232.983 259.707 233.645 258.798 234.161C257.644 234.779 256.36 235.115 255.052 235.141H254.615C253.162 235.172 251.726 234.831 250.44 234.152C249.54 233.636 249.017 232.974 249.017 232.346C249.017 231.718 249.54 231.065 250.44 230.54C251.726 229.861 253.162 229.521 254.615 229.551H255.044C256.352 229.577 257.635 229.913 258.79 230.532C259.707 231.073 260.222 231.727 260.222 232.355Z" fill="#28221C"/>
<path opacity="0.07" d="M260.222 232.355C260.222 232.983 259.707 233.645 258.798 234.161C257.651 234.801 256.36 235.137 255.048 235.137C253.735 235.137 252.444 234.801 251.297 234.161C250.397 233.645 249.874 232.983 249.874 232.355C249.874 231.727 250.397 231.073 251.297 230.549C252.444 229.909 253.735 229.573 255.048 229.573C256.36 229.573 257.651 229.909 258.798 230.549C259.707 231.073 260.222 231.727 260.222 232.355Z" fill="white"/>
<path d="M260.307 237.111L258.893 236.294L258.207 236.698L258.893 237.093V237.351L260.213 238.117V238.366C260.531 238.822 260.817 239.299 261.07 239.794L261.122 239.751V243.062C261.122 243.922 260.616 243.638 260.393 243.509L258.91 242.649L258.224 243.053L258.91 243.449V243.707L260.393 244.567C260.547 244.657 260.711 244.73 260.882 244.782L260.787 245.203L261.559 244.765C261.723 244.625 261.849 244.446 261.927 244.245C262.005 244.044 262.032 243.826 262.005 243.612V240.172C261.972 239.566 261.802 238.976 261.508 238.445C261.214 237.915 260.803 237.458 260.307 237.111Z" fill="#8DA01F"/>
<path d="M259.69 244.971L258.207 244.111V243.053L259.69 243.913C259.904 244.034 260.419 244.326 260.419 243.457V240.017C260.393 239.725 260.303 239.442 260.155 239.189C260.007 238.936 259.804 238.72 259.561 238.556L258.216 237.773V236.715L259.63 237.532C260.124 237.873 260.534 238.322 260.831 238.845C261.128 239.367 261.304 239.951 261.345 240.551V243.991C261.327 244.919 260.899 245.668 259.69 244.971Z" fill="#99B524"/>
<path opacity="0.2" d="M122.729 260.898C126.404 260.898 129.382 259.173 129.382 257.045C129.382 254.918 126.404 253.193 122.729 253.193C119.055 253.193 116.077 254.918 116.077 257.045C116.077 259.173 119.055 260.898 122.729 260.898Z" fill="black"/>
<path d="M130.034 256.495V246.218L116.754 246.553V256.013C116.506 257.157 117.14 258.353 118.649 259.221C120.109 259.967 121.725 260.356 123.364 260.356C125.003 260.356 126.619 259.967 128.079 259.221C128.618 258.984 129.084 258.605 129.428 258.126C129.771 257.646 129.981 257.083 130.034 256.495V256.495Z" fill="#F7B03E"/>
<path d="M123.381 250.071C127.055 250.071 130.034 248.346 130.034 246.218C130.034 244.09 127.055 242.365 123.381 242.365C119.707 242.365 116.729 244.09 116.729 246.218C116.729 248.346 119.707 250.071 123.381 250.071Z" fill="#FCC068"/>
<path d="M128.979 246.218C128.979 246.846 128.456 247.5 127.556 248.024C126.4 248.638 125.117 248.973 123.81 249.005H123.381C121.928 249.035 120.492 248.695 119.206 248.016C118.297 247.491 117.783 246.837 117.783 246.21C117.783 245.582 118.297 244.92 119.206 244.395C120.492 243.719 121.929 243.381 123.381 243.415H123.81C125.117 243.439 126.401 243.772 127.556 244.386C128.456 244.928 128.979 245.59 128.979 246.218Z" fill="#28221C"/>
<path opacity="0.07" d="M128.979 246.218C128.979 246.846 128.456 247.499 127.556 248.024C126.409 248.664 125.118 249 123.805 249C122.493 249 121.202 248.664 120.055 248.024C119.198 247.499 118.632 246.846 118.632 246.218C118.632 245.59 119.155 244.928 120.055 244.404C121.202 243.763 122.493 243.427 123.805 243.427C125.118 243.427 126.409 243.763 127.556 244.404C128.456 244.928 128.979 245.59 128.979 246.218Z" fill="white"/>
<path d="M129.056 250.974L127.65 250.157L126.956 250.552L127.65 250.957V251.215L128.971 251.98L128.928 252.229C129.248 252.684 129.534 253.161 129.785 253.657L129.828 253.614V256.925C129.828 257.785 129.322 257.501 129.108 257.372L127.625 256.512L126.93 256.908L127.625 257.312V257.57L129.108 258.43C129.259 258.52 129.42 258.592 129.588 258.645L129.502 259.066L130.274 258.628C130.441 258.489 130.571 258.309 130.65 258.106C130.729 257.903 130.756 257.683 130.728 257.467V254.027C130.697 253.424 130.53 252.837 130.241 252.308C129.951 251.779 129.546 251.323 129.056 250.974V250.974Z" fill="#C9883A"/>
<path d="M128.448 258.86L126.956 258V256.933L128.448 257.793C128.662 257.922 129.168 258.215 129.168 257.346V253.906C129.139 253.614 129.048 253.331 128.9 253.077C128.752 252.823 128.551 252.604 128.31 252.436L126.956 251.662V250.595L128.37 251.455C128.865 251.796 129.276 252.245 129.572 252.767C129.869 253.29 130.045 253.874 130.085 254.474V257.914C130.085 258.782 129.656 259.531 128.448 258.86Z" fill="#E09C3B"/>
<path opacity="0.2" d="M207.653 231.589L187.935 220.16C187.763 220.059 187.568 220.005 187.369 220.005C187.17 220.005 186.975 220.059 186.803 220.16L152.186 240.215L172.461 251.98L207.653 231.589Z" fill="black"/>
<path d="M208.587 229.345L188.869 217.916C188.698 217.814 188.503 217.761 188.304 217.761C188.105 217.761 187.909 217.814 187.738 217.916L153.12 237.971L173.421 249.727L208.587 229.345Z" fill="#F4F4F4"/>
<path d="M172.487 245.522L170.978 246.382C170.858 246.459 170.875 246.579 170.978 246.665L172.418 247.525C172.492 247.563 172.575 247.583 172.658 247.583C172.741 247.583 172.824 247.563 172.898 247.525L174.398 246.665C174.518 246.597 174.51 246.476 174.398 246.39L172.967 245.53C172.892 245.493 172.811 245.473 172.728 245.471C172.645 245.47 172.562 245.487 172.487 245.522V245.522Z" fill="#2B303F"/>
<path d="M174.613 244.291L173.112 245.152C172.984 245.22 173.001 245.349 173.112 245.427L174.544 246.287C174.619 246.323 174.701 246.341 174.784 246.341C174.867 246.341 174.949 246.323 175.024 246.287L176.524 245.427C176.653 245.358 176.636 245.229 176.524 245.152L175.093 244.291C175.019 244.252 174.937 244.231 174.853 244.231C174.769 244.231 174.686 244.252 174.613 244.291Z" fill="#2B303F"/>
<path d="M176.764 243.045L175.264 243.905C175.144 243.973 175.153 244.102 175.264 244.18L176.696 245.04C176.771 245.076 176.853 245.094 176.936 245.094C177.019 245.094 177.101 245.076 177.176 245.04L178.685 244.18C178.805 244.111 178.788 243.982 178.685 243.905L177.245 243.045C177.171 243.005 177.088 242.984 177.004 242.984C176.921 242.984 176.838 243.005 176.764 243.045V243.045Z" fill="#2B303F"/>
<path d="M178.873 241.823L177.365 242.683C177.245 242.752 177.262 242.881 177.365 242.959L178.805 243.819C178.879 243.858 178.961 243.879 179.045 243.879C179.129 243.879 179.211 243.858 179.285 243.819L180.785 242.959C180.914 242.89 180.897 242.761 180.785 242.683L179.354 241.823C179.279 241.787 179.197 241.769 179.113 241.769C179.03 241.769 178.948 241.787 178.873 241.823V241.823Z" fill="#2B303F"/>
<path d="M180.999 240.585L179.499 241.445C179.379 241.514 179.388 241.634 179.499 241.72L180.931 242.58C181.006 242.616 181.088 242.635 181.171 242.635C181.254 242.635 181.336 242.616 181.411 242.58L182.92 241.72C183.04 241.643 183.023 241.522 182.92 241.436L181.48 240.576C181.404 240.54 181.322 240.522 181.238 240.523C181.155 240.525 181.073 240.546 180.999 240.585V240.585Z" fill="#2B303F"/>
<path d="M183.134 239.355L181.625 240.215C181.505 240.293 181.522 240.413 181.625 240.499L183.066 241.359C183.139 241.399 183.222 241.42 183.306 241.42C183.389 241.42 183.472 241.399 183.546 241.359L185.046 240.499C185.166 240.43 185.157 240.301 185.046 240.224L183.614 239.364C183.54 239.327 183.458 239.307 183.375 239.305C183.292 239.304 183.21 239.321 183.134 239.355V239.355Z" fill="#2B303F"/>
<path d="M185.26 238.125L183.76 238.985C183.631 239.054 183.648 239.183 183.76 239.26L185.192 240.12C185.267 240.156 185.349 240.175 185.432 240.175C185.515 240.175 185.597 240.156 185.672 240.12L187.172 239.26C187.301 239.192 187.283 239.063 187.172 238.985L185.74 238.125C185.666 238.085 185.584 238.064 185.5 238.064C185.416 238.064 185.334 238.085 185.26 238.125Z" fill="#2B303F"/>
<path d="M187.386 236.887L185.886 237.747C185.766 237.824 185.775 237.945 185.886 238.031L187.318 238.891C187.392 238.929 187.474 238.948 187.558 238.948C187.641 238.948 187.723 238.929 187.798 238.891L189.307 238.031C189.427 237.962 189.409 237.842 189.307 237.756L187.866 236.896C187.792 236.858 187.71 236.838 187.627 236.837C187.544 236.835 187.462 236.852 187.386 236.887V236.887Z" fill="#2B303F"/>
<path d="M189.521 235.64L188.012 236.5C187.892 236.569 187.909 236.698 188.012 236.775L189.452 237.635C189.527 237.673 189.609 237.693 189.692 237.693C189.776 237.693 189.858 237.673 189.932 237.635L191.433 236.775C191.561 236.707 191.544 236.578 191.433 236.5L190.001 235.64C189.927 235.6 189.845 235.579 189.761 235.579C189.677 235.579 189.595 235.6 189.521 235.64V235.64Z" fill="#2B303F"/>
<path d="M191.647 234.419L190.147 235.279C190.027 235.348 190.035 235.468 190.147 235.554L191.578 236.414C191.653 236.45 191.735 236.469 191.818 236.469C191.901 236.469 191.983 236.45 192.058 236.414L193.567 235.554C193.687 235.477 193.67 235.356 193.567 235.27L192.127 234.41C192.052 234.374 191.969 234.356 191.886 234.357C191.803 234.359 191.721 234.38 191.647 234.419V234.419Z" fill="#2B303F"/>
<path d="M193.747 233.189L192.239 234.049C192.119 234.118 192.136 234.247 192.239 234.324L193.679 235.184C193.753 235.224 193.835 235.245 193.919 235.245C194.003 235.245 194.085 235.224 194.159 235.184L195.659 234.324C195.779 234.255 195.771 234.126 195.659 234.049L194.227 233.189C194.152 233.153 194.07 233.135 193.987 233.135C193.904 233.135 193.822 233.153 193.747 233.189V233.189Z" fill="#2B303F"/>
<path d="M195.908 231.951L194.407 232.811C194.279 232.879 194.296 233 194.407 233.086L195.839 233.946C195.914 233.982 195.996 234 196.079 234C196.162 234 196.244 233.982 196.319 233.946L197.819 233.086C197.948 233.008 197.931 232.888 197.819 232.802L196.388 231.942C196.313 231.905 196.23 231.887 196.147 231.889C196.063 231.89 195.981 231.911 195.908 231.951V231.951Z" fill="#2B303F"/>
<path d="M198.034 230.721L196.534 231.581C196.414 231.658 196.422 231.779 196.534 231.865L197.965 232.725C198.04 232.762 198.122 232.782 198.205 232.782C198.289 232.782 198.371 232.762 198.445 232.725L199.954 231.865C200.074 231.796 200.057 231.675 199.954 231.589L198.514 230.729C198.44 230.692 198.358 230.672 198.275 230.67C198.192 230.669 198.109 230.686 198.034 230.721Z" fill="#2B303F"/>
<path d="M201.197 228.898L198.625 230.36C198.505 230.428 198.522 230.557 198.625 230.635L200.066 231.495C200.141 231.531 200.223 231.549 200.306 231.549C200.389 231.549 200.471 231.531 200.546 231.495L203.118 230.033C203.238 229.964 203.22 229.835 203.118 229.758L201.677 228.898C201.604 228.856 201.521 228.834 201.437 228.834C201.353 228.834 201.27 228.856 201.197 228.898V228.898Z" fill="#2B303F"/>
<path d="M173.575 242.52L172.075 243.38C171.955 243.449 171.964 243.569 172.075 243.655L173.507 244.515C173.582 244.551 173.664 244.57 173.747 244.57C173.83 244.57 173.912 244.551 173.987 244.515L175.496 243.655C175.616 243.578 175.599 243.457 175.496 243.371L174.03 242.52C173.959 242.486 173.881 242.469 173.803 242.469C173.724 242.469 173.646 242.486 173.575 242.52V242.52Z" fill="#2B303F"/>
<path d="M175.744 241.264L174.244 242.124C174.115 242.193 174.133 242.322 174.244 242.4L175.676 243.26C175.751 243.295 175.833 243.314 175.916 243.314C175.999 243.314 176.081 243.295 176.156 243.26L177.665 242.4C177.785 242.331 177.767 242.202 177.665 242.124L176.224 241.264C176.151 241.225 176.068 241.204 175.984 241.204C175.9 241.204 175.818 241.225 175.744 241.264V241.264Z" fill="#2B303F"/>
<path d="M177.845 240.026L176.344 240.886C176.216 240.963 176.233 241.084 176.344 241.17L177.776 242.03C177.85 242.067 177.933 242.087 178.016 242.087C178.1 242.087 178.182 242.067 178.256 242.03L179.756 241.17C179.885 241.101 179.868 240.972 179.756 240.894L178.325 240.034C178.25 239.997 178.169 239.977 178.086 239.976C178.003 239.974 177.92 239.991 177.845 240.026V240.026Z" fill="#2B303F"/>
<path d="M179.979 238.788L178.47 239.648C178.35 239.717 178.368 239.837 178.47 239.923L179.911 240.783C179.986 240.819 180.068 240.837 180.151 240.837C180.234 240.837 180.316 240.819 180.391 240.783L181.891 239.923C182.011 239.846 182.003 239.725 181.891 239.639L180.459 238.779C180.384 238.743 180.302 238.724 180.218 238.726C180.135 238.727 180.053 238.749 179.979 238.788V238.788Z" fill="#2B303F"/>
<path d="M182.097 237.566L180.588 238.426C180.468 238.495 180.485 238.624 180.588 238.702L182.028 239.562C182.102 239.602 182.184 239.622 182.268 239.622C182.352 239.622 182.435 239.602 182.508 239.562L184.009 238.702C184.129 238.633 184.12 238.504 184.009 238.426L182.577 237.566C182.502 237.531 182.42 237.512 182.337 237.512C182.254 237.512 182.172 237.531 182.097 237.566V237.566Z" fill="#2B303F"/>
<path d="M184.231 236.328L182.723 237.188C182.603 237.265 182.62 237.386 182.723 237.472L184.163 238.332C184.236 238.369 184.317 238.389 184.399 238.389C184.481 238.389 184.561 238.369 184.634 238.332L186.143 237.472C186.263 237.403 186.246 237.283 186.143 237.197L184.703 236.337C184.63 236.299 184.55 236.279 184.468 236.278C184.387 236.276 184.306 236.294 184.231 236.328V236.328Z" fill="#2B303F"/>
<path d="M186.358 235.09L184.857 235.95C184.737 236.018 184.746 236.139 184.857 236.225L186.289 237.085C186.364 237.121 186.446 237.139 186.529 237.139C186.612 237.139 186.694 237.121 186.769 237.085L188.278 236.225C188.398 236.147 188.381 236.027 188.278 235.941L186.838 235.081C186.763 235.045 186.68 235.026 186.597 235.028C186.513 235.029 186.431 235.051 186.358 235.09V235.09Z" fill="#2B303F"/>
<path d="M188.492 233.86L186.992 234.72C186.863 234.788 186.88 234.917 186.992 234.995L188.424 235.855C188.497 235.895 188.58 235.916 188.664 235.916C188.747 235.916 188.83 235.895 188.904 235.855L190.404 234.995C190.533 234.926 190.515 234.797 190.404 234.72L188.972 233.86C188.897 233.824 188.815 233.805 188.732 233.805C188.649 233.805 188.567 233.824 188.492 233.86V233.86Z" fill="#2B303F"/>
<path d="M190.627 232.621L189.127 233.481C188.998 233.559 189.015 233.679 189.127 233.765L190.558 234.625C190.633 234.663 190.715 234.683 190.798 234.683C190.882 234.683 190.964 234.663 191.038 234.625L192.539 233.765C192.667 233.696 192.65 233.576 192.539 233.49L191.107 232.63C191.033 232.593 190.951 232.573 190.868 232.571C190.785 232.57 190.702 232.587 190.627 232.621V232.621Z" fill="#2B303F"/>
<path d="M192.761 231.383L191.253 232.243C191.133 232.312 191.15 232.432 191.253 232.518L192.693 233.378C192.768 233.414 192.85 233.433 192.933 233.433C193.016 233.433 193.098 233.414 193.173 233.378L194.673 232.518C194.793 232.441 194.785 232.32 194.673 232.234L193.242 231.374C193.166 231.338 193.084 231.32 193 231.321C192.917 231.323 192.835 231.344 192.761 231.383Z" fill="#2B303F"/>
<path d="M194.896 230.153L193.387 231.013C193.267 231.082 193.284 231.211 193.387 231.288L194.828 232.148C194.901 232.188 194.984 232.209 195.068 232.209C195.151 232.209 195.234 232.188 195.308 232.148L196.808 231.288C196.928 231.22 196.919 231.091 196.808 231.013L195.376 230.153C195.301 230.117 195.219 230.099 195.136 230.099C195.053 230.099 194.971 230.117 194.896 230.153V230.153Z" fill="#2B303F"/>
<path d="M197.031 228.915L195.522 229.775C195.402 229.852 195.419 229.973 195.522 230.059L196.954 230.919C197.028 230.956 197.11 230.976 197.194 230.976C197.277 230.976 197.359 230.956 197.434 230.919L198.943 230.059C199.063 229.99 199.045 229.869 198.943 229.783L197.502 228.923C197.429 228.886 197.349 228.866 197.268 228.865C197.186 228.863 197.105 228.88 197.031 228.915V228.915Z" fill="#2B303F"/>
<path d="M171.458 243.733L168.886 245.195C168.766 245.272 168.783 245.392 168.886 245.478L170.326 246.338C170.401 246.376 170.483 246.396 170.566 246.396C170.65 246.396 170.732 246.376 170.806 246.338L173.335 244.868C173.455 244.799 173.438 244.67 173.335 244.593L171.895 243.733C171.826 243.702 171.752 243.686 171.676 243.686C171.601 243.686 171.527 243.702 171.458 243.733V243.733Z" fill="#2B303F"/>
<path d="M201.094 228.812L199.585 229.672C199.516 229.706 199.44 229.723 199.363 229.723C199.285 229.723 199.209 229.706 199.14 229.672L197.622 228.812C197.502 228.743 197.502 228.631 197.622 228.554L197.742 228.485C197.854 228.425 197.854 228.313 197.742 228.244L196.139 227.324C196.011 227.246 196.011 227.135 196.139 227.057L197.099 226.507C197.169 226.473 197.245 226.455 197.322 226.455C197.4 226.455 197.476 226.473 197.545 226.507L199.045 227.367L199.354 227.547L199.577 227.676L199.808 227.805L201.094 228.554C201.214 228.631 201.214 228.76 201.094 228.812Z" fill="#2B303F"/>
<path d="M164.239 240.731L162.731 241.591C162.611 241.66 162.628 241.78 162.731 241.866L164.171 242.726C164.244 242.762 164.325 242.781 164.407 242.781C164.488 242.781 164.569 242.762 164.642 242.726L166.151 241.866C166.271 241.789 166.254 241.669 166.151 241.583L164.711 240.723C164.637 240.686 164.556 240.668 164.474 240.67C164.392 240.671 164.312 240.692 164.239 240.731V240.731Z" fill="#2B303F"/>
<path d="M166.357 239.502L164.857 240.362C164.737 240.43 164.745 240.551 164.857 240.637L166.288 241.497C166.363 241.533 166.445 241.551 166.528 241.551C166.612 241.551 166.694 241.533 166.768 241.497L168.277 240.637C168.397 240.559 168.38 240.439 168.277 240.353L166.837 239.493C166.762 239.457 166.679 239.438 166.596 239.44C166.513 239.441 166.431 239.462 166.357 239.502V239.502Z" fill="#2B303F"/>
<path d="M168.483 238.272L166.983 239.132C166.854 239.2 166.871 239.321 166.983 239.407L168.414 240.267C168.489 240.303 168.571 240.321 168.655 240.321C168.738 240.321 168.82 240.303 168.895 240.267L170.395 239.407C170.523 239.329 170.506 239.209 170.395 239.123L168.963 238.263C168.888 238.227 168.805 238.208 168.722 238.21C168.639 238.211 168.557 238.232 168.483 238.272V238.272Z" fill="#2B303F"/>
<path d="M186.563 227.805L185.063 228.665C184.943 228.734 184.952 228.863 185.063 228.941L186.495 229.801C186.57 229.836 186.652 229.855 186.735 229.855C186.818 229.855 186.9 229.836 186.975 229.801L188.484 228.941C188.604 228.872 188.587 228.743 188.484 228.665L187.043 227.805C186.97 227.766 186.887 227.745 186.803 227.745C186.72 227.745 186.637 227.766 186.563 227.805V227.805Z" fill="#2B303F"/>
<path d="M188.689 226.575L187.189 227.435C187.061 227.504 187.078 227.633 187.189 227.711L188.621 228.571C188.696 228.607 188.778 228.625 188.861 228.625C188.944 228.625 189.026 228.607 189.101 228.571L190.601 227.711C190.73 227.642 190.713 227.513 190.601 227.435L189.169 226.575C189.096 226.536 189.013 226.515 188.929 226.515C188.846 226.515 188.763 226.536 188.689 226.575V226.575Z" fill="#2B303F"/>
<path d="M190.815 225.32L189.307 226.18C189.187 226.249 189.204 226.378 189.307 226.455L190.747 227.315C190.822 227.351 190.904 227.37 190.987 227.37C191.07 227.37 191.152 227.351 191.227 227.315L192.727 226.455C192.847 226.386 192.839 226.257 192.727 226.18L191.296 225.32C191.222 225.28 191.139 225.259 191.055 225.259C190.972 225.259 190.889 225.28 190.815 225.32V225.32Z" fill="#2B303F"/>
<path d="M192.933 224.116L191.433 224.976C191.313 225.045 191.321 225.174 191.433 225.251L192.864 226.111C192.939 226.147 193.021 226.166 193.104 226.166C193.187 226.166 193.269 226.147 193.344 226.111L194.853 225.251C194.973 225.182 194.956 225.053 194.853 224.976L193.413 224.116C193.339 224.076 193.257 224.055 193.173 224.055C193.089 224.055 193.007 224.076 192.933 224.116V224.116Z" fill="#2B303F"/>
<path d="M171.158 236.732L169.1 237.919C168.98 237.988 168.997 238.108 169.1 238.194L170.541 239.054C170.616 239.09 170.698 239.109 170.781 239.109C170.864 239.109 170.946 239.09 171.021 239.054L173.07 237.867C173.19 237.799 173.172 237.67 173.07 237.592L171.629 236.732C171.557 236.692 171.476 236.671 171.394 236.671C171.311 236.671 171.23 236.692 171.158 236.732Z" fill="#2B303F"/>
<path d="M184.446 229.035L182.388 230.222C182.268 230.291 182.285 230.411 182.388 230.497L183.829 231.357C183.903 231.393 183.985 231.412 184.069 231.412C184.152 231.412 184.234 231.393 184.309 231.357L186.357 230.171C186.478 230.102 186.469 229.973 186.357 229.895L184.926 229.035C184.852 228.995 184.77 228.975 184.686 228.975C184.602 228.975 184.52 228.995 184.446 229.035Z" fill="#2B303F"/>
<path d="M181.745 230.575L171.749 236.371C171.621 236.44 171.638 236.569 171.749 236.646L173.181 237.506C173.256 237.542 173.338 237.561 173.421 237.561C173.504 237.561 173.586 237.542 173.661 237.506L183.666 231.718C183.786 231.641 183.769 231.521 183.623 231.435L182.191 230.575C182.121 230.542 182.045 230.525 181.968 230.525C181.891 230.525 181.815 230.542 181.745 230.575V230.575Z" fill="#2B303F"/>
<path d="M172.092 240.963L170.592 241.823C170.463 241.892 170.481 242.013 170.592 242.099L172.024 242.959C172.098 242.996 172.18 243.016 172.264 243.016C172.347 243.016 172.429 242.996 172.504 242.959L174.013 242.099C174.133 242.03 174.115 241.909 174.013 241.823L172.572 240.963C172.498 240.926 172.416 240.906 172.332 240.906C172.249 240.906 172.167 240.926 172.092 240.963V240.963Z" fill="#2B303F"/>
<path d="M174.218 239.734L172.718 240.594C172.598 240.671 172.607 240.791 172.718 240.877L174.15 241.737C174.224 241.775 174.306 241.795 174.39 241.795C174.473 241.795 174.555 241.775 174.63 241.737L176.139 240.877C176.259 240.809 176.242 240.688 176.139 240.602L174.698 239.742C174.624 239.705 174.542 239.685 174.459 239.683C174.376 239.682 174.294 239.699 174.218 239.734Z" fill="#2B303F"/>
<path d="M176.344 238.504L174.844 239.364C174.724 239.433 174.733 239.562 174.844 239.639L176.276 240.499C176.35 240.539 176.432 240.56 176.516 240.56C176.6 240.56 176.682 240.539 176.756 240.499L178.265 239.639C178.385 239.57 178.368 239.441 178.265 239.364L176.824 238.504C176.75 238.466 176.668 238.446 176.584 238.446C176.501 238.446 176.419 238.466 176.344 238.504V238.504Z" fill="#2B303F"/>
<path d="M178.479 237.274L176.97 238.134C176.85 238.203 176.867 238.332 176.97 238.409L178.41 239.269C178.484 239.305 178.565 239.324 178.646 239.324C178.728 239.324 178.808 239.305 178.882 239.269L180.391 238.409C180.511 238.332 180.494 238.211 180.391 238.125L178.951 237.265C178.878 237.227 178.796 237.207 178.714 237.209C178.631 237.21 178.551 237.233 178.479 237.274Z" fill="#2B303F"/>
<path d="M180.605 236.036L179.096 236.896C178.976 236.965 178.993 237.085 179.096 237.171L180.537 238.031C180.611 238.069 180.693 238.088 180.777 238.088C180.86 238.088 180.942 238.069 181.017 238.031L182.517 237.171C182.637 237.102 182.628 236.982 182.517 236.896L181.085 236.036C181.011 235.998 180.929 235.978 180.845 235.978C180.762 235.978 180.68 235.998 180.605 236.036V236.036Z" fill="#2B303F"/>
<path d="M182.731 234.78L181.222 235.64C181.102 235.717 181.12 235.838 181.222 235.924L182.663 236.784C182.737 236.822 182.819 236.841 182.903 236.841C182.986 236.841 183.068 236.822 183.143 236.784L184.643 235.924C184.763 235.855 184.754 235.735 184.643 235.649L183.211 234.789C183.137 234.751 183.055 234.731 182.972 234.73C182.889 234.728 182.807 234.746 182.731 234.78V234.78Z" fill="#2B303F"/>
<path d="M184.857 233.576L183.348 234.436C183.228 234.505 183.246 234.634 183.348 234.711L184.789 235.571C184.862 235.611 184.945 235.632 185.029 235.632C185.113 235.632 185.195 235.611 185.269 235.571L186.769 234.711C186.898 234.642 186.88 234.513 186.769 234.436L185.337 233.576C185.263 233.538 185.181 233.519 185.097 233.519C185.014 233.519 184.932 233.538 184.857 233.576Z" fill="#2B303F"/>
<path d="M186.983 232.338L185.483 233.198C185.354 233.266 185.372 233.387 185.483 233.473L186.915 234.333C186.99 234.369 187.072 234.387 187.155 234.387C187.238 234.387 187.32 234.369 187.395 234.333L188.895 233.473C189.024 233.395 189.007 233.275 188.895 233.189L187.463 232.329C187.388 232.292 187.306 232.274 187.222 232.276C187.139 232.277 187.057 232.298 186.983 232.338V232.338Z" fill="#2B303F"/>
<path d="M189.109 231.108L187.609 231.968C187.481 232.037 187.498 232.157 187.609 232.243L189.041 233.103C189.115 233.141 189.197 233.16 189.281 233.16C189.364 233.16 189.447 233.141 189.521 233.103L191.021 232.243C191.15 232.174 191.133 232.054 191.021 231.968L189.59 231.108C189.515 231.07 189.433 231.05 189.349 231.05C189.266 231.05 189.184 231.07 189.109 231.108Z" fill="#2B303F"/>
<path d="M191.235 229.878L189.735 230.738C189.615 230.815 189.624 230.936 189.735 231.022L191.167 231.882C191.241 231.92 191.324 231.939 191.407 231.939C191.49 231.939 191.573 231.92 191.647 231.882L193.156 231.022C193.276 230.953 193.259 230.833 193.156 230.747L191.716 229.887C191.641 229.849 191.56 229.829 191.477 229.828C191.393 229.826 191.311 229.843 191.235 229.878V229.878Z" fill="#2B303F"/>
<path d="M193.362 228.648L191.861 229.508C191.741 229.577 191.75 229.706 191.861 229.783L193.293 230.643C193.367 230.681 193.45 230.701 193.533 230.701C193.616 230.701 193.699 230.681 193.773 230.643L195.282 229.783C195.402 229.715 195.385 229.586 195.282 229.508L193.842 228.648C193.768 228.608 193.685 228.587 193.602 228.587C193.518 228.587 193.435 228.608 193.362 228.648V228.648Z" fill="#2B303F"/>
<path d="M195.462 227.41L193.953 228.27C193.833 228.338 193.85 228.459 193.953 228.545L195.393 229.405C195.467 229.441 195.547 229.459 195.629 229.459C195.711 229.459 195.791 229.441 195.865 229.405L197.374 228.545C197.494 228.467 197.477 228.347 197.374 228.261L195.933 227.401C195.86 227.365 195.779 227.346 195.697 227.348C195.615 227.349 195.534 227.371 195.462 227.41V227.41Z" fill="#2B303F"/>
<path d="M169.966 242.202L166.854 243.999C166.734 244.068 166.751 244.197 166.854 244.274L168.294 245.134C168.367 245.172 168.448 245.192 168.53 245.192C168.612 245.192 168.693 245.172 168.766 245.134L171.878 243.337C172.007 243.259 171.989 243.139 171.878 243.062L170.446 242.202C170.373 242.162 170.29 242.141 170.206 242.141C170.122 242.141 170.04 242.162 169.966 242.202V242.202Z" fill="#2B303F"/>
<path d="M168.972 240.379L167.471 241.239C167.343 241.308 167.36 241.428 167.471 241.514L168.903 242.374C168.978 242.41 169.06 242.428 169.143 242.428C169.226 242.428 169.308 242.41 169.383 242.374L170.892 241.514C171.012 241.437 170.995 241.316 170.892 241.23L169.452 240.37C169.377 240.334 169.294 240.315 169.211 240.317C169.127 240.318 169.045 240.34 168.972 240.379V240.379Z" fill="#2B303F"/>
<path d="M171.098 239.149L169.598 240.009C169.477 240.086 169.486 240.207 169.598 240.293L171.029 241.153C171.104 241.19 171.186 241.21 171.269 241.21C171.353 241.21 171.435 241.19 171.509 241.153L173.018 240.293C173.138 240.224 173.121 240.103 173.018 240.017L171.578 239.157C171.504 239.12 171.422 239.1 171.339 239.098C171.256 239.097 171.173 239.114 171.098 239.149Z" fill="#2B303F"/>
<path d="M173.224 237.919L171.724 238.779C171.604 238.848 171.612 238.977 171.724 239.054L173.155 239.914C173.229 239.954 173.312 239.975 173.395 239.975C173.479 239.975 173.562 239.954 173.635 239.914L175.144 239.054C175.264 238.985 175.247 238.856 175.144 238.779L173.704 237.919C173.629 237.883 173.547 237.865 173.464 237.865C173.381 237.865 173.299 237.883 173.224 237.919Z" fill="#2B303F"/>
<path d="M175.358 236.689L173.85 237.549C173.73 237.618 173.747 237.747 173.85 237.824L175.29 238.684C175.363 238.72 175.444 238.739 175.526 238.739C175.607 238.739 175.688 238.72 175.761 238.684L177.27 237.824C177.39 237.756 177.373 237.627 177.27 237.549L175.83 236.689C175.758 236.649 175.677 236.628 175.594 236.628C175.512 236.628 175.431 236.649 175.358 236.689Z" fill="#2B303F"/>
<path d="M177.459 235.451L175.95 236.311C175.83 236.38 175.847 236.5 175.95 236.586L177.39 237.446C177.464 237.482 177.544 237.5 177.626 237.5C177.708 237.5 177.788 237.482 177.862 237.446L179.371 236.586C179.491 236.509 179.473 236.388 179.371 236.302L177.93 235.442C177.857 235.406 177.776 235.388 177.694 235.389C177.612 235.391 177.531 235.412 177.459 235.451V235.451Z" fill="#2B303F"/>
<path d="M179.611 234.221L178.102 235.081C177.982 235.15 177.999 235.27 178.102 235.356L179.542 236.216C179.616 236.254 179.699 236.274 179.782 236.274C179.866 236.274 179.948 236.254 180.022 236.216L181.522 235.356C181.642 235.287 181.634 235.167 181.522 235.081L180.091 234.221C180.016 234.183 179.934 234.164 179.851 234.164C179.767 234.164 179.685 234.183 179.611 234.221Z" fill="#2B303F"/>
<path d="M181.745 232.991L180.236 233.851C180.116 233.929 180.134 234.049 180.236 234.135L181.677 234.995C181.751 235.033 181.833 235.053 181.917 235.053C182 235.053 182.082 235.033 182.157 234.995L183.657 234.135C183.777 234.066 183.769 233.946 183.657 233.86L182.225 233C182.151 232.963 182.069 232.942 181.986 232.941C181.903 232.94 181.821 232.957 181.745 232.991V232.991Z" fill="#2B303F"/>
<path d="M183.863 231.762L182.354 232.622C182.234 232.69 182.251 232.819 182.354 232.897L183.794 233.757C183.868 233.797 183.95 233.818 184.034 233.818C184.118 233.818 184.201 233.797 184.274 233.757L185.775 232.897C185.895 232.828 185.886 232.699 185.775 232.622L184.343 231.762C184.268 231.724 184.186 231.704 184.103 231.704C184.019 231.704 183.937 231.724 183.863 231.762Z" fill="#2B303F"/>
<path d="M186.032 230.532L184.523 231.392C184.403 231.461 184.42 231.59 184.523 231.667L185.963 232.527C186.038 232.563 186.12 232.581 186.203 232.581C186.286 232.581 186.368 232.563 186.443 232.527L187.944 231.667C188.072 231.598 188.055 231.469 187.944 231.392L186.512 230.532C186.438 230.492 186.356 230.471 186.272 230.471C186.188 230.471 186.106 230.492 186.032 230.532V230.532Z" fill="#2B303F"/>
<path d="M188.115 229.293L186.615 230.153C186.486 230.222 186.503 230.342 186.615 230.428L188.046 231.288C188.121 231.324 188.203 231.343 188.286 231.343C188.369 231.343 188.452 231.324 188.526 231.288L190.027 230.428C190.155 230.351 190.138 230.23 190.027 230.144L188.595 229.284C188.52 229.248 188.437 229.23 188.354 229.231C188.271 229.233 188.189 229.254 188.115 229.293V229.293Z" fill="#2B303F"/>
<path d="M190.241 228.064L188.741 228.924C188.612 229.001 188.629 229.121 188.741 229.207L190.172 230.067C190.247 230.105 190.329 230.125 190.413 230.125C190.496 230.125 190.578 230.105 190.653 230.067L192.153 229.207C192.281 229.139 192.264 229.018 192.153 228.932L190.721 228.072C190.647 228.035 190.565 228.015 190.482 228.013C190.399 228.012 190.317 228.029 190.241 228.064V228.064Z" fill="#2B303F"/>
<path d="M194.999 225.32L190.867 227.711C190.738 227.78 190.755 227.909 190.867 227.986L192.299 228.846C192.372 228.886 192.455 228.907 192.539 228.907C192.622 228.907 192.705 228.886 192.779 228.846L196.919 226.455C197.039 226.387 197.022 226.258 196.919 226.18L195.462 225.32C195.39 225.283 195.311 225.264 195.23 225.264C195.15 225.264 195.071 225.283 194.999 225.32V225.32Z" fill="#2B303F"/>
<path d="M166.846 241.66L164.797 242.847C164.677 242.916 164.685 243.036 164.797 243.122L166.228 243.982C166.303 244.018 166.385 244.037 166.468 244.037C166.551 244.037 166.633 244.018 166.708 243.982L168.766 242.795C168.886 242.726 168.869 242.597 168.723 242.52L167.291 241.66C167.222 241.626 167.146 241.608 167.068 241.608C166.991 241.608 166.915 241.626 166.846 241.66V241.66Z" fill="#2B303F"/>
<path d="M203.332 230.127L173.121 247.628C173.001 247.697 173.018 247.818 173.121 247.904L173.841 248.316C173.916 248.354 173.998 248.374 174.081 248.374C174.165 248.374 174.247 248.354 174.321 248.316L204.523 230.815C204.652 230.747 204.635 230.626 204.523 230.54L203.812 230.127C203.738 230.09 203.655 230.07 203.572 230.07C203.488 230.07 203.406 230.09 203.332 230.127V230.127Z" fill="#2B303F"/>
<path d="M167.986 230.91L168.183 231.022L173.404 234.049L182.68 228.674L182.877 228.562L177.459 225.432L167.986 230.91Z" fill="#BFBFBF"/>
<path d="M168.183 231.022L173.404 234.049L182.68 228.674L177.459 225.656L168.183 231.022Z" fill="#E5E5E5"/>
<path d="M153.103 237.971V238.435C153.104 238.77 153.192 239.098 153.359 239.388C153.526 239.678 153.766 239.919 154.055 240.086L172.452 250.742C172.741 250.911 173.069 251 173.404 251C173.738 250.998 174.066 250.909 174.355 250.742L207.635 231.46C207.925 231.294 208.166 231.053 208.333 230.763C208.5 230.473 208.588 230.144 208.587 229.809V229.345L173.438 249.727L153.103 237.971Z" fill="#E5E5E5"/>
<path d="M173.935 250.011C174.251 250.133 174.589 250.182 174.926 250.155C175.263 250.129 175.589 250.026 175.881 249.856L209.024 230.661C209.312 230.494 209.559 230.265 209.749 229.992C209.938 229.719 210.066 229.407 210.122 229.078L213.748 207.38C213.756 207.257 213.756 207.134 213.748 207.011C213.749 206.712 213.691 206.416 213.577 206.141C213.464 205.865 213.298 205.614 213.088 205.402L178.668 225.32C178.458 225.446 178.278 225.616 178.139 225.817C178 226.019 177.905 226.248 177.862 226.49L173.935 250.011Z" fill="#F4F4F4"/>
<path d="M173.404 249.727L173.627 249.856C173.726 249.914 173.829 249.966 173.935 250.011L177.862 226.515C177.905 226.274 178 226.045 178.139 225.843C178.278 225.641 178.458 225.472 178.668 225.346L213.113 205.402C212.974 205.266 212.819 205.148 212.651 205.05L178.136 225.036C177.926 225.162 177.746 225.332 177.607 225.534C177.468 225.735 177.374 225.965 177.33 226.206L173.404 249.727Z" fill="#E5E5E5"/>
<path opacity="0.4" d="M346.748 430C365.597 430 380.876 421.148 380.876 410.229C380.876 399.309 365.597 390.457 346.748 390.457C327.899 390.457 312.619 399.309 312.619 410.229C312.619 421.148 327.899 430 346.748 430Z" fill="#D6D8E5"/>
<path d="M374.412 259.969C374.798 263.409 378.862 278.107 377.987 283.146C377.113 288.186 363.251 296.631 363.251 296.631L361.33 288.031L369.046 280.48L366.92 266.144L374.412 259.969Z" fill="#FFCEA9"/>
<path d="M363.688 245.461C365.036 244.833 366.567 244.724 367.99 245.155C369.413 245.587 370.628 246.528 371.403 247.801C373.444 251.189 375.561 262.816 375.758 264.803C375.758 264.803 372.895 268.767 368.6 268.105L363.688 245.461Z" fill="#EDEDED"/>
<path d="M347.845 409.635C344.827 410.475 341.6 410.082 338.869 408.543C336.709 408.612 324.973 403.572 323.378 407.804C321.981 411.51 327.064 414.942 329.782 415.604C335.706 417.04 340.069 420.007 342.47 420.506C344.244 420.884 346.542 421.134 347.957 419.732C349.654 418.055 349.508 411.846 347.845 409.635Z" fill="#38226D"/>
<path d="M342.47 419.482C340.095 418.984 335.706 416.042 329.782 414.572C327.502 414.021 323.584 411.519 323.189 408.552C322.658 411.992 327.244 414.993 329.782 415.612C335.706 417.049 340.069 420.016 342.47 420.514C344.244 420.893 346.542 421.142 347.957 419.74C348.321 419.333 348.588 418.848 348.737 418.321C347.855 418.991 346.829 419.445 345.74 419.647C344.652 419.849 343.532 419.792 342.47 419.482Z" fill="#9C73FF"/>
<path d="M366.92 401.061C363.902 401.899 360.677 401.509 357.944 399.978C355.784 400.038 344.047 394.998 342.453 399.229C341.055 402.936 346.139 406.367 348.857 407.03C354.781 408.466 359.144 411.433 361.545 411.94C363.328 412.31 365.617 412.559 367.031 411.158C368.686 409.481 368.54 403.271 366.92 401.061Z" fill="#38226D"/>
<path d="M361.502 410.908C359.127 410.409 354.738 407.468 348.814 405.998C346.533 405.447 342.616 402.953 342.221 399.978C341.69 403.418 346.276 406.41 348.814 407.03C354.738 408.466 359.101 411.433 361.502 411.94C363.285 412.31 365.574 412.559 366.988 411.158C367.353 410.75 367.62 410.265 367.768 409.739C366.887 410.41 365.861 410.866 364.773 411.069C363.685 411.272 362.565 411.217 361.502 410.908V410.908Z" fill="#9C73FF"/>
<path d="M367.108 369.078C366.607 364.703 365.7 360.384 364.399 356.178C364.399 356.178 365.214 345.049 365.617 334.497C366.08 322.526 370.212 311.991 366.945 302.436L330.125 310.649C330.125 310.649 332.354 358.379 332.851 364.158C333.121 368.649 333.671 373.118 334.497 377.54C336.212 386.802 338.912 408.844 338.912 408.844C342.804 411.114 347.914 409.859 347.914 409.859C347.914 409.859 347.639 381.986 347.382 375.313C347.082 367.16 346.833 367.779 346.833 367.779L348.059 347.5L348.857 337.404C348.857 337.404 349.877 344.817 350.571 351.439C351.146 357.21 352.534 362.43 354.086 373.18C355.432 382.502 357.618 401.233 357.618 401.233C361.51 403.512 366.8 401.62 366.8 401.62C366.8 401.62 368.163 377.162 367.108 369.078Z" fill="#46466C"/>
<path d="M361.776 245.659C358.973 245.797 356.89 246.519 356.538 245.659C356.235 244.209 356.02 242.741 355.895 241.265C356.221 240.448 356.495 239.545 356.495 239.545C360.019 237.369 361.133 233.525 361.596 229.104C362.385 221.502 358.287 214.854 350.717 214.054C343.593 213.315 338.355 218.354 336.957 225.234C336.203 228.674 334.703 235.073 336.735 240.714C337.866 243.845 339.306 246.33 340.781 246.812C342.193 246.775 343.602 246.652 344.999 246.442C344.999 246.442 345.376 248.557 345.642 249.882C345.908 251.206 345.796 251.954 343.113 253.614C340.43 255.274 347.176 258.697 351.591 258.353C356.006 258.009 360.919 255.42 362.273 252.522C363.791 249.331 363.662 245.565 361.776 245.659Z" fill="#FFCEA9"/>
<path d="M357.678 246.08C358.45 248.015 356.478 250.38 351.214 252.057C345.95 253.734 345.47 251.584 345.47 251.584C345.47 251.584 337.755 255.11 335.234 256.873C332.08 259.092 330.674 265.473 330.245 276.335C329.756 288.865 329.713 307.45 330.125 310.658C330.125 310.658 336.032 316.566 343.593 315.947C351.154 315.328 363.876 308.611 366.963 303.425C366.877 292.443 365.591 290.654 367.366 284.325C371.429 269.834 373.564 263.9 371.592 254.268C369.963 246.33 367.683 245.349 364.562 245.427C362.258 245.522 359.96 245.74 357.678 246.08V246.08Z" fill="#F4F9FB"/>
<path d="M318.363 286.69C324.57 288.263 326.027 284.333 326.842 281.091C328.813 273.222 329.876 266.118 331.351 261.646C333.065 256.383 334.9 255.549 337.446 254.517C340.447 253.313 343.019 255.85 342.024 262.558C340.841 270.487 339.298 276.051 336.34 285.434C335.569 287.885 333.837 292.237 331.248 294.344C328.042 296.924 323.224 296.829 315.928 295.006C312.816 294.232 309.404 292.366 303.523 289.614C301.946 288.874 300.711 288.384 297.685 286.965C294.659 285.546 291.495 283.181 289.909 280.876C288.324 278.571 288.109 277.436 288.435 276.954C288.838 276.292 289.558 276.438 290.407 277.41C291.631 279.054 293.144 280.459 294.873 281.555C294.873 281.555 292.91 279.526 291.847 278.21C290.896 277.037 290.106 275.741 289.498 274.357C288.941 273.016 290.098 271.193 290.973 272.147C291.847 273.102 292.276 274.082 293.879 276.008C294.721 277.04 295.685 277.964 296.751 278.76C295.755 277.4 294.87 275.962 294.102 274.461C293.415 273.294 293.079 271.953 293.133 270.599C293.176 269.894 294.17 269.06 295.096 270.393C295.953 271.588 296.485 273.463 298.431 275.501C299.845 276.972 301.054 277.823 301.089 277.41C301.123 276.997 300.231 276.198 299.725 274.478C299.22 272.758 299.725 270.943 300.677 270.745C301.629 270.548 301.44 270.599 302.194 272.207C302.949 273.815 304.123 275.002 305.015 277.367C305.501 279.024 306.384 280.535 307.587 281.77C309.096 283.404 312.465 285.202 318.363 286.69Z" fill="#FFCEA9"/>
<path d="M339.744 253.442C335.603 252.831 332.68 254.698 330.845 261.001C329.01 267.305 327.742 272.465 327.742 272.465C329.378 274.839 331.861 276.492 334.677 277.083C339.632 278.287 341.415 275.914 341.415 275.914C341.415 275.914 342.796 269.318 343.653 264.828C344.51 260.339 344.87 254.199 339.744 253.442Z" fill="#F1F7FB"/>
<path d="M337.155 224.279C337.155 224.279 330.605 214.303 344.793 212.239C355.021 210.777 361.596 217.399 362.35 224.52C363.079 231.357 358.878 238.452 355.852 241.273C354.378 241.798 351.189 242.133 347.014 240.198C346.844 238.337 346.778 236.468 346.816 234.599C346.816 234.599 351.806 224.099 337.155 224.279Z" fill="#3A2C6D"/>
<path d="M204.755 189.638C213.078 189.638 219.826 182.87 219.826 174.52C219.826 166.17 213.078 159.401 204.755 159.401C196.431 159.401 189.684 166.17 189.684 174.52C189.684 182.87 196.431 189.638 204.755 189.638Z" fill="#3D348B"/>
<path d="M204.755 181.675C199.037 181.675 193.499 180.368 189.564 178.08C186.28 176.18 184.42 173.78 184.42 171.51C184.42 169.24 186.306 166.84 189.564 164.94C193.499 162.652 198.994 161.345 204.755 161.345C210.516 161.345 216.003 162.661 219.946 164.94C223.23 166.84 225.09 169.24 225.09 171.51C225.09 173.78 223.212 176.18 219.946 178.08C216.037 180.368 210.464 181.675 204.755 181.675Z" fill="#B7C0EE"/>
<path d="M204.755 179.069C199.037 179.069 193.499 177.762 189.564 175.483C186.28 173.582 184.42 171.183 184.42 168.913C184.42 166.642 186.306 164.243 189.564 162.334C193.499 160.055 198.994 158.747 204.755 158.747C210.516 158.747 216.003 160.055 219.946 162.334C223.23 164.243 225.09 166.634 225.09 168.913C225.09 171.192 223.212 173.582 219.946 175.483C216.037 177.762 210.464 179.069 204.755 179.069Z" fill="#3D348B"/>
<path d="M204.755 176.721C197.348 176.721 190.181 175.001 185.037 172.069C180.751 169.601 178.342 166.496 178.342 163.546C178.342 160.596 180.777 157.526 185.037 155.032C190.138 152.074 197.314 150.38 204.755 150.38C212.196 150.38 219.329 152.1 224.473 155.032C228.759 157.492 231.177 160.596 231.177 163.546C231.177 166.496 228.733 169.566 224.473 172.069C219.337 175.027 212.162 176.721 204.755 176.721Z" fill="#B7C0EE"/>
<path d="M204.755 173.35C197.348 173.35 190.181 171.63 185.037 168.697C180.751 166.238 178.342 163.125 178.342 160.183C178.342 157.242 180.777 154.164 185.037 151.661C190.138 148.703 197.314 147.008 204.755 147.008C212.196 147.008 219.329 148.728 224.473 151.661C228.759 154.129 231.177 157.234 231.177 160.183C231.177 163.133 228.733 166.203 224.473 168.697C219.337 171.656 212.162 173.35 204.755 173.35Z" fill="#3D348B"/>
<path d="M204.755 170.211C195.719 170.211 186.975 168.147 180.751 164.544C175.564 161.534 172.589 157.75 172.589 154.155C172.589 150.56 175.564 146.776 180.751 143.775C186.975 140.171 195.719 138.099 204.755 138.099C213.791 138.099 222.527 140.171 228.759 143.775C233.946 146.776 236.92 150.56 236.92 154.155C236.92 157.75 233.946 161.534 228.759 164.544C222.535 168.147 213.782 170.211 204.755 170.211Z" fill="#B7C0EE"/>
<path d="M204.755 166.1C195.719 166.1 186.975 164.036 180.751 160.433C175.564 157.432 172.589 153.639 172.589 150.044C172.589 146.449 175.564 142.665 180.751 139.664C186.975 136.061 195.719 133.997 204.755 133.997C213.791 133.997 222.527 136.061 228.759 139.664C233.946 142.665 236.92 146.458 236.92 150.053C236.92 153.648 233.946 157.432 228.759 160.433C222.535 164.036 213.782 166.1 204.755 166.1Z" fill="#3D348B"/>
<path d="M204.755 161.861C194.382 161.861 184.343 159.496 177.193 155.35C171.235 151.91 167.823 147.559 167.823 143.431C167.823 139.303 171.252 134.96 177.193 131.503C184.334 127.366 194.382 125.001 204.746 125.001C215.111 125.001 225.167 127.366 232.308 131.511C238.266 134.951 241.678 139.303 241.678 143.431C241.678 147.559 238.249 151.902 232.308 155.35C225.167 159.496 215.12 161.861 204.755 161.861Z" fill="#B7C0EE"/>
<path d="M204.755 157.148C194.382 157.148 184.343 154.774 177.193 150.638C171.235 147.198 167.823 142.846 167.823 138.718C167.823 134.59 171.252 130.238 177.193 126.79C184.334 122.653 194.382 120.28 204.746 120.28C215.111 120.28 225.167 122.653 232.308 126.79C238.266 130.23 241.678 134.59 241.678 138.718C241.678 142.846 238.249 147.189 232.308 150.638C225.167 154.8 215.12 157.148 204.755 157.148Z" fill="#3D348B"/>
<path d="M204.755 153.639C227.69 153.639 246.282 142.869 246.282 129.585C246.282 116.3 227.69 105.531 204.755 105.531C181.82 105.531 163.228 116.3 163.228 129.585C163.228 142.869 181.82 153.639 204.755 153.639Z" fill="#00DCF1" fill-opacity="0.67"/>
<path d="M194.159 70.3136H190.481V127.667H194.159V70.3136Z" fill="#00A0AF" fill-opacity="0.63"/>
<path d="M219.337 70.3136H215.66V127.667H219.337V70.3136Z" fill="#00A0AF" fill-opacity="0.6"/>
<path d="M204.652 74.0461L199.26 69.0924L192.641 73.5387L190.481 70.3222L199.62 64.3023L204.858 69.1097L211.133 64.2249L219.337 70.3222L216.774 73.272L211.125 69.0151L204.652 74.0461Z" fill="#00A0AF" fill-opacity="0.54"/>
<path opacity="0.69" d="M246.222 130.84C246.291 125.44 247.216 109.495 259.861 87.5222C274.821 61.5244 259.227 0 204.644 0C150.06 0 134.466 61.5244 149.426 87.5222C160.356 106.52 162.739 123.376 163.236 131.081" fill="#00E9FF" fill-opacity="0.45"/>
<path opacity="0.2" d="M175.856 287.36L173.472 285.124C173.17 284.684 172.806 284.291 172.392 283.955C172.212 283.803 172.02 283.665 171.818 283.542L168.732 281.478L165.363 279.981C165.156 279.886 164.944 279.802 164.728 279.732C164.232 279.566 163.716 279.468 163.194 279.44L159.987 278.39C159.807 278.39 159.91 278.717 159.987 278.855L160.296 278.984C160.682 279.13 160.356 279.078 160.759 279.362L162.602 279.835C163.776 279.791 164.938 280.09 165.945 280.695L168.389 281.925L170.738 283.344C171.77 283.913 172.593 284.799 173.087 285.872L174.33 286.879C174.716 287.24 174.493 287.085 175.067 287.171L175.384 287.446C175.616 287.506 175.959 287.515 175.856 287.36Z" fill="black"/>
<path opacity="0.1" d="M169.152 282.63C169.342 282.336 169.598 282.089 169.898 281.908C170.334 281.639 170.846 281.521 171.355 281.573C171.956 281.634 172.539 281.816 173.07 282.106H173.13L173.987 282.57C174.21 282.691 174.415 282.828 174.621 282.966L175.016 283.258C175.607 283.731 175.436 284.66 174.913 285.4C174.623 285.813 174.289 286.193 173.918 286.535C173.592 286.819 173.199 287.016 172.776 287.108C172.354 287.199 171.915 287.183 171.501 287.059C171.116 286.938 170.746 286.777 170.395 286.578C170.07 286.388 169.763 286.169 169.478 285.924C169.126 285.595 168.883 285.165 168.782 284.693C168.681 284.221 168.726 283.729 168.912 283.284C168.968 283.058 169.048 282.839 169.152 282.63ZM162.079 278.33C162.542 277.617 163.331 277.075 163.999 277.298L164.428 277.462C164.645 277.547 164.857 277.644 165.062 277.754L165.843 278.158H165.894C166.384 278.418 166.809 278.785 167.137 279.233C167.272 279.415 167.369 279.622 167.423 279.842C167.478 280.062 167.488 280.291 167.454 280.515C167.403 280.847 167.274 281.163 167.077 281.435C166.917 281.629 166.736 281.805 166.537 281.96C166.178 282.311 165.733 282.561 165.247 282.687C164.762 282.812 164.251 282.807 163.768 282.673C163.423 282.564 163.09 282.42 162.774 282.243C162.467 282.054 162.18 281.835 161.916 281.59C161.642 281.333 161.452 281 161.371 280.633C161.29 280.266 161.321 279.883 161.462 279.534C161.622 279.114 161.829 278.713 162.079 278.339V278.33Z" fill="black"/>
<path d="M161.17 279.379L163.005 279.207C164.167 279.092 165.336 279.326 166.366 279.878L176.49 284.978L177.082 284.118L165.748 279.104C165.067 278.785 164.33 278.601 163.579 278.562L159.979 278.356C159.939 278.349 159.899 278.354 159.862 278.371C159.826 278.388 159.795 278.415 159.775 278.45C159.754 278.484 159.745 278.524 159.747 278.564C159.75 278.605 159.765 278.643 159.79 278.674L159.884 278.803C160.033 279.001 160.229 279.157 160.453 279.258C160.678 279.358 160.925 279.4 161.17 279.379V279.379Z" fill="#2B303F"/>
<path d="M174.27 286.741L173.507 285.021C173.014 283.948 172.195 283.06 171.166 282.484L161.916 276.928L162.439 276.129L172.221 282.656C172.871 283.07 173.431 283.611 173.867 284.247L175.967 287.326C176.07 287.481 175.916 287.678 175.71 287.644H175.53C175.261 287.612 175.005 287.512 174.785 287.354C174.564 287.197 174.387 286.986 174.27 286.741V286.741Z" fill="#2B303F"/>
<path opacity="0.3" d="M171.526 281.22C172.127 281.279 172.71 281.457 173.241 281.744H173.292L174.15 282.2C174.373 282.329 174.578 282.458 174.784 282.596C174.99 282.733 175.05 282.794 175.178 282.897C175.761 283.361 175.59 284.299 175.076 285.03C174.788 285.447 174.451 285.828 174.073 286.165C173.75 286.453 173.359 286.654 172.938 286.747C172.516 286.841 172.077 286.824 171.664 286.698C171.28 286.57 170.91 286.406 170.558 286.208C170.229 286.024 169.922 285.805 169.64 285.554C169.287 285.227 169.044 284.799 168.942 284.328C168.841 283.857 168.887 283.366 169.075 282.923C169.138 282.682 169.234 282.451 169.357 282.235C169.551 281.942 169.805 281.696 170.103 281.512C170.534 281.263 171.033 281.161 171.526 281.22V281.22Z" fill="url(#paint0_linear)"/>
<path d="M162.165 275.948L161.719 276.653C161.682 276.694 161.661 276.748 161.661 276.804C161.661 276.859 161.682 276.913 161.719 276.954C161.795 277.023 161.847 277.115 161.866 277.216C161.884 277.317 161.869 277.422 161.822 277.513L161.085 279.061C160.869 279.5 160.801 279.997 160.891 280.477C160.98 280.958 161.223 281.397 161.582 281.727V281.727C162.205 282.285 162.943 282.699 163.742 282.94V282.94C164.338 283.122 164.972 283.139 165.576 282.987C166.18 282.836 166.731 282.522 167.171 282.08L167.857 281.383C168.009 281.235 168.1 281.036 168.114 280.824C168.128 280.73 168.163 280.641 168.218 280.563C168.272 280.486 168.344 280.422 168.427 280.378C168.511 280.333 168.604 280.309 168.698 280.308C168.793 280.306 168.887 280.327 168.972 280.368L169.143 280.454L169.315 280.558C169.384 280.608 169.44 280.676 169.477 280.754C169.513 280.832 169.529 280.918 169.523 281.004C169.517 281.091 169.489 281.174 169.442 281.246C169.395 281.318 169.331 281.377 169.255 281.418C169.062 281.52 168.908 281.683 168.817 281.882L168.432 282.742C168.188 283.289 168.128 283.9 168.259 284.485C168.391 285.069 168.707 285.595 169.16 285.984V285.984C169.815 286.564 170.583 287 171.415 287.266V287.266C171.948 287.438 172.519 287.458 173.062 287.323C173.606 287.187 174.101 286.903 174.493 286.5L175.779 285.141C175.864 285.055 175.972 284.994 176.089 284.964C176.207 284.933 176.331 284.935 176.447 284.969C176.509 284.991 176.576 284.992 176.639 284.974C176.702 284.955 176.758 284.918 176.799 284.866L177.322 284.144C177.376 284.079 177.406 283.997 177.406 283.912C177.406 283.827 177.376 283.745 177.322 283.679C176.503 282.863 175.56 282.184 174.527 281.667L173.67 281.203C173.035 280.856 172.339 280.64 171.621 280.566L170.986 280.497C170.845 280.504 170.706 280.455 170.601 280.36C170.538 280.271 170.456 280.197 170.36 280.145L169.658 279.766L168.955 279.379C168.853 279.328 168.742 279.299 168.629 279.293C168.547 279.291 168.467 279.271 168.395 279.234C168.322 279.196 168.258 279.143 168.209 279.078L167.866 278.614C167.47 278.082 166.956 277.649 166.366 277.35L165.585 276.937C164.663 276.388 163.654 276.002 162.602 275.793C162.522 275.776 162.439 275.782 162.362 275.809C162.285 275.836 162.217 275.885 162.165 275.948ZM169.323 282.286C169.516 281.994 169.771 281.747 170.069 281.564C170.505 281.296 171.018 281.181 171.526 281.237C172.127 281.296 172.71 281.474 173.241 281.762H173.292L174.15 282.217C174.373 282.346 174.578 282.475 174.784 282.613C174.99 282.751 175.05 282.811 175.178 282.914C175.761 283.378 175.59 284.316 175.076 285.047C174.788 285.464 174.451 285.845 174.073 286.182C173.75 286.471 173.359 286.671 172.938 286.765C172.516 286.858 172.077 286.841 171.664 286.715C171.28 286.587 170.91 286.423 170.558 286.225C170.229 286.041 169.922 285.822 169.64 285.571C169.287 285.245 169.044 284.817 168.942 284.346C168.841 283.874 168.887 283.384 169.075 282.94C169.13 282.713 169.214 282.493 169.323 282.286ZM162.242 277.986C162.713 277.281 163.494 276.739 164.171 276.963C164.316 277.007 164.459 277.059 164.6 277.118C164.814 277.204 165.028 277.307 165.234 277.41L166.014 277.823H166.065C166.552 278.087 166.976 278.454 167.309 278.898C167.443 279.082 167.539 279.29 167.592 279.512C167.645 279.733 167.653 279.963 167.617 280.188C167.568 280.518 167.439 280.831 167.24 281.099C167.082 281.298 166.901 281.477 166.7 281.633C166.34 281.983 165.895 282.233 165.41 282.359C164.924 282.484 164.414 282.48 163.931 282.346C163.588 282.236 163.257 282.089 162.945 281.908C162.636 281.725 162.349 281.509 162.088 281.263C161.814 281.005 161.624 280.669 161.543 280.301C161.462 279.933 161.493 279.549 161.633 279.199C161.795 278.778 161.999 278.375 162.242 277.995V277.986Z" fill="#2B303F"/>
<path d="M166.631 281.77C166.273 282.123 165.828 282.375 165.342 282.5C164.856 282.625 164.346 282.62 163.862 282.484C163.523 282.384 163.196 282.248 162.885 282.08C162.574 281.9 162.287 281.684 162.028 281.435C161.754 281.179 161.563 280.845 161.482 280.478C161.401 280.111 161.433 279.728 161.573 279.379C161.742 278.944 161.958 278.529 162.216 278.141V278.141C161.979 278.503 161.781 278.89 161.625 279.293C161.485 279.643 161.453 280.028 161.534 280.396C161.615 280.764 161.805 281.099 162.079 281.357C162.34 281.604 162.628 281.82 162.936 282.002C163.249 282.183 163.579 282.33 163.922 282.441C164.406 282.574 164.916 282.578 165.401 282.453C165.887 282.328 166.332 282.078 166.691 281.727C166.89 281.573 167.071 281.397 167.231 281.203L167.171 281.22C167.015 281.425 166.834 281.61 166.631 281.77V281.77Z" fill="#1F232D"/>
<path d="M173.961 286.328C173.638 286.615 173.247 286.814 172.825 286.906C172.403 286.998 171.965 286.98 171.552 286.853C171.168 286.732 170.797 286.57 170.446 286.371C170.122 286.181 169.815 285.962 169.529 285.718C169.177 285.388 168.935 284.958 168.833 284.487C168.732 284.015 168.778 283.523 168.963 283.077C169.031 282.841 169.126 282.613 169.246 282.398L169.315 282.303C169.197 282.515 169.105 282.741 169.04 282.974C168.853 283.418 168.807 283.909 168.908 284.38C169.009 284.851 169.253 285.279 169.606 285.606C169.888 285.856 170.195 286.075 170.523 286.259C170.876 286.458 171.246 286.622 171.629 286.75C172.043 286.875 172.481 286.892 172.903 286.799C173.325 286.706 173.716 286.505 174.038 286.216C174.386 285.905 174.7 285.556 174.973 285.176V285.176C174.683 285.6 174.344 285.987 173.961 286.328V286.328Z" fill="#1F232D"/>
<path opacity="0.3" d="M167.309 278.932C166.976 278.489 166.552 278.122 166.065 277.857H166.014L165.234 277.445C165.028 277.341 164.814 277.238 164.6 277.152C164.459 277.093 164.316 277.041 164.171 276.997C163.494 276.774 162.713 277.316 162.242 278.021C161.985 278.41 161.77 278.825 161.599 279.259C161.459 279.609 161.428 279.993 161.509 280.361C161.59 280.73 161.78 281.065 162.053 281.323C162.314 281.569 162.602 281.786 162.911 281.968C163.223 282.149 163.553 282.296 163.897 282.407C164.38 282.54 164.89 282.544 165.376 282.419C165.861 282.294 166.306 282.043 166.666 281.693C166.866 281.538 167.048 281.359 167.206 281.16C167.404 280.892 167.534 280.579 167.583 280.248C167.628 280.022 167.626 279.788 167.579 279.562C167.532 279.336 167.44 279.122 167.309 278.932Z" fill="url(#paint1_linear)"/>
<defs>
<linearGradient id="paint0_linear" x1="172.195" y1="281.22" x2="172.195" y2="286.861" gradientUnits="userSpaceOnUse">
<stop offset="0.01" stop-color="white"/>
<stop offset="0.88" stop-color="white" stop-opacity="0"/>
</linearGradient>
<linearGradient id="paint1_linear" x1="1342.12" y1="2068.37" x2="1342.12" y2="2104.47" gradientUnits="userSpaceOnUse">
<stop offset="0.01" stop-color="white"/>
<stop offset="0.88" stop-color="white" stop-opacity="0"/>
</linearGradient>
</defs>
</svg>
