<svg width="70" height="69" viewBox="0 0 70 69" fill="none" xmlns="http://www.w3.org/2000/svg">
<path d="M43.8229 14.0444C43.8229 14.0444 45.2083 24.6293 37.3333 33.8234H30.3333C33.3888 30.5857 34.6834 26.1917 34.6843 21.8088C34.6843 19.6109 34.3561 17.4217 33.8555 15.2834C33.2014 12.4894 31.6458 9.28203 31.6458 9.28203L42.6319 7.62964C42.6319 7.62964 43.7014 10.7399 43.8229 14.0444Z" fill="#96B268"/>
<path d="M39.7954 23.36L37.4962 22.9618C38.2417 18.6527 37.6597 15.9505 37.6537 15.9237L39.9287 15.4055C39.9583 15.5321 40.628 18.5485 39.7954 23.36Z" fill="#88A35A"/>
<path d="M28.5276 34.2239L26.3362 33.4221C30.0122 23.3751 28.0992 17.0166 25.8469 13.4517L27.8198 12.2061C30.3514 16.214 32.5293 23.2866 28.5276 34.2239V34.2239Z" fill="#FFB431"/>
<path d="M22.7168 6.34436C22.139 5.15821 21.4916 4.00719 20.7782 2.89728L22.7363 1.62891C23.5005 2.81693 24.1938 4.04901 24.8127 5.31872L22.7168 6.34436Z" fill="#FFB431"/>
<path d="M14 33.8235V45.4867H10.5C9.57174 45.4867 8.6815 45.8554 8.02513 46.5116C7.36875 47.1677 7 48.0577 7 48.9857C7 49.9137 7.36875 50.8037 8.02513 51.4599C8.6815 52.116 9.57174 52.4847 10.5 52.4847H14V57.15C14 59.0059 14.7375 60.7859 16.0503 62.0983C17.363 63.4106 19.1435 64.1479 21 64.1479H26.8333V68.8132H52.5V63.6699C52.5 59.3822 53.4985 55.1534 55.4167 51.3184C57.3348 47.4833 58.3334 43.2545 58.3333 38.9668V33.8235H14Z" fill="#FDC8A2"/>
<path d="M50.1992 48.7104C49.5975 49.9147 49.0694 51.1544 48.6178 52.4225L50.8158 53.2048C51.2358 52.0258 51.7268 50.8733 52.2861 49.7535C53.3608 47.6019 54.1079 45.3019 54.5027 42.9295L52.2013 42.5449C51.8447 44.6883 51.1698 46.7663 50.1992 48.7104V48.7104Z" fill="#FDB683"/>
<path d="M52.5 38.4888V38.9668C52.5 39.55 52.4757 40.1423 52.4271 40.7259L54.7526 40.9169C54.8058 40.27 54.8328 39.614 54.8328 38.9668V38.4888H52.5Z" fill="#FDB683"/>
<path d="M19.1498 52.6848C18.4751 53.363 17.6725 53.9007 16.7886 54.2667C15.9046 54.6328 14.9568 54.8199 14 54.8173V57.15C15.2634 57.1534 16.5149 56.9063 17.6821 56.423C18.8493 55.9396 19.909 55.2297 20.7999 54.3342L21.825 53.3094L20.175 51.6599L19.1498 52.6848Z" fill="#FDB683"/>
<path d="M26.8333 64.1479H36.1666V66.4806H26.8333V64.1479Z" fill="#FDB683"/>
<path d="M7.00002 5.83156L9.33335 1.16626L11.6667 5.83156L17.5 6.99788L14 10.4969L15.1667 15.1622L9.33335 12.8295L3.50002 15.1622L4.66669 10.4969L1.16669 6.99788L7.00002 5.83156Z" fill="#FFB431"/>
<path d="M26.8333 33.8234C23.3333 22.1602 15.1667 15.1622 15.1667 15.1622L9.33333 12.8296L3.5 15.1622C3.5 15.1622 18.6667 22.1602 22.1667 33.8234H26.8333Z" fill="#DE5540"/>
<path d="M31.5 33.8233C29.1667 18.661 17.5 6.9978 17.5 6.9978L14 10.4968L15.1667 15.1621C15.1667 15.1621 23.3333 22.16 26.8333 33.8233H31.5Z" fill="#D64A34"/>
<path d="M61.5679 18.2528L53.9357 12.8822L59.6625 4.74869C60.5649 3.46705 61.8065 2.46194 63.2481 1.84601C64.6898 1.23007 66.2745 1.02763 67.8248 1.26138C68.5679 2.64146 68.9119 4.20116 68.8183 5.7657C68.7247 7.33024 68.1971 8.83781 67.2947 10.1195L61.5679 18.2528Z" fill="#DE5540"/>
<path d="M65.1386 5.07593C64.6324 4.72057 64.0058 4.58047 63.3963 4.68635C62.7868 4.79223 62.2442 5.13545 61.8876 5.64072C61.622 6.018 61.4742 6.46554 61.4631 6.92675C61.4519 7.38796 61.5777 7.84213 61.8248 8.23183C62.0718 8.62152 62.4288 8.92924 62.8508 9.11607C63.2727 9.3029 63.7406 9.36046 64.1953 9.28145C64.65 9.20245 65.071 8.99044 65.4051 8.67223C65.7393 8.35401 65.9715 7.9439 66.0725 7.49373C66.1735 7.04357 66.1387 6.57358 65.9725 6.14318C65.8063 5.71279 65.5162 5.34134 65.1388 5.07578L65.1386 5.07593Z" fill="#FFB431"/>
<path d="M57.2934 8.113L52.1342 7.33521L48.105 13.0576L52.0276 11.5391L53.9357 12.8818L57.2934 8.113Z" fill="#348ED8"/>
<path d="M64.9256 13.4839L67.3986 18.0766L63.3694 23.7992L63.4758 19.5951L61.5679 18.2525L64.9256 13.4839Z" fill="#348ED8"/>
<path d="M57.9278 21.3961L52.2036 17.368L55.8438 14.2244L59.6598 16.9097L57.9278 21.3961Z" fill="#348ED8"/>
<path d="M50.1667 19.8276C50.1667 19.8276 44.3333 25.6593 44.3333 33.8235H50.1667C54.8333 30.3246 56 23.3266 56 23.3266L50.1667 19.8276Z" fill="#FFB431"/>
<path d="M47.9614 28.5688L51.4581 22.7405L53.4579 23.9396L49.9612 29.7679L47.9614 28.5688Z" fill="#F9A614"/>
<path d="M37.3333 12.8288C40.555 12.8288 43.1667 10.2179 43.1667 6.99715C43.1667 3.77643 40.555 1.16553 37.3333 1.16553C34.1117 1.16553 31.5 3.77643 31.5 6.99715C31.5 10.2179 34.1117 12.8288 37.3333 12.8288Z" fill="#348ED8"/>
<path d="M29.1601 11.9899C28.3758 11.9878 27.6148 11.7225 26.9992 11.2366C26.3836 10.7507 25.9489 10.0723 25.7648 9.31008C25.7002 9.04104 25.6673 8.76538 25.6667 8.4887C25.6653 7.70294 25.9293 6.93972 26.4158 6.32257C26.9023 5.70543 27.5829 5.27048 28.3474 5.08813L44.2264 1.26375C45.1288 1.04749 46.0801 1.19794 46.8717 1.68208C47.6632 2.16621 48.2303 2.9445 48.4485 3.84614C48.513 4.11519 48.5459 4.39085 48.5465 4.66752C48.5479 5.45294 48.2841 6.21586 47.7979 6.83279C47.3116 7.44971 46.6314 7.88455 45.8672 8.06692L29.9869 11.891C29.7162 11.9565 29.4386 11.9897 29.1601 11.9899ZM31.973 6.61339L28.8947 7.35547C28.6397 7.41609 28.4127 7.56096 28.2503 7.76662C28.088 7.97228 27.9998 8.2267 28 8.4887C28.0005 8.58247 28.0119 8.67588 28.034 8.76701C28.1072 9.06682 28.2964 9.32535 28.56 9.4859C28.8236 9.64645 29.1402 9.69589 29.4403 9.62338L45.32 5.7993C45.5746 5.73866 45.8012 5.59394 45.9633 5.38855C46.1254 5.18317 46.2134 4.92912 46.2131 4.66752C46.2127 4.5738 46.2014 4.48045 46.1793 4.38936C46.1062 4.08939 45.9171 3.83065 45.6534 3.66985C45.3898 3.50904 45.0731 3.4593 44.7729 3.53152L31.973 6.61354V6.61339Z" fill="#4DB6E4"/>
<path d="M31.6185 8.17252C31.316 6.7027 31.5918 5.17287 32.3885 3.90108C33.1852 2.62929 34.4415 1.71338 35.8963 1.34377C37.3511 0.974167 38.8925 1.1793 40.1999 1.91652C41.5073 2.65374 42.4802 3.86633 42.9164 5.30219" fill="#348ED8"/>
<path d="M37.3333 3.49829H39.6667V5.83094H37.3333V3.49829Z" fill="#2B83CC"/>
<path d="M4.66669 32.657V27.9917L8.16669 30.3243L11.6667 27.9917V33.8233L15.1667 37.3223H9.33335L7.00002 41.9876L5.10419 37.2737L1.16669 36.156L4.66669 32.657Z" fill="#FFB431"/>
<path d="M16.5107 34.4415C15.7683 33.2571 14.9198 32.1426 13.9756 31.1117L15.6975 29.5371C16.7374 30.6726 17.6719 31.9004 18.4893 33.2051L16.5107 34.4415Z" fill="#96B268"/>
<path d="M7.58798 26.0632C3.97861 24.0021 0.942504 23.3054 0.91217 23.2985L1.41967 21.0217C1.55632 21.0521 4.81044 21.7909 8.74532 24.0376L7.58798 26.0632Z" fill="#96B268"/>
<path d="M53.0671 3.9031L50.8785 3.09484C51.0854 2.53311 51.3333 1.54042 51.3333 0H53.6667C53.6667 1.51345 53.465 2.82673 53.0671 3.9031V3.9031Z" fill="#DE5540"/>
<path d="M57.0799 34.4901L55.4057 32.8654C55.4366 32.8335 58.508 29.6377 59.2936 26.5835L61.5541 27.1645C60.6121 30.8241 57.2238 34.3422 57.0799 34.4901Z" fill="#96B268"/>
<path d="M65.119 30.3409L63.506 28.6553C63.6138 28.5524 66.1866 26.1369 69.7117 26.5919L69.4133 28.9055C67.0205 28.5964 65.1373 30.3234 65.119 30.3409Z" fill="#DE5540"/>
<path d="M70 38.4887H67.6667V36.156H65.3333V38.4887H63V40.8213H65.3333V43.154H67.6667V40.8213H70V38.4887Z" fill="#FFB431"/>
<path d="M9.33331 57.15H6.99998V54.8174H4.66665V57.15H2.33331V59.4827H4.66665V61.8153H6.99998V59.4827H9.33331V57.15Z" fill="#FFB431"/>
<path d="M60.6667 47.8193H63V50.152H60.6667V47.8193Z" fill="#DE5540"/>
<path d="M64.1667 52.4846H66.5V54.8173H64.1667V52.4846Z" fill="#96B268"/>
<path d="M0 48.9856H2.33333V51.3182H0V48.9856Z" fill="#DE5540"/>
<path d="M40.8333 37.3225H43.1667V39.6552H40.8333V37.3225Z" fill="#DE5540"/>
<path d="M36.1667 44.3203H38.5V46.653H36.1667V44.3203Z" fill="#96B268"/>
<path d="M14 0H16.3333V2.33265H14V0Z" fill="#DE5540"/>
<path d="M46.6667 16.3286H49V18.6613H46.6667V16.3286Z" fill="#96B268"/>
</svg>
