<svg width="70" height="70" viewBox="0 0 70 70" fill="none" xmlns="http://www.w3.org/2000/svg">
<path d="M43.8229 14.2479C43.8229 14.2479 45.2083 24.9862 37.3333 34.3136H30.3333C33.3888 31.029 34.6834 26.5713 34.6843 22.1249C34.6843 19.8951 34.3561 17.6742 33.8555 15.5049C33.2014 12.6704 31.6458 9.41654 31.6458 9.41654L42.6319 7.7402C42.6319 7.7402 43.7014 10.8955 43.8229 14.2479Z" fill="#BDCEFA"/>
<path d="M39.7954 23.6985L37.4962 23.2946C38.2417 18.923 37.6597 16.1817 37.6537 16.1545L39.9287 15.6288C39.9583 15.7572 40.628 18.8173 39.7954 23.6985Z" fill="#A0BBFF"/>
<path d="M28.5276 34.7199L26.3362 33.9065C30.0122 23.7139 28.0992 17.2632 25.8469 13.6466L27.8198 12.383C30.3514 16.449 32.5293 23.6241 28.5276 34.7199Z" fill="#FFB431"/>
<path d="M22.7168 6.43632C22.139 5.23298 21.4916 4.06527 20.7782 2.93928L22.7363 1.65253C23.5005 2.85776 24.1938 4.1077 24.8127 5.39581L22.7168 6.43632Z" fill="#FFB431"/>
<path d="M14 34.3137V46.1459H10.5C9.57174 46.1459 8.6815 46.52 8.02513 47.1857C7.36875 47.8513 7 48.7542 7 49.6957C7 50.6371 7.36875 51.54 8.02513 52.2057C8.6815 52.8713 9.57174 53.2454 10.5 53.2454H14V57.9783C14 59.8611 14.7375 61.6669 16.0503 62.9983C17.363 64.3296 19.1435 65.0776 21 65.0776H26.8333V69.8105H52.5V64.5927C52.5 60.2428 53.4985 55.9527 55.4167 52.0622C57.3348 48.1715 58.3334 43.8814 58.3333 39.5316V34.3137H14Z" fill="#FDC8A2"/>
<path d="M50.1992 49.4164C49.5975 50.6381 49.0694 51.8958 48.6178 53.1823L50.8158 53.9759C51.2358 52.7798 51.7268 51.6106 52.2861 50.4746C53.3608 48.2918 54.1079 45.9585 54.5027 43.5517L52.2013 43.1615C51.8447 45.336 51.1698 47.4441 50.1992 49.4164Z" fill="#FDB683"/>
<path d="M52.5 39.0466V39.5316C52.5 40.1232 52.4757 40.7241 52.4271 41.3161L54.7526 41.5099C54.8058 40.8536 54.8328 40.1881 54.8328 39.5316V39.0466H52.5Z" fill="#FDB683"/>
<path d="M19.1498 53.4483C18.4751 54.1364 17.6725 54.6818 16.7886 55.0532C15.9046 55.4246 14.9568 55.6144 14 55.6117V57.9782C15.2634 57.9817 16.5149 57.731 17.6821 57.2407C18.8493 56.7503 19.909 56.0301 20.7999 55.1216L21.825 54.082L20.175 52.4086L19.1498 53.4483Z" fill="#FDB683"/>
<path d="M26.8333 65.0776H36.1666V67.4441H26.8333V65.0776Z" fill="#FDB683"/>
<path d="M7.00002 5.91608L9.33335 1.18317L11.6667 5.91608L17.5 7.0993L14 10.649L15.1667 15.3819L9.33335 13.0154L3.50002 15.3819L4.66669 10.649L1.16669 7.0993L7.00002 5.91608Z" fill="#FFB431"/>
<path d="M26.8333 34.3136C23.3333 22.4814 15.1667 15.3819 15.1667 15.3819L9.33333 13.0155L3.5 15.3819C3.5 15.3819 18.6667 22.4814 22.1667 34.3136H26.8333Z" fill="#A7BFFF"/>
<path d="M31.5 34.3135C29.1667 18.9314 17.5 7.09921 17.5 7.09921L14 10.6489L15.1667 15.3818C15.1667 15.3818 23.3333 22.4812 26.8333 34.3135H31.5Z" fill="#BDCEFA"/>
<path d="M61.5679 18.5173L53.9357 13.0689L59.6625 4.81751C60.5649 3.51729 61.8065 2.49762 63.2481 1.87276C64.6898 1.24789 66.2745 1.04252 67.8248 1.27966C68.5679 2.67974 68.9119 4.26204 68.8183 5.84926C68.7247 7.43647 68.1971 8.96589 67.2947 10.2662L61.5679 18.5173Z" fill="#00E9FF"/>
<path d="M65.1386 5.14949C64.6324 4.78898 64.0058 4.64685 63.3963 4.75426C62.7868 4.86168 62.2442 5.20987 61.8876 5.72246C61.622 6.10521 61.4742 6.55924 61.4631 7.02713C61.4519 7.49503 61.5777 7.95578 61.8248 8.35113C62.0718 8.74646 62.4288 9.05864 62.8508 9.24818C63.2727 9.43772 63.7406 9.49611 64.1953 9.41596C64.65 9.33581 65.071 9.12073 65.4051 8.79791C65.7393 8.47508 65.9715 8.05902 66.0725 7.60233C66.1735 7.14565 66.1387 6.66884 65.9725 6.23221C65.8063 5.79558 65.5162 5.41875 65.1388 5.14934L65.1386 5.14949Z" fill="#FFB431"/>
<path d="M57.2934 8.23059L52.1342 7.44153L48.105 13.2469L52.0276 11.7063L53.9357 13.0685L57.2934 8.23059Z" fill="#348ED8"/>
<path d="M64.9256 13.6793L67.3986 18.3386L63.3694 24.1441L63.4758 19.8791L61.5679 18.517L64.9256 13.6793Z" fill="#348ED8"/>
<path d="M57.9278 21.7062L52.2036 17.6197L55.8438 14.4305L59.6598 17.1548L57.9278 21.7062Z" fill="#348ED8"/>
<path d="M50.1667 20.1149C50.1667 20.1149 44.3333 26.0311 44.3333 34.3137H50.1667C54.8333 30.7641 56 23.6646 56 23.6646L50.1667 20.1149Z" fill="#FFB431"/>
<path d="M47.9614 28.9828L51.4581 23.0701L53.4579 24.2865L49.9612 30.1993L47.9614 28.9828Z" fill="#F9A614"/>
<path d="M37.3333 13.0147C40.555 13.0147 43.1667 10.366 43.1667 7.09857C43.1667 3.83117 40.555 1.18243 37.3333 1.18243C34.1117 1.18243 31.5 3.83117 31.5 7.09857C31.5 10.366 34.1117 13.0147 37.3333 13.0147Z" fill="#348ED8"/>
<path d="M29.1601 12.1637C28.3758 12.1615 27.6148 11.8924 26.9992 11.3994C26.3836 10.9065 25.9489 10.2183 25.7648 9.445C25.7002 9.17206 25.6673 8.89241 25.6667 8.61172C25.6653 7.81457 25.9293 7.04029 26.4158 6.41419C26.9023 5.78811 27.5829 5.34685 28.3474 5.16186L44.2264 1.28206C45.1288 1.06266 46.0801 1.21529 46.8717 1.70645C47.6632 2.1976 48.2303 2.98717 48.4485 3.90187C48.513 4.17482 48.5459 4.45448 48.5465 4.73516C48.5479 5.53196 48.2841 6.30594 47.7979 6.93181C47.3116 7.55767 46.6314 7.99881 45.8672 8.18382L29.9869 12.0633C29.7162 12.1298 29.4386 12.1635 29.1601 12.1637ZM31.973 6.70923L28.8947 7.46206C28.6397 7.52356 28.4127 7.67053 28.2503 7.87917C28.088 8.08781 27.9998 8.34592 28 8.61172C28.0005 8.70684 28.0119 8.80161 28.034 8.89406C28.1072 9.19821 28.2964 9.46049 28.56 9.62337C28.8236 9.78624 29.1402 9.8364 29.4403 9.76284L45.32 5.88334C45.5746 5.82182 45.8012 5.675 45.9633 5.46664C46.1254 5.25828 46.2134 5.00055 46.2131 4.73516C46.2127 4.64008 46.2014 4.54538 46.1793 4.45297C46.1062 4.14865 45.9171 3.88616 45.6534 3.72303C45.3898 3.55989 45.0731 3.50943 44.7729 3.58269L31.973 6.70938V6.70923Z" fill="#4DB6E4"/>
<path d="M31.6185 8.29097C31.316 6.79985 31.5918 5.24785 32.3885 3.95762C33.1852 2.6674 34.4415 1.73822 35.8963 1.36325C37.3511 0.988292 38.8925 1.1964 40.1999 1.9443C41.5073 2.69221 42.4802 3.92237 42.9164 5.37904" fill="#348ED8"/>
<path d="M37.3333 3.54898H39.6667V5.91544H37.3333V3.54898Z" fill="#2B83CC"/>
<path d="M4.66669 33.1303V28.3974L8.16669 30.7638L11.6667 28.3974V34.3135L15.1667 37.8632H9.33335L7.00002 42.5961L5.10419 37.8139L1.16669 36.68L4.66669 33.1303Z" fill="#FFB431"/>
<path d="M16.5107 34.9406C15.7683 33.7391 14.9198 32.6084 13.9756 31.5626L15.6975 29.9651C16.7374 31.1171 17.6719 32.3627 18.4893 33.6863L16.5107 34.9406Z" fill="#A0BBFF"/>
<path d="M7.58798 26.4409C3.97861 24.3499 0.942504 23.6432 0.91217 23.6362L1.41967 21.3264C1.55632 21.3572 4.81044 22.1067 8.74532 24.386L7.58798 26.4409Z" fill="#A0BBFF"/>
<path d="M53.0671 3.95967L50.8785 3.13969C51.0854 2.56982 51.3333 1.56274 51.3333 0H53.6667C53.6667 1.53538 53.465 2.8677 53.0671 3.95967Z" fill="#00E9FF"/>
<path d="M57.0799 34.9899L55.4057 33.3417C55.4366 33.3093 58.508 30.0672 59.2936 26.9688L61.5541 27.5582C60.6121 31.2708 57.2238 34.8399 57.0799 34.9899Z" fill="#A0BBFF"/>
<path d="M65.119 30.7806L63.506 29.0706C63.6138 28.9662 66.1866 26.5157 69.7117 26.9773L69.4133 29.3244C67.0205 29.0109 65.1373 30.7629 65.119 30.7806Z" fill="#00E9FF"/>
<path d="M70 39.0465H67.6667V36.68H65.3333V39.0465H63V41.4129H65.3333V43.7794H67.6667V41.4129H70V39.0465Z" fill="#FFB431"/>
<path d="M9.33331 57.9783H6.99998V55.6119H4.66665V57.9783H2.33331V60.3448H4.66665V62.7112H6.99998V60.3448H9.33331V57.9783Z" fill="#FFB431"/>
<path d="M60.6667 48.5123H63V50.8788H60.6667V48.5123Z" fill="#00E9FF"/>
<path d="M64.1667 53.2452H66.5V55.6117H64.1667V53.2452Z" fill="#A0BBFF"/>
<path d="M0 49.6956H2.33333V52.062H0V49.6956Z" fill="#00E9FF"/>
<path d="M40.8333 37.8634H43.1667V40.2299H40.8333V37.8634Z" fill="#00E9FF"/>
<path d="M36.1667 44.9626H38.5V47.3292H36.1667V44.9626Z" fill="#A0BBFF"/>
<path d="M14 0H16.3333V2.36646H14V0Z" fill="#00E9FF"/>
<path d="M46.6667 16.5652H49V18.9318H46.6667V16.5652Z" fill="#A0BBFF"/>
</svg>
