<svg width="71" height="52" viewBox="0 0 71 52" fill="none" xmlns="http://www.w3.org/2000/svg">
<path d="M70.2857 4.74643H67.0305V46.5657C67.0305 46.7174 66.9061 46.8408 66.7532 46.8408H4.24683C4.09387 46.8408 3.96948 46.7174 3.96948 46.5657V4.74643H0.714299C0.319777 4.74643 0 5.06366 0 5.45503V50.5214C0 50.9128 0.319777 51.23 0.714299 51.23H70.2857C70.6802 51.23 71 50.9128 71 50.5214V5.45503C71 5.06366 70.6802 4.74643 70.2857 4.74643Z" fill="#BDCEFA"/>
<path d="M35.6387 1.26616L35.5 0.494965H4.24683C4.01705 0.494965 3.83081 0.679716 3.83081 0.907663V46.5657C3.83081 46.7937 4.01705 46.9784 4.24683 46.9784H35.5L35.6387 46.2971V1.26616Z" fill="#DFF6FD"/>
<path d="M5.78567 50.5213V46.9784H4.24683C4.01705 46.9784 3.83081 46.7936 3.83081 46.5657V4.74643H0.714299C0.319777 4.74643 0 5.06366 0 5.45503V50.5214C0 50.9128 0.319777 51.23 0.714299 51.23H6.49997C6.10545 51.2299 5.78567 50.9127 5.78567 50.5213V50.5213Z" fill="#ACC3FF"/>
<path d="M3.83081 0.907663V46.5657C3.83081 46.7937 4.01705 46.9784 4.24683 46.9784H7.49993V0.494965H4.24683C4.01705 0.494965 3.83081 0.679716 3.83081 0.907663V0.907663Z" fill="#C8EFFE"/>
<path d="M66.7532 46.9784H35.5V0.494965H66.7532C66.983 0.494965 67.1692 0.679716 67.1692 0.907663V46.5657C67.1692 46.7937 66.983 46.9784 66.7532 46.9784Z" fill="#FFF3DE"/>
<path d="M35.5 0.494965H40.4022V46.9784H35.5V0.494965Z" fill="#FFE5C2"/>
<path d="M18.9435 24.1796C23.8401 24.1796 27.8096 20.2417 27.8096 15.3841C27.8096 10.5266 23.8401 6.58871 18.9435 6.58871C14.0469 6.58871 10.0774 10.5266 10.0774 15.3841C10.0774 20.2417 14.0469 24.1796 18.9435 24.1796Z" fill="#4FC123"/>
<path d="M14.9285 15.3842C14.9285 11.3613 17.6522 7.97168 21.3691 6.9248C20.598 6.70759 19.785 6.58887 18.9436 6.58887C14.047 6.58887 10.0775 10.5267 10.0775 15.3843C10.0775 20.2419 14.047 24.1797 18.9436 24.1797C19.785 24.1797 20.598 24.061 21.3691 23.8438C17.6522 22.7966 14.9285 19.407 14.9285 15.3842Z" fill="#47A920"/>
<path d="M18.9435 25.2113C13.4812 25.2113 9.03735 20.8029 9.03735 15.3841C9.03735 9.96542 13.4812 5.55698 18.9435 5.55698C24.4058 5.55698 28.8497 9.96542 28.8497 15.3841C28.8497 20.8029 24.4058 25.2113 18.9435 25.2113ZM18.9435 7.62061C14.6282 7.62061 11.1174 11.1034 11.1174 15.3843C11.1174 19.6652 14.628 23.148 18.9435 23.148C23.259 23.148 26.7696 19.6652 26.7696 15.3843C26.7696 11.1034 23.259 7.62061 18.9435 7.62061V7.62061Z" fill="#68CA44"/>
<path d="M18.4852 18.9406C18.2191 18.9406 17.9528 18.8399 17.7497 18.6384L14.8347 15.7468C14.4285 15.3438 14.4285 14.6905 14.8347 14.2877C15.241 13.8848 15.8994 13.8848 16.3055 14.2877L18.4851 16.4499L22.2676 12.6973C22.6739 12.2944 23.3323 12.2944 23.7385 12.6973C24.1447 13.1003 24.1447 13.7536 23.7385 14.1564L19.2204 18.6384C19.0176 18.8399 18.7513 18.9406 18.4852 18.9406V18.9406Z" fill="white"/>
<path d="M52.0564 23.6127C56.9531 23.6127 60.9226 19.6748 60.9226 14.8172C60.9226 9.95967 56.9531 6.02182 52.0564 6.02182C47.1598 6.02182 43.1903 9.95967 43.1903 14.8172C43.1903 19.6748 47.1598 23.6127 52.0564 23.6127Z" fill="#FB2B3A"/>
<path d="M53.5273 14.6137L55.371 12.7847C55.7772 12.3818 55.7772 11.7285 55.371 11.3257C54.9647 10.9228 54.3063 10.9228 53.9001 11.3257L52.0566 13.1545L50.2131 11.3257C49.8068 10.9228 49.1484 10.9228 48.7422 11.3257C48.336 11.7286 48.336 12.3819 48.7422 12.7847L50.5858 14.6137L48.7422 16.4426C48.336 16.8455 48.336 17.4988 48.7422 17.9016C48.9453 18.103 49.2116 18.2039 49.4777 18.2039C49.7438 18.2039 50.0101 18.1032 50.2132 17.9016L52.0567 16.0728L53.9002 17.9016C54.1034 18.103 54.3696 18.2039 54.6357 18.2039C54.9019 18.2039 55.1681 18.1032 55.3713 17.9016C55.7774 17.4987 55.7774 16.8454 55.3713 16.4426L53.5273 14.6137Z" fill="white"/>
<path d="M47.9286 14.8172C47.9286 10.774 50.6797 7.37038 54.4255 6.34194C53.6711 6.13476 52.8772 6.02182 52.0564 6.02182C47.1598 6.02182 43.1903 9.95965 43.1903 14.8172C43.1903 19.6748 47.1598 23.6127 52.0564 23.6127C52.8774 23.6127 53.6711 23.4997 54.4255 23.2926C50.6797 22.2643 47.9286 18.8606 47.9286 14.8172Z" fill="#E41F2D"/>
<path d="M52.0564 24.6444C46.5941 24.6444 42.1503 20.236 42.1503 14.8173C42.1503 9.39853 46.5941 4.99008 52.0564 4.99008C57.5187 4.99008 61.9626 9.39853 61.9626 14.8173C61.9625 20.236 57.5186 24.6444 52.0564 24.6444V24.6444ZM52.0564 7.05357C47.7411 7.05357 44.2303 10.5363 44.2303 14.8173C44.2303 19.0982 47.741 22.5809 52.0564 22.5809C56.3719 22.5809 59.8825 19.0982 59.8825 14.8173C59.8824 10.5363 56.3718 7.05357 52.0564 7.05357V7.05357Z" fill="#C41926"/>
<path d="M25.5865 30.1537H12.3008C11.7263 30.1537 11.2607 29.6917 11.2607 29.1219C11.2607 28.5521 11.7263 28.0902 12.3008 28.0902H25.5865C26.161 28.0902 26.6266 28.5521 26.6266 29.1219C26.6266 29.6917 26.1609 30.1537 25.5865 30.1537Z" fill="#68CA44"/>
<path d="M25.5865 33.9801H12.3008C11.7263 33.9801 11.2607 33.5181 11.2607 32.9483C11.2607 32.3785 11.7263 31.9166 12.3008 31.9166H25.5865C26.161 31.9166 26.6266 32.3785 26.6266 32.9483C26.6266 33.5181 26.1609 33.9801 25.5865 33.9801Z" fill="#68CA44"/>
<path d="M25.5865 37.8065H12.3008C11.7263 37.8065 11.2607 37.3445 11.2607 36.7747C11.2607 36.2049 11.7263 35.743 12.3008 35.743H25.5865C26.161 35.743 26.6266 36.2049 26.6266 36.7747C26.6266 37.3445 26.1609 37.8065 25.5865 37.8065Z" fill="#68CA44"/>
<path d="M25.5865 41.6329H12.3008C11.7263 41.6329 11.2607 41.1709 11.2607 40.6011C11.2607 40.0313 11.7263 39.5694 12.3008 39.5694H25.5865C26.161 39.5694 26.6266 40.0313 26.6266 40.6011C26.6266 41.1709 26.1609 41.6329 25.5865 41.6329Z" fill="#68CA44"/>
<path d="M58.6992 30.1537H45.4135C44.839 30.1537 44.3735 29.6917 44.3735 29.1219C44.3735 28.5521 44.839 28.0902 45.4135 28.0902H58.6992C59.2738 28.0902 59.7393 28.5521 59.7393 29.1219C59.7393 29.6917 59.2736 30.1537 58.6992 30.1537Z" fill="#FB2B3A"/>
<path d="M58.6992 33.9801H45.4135C44.839 33.9801 44.3735 33.5181 44.3735 32.9483C44.3735 32.3785 44.839 31.9166 45.4135 31.9166H58.6992C59.2738 31.9166 59.7393 32.3785 59.7393 32.9483C59.7393 33.5181 59.2736 33.9801 58.6992 33.9801Z" fill="#FB2B3A"/>
<path d="M58.6992 37.8065H45.4135C44.839 37.8065 44.3735 37.3445 44.3735 36.7747C44.3735 36.2049 44.839 35.743 45.4135 35.743H58.6992C59.2738 35.743 59.7393 36.2049 59.7393 36.7747C59.7393 37.3445 59.2736 37.8065 58.6992 37.8065Z" fill="#FB2B3A"/>
<path d="M58.6992 41.6329H45.4135C44.839 41.6329 44.3735 41.1709 44.3735 40.6011C44.3735 40.0313 44.839 39.5694 45.4135 39.5694H58.6992C59.2738 39.5694 59.7393 40.0313 59.7393 40.6011C59.7393 41.1709 59.2736 41.6329 58.6992 41.6329Z" fill="#FB2B3A"/>
<path d="M38.3572 9.17952H32.6429C32.0684 9.17952 31.6029 8.71757 31.6029 8.14777C31.6029 7.57797 32.0684 7.11603 32.6429 7.11603H38.3572C38.9317 7.11603 39.3972 7.57797 39.3972 8.14777C39.3972 8.71757 38.9316 9.17952 38.3572 9.17952Z" fill="#00E9FF"/>
<path d="M38.3572 7.11603H35.5V9.17952H38.3572C38.9317 9.17952 39.3972 8.71757 39.3972 8.14777C39.3972 7.57784 38.9316 7.11603 38.3572 7.11603V7.11603Z" fill="#00C4D7"/>
<path d="M38.3572 19.0052H32.6429C32.0684 19.0052 31.6029 18.5432 31.6029 17.9734C31.6029 17.4036 32.0684 16.9417 32.6429 16.9417H38.3572C38.9317 16.9417 39.3972 17.4036 39.3972 17.9734C39.3972 18.5432 38.9316 19.0052 38.3572 19.0052Z" fill="#00E9FF"/>
<path d="M38.3572 28.831H32.6429C32.0684 28.831 31.6029 28.369 31.6029 27.7992C31.6029 27.2294 32.0684 26.7675 32.6429 26.7675H38.3572C38.9317 26.7675 39.3972 27.2294 39.3972 27.7992C39.3972 28.369 38.9316 28.831 38.3572 28.831Z" fill="#00E9FF"/>
<path d="M38.3572 38.6568H32.6429C32.0684 38.6568 31.6029 38.1948 31.6029 37.625C31.6029 37.0552 32.0684 36.5933 32.6429 36.5933H38.3572C38.9317 36.5933 39.3972 37.0552 39.3972 37.625C39.3972 38.1948 38.9316 38.6568 38.3572 38.6568Z" fill="#00E9FF"/>
<path d="M38.3572 16.9417H35.5V19.0052H38.3572C38.9317 19.0052 39.3972 18.5432 39.3972 17.9734C39.3972 17.4036 38.9316 16.9417 38.3572 16.9417Z" fill="#00C4D7"/>
<path d="M38.3572 26.7675H35.5V28.831H38.3572C38.9317 28.831 39.3972 28.369 39.3972 27.7992C39.3972 27.2294 38.9316 26.7675 38.3572 26.7675Z" fill="#00C4D7"/>
<path d="M38.3572 36.5933H35.5V38.6568H38.3572C38.9317 38.6568 39.3972 38.1948 39.3972 37.625C39.3972 37.0552 38.9316 36.5933 38.3572 36.5933Z" fill="#00C4D7"/>
</svg>
