<svg width="385" height="430" viewBox="0 0 385 430" fill="none" xmlns="http://www.w3.org/2000/svg">
<g clip-path="url(#clip0)">
<path opacity="0.4" d="M350.947 204.637C369.754 204.637 385 195.612 385 184.479C385 173.346 369.754 164.32 350.947 164.32C332.14 164.32 316.895 173.346 316.895 184.479C316.895 195.612 332.14 204.637 350.947 204.637Z" fill="#D6D8E5"/>
<path d="M349.479 2.12415C350.813 -0.0688521 360.964 -1.50505 364.303 7.28415C365.57 10.6295 365.369 19.1779 366.434 24.5443C367.5 29.9107 369.983 32.9551 370.881 37.3153C371.778 41.6755 370.319 48.9683 360.075 50.2153C349.831 51.4623 341.962 47.8246 339.546 44.4792C337.13 41.1338 337.029 34.0215 339.546 30.1945C342.063 26.3675 343.959 23.3145 343.9 18.2921L349.479 2.12415Z" fill="#3A2C6D"/>
<path d="M337.323 39.0182C337.323 39.0182 334.915 56.4246 339.462 68.8C344.009 81.1754 342.742 65.6094 342.742 65.6094L341.652 61.92C341.652 61.92 340.737 47.687 341.115 44.204C341.492 40.721 341.408 37.7196 341.652 37.4358C341.895 37.152 340.754 36.5758 340.267 36.5328C339.781 36.4898 337.323 39.0182 337.323 39.0182Z" fill="#FFCEA9"/>
<path d="M356.182 0.601934C356.182 0.601934 348.539 -1.65987 343.908 2.57993C339.672 6.44993 340.024 11.7131 340.637 14.1899C341.249 16.6667 342.491 20.0379 344.412 20.2099C346.333 20.3819 356.182 0.601934 356.182 0.601934Z" fill="#3A2C6D"/>
<path d="M359.068 21.973C359.068 21.973 358.573 30.702 358.724 31.347C358.875 31.992 362.08 32.6112 362.969 33.368C363.859 34.1248 358.364 43 355.553 44.2986C352.743 45.5972 344.043 42.2604 343.439 37.84C342.885 33.755 345.956 30.5816 347.105 29.4722C347.902 29.3963 348.704 29.3762 349.504 29.412L349.756 25.1808C353.573 23.9166 359.068 21.973 359.068 21.973Z" fill="#FFCEA9"/>
<path d="M360.276 32.1984C362.667 32.5682 365.402 33.9184 365.78 35.2256C366.216 36.7908 367.164 44.1782 365.092 49.8026C363.02 55.427 361.627 58.996 360.436 61.4212C360.436 61.4212 350.075 65.9706 341.727 60.6644C341.727 60.6644 341.157 54.6444 341.115 51.4194C333.413 44.5394 339.999 36.0254 346.526 29.4206C347.308 29.352 348.093 29.352 348.875 29.4206C348.875 29.4206 343.053 36.4812 347.105 40.4974C355.78 37.7798 357.499 33.7894 360.276 32.1984Z" fill="#C6CCFA"/>
<path d="M343.195 11.18C344.034 5.57276 348.003 1.33296 353.649 1.71996C355.898 1.87082 358.045 2.73672 359.792 4.19714C361.539 5.65756 362.798 7.63985 363.394 9.86811C363.99 12.0964 363.894 14.4598 363.119 16.6294C362.343 18.7989 360.928 20.6668 359.068 21.973C358.88 22.8199 358.599 23.6422 358.229 24.424C356.224 26.8062 350.914 28.3284 349.16 28.3456C347.65 28.3456 346.341 26.918 344.924 24.5014C341.971 19.4876 342.717 13.9234 343.195 11.18Z" fill="#FFCEA9"/>
<path d="M355.394 1.71998C359.353 2.51118 362.617 3.65498 363.691 7.63678C364.429 10.3802 365.369 15.6176 364.471 17.8192L363.901 19.4102L359.068 21.973C359.068 21.973 356.837 20.0638 357.533 14.4566C357.508 13.698 357.275 12.962 356.862 12.3324C356.558 11.7954 356.332 11.216 356.191 10.6124C355.63 9.09656 354.517 7.86317 353.087 7.17238C349.555 5.15998 344.328 6.87998 343.598 7.65398C344.598 5.4248 346.318 3.61734 348.466 2.53638C350.615 1.45541 353.062 1.16707 355.394 1.71998V1.71998Z" fill="#3A2C6D"/>
<path d="M366.057 72.9968C366.946 67.3122 368.573 63.6228 367.835 60.501C366.133 54.1696 363.887 48.0052 361.124 42.0798C359.37 38.5366 359.907 36.0598 361.728 34.6838C363.766 33.1186 365.713 33.8238 367.55 37.7196C369.865 42.6474 372.475 47.7042 373.741 55.04C374.362 58.6004 374.681 62.0576 373.565 69.3676C372.785 74.476 371.199 77.3484 369.32 82.1472C368.775 83.463 365.302 77.8214 366.057 72.9968Z" fill="#FFCEA9"/>
<path d="M362.592 179.035C360.587 180.703 357.474 179.551 357.323 179.706C355.285 181.795 352.248 183.619 349.982 185.45C348.732 186.457 346.786 187.807 347.138 189.75C347.768 193.19 353.17 192.141 355.209 191.083C357.248 190.026 358.917 188.271 360.847 187.041C362.223 186.181 363.573 185.717 363.791 183.928C363.917 182.845 362.944 178.992 362.592 179.035Z" fill="#38226D"/>
<path d="M363.766 183.18C363.498 184.9 362.164 185.356 360.796 186.224C358.833 187.471 357.105 189.277 355.075 190.335C353.187 191.307 348.489 192.279 347.164 189.811C347.885 193.147 353.196 192.098 355.209 191.049C357.223 190 358.917 188.237 360.847 187.007C362.223 186.147 363.573 185.683 363.791 183.894C363.807 183.656 363.798 183.416 363.766 183.18V183.18Z" fill="#9C73FF"/>
<path d="M348.531 176.154C346.702 177.685 343.925 176.825 343.791 176.971C341.929 178.889 339.16 180.531 337.08 182.208C335.93 183.128 334.152 184.367 334.47 186.138C335.049 189.303 339.999 188.331 341.87 187.36C343.741 186.388 345.226 184.78 347.029 183.662C348.288 182.862 349.546 182.44 349.722 180.806C349.84 179.826 348.858 176.119 348.531 176.154Z" fill="#38226D"/>
<path d="M349.705 180.153C349.461 181.718 348.237 182.148 346.987 182.939C345.191 184.083 343.631 185.734 341.743 186.706C340.015 187.566 335.711 188.486 334.503 186.224C335.166 189.277 340.023 188.323 341.877 187.36C343.731 186.396 345.233 184.78 347.037 183.662C348.295 182.862 349.554 182.44 349.73 180.806C349.745 180.588 349.736 180.369 349.705 180.153Z" fill="#9C73FF"/>
<path d="M337.734 80.6078C338.615 73.53 341.165 63.2358 341.165 63.2358C343.572 64.3946 346.177 65.0579 348.833 65.188C353.288 65.4202 360.419 64.027 360.419 64.027C361.667 66.2642 363.031 68.4316 364.505 70.52C366.501 73.358 370.377 79.5672 369.438 90.4204C368.825 97.5068 364.949 127.624 364.949 127.624C366.456 132.689 367.258 137.947 367.332 143.242C367.29 147.619 366.166 155.067 364.907 161.947L362.592 179.043C362.592 179.043 359.513 181.322 357.323 179.714L357.6 162.979C357.332 158.894 356.937 152.848 356.677 148.995C356.266 142.708 355.167 132.732 354.848 130.247C354.53 127.762 353.758 123.367 353.389 118.525C353.019 113.683 351.224 88.8552 351.224 88.8552L350.972 93.4992C350.972 93.4992 350.737 101.033 349.68 110.338C348.623 119.643 348.254 123.763 348.254 123.763C348.254 123.763 350.083 127.203 350.318 129.783C350.503 131.795 352.751 147.688 351.409 155.78L348.657 176.3C347.971 176.785 347.184 177.096 346.358 177.208C345.533 177.32 344.693 177.23 343.908 176.945L342.289 156.228C341.207 148.341 338.934 131.632 338.564 129.456C338.095 126.592 337.725 125.156 337.189 116.195C336.652 107.233 336.845 87.72 337.734 80.6078Z" fill="#FFCEA9"/>
<path d="M360.436 61.4212L366.384 73.6676C366.384 73.6676 375.461 87.29 366.057 122.309L367.818 133.111C367.818 133.111 350.016 144.824 338.095 133.111C338.095 133.111 333.967 100.749 336.165 85.8108C337.386 77.2283 339.239 68.7531 341.71 60.458C341.71 60.458 344.63 63.769 359.647 61.5846" fill="#7983BE"/>
<path d="M371.107 44.591C371.107 44.591 366.971 48.805 362.072 48.289L359.723 40.076C359.723 40.076 358.187 35.776 361.761 33.9012C365.335 32.0264 369.052 36.1802 371.107 44.591Z" fill="#EDEDED"/>
<path d="M346.526 29.4206C346.526 29.4206 341.794 27.9414 336.778 38.7L338.657 39.861C338.657 39.861 343.598 32.1812 346.526 29.4206Z" fill="#EDEDED"/>
<path opacity="0.4" d="M34.0527 286.621C52.8596 286.621 68.1055 277.596 68.1055 266.462C68.1055 255.329 52.8596 246.304 34.0527 246.304C15.2459 246.304 0 255.329 0 266.462C0 277.596 15.2459 286.621 34.0527 286.621Z" fill="#D6D8E5"/>
<path d="M16.5859 260.279C19.0189 262.309 22.6179 260.451 22.7941 260.64C25.6586 263.36 28.6605 265.923 31.7876 268.32C33.3061 269.541 35.6803 271.184 35.2524 273.532C34.4806 277.746 27.9117 276.447 25.4284 275.166C22.9451 273.884 20.9233 271.726 18.5742 270.246C16.8963 269.18 15.2185 268.63 14.9919 266.462C14.8325 265.155 16.1497 260.227 16.5859 260.279Z" fill="#38226D"/>
<path d="M15.0255 265.585C15.3443 267.666 16.9718 268.234 18.633 269.292C21.0239 270.814 23.1213 272.998 25.5962 274.288C27.8949 275.475 33.6081 276.662 35.2189 273.652C34.3799 277.711 27.8865 276.438 25.4284 275.166C22.9703 273.893 20.9233 271.726 18.5742 270.246C16.8963 269.18 15.2185 268.63 14.9919 266.462C14.9719 266.17 14.9831 265.875 15.0255 265.585V265.585Z" fill="#9C73FF"/>
<path d="M37.7525 252.221C40.1854 254.25 44.464 252.032 44.6318 252.221C47.1692 254.854 49.8526 257.335 52.6689 259.651C54.1874 260.881 56.5532 262.515 56.1254 264.871C55.3619 269.085 48.7846 267.787 46.3097 266.497C43.8348 265.207 41.8046 263.057 39.4555 261.586C37.7777 260.52 36.0998 259.961 35.8733 257.794C35.6971 256.486 37.2995 252.169 37.7525 252.221Z" fill="#38226D"/>
<path d="M35.9236 257.217C36.2508 259.298 37.8784 259.866 39.5395 260.924C41.9221 262.446 44.0278 264.639 46.5027 265.92C48.793 267.116 54.5062 268.294 56.117 265.284C55.2781 269.343 48.7846 268.07 46.3349 266.798C43.8852 265.525 41.8298 263.358 39.4807 261.878C37.8028 260.812 36.125 260.262 35.8984 258.094C35.8792 257.802 35.8876 257.508 35.9236 257.217V257.217Z" fill="#9C73FF"/>
<path d="M16.4433 168.053C16.5608 171.837 17.7101 188.237 18.2219 196.923C18.7336 205.609 18.8511 216.256 18.8511 216.256C18.8511 216.256 17.3913 222.585 16.4433 230.016C15.4953 237.446 16.4433 260.924 16.4433 260.924C17.375 261.535 18.458 261.86 19.5642 261.86C20.6704 261.86 21.7534 261.535 22.6851 260.924C22.6851 260.924 26.5862 242.133 28.3899 233.671C30.1936 225.208 30.5124 220.332 31.452 215.086C32.5846 208.731 35.0259 179.121 35.0259 179.121L36.0075 179.172L38.5915 212.618C37.7795 215.08 37.2172 217.622 36.9136 220.203C36.2088 225.655 37.6686 253.055 37.6686 253.055C38.706 253.64 39.8799 253.923 41.063 253.873C42.2462 253.823 43.3934 253.442 44.3802 252.771C44.3802 252.771 50.8988 216.479 50.8988 210.958C50.8988 207.303 50.2863 159.143 50.2863 159.143L16.4433 168.053Z" fill="#63709F"/>
<path d="M25.2774 95.0299C25.2774 95.0299 25.6885 103.269 25.5123 104C25.3361 104.731 21.8209 107.147 20.7974 108.007C19.7739 108.867 26.3596 115.524 29.556 117.029C32.7524 118.534 42.8868 114.569 43.0714 109.469C43.256 104.37 41.3348 100.087 39.7827 99.8545C38.2307 99.6223 25.2774 95.0299 25.2774 95.0299Z" fill="#FFCEA9"/>
<path d="M47.2829 110.321C47.7527 106.683 45.4204 103.234 47.6856 100.336C55.622 108.317 54.6069 129.404 56.4106 142.906C62.2832 149.218 74.1375 155.436 77.4681 156.976C78.0722 157.259 78.6007 157.56 78.4833 158.231C78.0051 160.863 77.2584 161.86 75.7231 164.406C67.8958 160.966 62.2413 158.954 52.4592 149.425C51.5202 148.393 50.6775 147.273 49.9424 146.079C47.1822 137.479 46.4775 116.59 47.2829 110.321Z" fill="#FFCEA9"/>
<path d="M24.3797 105.427C24.3797 105.427 30.2523 114.328 38.3482 115.171C40.9153 112.591 41.1502 103.355 37.5931 100.405C37.5931 100.405 40.8566 97.7045 43.0882 98.2291C45.4921 99.716 47.2825 102.053 48.1219 104.8C50.1841 110.918 51.1532 117.368 50.9827 123.84C50.8484 132.578 50.9827 159.281 50.9827 159.281C50.9827 159.281 49.8417 164.931 42.4842 169.128C35.1266 173.324 29.6567 173.746 24.665 172.568C20.5458 171.579 17.1145 170.099 15.7302 167.029C16.0994 160.906 18.7672 144.919 17.7689 137.222C16.7705 129.525 15.1849 123.763 14.7738 117.536C14.3627 111.31 15.5708 111.439 18.6162 109.22C20.4447 107.814 22.371 106.546 24.3797 105.427V105.427Z" fill="#CCE3FB"/>
<path d="M43.4657 82.7577C42.5093 76.3593 38.0126 71.5175 31.5779 71.8787C28.9903 72.0161 26.5101 72.9832 24.4877 74.6435C22.4652 76.3038 21.0026 78.5734 20.3063 81.1318C19.6101 83.6902 19.7154 86.4082 20.6073 88.9019C21.4993 91.3957 23.1329 93.5392 25.2774 95.0299C25.5012 95.9988 25.8363 96.937 26.2757 97.8249C28.5493 100.56 35.4286 102.237 37.4085 101.953C39.9254 101.575 41.318 100.491 42.5261 97.6529C44.6654 92.6305 43.9942 85.9139 43.4657 82.7577Z" fill="#FFCEA9"/>
<path d="M25.2774 95.0299L25.8647 89.4571C25.8647 89.4571 21.4183 77.6493 31.9302 79.9197C38.8599 81.4161 40.6049 82.0611 42.7107 77.2967C44.8164 72.5323 37.3834 68.2323 28.5241 69.4277C25.485 69.7608 22.6783 71.2506 20.6589 73.6025C18.6395 75.9545 17.5543 78.9974 17.6178 82.1299C17.8444 85.6387 18.7588 92.7423 25.2774 95.0299Z" fill="#3A2C6D"/>
<path d="M12.9785 113.872C16.0238 113.012 13.7 113.718 16.0238 113.012C23.9519 120.985 22.9619 134.65 24.7656 148.152C29.1365 155.574 45.3953 165.636 45.3953 165.636C45.5966 167.063 45.1017 167.493 43.3483 170.392C35.5209 166.952 28.9604 163.942 19.1783 154.413C18.7924 154.034 18.2303 153.94 18.0625 153.424C15.2688 144.789 12.1647 120.15 12.9785 113.872Z" fill="#FFCEA9"/>
<path d="M85.2871 130.513L73.4748 171.914L47.5598 182.526L57.0147 142.192L85.2871 130.513Z" fill="#F4F4F4"/>
<path d="M41.3012 165.894C41.6871 164.484 42.6855 164.828 43.8181 165.189C45.0343 165.692 46.3702 165.809 47.652 165.524C48.7175 165.189 49.4893 164.243 50.4038 163.624C50.9278 163.305 51.523 163.13 52.132 163.116C52.0733 163.477 51.5364 165.584 51.5364 165.584C51.5364 165.584 57.216 165.645 57.7949 165.516C57.9945 165.465 58.2046 165.482 58.394 165.564C58.5834 165.646 58.7422 165.788 58.8467 165.969C58.9512 166.151 58.9959 166.362 58.9742 166.571C58.9524 166.781 58.8655 166.978 58.7261 167.132L59.112 167.072C60.2782 166.806 60.7899 168.637 59.607 168.904C59.2882 168.973 58.9778 169.007 58.659 169.05C59.414 169.351 59.607 170.633 58.659 170.822C58.5667 170.822 58.466 170.822 58.3654 170.873C58.2354 170.928 58.0941 170.949 57.9543 170.934C57.8928 170.938 57.8312 170.938 57.7697 170.934C57.7963 171.072 57.7955 171.214 57.7674 171.351C57.7393 171.489 57.6845 171.619 57.6062 171.735C57.5279 171.851 57.4278 171.949 57.3118 172.024C57.1958 172.099 57.0662 172.149 56.9308 172.172C54.1539 172.533 50.0682 173.668 47.5681 171.312C45.8265 171.137 44.1254 170.666 42.5345 169.919C40.8818 169.179 40.8398 167.588 41.3012 165.894Z" fill="#FFCEA9"/>
<path d="M69.6324 162.54C69.7666 162.54 69.8925 162.54 70.0183 162.54C69.8568 162.419 69.7364 162.249 69.674 162.054C69.6117 161.859 69.6105 161.649 69.6707 161.454C69.731 161.258 69.8495 161.087 70.0097 160.964C70.1698 160.841 70.3636 160.772 70.5636 160.768C71.1593 160.768 77.0067 159.521 77.0067 159.521L77.703 157.053C77.703 156.916 78.7182 157.552 78.7517 157.578C79.2468 157.908 79.6626 158.349 79.9677 158.867C80.2728 159.385 80.4594 159.968 80.5135 160.571C80.5652 162.25 79.9717 163.884 78.8608 165.12C77.8063 166.195 76.3878 166.811 74.901 166.84C74.1962 166.892 73.5083 166.926 72.8959 166.978C72.758 166.987 72.6198 166.967 72.4894 166.921C72.3591 166.874 72.2393 166.8 72.1374 166.705C72.0355 166.609 71.9536 166.493 71.8965 166.364C71.8394 166.235 71.8083 166.096 71.8053 165.954H71.6291C71.4915 165.991 71.3472 165.991 71.2096 165.954H70.9076C69.9176 165.954 69.8421 164.69 70.5133 164.234C70.1945 164.234 69.8757 164.294 69.5569 164.294C68.3656 164.398 68.4663 162.54 69.6324 162.54Z" fill="#FFCEA9"/>
<path d="M50.5883 115.722C50.5883 115.722 53.5834 115.567 54.7831 113.778C54.5566 110.716 50.7394 99.0977 43.0378 98.2291C45.1327 99.7305 46.7934 101.784 47.845 104.172C49.2964 107.672 50.5883 115.722 50.5883 115.722Z" fill="#CCE3FB"/>
<path d="M11.5942 131.073C11.5942 131.073 19.237 133.773 24.623 129.232C25.2103 128.192 21.5021 114.853 21.5021 114.853C21.5021 114.853 18.2974 108.033 13.2721 110.742C8.24682 113.451 11.5942 131.073 11.5942 131.073Z" fill="#CCE3FA"/>
<path opacity="0.2" d="M330.209 304.509L170.809 399.427L77.0738 342.968L236.473 248.041L330.209 304.509Z" fill="#D6D8E5"/>
<path d="M86.6797 254.904V342.865C86.7053 343.141 86.8018 343.405 86.9596 343.63C87.1173 343.855 87.3305 344.033 87.5774 344.146C88.2488 344.498 88.9921 344.681 89.7461 344.681C90.5001 344.681 91.2433 344.498 91.9148 344.146C92.1617 344.033 92.3749 343.855 92.5326 343.63C92.6903 343.405 92.7869 343.141 92.8124 342.865V342.865V254.904H86.6797Z" fill="#C1C4D3"/>
<path d="M169.542 289.132V391.231C169.557 391.495 169.636 391.75 169.773 391.974C169.909 392.198 170.098 392.383 170.323 392.512C170.899 392.859 171.555 393.041 172.223 393.041C172.891 393.041 173.547 392.859 174.123 392.512C174.347 392.383 174.536 392.198 174.673 391.974C174.809 391.75 174.888 391.495 174.903 391.231V391.231V289.132H169.542Z" fill="#C1C4D3"/>
<path d="M312.817 221.02V304.268C312.834 304.532 312.914 304.788 313.052 305.012C313.19 305.236 313.38 305.421 313.606 305.549C314.181 305.896 314.835 306.078 315.502 306.078C316.169 306.078 316.823 305.896 317.398 305.549C317.623 305.421 317.814 305.236 317.952 305.012C318.089 304.788 318.17 304.532 318.186 304.268V221.02H312.817Z" fill="#C1C4D3"/>
<path d="M172.219 315.336L81.3273 261.543V255.257L172.219 309.05V315.336Z" fill="#D5D7E2"/>
<path d="M325.469 218.543L172.202 309.247L81.3105 255.454L234.569 164.742L325.469 218.543Z" fill="#E9EAF4"/>
<path d="M325.485 224.623L172.219 315.336V309.05L325.485 218.345V224.623Z" fill="#CED0DD"/>
<path opacity="0.4" d="M345.981 430C364.788 430 380.033 420.975 380.033 409.841C380.033 398.708 364.788 389.683 345.981 389.683C327.174 389.683 311.928 398.708 311.928 409.841C311.928 420.975 327.174 430 345.981 430Z" fill="#D6D8E5"/>
<path d="M373.574 256.641C373.968 260.081 378.012 275.131 377.147 280.274C376.283 285.417 362.441 294.034 362.441 294.034L360.528 285.236L368.188 277.539L366.115 262.919L373.574 256.641Z" fill="#FFCEA9"/>
<path d="M362.877 241.841C364.224 241.203 365.752 241.095 367.171 241.536C368.591 241.976 369.803 242.935 370.579 244.231C372.609 247.671 374.723 259.539 374.916 261.569C374.916 261.569 372.063 265.611 367.776 264.932L362.877 241.841Z" fill="#EDEDED"/>
<path d="M347.071 409.231C344.054 410.089 340.829 409.694 338.095 408.13C335.939 408.19 324.235 403.056 322.641 407.365C321.249 411.149 326.316 414.649 329.026 415.32C334.94 416.79 339.319 419.809 341.694 420.325C343.464 420.703 345.754 420.953 347.164 419.534C348.875 417.822 348.724 411.493 347.071 409.231Z" fill="#38226D"/>
<path d="M341.71 419.276C339.336 418.76 334.957 415.741 329.042 414.271C326.777 413.712 322.859 411.157 322.465 408.13C321.936 411.57 326.517 414.692 329.042 415.32C334.957 416.79 339.336 419.809 341.71 420.325C343.481 420.703 345.771 420.953 347.18 419.534C347.548 419.12 347.813 418.621 347.952 418.08C345.897 419.835 343.481 419.68 341.71 419.276Z" fill="#9C73FF"/>
<path d="M366.057 400.493C363.047 401.348 359.829 400.95 357.105 399.384C354.949 399.453 343.237 394.31 341.652 398.627C340.251 402.411 345.326 405.903 348.036 406.573C353.909 408.044 358.322 411.071 360.696 411.579C362.466 411.966 364.756 412.215 366.174 410.787C367.86 409.076 367.718 402.746 366.057 400.493Z" fill="#38226D"/>
<path d="M360.696 410.538C358.322 410.022 353.984 406.995 348.036 405.533C345.763 404.965 341.853 402.42 341.459 399.384C340.93 402.867 345.503 405.946 348.036 406.573C353.909 408.044 358.322 411.071 360.696 411.579C362.466 411.966 364.756 412.215 366.174 410.787C366.538 410.375 366.803 409.88 366.946 409.343C364.89 411.08 362.466 410.916 360.696 410.538Z" fill="#9C73FF"/>
<path d="M366.292 367.882C365.786 363.423 364.882 359.022 363.59 354.733C363.59 354.733 364.429 343.389 364.798 332.639C365.26 320.427 369.387 309.686 366.132 299.959L329.395 308.336C329.395 308.336 331.618 356.994 332.105 362.885C332.384 367.472 332.945 372.036 333.782 376.551C335.46 386.011 338.179 408.465 338.179 408.465C342.063 410.779 347.164 409.497 347.164 409.497C347.164 409.497 346.887 381.117 346.635 374.237C346.325 365.93 346.081 366.566 346.081 366.566L347.298 345.857L348.095 335.537C348.095 335.537 349.11 343.097 349.773 349.848C350.343 355.73 351.736 361.028 353.28 372.019C354.622 381.522 356.803 400.622 356.803 400.622C360.687 402.936 365.964 401.018 365.964 401.018C365.964 401.018 367.34 376.129 366.292 367.882Z" fill="#46466C"/>
<path d="M360.931 242.047C358.129 242.185 356.048 242.907 355.696 242.047C355.393 240.568 355.18 239.072 355.058 237.566C355.385 236.706 355.654 235.846 355.654 235.846C359.169 233.628 360.285 229.74 360.746 225.2C361.535 217.46 357.449 210.674 349.89 209.866C342.784 209.109 337.558 214.226 336.165 221.252C335.41 224.692 333.917 231.28 335.939 236.99C337.063 240.181 338.522 242.709 339.982 243.208C341.387 243.168 342.787 243.041 344.177 242.83C344.177 242.83 344.546 244.988 344.806 246.364C345.066 247.74 344.966 248.48 342.289 250.174C339.613 251.868 346.35 255.334 350.754 255.007C355.159 254.68 360.108 251.937 361.468 248.987C362.978 245.788 362.852 241.952 360.931 242.047Z" fill="#FFCEA9"/>
<path d="M356.879 242.52C357.65 244.498 355.687 246.923 350.427 248.617C345.167 250.312 344.706 248.127 344.706 248.127C344.706 248.127 336.996 251.731 334.487 253.519C331.333 255.781 329.94 262.326 329.512 273.368C329.017 286.139 328.975 305.094 329.395 308.37C329.395 308.37 335.267 314.39 342.818 313.754C350.368 313.117 363.053 306.28 366.132 300.991C366.048 289.811 364.773 287.962 366.543 281.512C370.587 266.738 372.726 260.692 370.738 250.871C369.119 242.778 366.837 241.772 363.724 241.849C361.432 241.946 359.147 242.17 356.879 242.52V242.52Z" fill="#F4F9FB"/>
<path d="M317.658 283.886C323.841 285.486 325.301 281.487 326.114 278.167C328.078 270.152 329.143 262.902 330.611 258.387C332.339 253.012 334.152 252.161 336.694 251.12C339.68 249.89 342.256 252.479 341.257 259.307C340.083 267.391 338.539 273.067 335.586 282.639C334.823 285.133 333.069 289.571 330.502 291.721C327.314 294.369 322.499 294.249 315.225 292.4C312.121 291.6 308.715 289.7 302.842 286.896C301.273 286.139 300.04 285.64 297.02 284.196C294 282.751 290.845 280.343 289.26 277.986C287.674 275.63 287.464 274.546 287.792 273.996C288.194 273.317 288.916 273.471 289.755 274.46C290.983 276.128 292.492 277.558 294.209 278.683C294.209 278.683 292.255 276.61 291.198 275.243C290.25 274.049 289.463 272.73 288.857 271.321C288.295 269.945 289.453 268.088 290.325 269.06C291.198 270.031 291.617 271.038 293.219 273.007C294.064 274.055 295.028 274.996 296.089 275.811C295.096 274.432 294.212 272.974 293.446 271.45C292.763 270.259 292.428 268.892 292.481 267.512C292.523 266.789 293.513 265.946 294.444 267.305C295.283 268.518 295.82 270.436 297.8 272.508C299.21 274.013 300.418 274.873 300.451 274.46C300.485 274.048 299.612 273.213 299.092 271.468C298.572 269.722 299.092 267.864 300.04 267.658C300.988 267.451 300.795 267.512 301.559 269.154C302.322 270.797 303.48 272.001 304.369 274.392C304.842 276.077 305.706 277.62 306.886 278.889C308.404 280.532 311.769 282.364 317.658 283.886Z" fill="#FFCEA9"/>
<path d="M338.992 249.985C334.856 249.357 331.937 251.266 330.108 257.725C328.279 264.183 327.004 269.412 327.004 269.412C328.64 271.834 331.12 273.521 333.933 274.125C338.875 275.355 340.645 272.93 340.645 272.93C340.645 272.93 342.021 266.204 342.877 261.621C343.732 257.037 344.102 250.759 338.992 249.985Z" fill="#F4F9FB"/>
<path d="M336.417 220.254C336.417 220.254 329.89 210.072 344.043 207.999C354.244 206.503 360.822 213.228 361.56 220.521C362.281 227.487 358.095 234.728 355.075 237.601C353.598 238.134 350.427 238.461 346.258 236.508C346.091 234.61 346.027 232.704 346.065 230.798C346.065 230.798 351.014 220.074 336.417 220.254Z" fill="#3A2C6D"/>
<path d="M130.322 260.941C124.449 264.381 114.885 264.381 109.012 260.941C103.14 257.501 103.14 251.808 109.012 248.325C114.885 244.842 124.449 244.885 130.322 248.325C136.194 251.765 136.194 257.458 130.322 260.941ZM112.091 250.148C107.897 252.625 107.897 256.641 112.091 259.118C116.286 261.595 123.065 261.586 127.243 259.118C131.421 256.65 131.437 252.625 127.243 250.148C123.048 247.671 116.269 247.68 112.091 250.148Z" fill="white"/>
<path d="M130.322 260.941C124.449 264.381 114.885 264.381 109.012 260.941C103.14 257.501 103.14 251.808 109.012 248.325L112.091 250.148C107.897 252.625 107.897 256.641 112.091 259.118C116.286 261.595 123.065 261.586 127.243 259.118C131.421 256.65 131.437 252.625 127.243 250.148L130.322 248.325C136.194 251.808 136.194 257.458 130.322 260.941Z" fill="#00E9FF"/>
<path d="M156.044 276.155C150.171 279.638 140.615 279.638 134.734 276.155C128.853 272.672 128.862 267.021 134.734 263.547C140.607 260.073 150.171 260.064 156.044 263.547C161.916 267.03 161.916 272.68 156.044 276.155ZM137.813 265.37C133.619 267.838 133.619 271.863 137.813 274.331C142.008 276.8 148.787 276.808 152.965 274.331C157.143 271.855 157.159 267.838 152.965 265.362C148.77 262.885 141.975 262.893 137.797 265.37H137.813Z" fill="white"/>
<path d="M156.044 276.154C150.171 279.637 140.615 279.637 134.734 276.154C128.853 272.671 128.862 267.021 134.734 263.547L137.813 265.37C133.619 267.838 133.619 271.863 137.813 274.331C142.008 276.799 148.787 276.808 152.965 274.331C154.328 273.636 155.387 272.442 155.935 270.986L160.222 271.442C159.454 273.494 157.963 275.175 156.044 276.154Z" fill="#00E9FF"/>
<path d="M181.741 291.368C175.868 294.851 166.304 294.851 160.431 291.368C154.559 287.885 154.559 282.235 160.431 278.76C166.304 275.286 175.868 275.32 181.741 278.76C187.613 282.2 187.613 287.894 181.741 291.368ZM163.51 280.584C159.316 283.052 159.316 287.077 163.51 289.553C167.705 292.03 174.484 292.022 178.662 289.553C182.84 287.085 182.856 283.052 178.662 280.584C174.467 278.115 167.688 278.107 163.51 280.584Z" fill="white"/>
<path d="M167.067 293.664C164.739 293.314 162.491 292.536 160.431 291.368C154.559 287.928 154.559 282.235 160.431 278.76L163.51 280.583C159.316 283.052 159.316 287.076 163.51 289.553C164.974 290.38 166.571 290.931 168.225 291.179L167.067 293.664Z" fill="#00E9FF"/>
<path d="M154.206 239.742C161.332 239.742 167.109 236.323 167.109 232.105C167.109 227.888 161.332 224.469 154.206 224.469C147.08 224.469 141.303 227.888 141.303 232.105C141.303 236.323 147.08 239.742 154.206 239.742Z" fill="#00E9FF"/>
<path d="M215.718 192.889L166.48 222.035L160.775 218.913L210.021 189.768L215.718 192.889Z" fill="#00E9FF"/>
<path d="M210.458 208.12L176.497 228.218L171.01 224.967L204.971 204.869L210.458 208.12Z" fill="white"/>
<path d="M181.002 255.6C188.128 255.6 193.905 252.181 193.905 247.964C193.905 243.746 188.128 240.327 181.002 240.327C173.876 240.327 168.099 243.746 168.099 247.964C168.099 252.181 173.876 255.6 181.002 255.6Z" fill="#00E9FF"/>
<path d="M242.304 208.877L193.066 238.022L187.58 234.771L236.826 205.626L242.304 208.877Z" fill="#00E9FF"/>
<path d="M237.262 223.978L203.301 244.077L197.815 240.826L231.775 220.728L237.262 223.978Z" fill="white"/>
<path d="M208.352 271.786C215.478 271.786 221.255 268.367 221.255 264.149C221.255 259.931 215.478 256.512 208.352 256.512C201.226 256.512 195.449 259.931 195.449 264.149C195.449 268.367 201.226 271.786 208.352 271.786Z" fill="#00E9FF"/>
<path d="M269.654 225.062L220.407 254.207L214.921 250.957L264.167 221.811L269.654 225.062Z" fill="#00E9FF"/>
<path d="M264.603 240.164L230.643 260.262L225.156 257.011L259.116 236.913L264.603 240.164Z" fill="white"/>
<path d="M156.044 228.08H154.475C154.281 228.073 154.09 228.12 153.921 228.218C153.856 228.244 153.799 228.289 153.757 228.346C153.716 228.404 153.691 228.473 153.686 228.545V233.06H150.28C150.087 233.052 149.895 233.1 149.726 233.197C149.661 233.223 149.604 233.268 149.563 233.326C149.521 233.384 149.496 233.452 149.492 233.524V234.453C149.496 234.525 149.521 234.594 149.563 234.651C149.604 234.709 149.661 234.754 149.726 234.78C149.895 234.878 150.087 234.925 150.28 234.917H156.044C156.237 234.925 156.429 234.878 156.597 234.78C156.663 234.754 156.72 234.709 156.761 234.651C156.803 234.594 156.827 234.525 156.832 234.453V228.571C156.827 228.499 156.803 228.43 156.761 228.372C156.72 228.314 156.663 228.27 156.597 228.244C156.431 228.137 156.24 228.08 156.044 228.08V228.08Z" fill="white"/>
<path d="M183.058 244.068H181.48C181.288 244.067 181.098 244.114 180.927 244.206C180.865 244.235 180.811 244.281 180.771 244.338C180.731 244.396 180.707 244.463 180.7 244.532V249.03H177.344C177.151 249.027 176.961 249.074 176.791 249.168C176.631 249.263 176.556 249.366 176.556 249.495V250.424C176.561 250.496 176.586 250.566 176.627 250.625C176.669 250.684 176.725 250.731 176.791 250.759C176.961 250.853 177.151 250.9 177.344 250.897H183.1C183.292 250.898 183.483 250.851 183.653 250.759C183.717 250.729 183.771 250.682 183.811 250.623C183.851 250.564 183.874 250.495 183.88 250.424V244.541C183.873 244.471 183.849 244.404 183.809 244.347C183.769 244.29 183.716 244.244 183.653 244.214C183.471 244.111 183.265 244.061 183.058 244.068V244.068Z" fill="white"/>
<path d="M210.181 260.124H208.612C208.418 260.116 208.227 260.164 208.058 260.262C207.899 260.356 207.823 260.46 207.823 260.589V265.078H204.417C204.224 265.07 204.032 265.118 203.864 265.215C203.712 265.31 203.629 265.413 203.629 265.542V266.471C203.634 266.542 203.659 266.611 203.701 266.668C203.742 266.726 203.799 266.771 203.864 266.798C204.032 266.896 204.224 266.943 204.417 266.935H210.172C210.366 266.943 210.558 266.896 210.726 266.798C210.791 266.772 210.848 266.727 210.89 266.669C210.931 266.611 210.956 266.543 210.961 266.471V260.58C210.961 260.451 210.885 260.348 210.726 260.253C210.559 260.16 210.371 260.115 210.181 260.124Z" fill="white"/>
<path d="M297.75 224.073L224.535 180.746L235.727 174.124L308.941 217.451L297.75 224.073Z" fill="white"/>
</g>
<defs>
<clipPath id="clip0">
<rect width="385" height="430" fill="white"/>
</clipPath>
</defs>
</svg>
