<svg width="73" height="64" viewBox="0 0 73 64" fill="none" xmlns="http://www.w3.org/2000/svg">
<path d="M69.4996 15.5596H3.9437C2.65065 15.5596 1.60242 16.6111 1.60242 17.9082V60.1834C1.60242 61.4805 2.65065 62.5321 3.9437 62.5321H69.4996C70.7927 62.5321 71.8409 61.4805 71.8409 60.1834V17.9082C71.8409 16.6111 70.7927 15.5596 69.4996 15.5596Z" fill="#F06423"/>
<path d="M69.4996 15.5596H3.9437C2.65065 15.5596 1.60242 16.6111 1.60242 17.9082V57.8348C1.60242 59.1319 2.65065 60.1834 3.9437 60.1834H69.4996C70.7927 60.1834 71.8409 59.1319 71.8409 57.8348V17.9082C71.8409 16.6111 70.7927 15.5596 69.4996 15.5596Z" fill="#FAA51E"/>
<path d="M6.28501 10.8623H32.0391C33.281 10.8623 34.472 11.3572 35.3502 12.2381C36.2283 13.119 36.7217 14.3138 36.7217 15.5596V57.8348H6.28501C5.66406 57.8348 5.06855 57.5873 4.62947 57.1469C4.1904 56.7064 3.94373 56.109 3.94373 55.4862V13.2109C3.94373 12.588 4.1904 11.9907 4.62947 11.5502C5.06855 11.1097 5.66406 10.8623 6.28501 10.8623V10.8623Z" fill="#738CA0"/>
<path d="M67.1584 57.835H36.7217V15.5597C36.7217 14.3139 37.215 13.1192 38.0932 12.2383C38.9713 11.3574 40.1623 10.8625 41.4042 10.8625H67.1584C67.7793 10.8625 68.3748 11.1099 68.8139 11.5504C69.253 11.9908 69.4996 12.5882 69.4996 13.2111V55.4863C69.4996 56.1092 69.253 56.7066 68.8139 57.1471C68.3748 57.5875 67.7793 57.835 67.1584 57.835V57.835Z" fill="#738CA0"/>
<path d="M36.7217 57.8348C36.7217 56.589 36.2283 55.3942 35.3502 54.5133C34.472 53.6324 33.281 53.1375 32.0391 53.1375H6.28501C5.66406 53.1375 5.06855 52.8901 4.62947 52.4496C4.1904 52.0092 3.94373 51.4118 3.94373 50.7889V13.2109C3.94373 12.588 4.1904 11.9907 4.62947 11.5502C5.06855 11.1097 5.66406 10.8623 6.28501 10.8623H32.0391C33.281 10.8623 34.472 11.3572 35.3502 12.2381C36.2283 13.119 36.7217 14.3138 36.7217 15.5596V57.8348Z" fill="#D7E6E6"/>
<path d="M36.7216 57.8348C36.7216 56.589 37.215 55.3942 38.0931 54.5133C38.9713 53.6324 40.1623 53.1375 41.4042 53.1375H67.1583C67.7793 53.1375 68.3748 52.8901 68.8139 52.4496C69.2529 52.0092 69.4996 51.4118 69.4996 50.7889V13.2109C69.4996 12.588 69.2529 11.9907 68.8139 11.5502C68.3748 11.1097 67.7793 10.8623 67.1583 10.8623H41.4042C40.1623 10.8623 38.9713 11.3572 38.0931 12.2381C37.215 13.119 36.7216 14.3138 36.7216 15.5596V57.8348Z" fill="#AAC3D7"/>
<path d="M20.3326 21.4313C26.1514 21.4313 30.8684 16.6995 30.8684 10.8625C30.8684 5.02552 26.1514 0.293701 20.3326 0.293701C14.5139 0.293701 9.79688 5.02552 9.79688 10.8625C9.79688 16.6995 14.5139 21.4313 20.3326 21.4313Z" fill="#91BE41"/>
<path d="M18.3816 15.7554C18.151 15.7557 17.9225 15.7102 17.7094 15.6217C17.4963 15.5332 17.3028 15.4032 17.1399 15.2394L14.7986 12.8908C14.6348 12.7274 14.5048 12.5331 14.416 12.3192C14.3271 12.1053 14.2813 11.876 14.2809 11.6442C14.2806 11.4125 14.3259 11.183 14.4142 10.9689C14.5024 10.7547 14.6319 10.5602 14.7953 10.3963C14.9586 10.2325 15.1526 10.1026 15.3661 10.014C15.5796 9.9255 15.8083 9.8801 16.0393 9.88042C16.2703 9.88074 16.499 9.92678 16.7122 10.0159C16.9255 10.105 17.1191 10.2355 17.282 10.3998L18.3816 11.5027L22.9931 6.87683C23.3227 6.54797 23.7689 6.36364 24.2337 6.36426C24.6986 6.36488 25.1443 6.5504 25.473 6.88014C25.8017 7.20989 25.9867 7.65694 25.9874 8.12328C25.988 8.58962 25.8043 9.03719 25.4765 9.36784L19.6233 15.2394C19.4604 15.4032 19.2668 15.5331 19.0538 15.6217C18.8407 15.7102 18.6123 15.7557 18.3816 15.7554V15.7554Z" fill="#D7E6E6"/>
<path d="M53.1106 21.4313C58.9294 21.4313 63.6464 16.6995 63.6464 10.8625C63.6464 5.02552 58.9294 0.293701 53.1106 0.293701C47.2919 0.293701 42.5749 5.02552 42.5749 10.8625C42.5749 16.6995 47.2919 21.4313 53.1106 21.4313Z" fill="#F05555"/>
<path d="M55.594 10.8624L57.8642 8.58497C58.1891 8.25372 58.3703 7.80711 58.3684 7.34243C58.3665 6.87775 58.1817 6.43264 57.8541 6.10406C57.5266 5.77547 57.0828 5.59004 56.6196 5.58815C56.1564 5.58626 55.7112 5.76806 55.381 6.09396L53.1106 8.37124L50.8403 6.09396C50.5101 5.76806 50.0649 5.58626 49.6017 5.58815C49.1384 5.59004 48.6947 5.77547 48.3672 6.10406C48.0396 6.43264 47.8548 6.87775 47.8529 7.34243C47.851 7.80711 48.0322 8.25372 48.3571 8.58497L50.6273 10.8624L48.3571 13.1398C48.1919 13.3029 48.0605 13.4972 47.9704 13.7115C47.8804 13.9257 47.8336 14.1558 47.8327 14.3883C47.8317 14.6208 47.8767 14.8512 47.9649 15.0663C48.0532 15.2813 48.183 15.4766 48.347 15.641C48.5109 15.8055 48.7056 15.9357 48.9199 16.0242C49.1343 16.1128 49.364 16.1579 49.5958 16.1569C49.8276 16.156 50.0569 16.109 50.2705 16.0187C50.4841 15.9284 50.6778 15.7966 50.8403 15.6308L53.1106 13.3536L55.381 15.6308C55.7112 15.9567 56.1564 16.1385 56.6196 16.1367C57.0828 16.1348 57.5266 15.9493 57.8541 15.6207C58.1817 15.2922 58.3665 14.8471 58.3684 14.3824C58.3703 13.9177 58.1891 13.4711 57.8642 13.1398L55.594 10.8624Z" fill="#D7E6E6"/>
<path d="M30.2831 24.9541H16.2355C15.2657 24.9541 14.4795 25.7427 14.4795 26.7156C14.4795 27.6884 15.2657 28.477 16.2355 28.477H30.2831C31.2529 28.477 32.0391 27.6884 32.0391 26.7156C32.0391 25.7427 31.2529 24.9541 30.2831 24.9541Z" fill="#AAC3D7"/>
<path d="M10.3822 28.477C11.352 28.477 12.1382 27.6884 12.1382 26.7156C12.1382 25.7427 11.352 24.9541 10.3822 24.9541C9.41245 24.9541 8.62628 25.7427 8.62628 26.7156C8.62628 27.6884 9.41245 28.477 10.3822 28.477Z" fill="#AAC3D7"/>
<path d="M30.2831 34.3486H16.2355C15.2657 34.3486 14.4795 35.1373 14.4795 36.1101C14.4795 37.0829 15.2657 37.8716 16.2355 37.8716H30.2831C31.2529 37.8716 32.0391 37.0829 32.0391 36.1101C32.0391 35.1373 31.2529 34.3486 30.2831 34.3486Z" fill="#AAC3D7"/>
<path d="M10.3822 37.8716C11.352 37.8716 12.1382 37.0829 12.1382 36.1101C12.1382 35.1373 11.352 34.3486 10.3822 34.3486C9.41245 34.3486 8.62628 35.1373 8.62628 36.1101C8.62628 37.0829 9.41245 37.8716 10.3822 37.8716Z" fill="#AAC3D7"/>
<path d="M30.2831 43.7432H16.2355C15.2657 43.7432 14.4795 44.5318 14.4795 45.5046C14.4795 46.4775 15.2657 47.2661 16.2355 47.2661H30.2831C31.2529 47.2661 32.0391 46.4775 32.0391 45.5046C32.0391 44.5318 31.2529 43.7432 30.2831 43.7432Z" fill="#AAC3D7"/>
<path d="M10.3822 47.2661C11.352 47.2661 12.1382 46.4775 12.1382 45.5046C12.1382 44.5318 11.352 43.7432 10.3822 43.7432C9.41245 43.7432 8.62628 44.5318 8.62628 45.5046C8.62628 46.4775 9.41245 47.2661 10.3822 47.2661Z" fill="#AAC3D7"/>
<path d="M63.0611 24.9541H49.0134C48.0436 24.9541 47.2574 25.7427 47.2574 26.7156C47.2574 27.6884 48.0436 28.477 49.0134 28.477H63.0611C64.0309 28.477 64.8171 27.6884 64.8171 26.7156C64.8171 25.7427 64.0309 24.9541 63.0611 24.9541Z" fill="#738CA0"/>
<path d="M43.1602 28.477C44.13 28.477 44.9162 27.6884 44.9162 26.7156C44.9162 25.7427 44.13 24.9541 43.1602 24.9541C42.1904 24.9541 41.4042 25.7427 41.4042 26.7156C41.4042 27.6884 42.1904 28.477 43.1602 28.477Z" fill="#738CA0"/>
<path d="M63.0611 34.3486H49.0134C48.0436 34.3486 47.2574 35.1373 47.2574 36.1101C47.2574 37.0829 48.0436 37.8716 49.0134 37.8716H63.0611C64.0309 37.8716 64.8171 37.0829 64.8171 36.1101C64.8171 35.1373 64.0309 34.3486 63.0611 34.3486Z" fill="#738CA0"/>
<path d="M43.1602 37.8716C44.13 37.8716 44.9162 37.0829 44.9162 36.1101C44.9162 35.1373 44.13 34.3486 43.1602 34.3486C42.1904 34.3486 41.4042 35.1373 41.4042 36.1101C41.4042 37.0829 42.1904 37.8716 43.1602 37.8716Z" fill="#738CA0"/>
<path d="M63.0611 43.7432H49.0134C48.0436 43.7432 47.2574 44.5318 47.2574 45.5046C47.2574 46.4775 48.0436 47.2661 49.0134 47.2661H63.0611C64.0309 47.2661 64.8171 46.4775 64.8171 45.5046C64.8171 44.5318 64.0309 43.7432 63.0611 43.7432Z" fill="#738CA0"/>
<path d="M43.1602 47.2661C44.13 47.2661 44.9162 46.4775 44.9162 45.5046C44.9162 44.5318 44.13 43.7432 43.1602 43.7432C42.1904 43.7432 41.4042 44.5318 41.4042 45.5046C41.4042 46.4775 42.1904 47.2661 43.1602 47.2661Z" fill="#738CA0"/>
</svg>
