<svg width="385" height="430" viewBox="0 0 385 430" fill="none" xmlns="http://www.w3.org/2000/svg">
<path opacity="0.4" d="M163.882 296.528L175.204 290.31L165.152 284.497L153.83 290.714L163.882 296.528Z" fill="#D6D8E5"/>
<path opacity="0.4" d="M103.005 332.433L114.327 326.207L104.276 320.402L92.9624 326.619L103.005 332.433Z" fill="#D6D8E5"/>
<path d="M159.461 293.914L170.139 287.739L136.13 178.897L125.452 185.072L159.461 293.914Z" fill="#B1B4C4"/>
<path d="M153.203 290.456L163.882 284.282L129.873 175.44L119.203 181.615L153.203 290.456Z" fill="#9EA2B2"/>
<path d="M159.461 293.914L170.139 287.739L136.13 178.897L125.452 185.072L159.461 293.914Z" fill="#B1B4C4"/>
<path d="M90.4474 325.415L101.203 319.189L115.89 182.182L105.211 188.366L90.4474 325.415Z" fill="#9EA2B2"/>
<path d="M97.9238 329.69L108.679 323.463L123.366 186.457L112.688 192.631L97.9238 329.69Z" fill="#B1B4C4"/>
<path d="M13.2877 244.576L213.925 128.518L204.861 123.272L4.2232 239.329L13.2877 244.576Z" fill="#D6D8E5"/>
<path d="M13.2877 255.042L213.925 138.985V128.493L13.2877 244.55V255.042Z" fill="#B1B4C4"/>
<path d="M17.3478 236.706L202.114 129.826V0L17.3478 106.881V236.706Z" fill="#F4F4F4"/>
<path d="M4.0773 249.718L13.2877 255.042V244.386L4.0773 239.063V249.718Z" fill="#9EA2B2"/>
<path d="M173.204 38.6828L188.509 29.8334V23.9338L173.204 32.7832V38.6828Z" fill="#D6D8E5"/>
<path d="M139.77 58.0243L166.689 42.4582V36.55L139.77 52.1246V58.0243Z" fill="#D6D8E5"/>
<path d="M173.204 49.8284L188.509 40.9789V35.0793L173.204 43.9288V49.8284Z" fill="#D6D8E5"/>
<path d="M139.77 69.1698L166.689 53.6038V47.6956L139.77 63.2702V69.1698Z" fill="#D6D8E5"/>
<path d="M173.204 62.6165L188.509 53.7671V47.8589L173.204 56.7169V62.6165Z" fill="#D6D8E5"/>
<path d="M139.77 81.9581L166.689 66.3835V60.4839L139.77 76.0585V81.9581Z" fill="#D6D8E5"/>
<path d="M173.204 75.4048L188.509 66.5468V60.6472L173.204 69.4966V75.4048Z" fill="#D6D8E5"/>
<path d="M139.77 94.7462L166.689 79.1716V73.272L139.77 88.8466V94.7462Z" fill="#D6D8E5"/>
<path d="M119.89 71.5692C116.499 67.1832 110.448 66.478 103.495 70.4856C102.825 70.8726 102.164 71.294 101.52 71.7412L103.452 92.7768L119.95 71.6552L119.89 71.5692Z" fill="#9ACC12"/>
<path d="M85.4859 95.2794L103.512 92.7768L101.538 71.7412C94.1555 76.8754 88.001 86.0946 85.4859 95.2794Z" fill="#E8BC05"/>
<path d="M84.2241 103.922C84.2241 113.382 89.3744 118.542 96.559 117.605L103.452 92.7769L85.4258 95.2795C84.635 98.0923 84.2307 101 84.2241 103.922V103.922Z" fill="#EF6848"/>
<path d="M119.95 71.6551C121.735 74.0029 122.765 77.3827 122.765 81.6311C122.765 93.9463 114.139 108.91 103.495 115.068C101.372 116.355 99.019 117.214 96.5676 117.596L103.452 92.7767L119.847 71.5691L119.95 71.6551Z" fill="#BE4AED"/>
<path d="M66.6102 102.391C63.2196 98.0055 57.168 97.3003 50.2151 101.299C49.5456 101.686 48.8932 102.108 48.2408 102.563L50.2323 123.599L66.696 102.469L66.6102 102.391Z" fill="#543526"/>
<path d="M32.2063 126.093L50.2323 123.599L48.2581 102.564C40.876 107.689 34.73 116.909 32.2063 126.093Z" fill="#1B96EA"/>
<path d="M30.9445 134.745C30.9445 144.205 36.0948 149.365 43.2794 148.419L50.2323 123.599L32.2063 126.093C31.3999 128.907 30.9755 131.817 30.9445 134.745V134.745Z" fill="#FF5050"/>
<path d="M66.6789 102.469C68.4557 104.825 69.4858 108.197 69.4858 112.445C69.4858 124.76 60.8591 139.733 50.2152 145.89C48.0937 147.178 45.7399 148.034 43.2881 148.41L50.2323 123.599L66.6274 102.392L66.6789 102.469Z" fill="#32CEC3"/>
<path d="M119.95 163.908C119.95 163.908 106.894 138.968 73.7347 170.788C40.5755 202.608 32.2063 177.926 32.2063 177.926" stroke="#D6D8E5" stroke-width="1.42" stroke-miterlimit="10"/>
<path d="M89.7842 160.76C88.7044 160.136 88.7034 158.112 89.7819 156.241C90.8604 154.369 92.61 153.358 93.6898 153.983C94.7696 154.607 94.7706 156.631 93.6921 158.503C92.6136 160.374 90.8639 161.385 89.7842 160.76Z" fill="#D6D8E5"/>
<path d="M113.231 160.714C112.151 160.09 112.15 158.066 113.228 156.195C114.307 154.323 116.057 153.312 117.136 153.937C118.216 154.562 118.217 156.585 117.139 158.457C116.06 160.328 114.31 161.339 113.231 160.714Z" fill="#D6D8E5"/>
<path d="M63.455 180.487C62.3702 179.862 62.3652 177.831 63.4437 175.951C64.5222 174.071 66.2759 173.053 67.3606 173.678C68.4453 174.303 68.4503 176.333 67.3718 178.213C66.2933 180.093 64.5397 181.111 63.455 180.487Z" fill="#D6D8E5"/>
<path d="M36.4936 188.381C35.4138 187.756 35.4128 185.733 36.4913 183.861C37.5698 181.99 39.3194 180.979 40.3992 181.603C41.479 182.228 41.48 184.251 40.4015 186.123C39.3229 187.994 37.5733 189.005 36.4936 188.381Z" fill="#D6D8E5"/>
<path d="M183.272 128.432L188.509 125.397V107.199L183.272 110.235V128.432Z" fill="#D6D8E5"/>
<path d="M168.766 136.817L174.011 133.781V109.194L168.766 112.23V136.817Z" fill="#D6D8E5"/>
<path d="M154.268 145.202L159.513 142.175V106.932L154.268 109.96V145.202Z" fill="#D6D8E5"/>
<path d="M139.77 153.588L145.014 150.56V106.795L139.77 109.822V153.588Z" fill="#D6D8E5"/>
<path d="M97.9238 329.69L90.4474 325.416L99.4002 316.007L97.9238 329.69Z" fill="#9EA2B2"/>
<path d="M159.461 293.914L153.203 290.456L155.607 281.581L159.461 293.914Z" fill="#9EA2B2"/>
<path opacity="0.3" d="M271.685 396.408C255.112 396.408 241.677 388.635 241.677 379.045C241.677 369.456 255.112 361.682 271.685 361.682C288.259 361.682 301.694 369.456 301.694 379.045C301.694 388.635 288.259 396.408 271.685 396.408Z" fill="#D6D8E5"/>
<path d="M264.26 391.945C247.687 391.945 234.252 384.171 234.252 374.582C234.252 364.992 247.687 357.218 264.26 357.218C280.834 357.218 294.269 364.992 294.269 374.582C294.269 384.171 280.834 391.945 264.26 391.945Z" fill="#DD990E"/>
<path d="M294.261 374.84V366.936L288.329 372.225L294.261 374.84Z" fill="#DD990E"/>
<path d="M234.243 367.143V374.582L237.282 377.807L238.767 369.284L234.243 367.143Z" fill="#DD990E"/>
<path d="M264.26 384.506C247.687 384.506 234.252 376.732 234.252 367.143C234.252 357.553 247.687 349.779 264.26 349.779C280.834 349.779 294.269 357.553 294.269 367.143C294.269 376.732 280.834 384.506 264.26 384.506Z" fill="#F9CB07"/>
<path d="M242.81 367.676C243.119 370.6 245.196 373.481 249.067 375.717C257.454 380.567 271.059 380.567 279.454 375.717C283.316 373.481 285.402 370.6 285.694 367.676C286.063 364.236 283.977 360.796 279.454 358.147C271.059 353.288 257.454 353.288 249.067 358.147C244.544 360.762 242.458 364.253 242.81 367.676Z" fill="#CC8B09"/>
<path d="M242.81 367.676C243.119 370.6 245.196 373.481 249.067 375.717C257.453 380.567 271.059 380.567 279.454 375.717C283.316 373.481 285.402 370.6 285.694 367.676C285.402 364.752 283.316 361.871 279.454 359.635C271.059 354.776 257.453 354.776 249.067 359.635C245.196 361.871 243.119 364.752 242.81 367.676Z" fill="#E8A30A"/>
<path d="M264.569 363.608C264.834 363.608 265.098 363.631 265.359 363.677C265.711 363.72 266.106 363.797 266.544 363.883C266.982 363.969 267.445 364.098 267.917 364.236C268.377 364.378 268.827 364.55 269.265 364.752L265.831 366.747L265.205 366.532C264.346 366.24 263.488 365.99 262.724 365.784C261.994 365.586 261.247 365.462 260.492 365.414C259.802 365.372 259.11 365.419 258.432 365.552C257.742 365.702 257.081 365.964 256.475 366.326C255.873 366.625 255.358 367.075 254.981 367.633C254.858 367.832 254.776 368.055 254.739 368.286C254.702 368.518 254.712 368.755 254.767 368.983C254.912 369.491 255.191 369.952 255.574 370.316C256.05 370.792 256.58 371.21 257.153 371.563L254.956 372.827L256.149 373.524L258.363 372.242C259.42 372.761 260.524 373.179 261.66 373.489C262.849 373.818 264.063 374.046 265.291 374.169L266.449 372.088C266.235 372.088 265.909 372.088 265.479 372.019C265.05 371.95 264.561 371.881 264.029 371.769C263.497 371.658 262.939 371.511 262.312 371.339C261.725 371.169 261.151 370.956 260.595 370.703L264.029 368.725L264.484 368.88L264.947 369.017C265.727 369.286 266.52 369.51 267.325 369.688C267.989 369.846 268.668 369.939 269.351 369.963C269.951 369.986 270.551 369.928 271.136 369.791C271.715 369.653 272.27 369.43 272.784 369.129C273.352 368.831 273.845 368.408 274.226 367.891C274.503 367.504 274.639 367.033 274.612 366.558C274.559 366.065 274.362 365.598 274.046 365.216C273.648 364.722 273.176 364.293 272.647 363.943L274.681 362.765L273.488 362.077L271.471 363.238C270.526 362.769 269.533 362.406 268.509 362.155C267.536 361.907 266.546 361.726 265.548 361.613L264.569 363.608ZM270.441 367.22C269.984 367.477 269.46 367.588 268.939 367.538C268.24 367.46 267.552 367.305 266.887 367.074L270.115 365.208C271.299 365.976 271.408 366.647 270.441 367.22ZM259.11 368.166C259.602 367.895 260.169 367.792 260.724 367.874C261.487 367.971 262.24 368.138 262.973 368.372L259.763 370.23C258.398 369.404 258.175 368.716 259.11 368.183V368.166Z" fill="#CC8B09"/>
<path d="M266.432 372.088C266.432 372.01 266.432 370.927 266.432 370.927L265.11 371.787L265.685 372.647L266.432 372.088Z" fill="#CC8B09"/>
<path d="M254.938 372.827V371.666L257.797 371.881L256.157 372.999L254.938 372.827Z" fill="#CC8B09"/>
<path d="M254.698 368.553V367.375L256.835 368.149L254.698 368.553Z" fill="#CC8B09"/>
<path d="M263.548 368.484L262.836 367.805L260.329 369.525L260.484 370.032C260.484 370.032 262.355 369.241 262.415 369.172L263.548 368.484Z" fill="#CC8B09"/>
<path d="M270.106 364.812L266.784 366.704L266.097 366.205C266.097 366.205 266.518 365.732 266.552 365.681C266.852 365.345 267.199 365.055 267.582 364.821C267.831 364.778 269.411 364.064 269.411 364.064L270.106 364.812Z" fill="#CC8B09"/>
<path d="M264.569 363.608V362.447L266.097 361.948L266.432 362.86L266.346 363.281L264.569 363.608Z" fill="#CC8B09"/>
<path d="M274.724 362.765V361.604L272.956 361.793L273.522 362.92L274.724 362.765Z" fill="#CC8B09"/>
<path d="M274.664 366.721V365.5H272.63L273.128 366.592L273.986 367.555L274.664 366.721Z" fill="#CC8B09"/>
<path d="M264.569 362.447C264.834 362.443 265.098 362.463 265.359 362.507C265.711 362.559 266.106 362.628 266.544 362.722C266.982 362.817 267.445 362.929 267.917 363.075C268.378 363.21 268.829 363.38 269.265 363.582L265.831 365.586L265.205 365.362C264.346 365.07 263.488 364.821 262.724 364.623C261.994 364.425 261.247 364.301 260.492 364.253C259.802 364.207 259.11 364.253 258.432 364.391C257.742 364.534 257.08 364.793 256.475 365.156C255.875 365.458 255.361 365.908 254.981 366.463C254.859 366.663 254.776 366.885 254.74 367.117C254.703 367.349 254.712 367.585 254.767 367.814C254.91 368.323 255.189 368.784 255.574 369.146C256.05 369.622 256.58 370.041 257.153 370.393L254.956 371.666L256.149 372.354L258.363 371.073C259.419 371.595 260.523 372.013 261.66 372.32C262.848 372.653 264.063 372.88 265.29 372.999L266.449 370.927C266.125 370.919 265.801 370.893 265.479 370.849C264.992 370.792 264.508 370.709 264.029 370.6C263.496 370.488 262.939 370.342 262.312 370.17C261.725 370.003 261.152 369.793 260.595 369.542L264.029 367.556L264.484 367.71L264.947 367.856C265.806 368.14 266.604 368.364 267.325 368.527C267.99 368.683 268.668 368.772 269.351 368.794C269.95 368.815 270.55 368.76 271.136 368.631C271.716 368.492 272.272 368.266 272.784 367.96C273.352 367.662 273.845 367.238 274.226 366.721C274.504 366.335 274.64 365.864 274.612 365.388C274.559 364.895 274.362 364.429 274.046 364.047C273.649 363.554 273.177 363.127 272.647 362.782L274.681 361.604L273.488 360.908L271.471 362.077C270.527 361.606 269.533 361.239 268.509 360.985C267.536 360.736 266.547 360.558 265.548 360.452L264.569 362.447ZM270.441 366.068C269.985 366.327 269.461 366.441 268.939 366.395C268.241 366.309 267.554 366.153 266.887 365.93L270.115 364.055C271.299 364.841 271.408 365.512 270.441 366.068V366.068ZM259.11 367.014C259.602 366.743 260.169 366.64 260.724 366.721C261.486 366.823 262.239 366.99 262.973 367.22L259.763 369.078C258.398 368.244 258.175 367.556 259.11 367.014Z" fill="#F9CA06"/>
<path d="M261.805 382.683C245.232 382.683 231.797 374.909 231.797 365.319C231.797 355.73 245.232 347.956 261.805 347.956C278.379 347.956 291.814 355.73 291.814 365.319C291.814 374.909 278.379 382.683 261.805 382.683Z" fill="#DD990E"/>
<path d="M291.806 365.586V357.674L285.883 362.963L291.806 365.586Z" fill="#DD990E"/>
<path d="M231.797 357.881V365.32L234.827 368.545L236.312 360.031L231.797 357.881Z" fill="#DD990E"/>
<path d="M261.805 375.244C245.232 375.244 231.797 367.47 231.797 357.88C231.797 348.291 245.232 340.517 261.805 340.517C278.379 340.517 291.814 348.291 291.814 357.88C291.814 367.47 278.379 375.244 261.805 375.244Z" fill="#F9CB07"/>
<path d="M240.363 358.422C240.664 361.346 242.741 364.227 246.612 366.463C255.007 371.314 268.604 371.314 276.999 366.463C280.87 364.227 282.947 361.346 283.239 358.422C283.608 354.982 281.522 351.542 276.999 348.894C268.604 344.035 255.007 344.035 246.612 348.894C242.089 351.499 240.003 355 240.363 358.422Z" fill="#CC8B09"/>
<path d="M240.363 358.422C240.664 361.346 242.741 364.227 246.612 366.463C255.007 371.314 268.604 371.314 276.999 366.463C280.87 364.227 282.947 361.346 283.239 358.422C282.947 355.498 280.87 352.617 276.999 350.381C268.604 345.522 255.007 345.522 246.612 350.381C242.741 352.6 240.664 355.498 240.363 358.422Z" fill="#E8A30A"/>
<path d="M262.123 354.32C262.388 354.317 262.652 354.337 262.913 354.38C263.265 354.432 263.66 354.501 264.097 354.595C264.535 354.69 264.956 354.802 265.462 354.948C265.924 355.086 266.374 355.259 266.81 355.464L263.376 357.459L262.758 357.236C261.9 356.943 261.042 356.694 260.269 356.496C259.539 356.298 258.792 356.174 258.037 356.126C257.35 356.08 256.66 356.127 255.986 356.264C255.294 356.411 254.63 356.67 254.02 357.029C253.422 357.331 252.911 357.781 252.535 358.336C252.411 358.536 252.327 358.757 252.289 358.989C252.25 359.221 252.258 359.458 252.312 359.687C252.459 360.194 252.737 360.654 253.119 361.02C253.593 361.498 254.123 361.917 254.698 362.267L252.501 363.539L253.702 364.227L255.917 362.946C256.969 363.469 258.071 363.886 259.205 364.193C260.393 364.524 261.608 364.752 262.836 364.872L263.969 362.834C263.644 362.826 263.32 362.8 262.999 362.757C262.514 362.699 262.033 362.615 261.557 362.507C261.024 362.396 260.458 362.249 259.84 362.077C259.252 361.914 258.678 361.704 258.123 361.45L261.557 359.463L262.003 359.618L262.475 359.764C263.333 360.051 264.123 360.274 264.844 360.435C265.509 360.59 266.188 360.679 266.87 360.701C267.47 360.727 268.07 360.673 268.655 360.538C269.238 360.398 269.796 360.172 270.312 359.867C270.875 359.569 271.365 359.149 271.746 358.637C272.022 358.25 272.158 357.78 272.132 357.304C272.084 356.807 271.887 356.336 271.565 355.954C271.172 355.461 270.703 355.034 270.175 354.69L272.209 353.512L271.007 352.815L268.99 353.985C268.046 353.513 267.053 353.147 266.029 352.893C265.056 352.643 264.066 352.465 263.067 352.359L262.123 354.32ZM267.986 357.941C267.534 358.204 267.012 358.318 266.492 358.268C265.792 358.183 265.101 358.027 264.432 357.803L267.668 355.937C268.853 356.734 268.959 357.413 267.986 357.975V357.941ZM256.655 358.887C257.148 358.619 257.715 358.519 258.269 358.603C259.034 358.701 259.789 358.865 260.527 359.093L257.316 360.951C255.943 360.151 255.728 359.48 256.655 358.921V358.887Z" fill="#CC8B09"/>
<path d="M263.969 362.834C263.969 362.748 263.969 361.665 263.969 361.665L262.647 362.525L263.222 363.385L263.969 362.834Z" fill="#CC8B09"/>
<path d="M252.484 363.574V362.404L255.342 362.628L253.702 363.746L252.484 363.574Z" fill="#CC8B09"/>
<path d="M252.243 359.291V358.113L254.381 358.887L252.243 359.291Z" fill="#CC8B09"/>
<path d="M261.093 359.231L260.381 358.551L257.874 360.271L258.029 360.779C258.029 360.779 259.908 359.987 259.969 359.919C260.029 359.85 261.093 359.231 261.093 359.231Z" fill="#CC8B09"/>
<path d="M267.66 355.558L264.329 357.442L263.651 356.952L264.097 356.427C264.396 356.087 264.746 355.796 265.136 355.567C265.385 355.516 266.956 354.81 266.956 354.81L267.66 355.558Z" fill="#CC8B09"/>
<path d="M262.123 354.354V353.185L263.651 352.686L263.977 353.606L263.9 354.019L262.123 354.354Z" fill="#CC8B09"/>
<path d="M272.278 353.512V352.342L270.501 352.531L271.076 353.666L272.278 353.512Z" fill="#CC8B09"/>
<path d="M272.209 357.468V356.255H270.175L270.673 357.339L271.531 358.311L272.209 357.468Z" fill="#CC8B09"/>
<path d="M262.123 353.185C262.388 353.185 262.652 353.208 262.913 353.254C263.265 353.297 263.66 353.374 264.097 353.46C264.535 353.546 264.956 353.675 265.462 353.813C265.922 353.955 266.372 354.127 266.81 354.329L263.376 356.324L262.758 356.109C261.9 355.817 261.042 355.567 260.269 355.361C259.539 355.163 258.792 355.039 258.037 354.991C257.35 354.949 256.661 354.995 255.986 355.129C255.293 355.279 254.629 355.54 254.02 355.903C253.42 356.202 252.908 356.652 252.535 357.21C252.411 357.409 252.327 357.631 252.289 357.862C252.25 358.094 252.258 358.331 252.312 358.56C252.461 359.067 252.739 359.526 253.119 359.893C253.595 360.369 254.125 360.787 254.698 361.14L252.501 362.404L253.702 363.101L255.917 361.819C256.971 362.338 258.072 362.756 259.205 363.066C260.394 363.394 261.608 363.621 262.836 363.746L263.969 361.665C263.754 361.665 263.436 361.665 262.999 361.596C262.561 361.527 262.089 361.458 261.557 361.346C261.024 361.235 260.458 361.088 259.84 360.916C259.253 360.746 258.679 360.533 258.123 360.28L261.557 358.302L262.003 358.457L262.475 358.603C263.252 358.866 264.043 359.087 264.844 359.265C265.509 359.423 266.187 359.515 266.87 359.54C267.47 359.564 268.071 359.506 268.655 359.368C269.236 359.228 269.794 359.005 270.312 358.706C270.876 358.405 271.366 357.982 271.746 357.468C272.022 357.08 272.158 356.61 272.132 356.135C272.082 355.64 271.885 355.173 271.565 354.793C271.17 354.299 270.701 353.87 270.175 353.52L272.209 352.342L271.007 351.654L268.99 352.815C268.046 352.346 267.052 351.983 266.029 351.732C265.055 351.484 264.066 351.303 263.067 351.19L262.123 353.185ZM267.986 356.814C267.532 357.069 267.011 357.18 266.492 357.132C265.79 357.056 265.099 356.9 264.432 356.668L267.668 354.802C268.853 355.576 268.959 356.247 267.986 356.814V356.814ZM256.655 357.76C257.147 357.489 257.714 357.386 258.269 357.468C259.035 357.565 259.791 357.732 260.527 357.967L257.316 359.824C255.943 358.981 255.728 358.293 256.655 357.76V357.76Z" fill="#F9CA06"/>
<path d="M263.651 373.773C247.078 373.773 233.642 365.999 233.642 356.41C233.642 346.82 247.078 339.046 263.651 339.046C280.224 339.046 293.66 346.82 293.66 356.41C293.66 365.999 280.224 373.773 263.651 373.773Z" fill="#DD990E"/>
<path d="M293.651 356.676V348.764L287.72 354.053L293.651 356.676Z" fill="#DD990E"/>
<path d="M233.634 348.971V356.41L236.664 359.635L238.157 351.112L233.634 348.971Z" fill="#DD990E"/>
<path d="M263.651 366.334C247.078 366.334 233.642 358.56 233.642 348.971C233.642 339.381 247.078 331.607 263.651 331.607C280.224 331.607 293.66 339.381 293.66 348.971C293.66 358.56 280.224 366.334 263.651 366.334Z" fill="#F9CB07"/>
<path d="M242.2 349.504C242.501 352.428 244.586 355.309 248.449 357.554C256.844 362.404 270.449 362.404 278.836 357.554C282.707 355.309 284.784 352.394 285.085 349.504C285.445 346.064 283.368 342.624 278.836 339.975C270.449 335.116 256.844 335.116 248.449 339.975C243.934 342.59 241.84 346.081 242.2 349.504Z" fill="#CC8B09"/>
<path d="M242.2 349.504C242.501 352.428 244.586 355.309 248.449 357.554C256.844 362.404 270.449 362.404 278.836 357.554C282.707 355.309 284.784 352.394 285.085 349.504C284.784 346.58 282.707 343.708 278.836 341.463C270.449 336.604 256.844 336.604 248.449 341.463C244.586 343.708 242.509 346.58 242.2 349.504Z" fill="#E8A30A"/>
<path d="M263.969 345.445C264.233 345.441 264.497 345.461 264.758 345.505C265.11 345.557 265.505 345.625 265.943 345.72C266.404 345.813 266.859 345.931 267.308 346.073C267.769 346.207 268.22 346.376 268.655 346.58L265.222 348.575L264.604 348.36C263.745 348.068 262.887 347.818 262.123 347.612C261.392 347.419 260.645 347.295 259.891 347.242C259.201 347.203 258.509 347.252 257.831 347.388C257.138 347.533 256.474 347.792 255.866 348.154C255.267 348.456 254.756 348.906 254.381 349.461C254.257 349.661 254.175 349.883 254.138 350.114C254.101 350.346 254.111 350.583 254.166 350.811C254.311 351.32 254.59 351.78 254.973 352.144C255.446 352.62 255.973 353.038 256.544 353.391L254.355 354.655L255.548 355.352L257.763 354.071C258.817 354.595 259.921 355.012 261.059 355.318C262.248 355.646 263.462 355.874 264.69 355.997L265.84 353.924C265.518 353.916 265.197 353.89 264.878 353.847C264.391 353.789 263.907 353.706 263.428 353.598C262.896 353.486 262.338 353.34 261.711 353.168C261.125 353 260.551 352.79 259.994 352.54L263.428 350.553L263.874 350.708L264.346 350.854C265.205 351.138 266.003 351.362 266.724 351.525C267.387 351.676 268.062 351.765 268.741 351.792C269.341 351.813 269.941 351.758 270.527 351.628C271.109 351.488 271.667 351.262 272.183 350.957C272.751 350.659 273.245 350.236 273.625 349.719C273.903 349.332 274.04 348.862 274.012 348.386C273.958 347.893 273.761 347.426 273.445 347.044C273.045 346.553 272.573 346.124 272.046 345.772L274.08 344.602L272.887 343.905L270.87 345.075C269.926 344.603 268.933 344.237 267.909 343.983C266.935 343.735 265.945 343.554 264.947 343.441L263.969 345.445ZM269.831 349.065C269.38 349.327 268.857 349.439 268.338 349.384C267.64 349.305 266.952 349.153 266.286 348.928L269.514 347.053C270.69 347.836 270.836 348.506 269.823 349.065H269.831ZM258.501 350.011C258.995 349.738 259.565 349.636 260.123 349.719C260.886 349.82 261.638 349.987 262.372 350.218L259.162 352.075C257.788 351.233 257.565 350.547 258.492 350.02L258.501 350.011Z" fill="#CC8B09"/>
<path d="M265.814 353.924C265.814 353.838 265.814 352.755 265.814 352.755L264.501 353.615L265.076 354.475L265.814 353.924Z" fill="#CC8B09"/>
<path d="M254.329 354.655V353.494L257.179 353.709L255.539 354.836L254.329 354.655Z" fill="#CC8B09"/>
<path d="M254.089 350.381V349.203L256.226 349.977L254.089 350.381Z" fill="#CC8B09"/>
<path d="M262.939 350.321L262.226 349.633L259.72 351.353L259.874 351.869C259.874 351.869 261.745 351.078 261.805 351.009L262.939 350.321Z" fill="#CC8B09"/>
<path d="M269.497 346.649L266.166 348.532L265.488 348.042C265.488 348.042 265.909 347.56 265.934 347.509C265.96 347.457 266.724 346.692 266.973 346.649C267.222 346.606 268.801 345.892 268.801 345.892L269.497 346.649Z" fill="#CC8B09"/>
<path d="M263.96 345.445V344.275L265.488 343.776L265.814 344.688L265.737 345.109L263.96 345.445Z" fill="#CC8B09"/>
<path d="M274.115 344.602V343.432L272.346 343.622L272.913 344.757L274.115 344.602Z" fill="#CC8B09"/>
<path d="M274.046 348.558V347.345H272.02L272.509 348.429L273.368 349.401L274.046 348.558Z" fill="#CC8B09"/>
<path d="M263.969 344.275C264.233 344.276 264.497 344.296 264.758 344.335C265.11 344.387 265.505 344.456 265.943 344.55C266.381 344.645 266.801 344.765 267.308 344.903C267.768 345.044 268.219 345.216 268.655 345.419L265.222 347.414L264.604 347.191C263.745 346.898 262.887 346.657 262.123 346.451C261.393 346.254 260.646 346.13 259.891 346.081C259.202 346.035 258.509 346.081 257.831 346.219C257.14 346.368 256.476 346.626 255.866 346.984C255.257 347.285 254.737 347.738 254.355 348.3C254.232 348.501 254.149 348.725 254.113 348.958C254.076 349.191 254.085 349.429 254.14 349.659C254.286 350.165 254.565 350.622 254.947 350.983C255.418 351.461 255.946 351.88 256.518 352.23L254.329 353.503L255.522 354.191L257.737 352.918C258.792 353.439 259.896 353.854 261.033 354.157C262.222 354.488 263.436 354.718 264.664 354.845L265.814 352.763C265.492 352.755 265.172 352.729 264.853 352.686C264.365 352.633 263.88 352.549 263.402 352.437C262.87 352.325 262.312 352.179 261.685 352.007C261.098 351.843 260.523 351.633 259.969 351.379L263.402 349.392C263.548 349.451 263.697 349.503 263.848 349.547L264.321 349.693C265.179 349.977 265.977 350.201 266.698 350.364C267.361 350.517 268.036 350.609 268.715 350.639C269.315 350.658 269.915 350.6 270.501 350.467C271.084 350.331 271.643 350.104 272.158 349.796C272.727 349.504 273.221 349.083 273.6 348.567C273.876 348.179 274.012 347.709 273.986 347.234C273.935 346.737 273.737 346.267 273.419 345.883C273.018 345.395 272.547 344.968 272.02 344.619L274.055 343.441L272.861 342.744L270.844 343.914C269.9 343.442 268.907 343.076 267.883 342.822C266.91 342.573 265.92 342.394 264.921 342.289L263.969 344.275ZM269.831 347.896C269.381 348.161 268.858 348.275 268.338 348.223C267.639 348.141 266.952 347.985 266.286 347.758L269.514 345.892C270.69 346.666 270.836 347.337 269.823 347.896H269.831ZM258.501 348.842C258.997 348.576 259.566 348.476 260.123 348.558C260.885 348.656 261.638 348.82 262.372 349.048L259.162 350.906C257.788 350.074 257.565 349.386 258.492 348.842H258.501Z" fill="#F9CA06"/>
<path d="M261.093 365.173C244.52 365.173 231.084 357.399 231.084 347.81C231.084 338.22 244.52 330.446 261.093 330.446C277.666 330.446 291.102 338.22 291.102 347.81C291.102 357.399 277.666 365.173 261.093 365.173Z" fill="#DD990E"/>
<path d="M291.102 348.076V340.164L285.171 345.453L291.102 348.076Z" fill="#DD990E"/>
<path d="M231.084 340.371V347.81L234.114 351.035L235.599 342.521L231.084 340.371Z" fill="#DD990E"/>
<path d="M261.093 357.734C244.52 357.734 231.084 349.96 231.084 340.371C231.084 330.781 244.52 323.007 261.093 323.007C277.666 323.007 291.102 330.781 291.102 340.371C291.102 349.96 277.666 357.734 261.093 357.734Z" fill="#F9CB07"/>
<path d="M239.651 340.913C239.951 343.837 242.028 346.718 245.9 348.954C254.295 353.804 267.891 353.804 276.286 348.954C280.158 346.718 282.235 343.837 282.535 340.913C282.896 337.473 280.819 333.99 276.286 331.384C267.891 326.525 254.295 326.525 245.9 331.384C241.376 333.99 239.29 337.49 239.651 340.913Z" fill="#CC8B09"/>
<path d="M239.651 340.913C239.951 343.837 242.028 346.718 245.9 348.954C254.295 353.804 267.891 353.804 276.286 348.954C280.158 346.718 282.235 343.837 282.535 340.913C282.235 337.989 280.158 335.108 276.286 332.872C267.891 328.013 254.295 328.013 245.9 332.872C242.028 335.108 239.934 337.98 239.651 340.913Z" fill="#E8A30A"/>
<path d="M261.393 336.845C261.658 336.841 261.922 336.861 262.183 336.905C262.535 336.957 262.93 337.025 263.368 337.12C263.806 337.215 264.226 337.335 264.733 337.473C265.194 337.611 265.644 337.783 266.08 337.989L262.647 339.984L262.029 339.76C261.17 339.468 260.312 339.227 259.548 339.021C258.815 338.824 258.065 338.7 257.308 338.651C256.621 338.605 255.931 338.651 255.256 338.788C254.564 338.936 253.9 339.194 253.29 339.554C252.692 339.856 252.181 340.306 251.805 340.861C251.681 341.06 251.597 341.282 251.559 341.514C251.521 341.745 251.529 341.983 251.582 342.211C251.729 342.719 252.008 343.179 252.389 343.544C252.863 344.022 253.394 344.441 253.969 344.791L251.771 346.064L252.973 346.752L255.187 345.479C256.24 345.999 257.341 346.414 258.475 346.718C259.664 347.048 260.879 347.278 262.106 347.406L263.265 345.324C262.94 345.316 262.616 345.29 262.295 345.247C261.81 345.193 261.328 345.11 260.853 344.998C260.32 344.886 259.754 344.74 259.136 344.568C258.548 344.404 257.974 344.194 257.419 343.94L260.853 341.953C260.998 342.014 261.147 342.065 261.299 342.108L261.771 342.254C262.63 342.541 263.419 342.764 264.14 342.925C264.806 343.078 265.484 343.17 266.166 343.2C266.766 343.219 267.366 343.162 267.951 343.028C268.534 342.889 269.092 342.662 269.608 342.357C270.173 342.063 270.664 341.642 271.042 341.128C271.318 340.74 271.455 340.27 271.428 339.795C271.384 339.296 271.186 338.824 270.861 338.444C270.466 337.954 269.997 337.527 269.471 337.18L271.505 336.002L270.303 335.305L268.295 336.475C267.348 336.003 266.352 335.637 265.325 335.383C264.352 335.134 263.362 334.955 262.363 334.85L261.393 336.845ZM267.256 340.465C266.805 340.729 266.282 340.843 265.763 340.792C265.061 340.712 264.371 340.556 263.703 340.328L266.939 338.462C268.135 339.236 268.246 339.904 267.273 340.465H267.256ZM255.926 341.411C256.419 341.146 256.985 341.047 257.539 341.128C258.305 341.226 259.06 341.39 259.797 341.618L256.587 343.475C255.23 342.641 255.016 341.953 255.943 341.42L255.926 341.411Z" fill="#CC8B09"/>
<path d="M263.265 345.324C263.265 345.238 263.265 344.155 263.265 344.155L261.943 345.015L262.518 345.875L263.265 345.324Z" fill="#CC8B09"/>
<path d="M251.771 346.064V344.894L254.629 345.118L252.99 346.236L251.771 346.064Z" fill="#CC8B09"/>
<path d="M251.531 341.781V340.603L253.668 341.377L251.531 341.781Z" fill="#CC8B09"/>
<path d="M260.381 341.721L259.677 341.042L257.17 342.762L257.325 343.269C257.325 343.269 259.196 342.478 259.256 342.409C259.316 342.34 260.381 341.721 260.381 341.721Z" fill="#CC8B09"/>
<path d="M266.947 338.049L263.617 339.941L262.939 339.442L263.385 338.917C263.683 338.577 264.034 338.287 264.424 338.057C264.672 338.014 266.252 337.301 266.252 337.301L266.947 338.049Z" fill="#CC8B09"/>
<path d="M261.411 336.845V335.675L262.939 335.185L263.265 336.097L263.187 336.518L261.411 336.845Z" fill="#CC8B09"/>
<path d="M271.565 336.002V334.832L269.788 335.021L270.364 336.157L271.565 336.002Z" fill="#CC8B09"/>
<path d="M271.497 339.958V338.745H269.462L269.96 339.829L270.818 340.801L271.497 339.958Z" fill="#CC8B09"/>
<path d="M261.393 335.675C261.658 335.675 261.922 335.698 262.183 335.744C262.535 335.796 262.93 335.864 263.368 335.959C263.806 336.054 264.226 336.165 264.733 336.303C265.193 336.445 265.643 336.617 266.08 336.819L262.647 338.814L262.029 338.599C261.17 338.307 260.312 338.057 259.548 337.851C258.814 337.658 258.064 337.534 257.308 337.481C256.621 337.439 255.931 337.486 255.256 337.619C254.564 337.769 253.9 338.031 253.29 338.393C252.692 338.695 252.181 339.145 251.805 339.7C251.681 339.899 251.597 340.121 251.559 340.353C251.521 340.584 251.529 340.821 251.582 341.05C251.731 341.557 252.009 342.017 252.389 342.383C252.865 342.859 253.395 343.277 253.969 343.63L251.771 344.894L252.973 345.591L255.187 344.31C256.241 344.829 257.342 345.246 258.475 345.557C259.664 345.884 260.879 346.111 262.106 346.236L263.265 344.155C262.94 344.155 262.616 344.132 262.295 344.086C261.866 344.034 261.385 343.948 260.853 343.837C260.32 343.725 259.754 343.579 259.136 343.407C258.549 343.236 257.975 343.024 257.419 342.77L260.853 340.792L261.299 340.947L261.771 341.093C262.549 341.356 263.339 341.577 264.14 341.755C264.805 341.912 265.484 342.005 266.166 342.031C266.766 342.052 267.366 341.997 267.951 341.867C268.532 341.72 269.089 341.494 269.608 341.196C270.172 340.896 270.662 340.472 271.042 339.958C271.319 339.571 271.456 339.101 271.428 338.625C271.382 338.13 271.184 337.661 270.861 337.283C270.466 336.79 269.997 336.36 269.471 336.011L271.505 334.832L270.303 334.144L268.295 335.305C267.346 334.84 266.35 334.477 265.325 334.222C264.351 333.974 263.362 333.793 262.363 333.68L261.393 335.675ZM267.256 339.304C266.804 339.565 266.281 339.676 265.763 339.623C265.062 339.546 264.371 339.393 263.703 339.167L266.939 337.292C268.14 338.075 268.261 338.737 267.273 339.304H267.256ZM255.926 340.25C256.417 339.979 256.984 339.877 257.539 339.958C258.305 340.055 259.061 340.222 259.797 340.457L256.587 342.314C255.23 341.472 255.016 340.784 255.943 340.25H255.926Z" fill="#F9CA06"/>
<path d="M262.939 356.264C246.365 356.264 232.93 348.49 232.93 338.9C232.93 329.311 246.365 321.537 262.939 321.537C279.512 321.537 292.947 329.311 292.947 338.9C292.947 348.49 279.512 356.264 262.939 356.264Z" fill="#DD990E"/>
<path d="M292.939 339.167V331.255L287.007 336.544L292.939 339.167Z" fill="#DD990E"/>
<path d="M232.921 331.461V338.9L235.96 342.125L237.445 333.611L232.921 331.461Z" fill="#DD990E"/>
<path d="M262.939 348.825C246.365 348.825 232.93 341.051 232.93 331.461C232.93 321.872 246.365 314.098 262.939 314.098C279.512 314.098 292.947 321.872 292.947 331.461C292.947 341.051 279.512 348.825 262.939 348.825Z" fill="#F9CB07"/>
<path d="M241.488 332.003C241.797 334.927 243.874 337.8 247.745 340.044C256.132 344.895 269.737 344.895 278.132 340.044C281.995 337.8 284.072 334.927 284.372 332.003C284.733 328.563 282.656 325.08 278.132 322.466C269.737 317.607 256.132 317.607 247.745 322.466C243.222 325.08 241.136 328.58 241.488 332.003Z" fill="#CC8B09"/>
<path d="M241.488 332.003C241.797 334.927 243.874 337.8 247.745 340.044C256.132 344.895 269.737 344.895 278.132 340.044C281.995 337.8 284.072 334.927 284.372 332.003C284.072 329.079 281.995 326.198 278.132 323.954C269.737 319.095 256.132 319.095 247.745 323.954C243.874 326.198 241.797 329.079 241.488 332.003Z" fill="#E8A30A"/>
<path d="M263.248 327.935C263.512 327.931 263.776 327.952 264.037 327.995C264.389 328.047 264.784 328.116 265.222 328.21C265.66 328.305 266.08 328.417 266.595 328.563C267.054 328.697 267.502 328.867 267.934 329.07L264.501 331.074L263.883 330.851C263.024 330.558 262.166 330.309 261.402 330.102C260.672 329.908 259.924 329.787 259.17 329.741C258.48 329.695 257.788 329.742 257.11 329.879C256.417 330.024 255.753 330.282 255.144 330.644C254.55 330.952 254.043 331.405 253.668 331.96C253.545 332.16 253.462 332.382 253.426 332.614C253.389 332.845 253.398 333.082 253.453 333.31C253.599 333.819 253.878 334.279 254.26 334.643C254.737 335.119 255.267 335.537 255.84 335.89L253.642 337.163L254.835 337.851L257.05 336.57C258.105 337.094 259.209 337.511 260.346 337.817C261.534 338.15 262.749 338.377 263.977 338.496L265.127 336.423C264.806 336.415 264.485 336.389 264.166 336.346C263.678 336.289 263.194 336.205 262.715 336.097C262.183 335.985 261.625 335.839 260.999 335.667C260.411 335.501 259.838 335.291 259.282 335.039L262.715 333.052L263.162 333.207L263.634 333.353C264.492 333.637 265.291 333.861 266.012 334.024C266.677 334.175 267.355 334.265 268.037 334.291C268.637 334.312 269.237 334.257 269.823 334.127C270.403 333.989 270.959 333.763 271.471 333.456C272.039 333.158 272.532 332.735 272.913 332.218C273.191 331.831 273.327 331.361 273.299 330.885C273.246 330.392 273.049 329.925 272.733 329.543C272.334 329.052 271.862 328.626 271.333 328.279L273.411 327.092L272.218 326.396L270.2 327.565C269.256 327.094 268.263 326.728 267.239 326.473C266.265 326.225 265.276 326.044 264.278 325.931L263.248 327.935ZM269.119 331.556C268.664 331.817 268.138 331.929 267.617 331.874C266.919 331.796 266.231 331.643 265.565 331.418L268.793 329.543C269.977 330.329 270.086 331 269.119 331.556ZM257.788 332.502C258.28 332.231 258.847 332.128 259.402 332.209C260.165 332.311 260.917 332.478 261.651 332.708L258.441 334.566C257.102 333.732 256.853 333.035 257.788 332.502Z" fill="#CC8B09"/>
<path d="M265.102 336.415C265.102 336.329 265.102 335.245 265.102 335.245L263.788 336.105L264.363 336.965L265.102 336.415Z" fill="#CC8B09"/>
<path d="M253.617 337.154V335.985L256.466 336.208L254.827 337.326L253.617 337.154Z" fill="#CC8B09"/>
<path d="M253.376 332.872V331.693L255.514 332.467L253.376 332.872Z" fill="#CC8B09"/>
<path d="M262.252 332.82L261.539 332.132L259.033 333.852L259.187 334.368C259.187 334.368 261.059 333.577 261.119 333.508L262.252 332.82Z" fill="#CC8B09"/>
<path d="M268.784 329.139L265.462 331.023L264.775 330.532L265.23 330.008C265.523 329.665 265.871 329.375 266.26 329.148C266.509 329.096 268.089 328.391 268.089 328.391L268.784 329.139Z" fill="#CC8B09"/>
<path d="M263.248 327.935V326.766L264.775 326.267L265.102 327.178L265.024 327.6L263.248 327.935Z" fill="#CC8B09"/>
<path d="M273.402 327.092V325.923L271.634 326.112L272.2 327.247L273.402 327.092Z" fill="#CC8B09"/>
<path d="M273.342 331.049V329.836H271.316L271.814 330.92L272.673 331.891L273.342 331.049Z" fill="#CC8B09"/>
<path d="M263.248 326.8C263.512 326.801 263.776 326.821 264.037 326.86C264.389 326.912 264.784 326.981 265.222 327.075C265.66 327.17 266.08 327.29 266.595 327.428C267.053 327.568 267.5 327.741 267.934 327.944L264.501 329.939L263.883 329.715C263.024 329.432 262.166 329.182 261.402 328.976C260.672 328.779 259.925 328.655 259.17 328.606C258.481 328.56 257.788 328.606 257.11 328.744C256.419 328.896 255.756 329.154 255.144 329.509C254.548 329.816 254.037 330.269 253.659 330.825C253.536 331.024 253.454 331.247 253.417 331.478C253.38 331.71 253.39 331.947 253.445 332.175C253.59 332.683 253.869 333.144 254.252 333.508C254.726 333.983 255.257 334.399 255.831 334.746L253.634 336.019L254.827 336.716L257.024 335.4C258.081 335.92 259.184 336.338 260.32 336.647C261.51 336.972 262.725 337.199 263.951 337.326L265.102 335.245C264.78 335.237 264.459 335.211 264.14 335.168C263.653 335.114 263.169 335.033 262.69 334.927C262.157 334.807 261.599 334.66 260.973 334.488C260.384 334.327 259.81 334.117 259.256 333.861L262.69 331.874L263.136 332.037L263.608 332.175C264.466 332.459 265.265 332.682 265.986 332.846C266.651 333 267.329 333.092 268.012 333.121C268.612 333.139 269.211 333.081 269.797 332.949C270.377 332.811 270.933 332.585 271.445 332.278C272.014 331.986 272.508 331.565 272.887 331.048C273.164 330.661 273.3 330.191 273.273 329.715C273.222 329.222 273.025 328.755 272.707 328.374C272.309 327.88 271.837 327.451 271.308 327.101L273.411 325.94L272.218 325.252L270.2 326.413C269.255 325.945 268.262 325.579 267.239 325.321C266.265 325.076 265.276 324.898 264.278 324.788L263.248 326.8ZM269.119 330.386C268.665 330.65 268.139 330.764 267.617 330.713C266.918 330.635 266.23 330.479 265.565 330.249L268.793 328.382C269.977 329.156 270.086 329.824 269.119 330.386ZM257.788 331.332C258.281 331.064 258.848 330.964 259.402 331.048C260.164 331.147 260.917 331.311 261.651 331.539L258.441 333.396C257.102 332.562 256.853 331.874 257.788 331.332V331.332Z" fill="#F9CA06"/>
<path opacity="0.3" d="M354.991 430C338.418 430 324.982 422.226 324.982 412.637C324.982 403.047 338.418 395.273 354.991 395.273C371.565 395.273 385 403.047 385 412.637C385 422.226 371.565 430 354.991 430Z" fill="#D6D8E5"/>
<path d="M347.566 425.537C330.993 425.537 317.557 417.763 317.557 408.173C317.557 398.584 330.993 390.81 347.566 390.81C364.14 390.81 377.575 398.584 377.575 408.173C377.575 417.763 364.14 425.537 347.566 425.537Z" fill="#DD990E"/>
<path d="M377.566 408.44V400.528L371.635 405.817L377.566 408.44Z" fill="#DD990E"/>
<path d="M317.549 400.734V408.173L320.579 411.398L322.064 402.884L317.549 400.734Z" fill="#DD990E"/>
<path d="M347.566 418.098C330.993 418.098 317.557 410.324 317.557 400.734C317.557 391.145 330.993 383.371 347.566 383.371C364.14 383.371 377.575 391.145 377.575 400.734C377.575 410.324 364.14 418.098 347.566 418.098Z" fill="#F9CB07"/>
<path d="M326.115 401.276C326.416 404.2 328.502 407.081 332.364 409.317C340.759 414.167 354.364 414.167 362.751 409.317C366.622 407.081 368.699 404.2 369 401.276C369.36 397.836 367.283 394.353 362.751 391.747C354.364 386.888 340.759 386.888 332.364 391.747C327.841 394.353 325.772 397.853 326.115 401.276Z" fill="#CC8B09"/>
<path d="M326.115 401.276C326.416 404.2 328.502 407.081 332.364 409.317C340.759 414.167 354.364 414.167 362.751 409.317C366.622 407.081 368.699 404.2 369 401.276C368.699 398.352 366.622 395.471 362.751 393.235C354.364 388.376 340.759 388.376 332.364 393.235C328.502 395.471 326.416 398.352 326.115 401.276Z" fill="#E8A30A"/>
<path d="M347.875 397.208C348.14 397.205 348.404 397.225 348.665 397.269C349.017 397.32 349.412 397.389 349.849 397.484C350.287 397.578 350.708 397.69 351.214 397.836C351.676 397.973 352.127 398.146 352.562 398.352L349.128 400.347L348.51 400.124C347.652 399.831 346.794 399.582 346.03 399.384C345.299 399.196 344.551 399.081 343.798 399.04C343.111 398.994 342.421 399.041 341.746 399.178C341.054 399.325 340.39 399.584 339.781 399.943C339.183 400.245 338.671 400.695 338.296 401.25C338.171 401.45 338.088 401.671 338.049 401.903C338.011 402.135 338.019 402.372 338.072 402.601C338.235 403.114 338.531 403.574 338.931 403.934C339.4 404.414 339.928 404.833 340.502 405.181L338.313 406.453L339.506 407.141L341.652 405.834C342.703 406.361 343.804 406.778 344.939 407.081C346.128 407.413 347.343 407.64 348.57 407.761L349.729 405.688C349.405 405.679 349.081 405.654 348.759 405.611C348.275 405.552 347.793 405.469 347.317 405.361C346.785 405.249 346.218 405.103 345.6 404.931C345.013 404.767 344.439 404.557 343.884 404.303L347.317 402.317C347.463 402.368 347.609 402.429 347.764 402.472L348.236 402.618C349.094 402.902 349.892 403.125 350.605 403.289C351.27 403.443 351.948 403.532 352.631 403.555C353.23 403.581 353.831 403.526 354.416 403.392C354.999 403.254 355.558 403.028 356.073 402.721C356.647 402.429 357.147 402.008 357.532 401.491C357.815 401.107 357.954 400.635 357.927 400.158C357.875 399.662 357.678 399.192 357.36 398.808C356.962 398.317 356.49 397.89 355.961 397.544L357.995 396.366L356.794 395.669L354.785 396.839C353.841 396.367 352.848 396.001 351.824 395.746C350.848 395.497 349.855 395.319 348.854 395.213L347.875 397.208ZM353.738 400.829C353.287 401.093 352.764 401.207 352.244 401.156C351.547 401.071 350.859 400.915 350.193 400.691L353.42 398.825C354.605 399.599 354.711 400.267 353.738 400.829ZM342.407 401.775C342.901 401.51 343.467 401.41 344.021 401.491C344.786 401.589 345.542 401.753 346.279 401.981L343.068 403.839C341.695 403.005 341.48 402.317 342.407 401.775V401.775Z" fill="#CC8B09"/>
<path d="M349.729 405.688C349.729 405.602 349.729 404.518 349.729 404.518L348.416 405.378L348.982 406.238L349.729 405.688Z" fill="#CC8B09"/>
<path d="M338.244 406.427V405.258L341.094 405.481L339.454 406.599L338.244 406.427Z" fill="#CC8B09"/>
<path d="M337.995 402.145V400.967L340.133 401.741L337.995 402.145Z" fill="#CC8B09"/>
<path d="M346.854 402.084L346.141 401.405L343.635 403.125L343.789 403.632C343.789 403.632 345.661 402.841 345.721 402.772C345.781 402.704 346.854 402.084 346.854 402.084Z" fill="#CC8B09"/>
<path d="M353.412 398.412L350.081 400.304L349.403 399.805C349.403 399.805 349.824 399.324 349.849 399.281C350.148 398.94 350.498 398.65 350.888 398.421C351.137 398.369 352.716 397.664 352.716 397.664L353.412 398.412Z" fill="#CC8B09"/>
<path d="M347.875 397.208V396.039L349.403 395.54L349.729 396.46L349.652 396.873L347.875 397.208Z" fill="#CC8B09"/>
<path d="M358.03 396.365V395.196L356.253 395.385L356.828 396.52L358.03 396.365Z" fill="#CC8B09"/>
<path d="M357.961 400.321V399.109H355.935L356.425 400.192L357.283 401.164L357.961 400.321Z" fill="#CC8B09"/>
<path d="M347.875 396.039C348.14 396.039 348.404 396.062 348.665 396.107C349.014 396.159 349.409 396.228 349.849 396.314C350.287 396.408 350.708 396.529 351.214 396.666C351.675 396.807 352.125 396.98 352.562 397.182L349.128 399.178L348.51 398.963C347.652 398.67 346.794 398.421 346.03 398.214C345.296 398.022 344.546 397.898 343.789 397.845C343.102 397.803 342.413 397.849 341.738 397.982C341.045 398.133 340.381 398.394 339.772 398.756C339.174 399.058 338.663 399.508 338.287 400.063C338.163 400.263 338.079 400.484 338.041 400.716C338.002 400.948 338.01 401.185 338.064 401.414C338.228 401.926 338.524 402.385 338.922 402.747C339.394 403.224 339.921 403.643 340.493 403.994L338.304 405.258L339.497 405.954L341.712 404.673C342.747 405.189 343.827 405.606 344.939 405.92C346.129 406.247 347.343 406.475 348.57 406.599L349.729 404.518C349.405 404.514 349.081 404.491 348.759 404.449C348.33 404.398 347.849 404.312 347.317 404.2C346.785 404.088 346.218 403.942 345.6 403.77C345.014 403.599 344.44 403.387 343.884 403.134L347.317 401.156L347.764 401.31L348.236 401.457C349.013 401.718 349.804 401.939 350.605 402.119C351.27 402.276 351.948 402.368 352.631 402.394C353.231 402.417 353.831 402.36 354.416 402.222C354.997 402.083 355.556 401.86 356.073 401.56C356.648 401.265 357.147 400.841 357.532 400.321C357.815 399.937 357.954 399.465 357.927 398.988C357.873 398.495 357.676 398.029 357.36 397.647C356.96 397.155 356.488 396.726 355.961 396.374L357.995 395.196L356.794 394.508L354.785 395.669C353.839 395.204 352.846 394.841 351.824 394.585C350.847 394.337 349.855 394.156 348.854 394.043L347.875 396.039ZM353.738 399.668C353.286 399.929 352.763 400.041 352.244 399.986C351.545 399.91 350.857 399.754 350.193 399.522L353.42 397.655C354.605 398.429 354.711 399.1 353.738 399.668ZM342.407 400.614C342.899 400.343 343.466 400.24 344.021 400.321C344.787 400.419 345.543 400.586 346.279 400.82L343.068 402.678C341.695 401.835 341.48 401.147 342.407 400.614V400.614Z" fill="#F9CA06"/>
<path d="M345.111 416.283C328.538 416.283 315.102 408.509 315.102 398.92C315.102 389.33 328.538 381.556 345.111 381.556C361.685 381.556 375.12 389.33 375.12 398.92C375.12 408.509 361.685 416.283 345.111 416.283Z" fill="#DD990E"/>
<path d="M375.111 399.186V391.274L369.18 396.563L375.111 399.186Z" fill="#DD990E"/>
<path d="M315.094 391.48V398.919L318.132 402.144L319.617 393.622L315.094 391.48Z" fill="#DD990E"/>
<path d="M345.111 408.844C328.538 408.844 315.102 401.07 315.102 391.481C315.102 381.891 328.538 374.117 345.111 374.117C361.685 374.117 375.12 381.891 375.12 391.481C375.12 401.07 361.685 408.844 345.111 408.844Z" fill="#F9CB07"/>
<path d="M323.66 392.014C323.969 394.938 326.047 397.819 329.918 400.063C338.304 404.914 351.91 404.914 360.304 400.063C364.167 397.819 366.244 394.903 366.545 392.014C366.905 388.574 364.828 385.134 360.304 382.485C351.91 377.626 338.304 377.626 329.918 382.485C325.394 385.099 323.308 388.591 323.66 392.014Z" fill="#CC8B09"/>
<path d="M323.66 392.014C323.969 394.938 326.047 397.819 329.918 400.063C338.304 404.914 351.91 404.914 360.304 400.063C364.167 397.819 366.244 394.903 366.545 392.014C366.244 389.09 364.167 386.217 360.304 383.973C351.91 379.114 338.304 379.114 329.918 383.973C326.047 386.217 323.969 389.09 323.66 392.014Z" fill="#E8A30A"/>
<path d="M345.42 387.946C345.685 387.95 345.949 387.973 346.21 388.015C346.562 388.066 346.957 388.135 347.394 388.23C347.858 388.323 348.317 388.441 348.768 388.582C349.227 388.716 349.674 388.886 350.107 389.09L346.673 391.085L346.055 390.87C345.197 390.577 344.339 390.328 343.575 390.122C342.844 389.929 342.097 389.805 341.343 389.752C340.653 389.709 339.96 389.758 339.283 389.898C338.592 390.042 337.931 390.3 337.326 390.663C336.726 390.966 336.212 391.415 335.832 391.971C335.709 392.17 335.626 392.392 335.59 392.624C335.553 392.856 335.562 393.093 335.617 393.321C335.763 393.829 336.042 394.29 336.424 394.654C336.901 395.13 337.431 395.548 338.004 395.901L335.806 397.165L336.999 397.862L339.214 396.58C340.271 397.099 341.375 397.517 342.51 397.827C343.699 398.156 344.914 398.383 346.141 398.507L347.231 396.46C346.91 396.451 346.589 396.426 346.27 396.382C345.832 396.331 345.351 396.245 344.819 396.133C344.287 396.021 343.729 395.875 343.103 395.703C342.515 395.537 341.942 395.327 341.386 395.075L344.819 393.089L345.274 393.243L345.738 393.39C346.596 393.673 347.394 393.897 348.115 394.06C348.781 394.212 349.459 394.301 350.141 394.327C350.741 394.348 351.341 394.293 351.927 394.164C352.505 394.018 353.059 393.792 353.575 393.493C354.143 393.195 354.636 392.771 355.017 392.254C355.295 391.868 355.431 391.397 355.403 390.921C355.385 390.441 355.23 389.975 354.957 389.58C354.556 389.088 354.085 388.659 353.558 388.307L355.592 387.129L354.399 386.441L352.382 387.576C351.435 387.111 350.443 386.748 349.42 386.492C348.446 386.245 347.457 386.064 346.459 385.951L345.42 387.946ZM351.291 391.575C350.837 391.837 350.311 391.948 349.789 391.893C349.091 391.815 348.403 391.662 347.738 391.437L350.965 389.58C352.15 390.345 352.261 391.007 351.291 391.575V391.575ZM339.961 392.521C340.453 392.25 341.019 392.147 341.575 392.229C342.338 392.326 343.091 392.493 343.824 392.727L340.613 394.585C339.248 393.742 339.025 393.02 339.961 392.521V392.521Z" fill="#CC8B09"/>
<path d="M347.231 396.46C347.231 396.374 347.231 395.291 347.231 395.291L345.918 396.151L346.493 397.011L347.231 396.46Z" fill="#CC8B09"/>
<path d="M335.789 397.165V396.004L338.639 396.219L336.999 397.337L335.789 397.165Z" fill="#CC8B09"/>
<path d="M335.549 392.891V391.713L337.686 392.487L335.549 392.891Z" fill="#CC8B09"/>
<path d="M344.399 392.831L343.686 392.143L341.18 393.863L341.334 394.379C341.334 394.379 343.206 393.588 343.266 393.519L344.399 392.831Z" fill="#CC8B09"/>
<path d="M350.957 389.15L347.635 391.042L346.948 390.552C346.948 390.552 347.369 390.07 347.403 390.019C347.702 389.683 348.049 389.393 348.433 389.159C348.682 389.116 350.261 388.41 350.261 388.41L350.957 389.15Z" fill="#CC8B09"/>
<path d="M345.42 387.946V386.785L346.948 386.286L347.274 387.198L347.197 387.619L345.42 387.946Z" fill="#CC8B09"/>
<path d="M355.575 387.112V385.942L353.807 386.131L354.373 387.267L355.575 387.112Z" fill="#CC8B09"/>
<path d="M355.515 391.068V389.855H353.489L353.987 390.939L354.845 391.911L355.515 391.068Z" fill="#CC8B09"/>
<path d="M345.42 386.785C345.685 386.781 345.949 386.801 346.21 386.845C346.562 386.897 346.957 386.966 347.394 387.06C347.832 387.155 348.296 387.267 348.768 387.413C349.227 387.55 349.675 387.722 350.107 387.929L346.673 389.924L346.055 389.7C345.197 389.408 344.339 389.167 343.575 388.961C342.845 388.764 342.097 388.64 341.343 388.591C340.653 388.545 339.96 388.591 339.283 388.729C338.593 388.876 337.932 389.134 337.326 389.494C336.726 389.796 336.212 390.246 335.832 390.801C335.709 391.001 335.627 391.223 335.59 391.455C335.553 391.687 335.563 391.923 335.617 392.151C335.761 392.661 336.04 393.121 336.424 393.484C336.893 393.965 337.417 394.386 337.987 394.74L335.789 396.013L336.982 396.701L339.197 395.419C340.251 395.946 341.355 396.364 342.493 396.666C343.682 396.998 344.896 397.228 346.124 397.354L347.231 395.265C346.91 395.256 346.589 395.23 346.27 395.187C345.782 395.13 345.298 395.046 344.819 394.938C344.287 394.826 343.729 394.68 343.103 394.508C342.514 394.346 341.94 394.136 341.386 393.88L344.819 391.893C344.965 391.945 345.12 392.005 345.274 392.048L345.738 392.194C346.596 392.478 347.394 392.702 348.115 392.865C348.781 393.019 349.459 393.111 350.141 393.14C350.741 393.159 351.341 393.101 351.927 392.968C352.507 392.83 353.063 392.604 353.575 392.298C354.142 392.002 354.635 391.582 355.017 391.068C355.293 390.681 355.43 390.21 355.403 389.735C355.352 389.238 355.155 388.769 354.837 388.385C354.436 387.896 353.964 387.47 353.437 387.12L355.472 385.942L354.279 385.246L352.382 386.415C351.437 385.944 350.444 385.577 349.42 385.323C348.447 385.074 347.457 384.896 346.459 384.79L345.42 386.785ZM351.291 390.44C350.837 390.704 350.312 390.818 349.789 390.767C349.092 390.681 348.404 390.525 347.738 390.302L350.965 388.436C352.15 389.199 352.259 389.867 351.291 390.44ZM339.961 391.386C340.454 391.118 341.02 391.018 341.575 391.102C342.337 391.2 343.089 391.364 343.824 391.592L340.613 393.45C339.248 392.581 339.025 391.893 339.961 391.352V391.386Z" fill="#F9CA06"/>
<path opacity="0.3" d="M198.328 430C181.755 430 168.319 422.226 168.319 412.637C168.319 403.047 181.755 395.273 198.328 395.273C214.902 395.273 228.337 403.047 228.337 412.637C228.337 422.226 214.902 430 198.328 430Z" fill="#D6D8E5"/>
<path d="M190.903 425.537C174.33 425.537 160.895 417.763 160.895 408.173C160.895 398.584 174.33 390.81 190.903 390.81C207.477 390.81 220.912 398.584 220.912 408.173C220.912 417.763 207.477 425.537 190.903 425.537Z" fill="#DD990E"/>
<path d="M220.904 408.44V400.528L214.972 405.817L220.904 408.44Z" fill="#DD990E"/>
<path d="M160.886 400.734V408.173L163.916 411.398L165.401 402.884L160.886 400.734Z" fill="#DD990E"/>
<path d="M190.903 418.098C174.33 418.098 160.895 410.324 160.895 400.734C160.895 391.145 174.33 383.371 190.903 383.371C207.477 383.371 220.912 391.145 220.912 400.734C220.912 410.324 207.477 418.098 190.903 418.098Z" fill="#F9CB07"/>
<path d="M169.453 401.276C169.753 404.2 171.839 407.081 175.702 409.317C184.096 414.167 197.702 414.167 206.088 409.317C209.959 407.081 212.037 404.2 212.337 401.276C212.698 397.836 210.62 394.353 206.088 391.747C197.702 386.888 184.096 386.888 175.702 391.747C171.178 394.353 169.092 397.853 169.453 401.276Z" fill="#CC8B09"/>
<path d="M169.453 401.276C169.753 404.2 171.839 407.081 175.702 409.317C184.096 414.167 197.702 414.167 206.088 409.317C209.959 407.081 212.037 404.2 212.337 401.276C212.037 398.352 209.959 395.471 206.088 393.235C197.702 388.376 184.096 388.376 175.702 393.235C171.839 395.471 169.753 398.352 169.453 401.276Z" fill="#E8A30A"/>
<path d="M191.212 397.208C191.477 397.205 191.741 397.225 192.002 397.269C192.354 397.32 192.749 397.389 193.187 397.484C193.624 397.578 194.045 397.69 194.552 397.836C195.013 397.973 195.464 398.146 195.899 398.352L192.466 400.347L191.848 400.124C190.989 399.831 190.131 399.582 189.367 399.384C188.634 399.187 187.884 399.063 187.127 399.014C186.44 398.968 185.75 399.015 185.075 399.152C184.383 399.299 183.719 399.558 183.109 399.917C182.511 400.219 182 400.669 181.624 401.225C181.498 401.423 181.414 401.645 181.377 401.877C181.34 402.11 181.351 402.347 181.41 402.575C181.553 403.084 181.832 403.545 182.217 403.908C182.686 404.388 183.214 404.807 183.787 405.155L181.599 406.428L182.792 407.116L184.998 405.834C186.049 406.361 187.15 406.778 188.285 407.081C189.474 407.413 190.689 407.64 191.916 407.761L193.075 405.688C192.751 405.679 192.427 405.654 192.105 405.611C191.62 405.552 191.139 405.469 190.663 405.361C190.131 405.249 189.573 405.103 188.946 404.931C188.359 404.767 187.784 404.557 187.23 404.303L190.663 402.317C190.809 402.368 190.955 402.429 191.109 402.472L191.582 402.618C192.44 402.902 193.238 403.125 193.951 403.289C194.616 403.443 195.294 403.532 195.976 403.555C196.576 403.581 197.177 403.526 197.762 403.392C198.345 403.254 198.904 403.028 199.419 402.721C199.984 402.426 200.474 402.005 200.852 401.491C201.135 401.107 201.275 400.635 201.247 400.158C201.196 399.662 200.998 399.192 200.68 398.808C200.282 398.317 199.81 397.89 199.281 397.544L201.316 396.366L200.114 395.669L198.105 396.839C197.161 396.367 196.168 396.001 195.144 395.746C194.171 395.498 193.181 395.32 192.182 395.213L191.212 397.208ZM197.075 400.829C196.624 401.093 196.101 401.207 195.582 401.156C194.884 401.071 194.196 400.915 193.53 400.691L196.758 398.825C197.942 399.599 198.048 400.267 197.075 400.829V400.829ZM185.745 401.775C186.241 401.509 186.81 401.41 187.367 401.491C188.129 401.59 188.881 401.754 189.616 401.981L186.405 403.839C184.998 403.005 184.817 402.317 185.745 401.775V401.775Z" fill="#CC8B09"/>
<path d="M193.067 405.688C193.067 405.602 193.067 404.518 193.067 404.518L191.753 405.378L192.32 406.238L193.067 405.688Z" fill="#CC8B09"/>
<path d="M181.581 406.427V405.258L184.431 405.481L182.792 406.599L181.581 406.427Z" fill="#CC8B09"/>
<path d="M181.341 402.145V400.967L183.47 401.741L181.341 402.145Z" fill="#CC8B09"/>
<path d="M190.148 402.084L189.436 401.405L186.929 403.125L187.084 403.632C187.084 403.632 188.955 402.841 189.015 402.772C189.075 402.704 190.148 402.084 190.148 402.084Z" fill="#CC8B09"/>
<path d="M196.749 398.412L193.418 400.304L192.74 399.805C192.74 399.805 193.161 399.324 193.187 399.281C193.485 398.94 193.835 398.65 194.225 398.421C194.474 398.369 196.054 397.664 196.054 397.664L196.749 398.412Z" fill="#CC8B09"/>
<path d="M191.212 397.208V396.039L192.74 395.54L193.067 396.46L192.989 396.873L191.212 397.208Z" fill="#CC8B09"/>
<path d="M201.367 396.365V395.196L199.59 395.385L200.165 396.52L201.367 396.365Z" fill="#CC8B09"/>
<path d="M201.307 400.321V399.109H199.281L199.77 400.192L200.629 401.164L201.307 400.321Z" fill="#CC8B09"/>
<path d="M191.212 396.039C191.477 396.039 191.741 396.062 192.002 396.107C192.351 396.159 192.746 396.228 193.187 396.314C193.624 396.408 194.045 396.529 194.552 396.666C195.012 396.807 195.462 396.98 195.899 397.182L192.466 399.178L191.848 398.963C190.989 398.67 190.131 398.421 189.367 398.214C188.633 398.022 187.883 397.898 187.127 397.845C186.44 397.803 185.75 397.849 185.075 397.982C184.383 398.133 183.719 398.394 183.109 398.756C182.511 399.058 182 399.508 181.624 400.063C181.498 400.262 181.414 400.484 181.377 400.716C181.34 400.949 181.351 401.186 181.41 401.414C181.555 401.922 181.834 402.382 182.217 402.747C182.688 403.224 183.215 403.643 183.787 403.994L181.599 405.258L182.792 405.954L184.998 404.673C186.052 405.192 187.153 405.61 188.285 405.92C189.475 406.247 190.689 406.475 191.916 406.599L193.075 404.518C192.751 404.514 192.427 404.491 192.105 404.449C191.676 404.398 191.195 404.312 190.663 404.2C190.131 404.088 189.573 403.942 188.946 403.77C188.36 403.599 187.786 403.387 187.23 403.134L190.663 401.156L191.109 401.31L191.582 401.457C192.359 401.718 193.15 401.939 193.951 402.119C194.615 402.276 195.294 402.368 195.976 402.394C196.577 402.417 197.177 402.36 197.762 402.222C198.343 402.083 198.901 401.86 199.419 401.56C199.984 401.262 200.475 400.838 200.852 400.321C201.135 399.937 201.275 399.465 201.247 398.988C201.193 398.495 200.996 398.029 200.68 397.647C200.28 397.155 199.808 396.726 199.281 396.374L201.316 395.196L200.114 394.508L198.105 395.669C197.159 395.204 196.166 394.841 195.144 394.585C194.17 394.338 193.181 394.157 192.182 394.043L191.212 396.039ZM197.075 399.668C196.623 399.929 196.1 400.041 195.582 399.986C194.882 399.91 194.194 399.754 193.53 399.522L196.758 397.655C197.942 398.429 198.048 399.1 197.075 399.668V399.668ZM185.745 400.614C186.239 400.341 186.809 400.238 187.367 400.321C188.13 400.42 188.883 400.587 189.616 400.82L186.405 402.678C184.998 401.835 184.817 401.147 185.745 400.614V400.614Z" fill="#F9CA06"/>
<path opacity="0.4" d="M37.4339 425.115C16.7597 425.115 0 415.42 0 403.46C0 391.501 16.7597 381.806 37.4339 381.806C58.108 381.806 74.8678 391.501 74.8678 403.46C74.8678 415.42 58.108 425.115 37.4339 425.115Z" fill="#D6D8E5"/>
<path d="M39.1506 178.226C37.4768 175.535 24.6955 173.763 20.4895 184.616C18.8929 188.727 19.1418 199.236 17.8114 205.85C16.4809 212.463 13.3306 216.17 12.2061 221.562C11.0817 226.954 12.9186 235.915 25.8114 237.498C38.7043 239.08 48.6186 234.548 51.6658 230.428C54.7131 226.309 54.7732 217.528 51.6057 212.859C48.4383 208.189 46.0434 204.336 46.1207 198.239L39.1506 178.226Z" fill="#3A2C6D"/>
<path d="M54.4641 223.6C54.4641 223.6 57.4942 245.014 51.7688 260.236C46.0435 275.458 47.6314 256.314 47.6314 256.314L49.0049 251.765C49.0049 251.765 50.1551 234.255 49.683 229.964C49.2108 225.673 49.3225 221.983 49.0049 221.639C48.6873 221.295 50.1465 220.616 50.7216 220.53C51.2967 220.444 54.4641 223.6 54.4641 223.6Z" fill="#FFCEA9"/>
<path d="M30.7128 176.352C30.7128 176.352 40.3352 173.574 46.1636 178.785C51.4942 183.55 51.0478 190.034 50.2753 193.079C49.5027 196.123 47.9405 200.277 45.5284 200.509C43.1164 200.741 30.7128 176.352 30.7128 176.352Z" fill="#3A2C6D"/>
<path d="M27.0561 202.65C27.0561 202.65 27.6913 213.4 27.4939 214.192C27.2964 214.983 23.2792 215.74 22.1548 216.677C21.0303 217.614 27.9917 228.519 31.5282 230.136C35.0647 231.753 46.0262 227.625 46.7816 222.164C47.4855 217.133 43.6485 213.228 42.1721 211.844C41.1675 211.755 40.1584 211.729 39.1506 211.766L38.8244 206.555C34.0004 205.05 27.0561 202.65 27.0561 202.65Z" fill="#FFCEA9"/>
<path d="M25.5625 215.232C22.5496 215.697 19.0989 217.313 18.6268 218.965C18.0774 220.891 16.91 229.981 19.4852 236.904C22.0603 243.827 23.8543 248.222 25.3479 251.197C25.3479 251.197 38.3867 256.805 48.9018 250.269C48.9018 250.269 49.6229 242.855 49.6744 238.891C59.374 230.411 51.0821 219.971 42.8588 211.827C41.8748 211.727 40.8839 211.712 39.8974 211.784C39.8974 211.784 47.2366 220.478 42.1378 225.415C31.2278 222.104 29.0561 217.193 25.5625 215.232Z" fill="#C4CAFA"/>
<path d="M47.0735 189.338C45.9919 182.458 41.0133 177.212 33.906 177.633C31.0479 177.791 28.3117 178.845 26.0837 180.645C23.8558 182.445 22.2487 184.902 21.4898 187.667C20.7308 190.432 20.8581 193.366 21.8539 196.055C22.8496 198.743 24.6634 201.051 27.0389 202.65C27.2846 203.697 27.6535 204.71 28.1377 205.669C30.6613 208.61 37.3395 210.468 39.5455 210.502C41.4597 210.502 43.0992 208.739 44.8932 205.772C48.6014 199.589 47.6572 192.743 47.0735 189.338Z" fill="#FFCEA9"/>
<path d="M31.7 177.762C26.7128 178.734 22.6183 180.144 21.2621 185.046C20.335 188.426 19.1247 194.859 20.2749 197.576L20.996 199.537L27.0046 202.65C27.0046 202.65 29.8201 200.303 28.9446 193.405C28.9821 192.482 29.2797 191.587 29.803 190.825C30.1931 190.18 30.4825 189.478 30.6613 188.744C31.3712 186.878 32.7737 185.359 34.5755 184.504C39.0649 181.976 45.6486 184.16 46.5928 185.072C43.5284 178.794 37.5026 176.627 31.7 177.762Z" fill="#3A2C6D"/>
<path d="M22.644 395.419C25.1676 397.475 29.0904 396.056 29.2793 396.236C31.8544 398.816 35.6742 401.061 38.524 403.314C40.0948 404.553 42.5412 406.212 42.1034 408.595C41.3052 412.852 34.4982 411.544 31.9317 410.237C29.3651 408.93 27.2707 406.797 24.8415 405.266C23.1247 404.183 21.408 403.624 21.1333 401.431C20.9702 400.106 22.1977 395.368 22.644 395.419Z" fill="#38226D"/>
<path d="M21.1676 400.554C21.5024 402.652 23.1848 403.228 24.9015 404.295C27.3737 405.834 29.5454 408.053 32.1119 409.351C34.4811 410.555 40.4039 411.751 42.0691 408.715C41.1592 412.817 34.4725 411.527 31.9317 410.237C29.3909 408.947 27.2707 406.797 24.8415 405.266C23.1247 404.183 21.4079 403.624 21.1333 401.431C21.1128 401.138 21.1243 400.844 21.1676 400.554V400.554Z" fill="#9C73FF"/>
<path d="M40.3438 391.876C42.6528 393.76 46.1378 392.736 46.3095 392.874C48.6615 395.239 52.1465 397.268 54.756 399.324C56.1981 400.459 58.447 401.981 58.0436 404.157C57.314 408.061 51.0821 406.857 48.7302 405.671C46.3782 404.484 44.4382 402.497 42.2322 401.113C40.6442 400.124 39.0819 399.608 38.7987 397.604C38.6871 396.391 39.9318 391.825 40.3438 391.876Z" fill="#38226D"/>
<path d="M38.8674 396.795C39.1678 398.713 40.7129 399.246 42.3009 400.235C44.567 401.646 46.5928 403.675 48.9104 404.862C51.0821 405.972 56.4985 407.064 58.0264 404.277C57.168 408.036 51.0735 406.857 48.7473 405.679C46.4211 404.501 44.4554 402.506 42.2494 401.121C40.6614 400.132 39.0991 399.616 38.8159 397.612C38.8005 397.339 38.8178 397.065 38.8674 396.795V396.795Z" fill="#9C73FF"/>
<path d="M53.9405 274.288C52.8332 265.577 49.6486 252.917 49.6486 252.917C46.5986 254.349 43.2967 255.165 39.9318 255.317C34.318 255.601 25.3393 253.898 25.3393 253.898C23.7641 256.644 22.0449 259.306 20.1891 261.87C17.6826 265.353 12.807 272.998 13.983 286.354C14.7555 295.083 19.6311 332.141 19.6311 332.141C17.7353 338.375 16.7268 344.845 16.6354 351.362C16.6869 356.754 18.1032 365.913 19.6912 374.384L22.6011 395.419C22.6011 395.419 26.4724 398.223 29.2364 396.236L28.8844 375.657C29.2278 370.617 29.7428 363.187 30.0433 358.457C30.5669 350.717 31.9489 338.453 32.3437 335.383C32.7386 332.313 33.7257 326.963 34.1892 320.961C34.6528 314.958 36.9189 284.454 36.9189 284.454L37.2279 290.164C37.2279 290.164 37.5283 299.443 38.8588 310.881C40.1893 322.319 40.6528 327.402 40.6528 327.402C40.6528 327.402 38.3438 331.659 38.0777 334.789C37.8459 337.266 35.0218 356.831 36.7043 366.781L40.1378 392.083C41.0046 392.683 42.0018 393.068 43.0467 393.206C44.0916 393.343 45.1542 393.23 46.1464 392.874L48.1808 367.375C49.5456 357.665 52.4727 337.094 52.8847 334.42C53.4684 330.902 53.9491 329.165 54.6015 318.08C55.2539 306.994 55.0564 283 53.9405 274.288Z" fill="#FFCEA9"/>
<path d="M25.3393 251.197L17.8543 266.273C17.8543 266.273 6.42066 283.035 18.2663 326.129L16.0431 339.425C16.0431 339.425 38.4639 353.838 53.4684 339.425C53.4684 339.425 58.6701 299.598 55.9062 281.237C54.3661 270.675 52.0303 260.245 48.919 250.036C48.919 250.036 45.2451 254.104 26.335 251.421" fill="#7883C0"/>
<path d="M72.2583 261.904C70.5415 262.231 68.902 261.861 66.4986 262.515C64.7021 263.085 62.8291 263.375 60.9448 263.375C58.9019 263.375 53.1679 260.511 48.2494 257.054C42.4554 252.986 36.7042 245.96 34.627 242.58C30.1548 235.287 25.8715 227.762 24.5496 223.91C22.9702 219.283 23.0045 222.43 20.2577 222.362C17.0559 222.284 15.3306 223.462 17.7341 229.74C20.1375 236.018 22.3264 240.387 27.6827 247.8C31.6033 253.363 36.4493 258.21 42.009 262.128C46.8952 265.556 52.1749 268.382 57.7345 270.547C59.3397 271.21 60.3611 272.095 63.271 273.712C66.1536 275.368 69.3931 276.3 72.7132 276.43C75.4944 276.361 76.4901 275.897 76.7218 275.329C77.0137 274.615 76.4729 274.125 75.2025 274.005C73.1705 273.974 71.1608 273.575 69.2711 272.826C69.2711 272.826 72.0437 273.222 73.7175 273.308C75.2115 273.389 76.7097 273.271 78.1725 272.955C79.5802 272.62 80.3699 270.625 79.091 270.47C77.812 270.315 76.7819 270.556 74.2926 270.393C72.9757 270.31 71.6732 270.07 70.4128 269.679C72.0765 269.694 73.7386 269.573 75.3828 269.318C76.7203 269.191 77.993 268.68 79.048 267.847C79.5888 267.4 79.6832 266.127 78.0695 266.127C76.6188 266.127 74.7991 266.798 72.0608 266.419C70.0436 266.136 68.6273 265.663 68.9707 265.396C69.314 265.129 70.4557 265.396 72.1209 264.785C73.7862 264.175 74.9536 262.713 74.5673 261.836C74.181 260.958 73.9922 261.586 72.2583 261.904Z" fill="#FFCEA9"/>
<path d="M19.2191 235.692C19.2191 235.692 26.5582 236.079 30.7299 231.469L26.2063 222.009C26.2063 222.009 24.1204 216.772 19.2277 218.062C14.3349 219.352 14.2577 226.249 19.2191 235.692Z" fill="#EDEDED"/>
<path d="M42.8675 211.826C42.8675 211.826 48.8246 210.003 55.1508 223.221L52.7817 224.649C52.7817 224.649 46.5585 215.215 42.8675 211.826Z" fill="#EDEDED"/>
<path opacity="0.4" d="M217.53 291.54L315.042 235.141C315.875 234.66 316.566 233.967 317.046 233.133C317.527 232.299 317.78 231.353 317.78 230.39C317.78 229.427 317.527 228.481 317.046 227.646C316.566 226.812 315.875 226.12 315.042 225.638V225.638C314.21 225.157 313.265 224.903 312.304 224.903C311.343 224.903 310.398 225.157 309.566 225.638L212.054 282.08C211.17 282.591 210.447 283.34 209.965 284.241C209.484 285.143 209.263 286.161 209.328 287.181C209.394 288.201 209.742 289.183 210.334 290.015C210.926 290.848 211.739 291.498 212.68 291.893C213.461 292.213 214.305 292.348 215.147 292.287C215.988 292.226 216.804 291.97 217.53 291.54V291.54Z" fill="#D6D8E5"/>
<path d="M259.634 257.424C294.535 237.239 322.922 187.97 322.922 147.602C322.922 107.233 294.535 90.8417 259.634 111C224.732 131.158 196.346 180.445 196.346 220.822C196.346 261.199 224.741 277.608 259.634 257.424ZM259.634 124.124C288.286 107.551 311.6 121.036 311.6 154.181C311.6 187.325 288.286 227.771 259.634 244.343C230.981 260.915 207.676 247.439 207.676 214.295C207.676 181.15 230.981 140.67 259.634 124.098V124.124Z" fill="#00D9EE"/>
<path d="M313.051 111.456L301.454 105.109L303.188 113.073L313.051 111.456Z" fill="#00D9EE" fill-opacity="0.72"/>
<path d="M225.668 267.701C225.384 267.572 212.99 260.623 212.99 260.623L222.569 259.083L225.668 267.701Z" fill="#00D9EE" fill-opacity="0.72"/>
<path d="M226.969 259.414C204.467 246.397 204.468 204.188 226.972 165.136C249.476 126.084 285.961 104.978 308.464 117.994C330.966 131.011 330.965 173.22 308.461 212.272C285.957 251.324 249.472 272.43 226.969 259.414Z" fill="#F4F4F4"/>
<path d="M267.711 261.922C302.596 241.729 330.999 192.468 330.999 152.091C330.999 111.714 302.604 95.331 267.711 115.489C232.818 135.648 204.423 184.943 204.423 225.311C204.423 265.68 232.809 282.08 267.711 261.922ZM267.711 128.622C296.355 112.049 319.669 125.526 319.669 158.67C319.669 191.814 296.355 232.269 267.711 248.841C239.067 265.413 215.745 251.928 215.745 218.784C215.745 185.64 239.076 145.168 267.711 128.596V128.622Z" fill="#00E9FF" fill-opacity="0.79"/>
<path d="M267.711 234.058C289.325 221.553 306.888 191.032 306.888 166.023C306.888 141.014 289.299 130.84 267.685 143.345C246.071 155.849 228.475 186.345 228.475 211.379C228.475 236.414 246.089 246.571 267.711 234.058ZM267.711 156.451C283.085 147.559 295.591 154.791 295.591 172.576C295.591 190.361 283.085 212.067 267.711 220.96C252.338 229.852 239.831 222.611 239.831 204.826C239.831 187.041 252.338 165.344 267.711 156.451V156.451Z" fill="#00D9EE" fill-opacity="0.52"/>
<path d="M267.711 206.641C276.295 201.696 283.213 189.621 283.213 179.731C283.213 169.841 276.261 165.817 267.711 170.762C259.162 175.707 252.2 187.781 252.2 197.671C252.2 207.561 259.153 211.56 267.711 206.641ZM267.711 183.868C270.012 182.535 271.891 183.619 271.891 186.285C271.81 187.737 271.39 189.149 270.664 190.409C269.938 191.668 268.926 192.739 267.711 193.534C265.402 194.867 263.531 193.784 263.531 191.118C263.61 189.665 264.029 188.252 264.756 186.992C265.482 185.732 266.495 184.662 267.711 183.868V183.868Z" fill="#00E9FF" fill-opacity="0.42"/>
<path d="M375.541 250.174L381.343 250.252L362.493 242.236L373.42 249.039L375.541 250.174Z" fill="#2B303F"/>
<path d="M373.015 252.858C372.437 252.523 372.436 251.438 373.015 250.434C373.593 249.431 374.531 248.888 375.11 249.223C375.689 249.558 375.689 250.643 375.111 251.647C374.532 252.651 373.594 253.193 373.015 252.858Z" fill="#E8A30A"/>
<path d="M266.393 191.053C265.814 190.718 265.814 189.633 266.392 188.63C266.97 187.626 267.908 187.084 268.487 187.419C269.066 187.753 269.067 188.839 268.488 189.842C267.91 190.846 266.972 191.388 266.393 191.053Z" fill="#E8A30A"/>
<path d="M371.575 258.593L372.957 252.806L357.798 243.122L358.459 244.489L371.575 258.593Z" fill="#2B303F"/>
<path d="M372.983 252.84C372.854 252.728 266.415 191.084 266.415 191.084L268.372 187.385L375.137 249.306L372.983 252.84Z" fill="#E8A30A"/>
</svg>
