<svg width="70" height="70" viewBox="0 0 70 70" fill="none" xmlns="http://www.w3.org/2000/svg">
<g clip-path="url(#clip0)">
<path d="M18.8675 69.9999H0.000427246V65.4767C0.000427246 64.9481 0.428904 64.5197 0.957458 64.5197H18.8675V69.9999Z" fill="#00E9FF"/>
<path d="M2.81785 64.5194V70.0001H0.0010376V65.4764C0.0010376 64.9479 0.429514 64.5194 0.958069 64.5194H2.81785Z" fill="#00DEF3"/>
<path d="M59.883 6.25159H63.301C63.8295 6.25159 64.258 6.68006 64.258 7.20862V9.66955C64.258 10.1981 63.8295 10.6266 63.301 10.6266H60.84C60.3115 10.6266 59.883 10.1981 59.883 9.66955V6.25159Z" fill="#00DEF3"/>
<path d="M61.2502 7.61877H54.7105V3.24377H60.2931C60.8217 3.24377 61.2502 3.67225 61.2502 4.20081V7.61877Z" fill="#00E9FF"/>
<path d="M54.7105 13.0501C54.1271 13.0501 53.6542 12.5772 53.6542 11.9938V1.05629C53.6542 0.472773 54.1271 0 54.7105 0C55.2939 0 55.7668 0.47291 55.7668 1.05629V11.9937C55.7668 12.5772 55.2939 13.0501 54.7105 13.0501Z" fill="#68748F"/>
<path d="M43.7502 19.2371C41.938 19.2371 40.4689 17.768 40.4689 15.9558V13.7683C40.4689 11.9561 41.938 10.4871 43.7502 10.4871C45.5624 10.4871 47.0314 11.9561 47.0314 13.7683V15.9558C47.0314 17.768 45.5624 19.2371 43.7502 19.2371Z" fill="#FFCEBF"/>
<path d="M45.1579 18.9198C44.7312 19.1226 44.2537 19.2367 43.7495 19.2367C41.9382 19.2367 40.4692 17.7677 40.4692 15.9565V13.7677C40.4692 11.9565 41.9382 10.4874 43.7495 10.4874C44.2537 10.4874 44.7311 10.6015 45.1579 10.8043C44.0509 11.3311 43.2861 12.4607 43.2861 13.7677V15.9565C43.2861 17.2635 44.0509 18.3931 45.1579 18.9198Z" fill="#FFB09E"/>
<path d="M13.1253 27.9871C11.3131 27.9871 9.84406 26.518 9.84406 24.7058V22.5183C9.84406 20.7061 11.3131 19.2371 13.1253 19.2371C14.9375 19.2371 16.4066 20.7061 16.4066 22.5183V24.7058C16.4066 26.518 14.9375 27.9871 13.1253 27.9871Z" fill="#FFCEBF"/>
<path d="M14.5339 27.6705C14.1072 27.8732 13.6296 27.9874 13.1254 27.9874C11.3128 27.9874 9.84375 26.5185 9.84375 24.7057V22.5184C9.84375 20.7056 11.3128 19.2367 13.1254 19.2367C13.6296 19.2367 14.1071 19.3509 14.5339 19.5536C13.4254 20.0804 12.6607 21.21 12.6607 22.5184V24.7057C12.6607 26.0141 13.4255 27.1437 14.5339 27.6705Z" fill="#FFB09E"/>
<path d="M28.1016 25.0067V29.9362L25.0481 31.463C24.7424 31.6152 24.4045 31.6954 24.0623 31.6954H17.5003V42.6151L16.4067 43.9823H10.118V46.9926L7.32966 46.9912C5.69724 46.9899 4.37476 45.6659 4.37476 44.0335V31.6109C4.37476 29.232 6.3044 27.3039 8.68317 27.3039L23.5425 27.2869L28.1016 25.0067Z" fill="#BDCEFA"/>
<path d="M28.1016 25.0067V26.063L25.6552 27.2869L10.7959 27.3039C8.41698 27.3039 6.48747 29.232 6.48747 31.6109V44.0335C6.48747 45.4278 7.45229 46.5968 8.75085 46.9081V46.9926L7.32966 46.9912C5.69724 46.9899 4.37476 45.6659 4.37476 44.0335V31.6109C4.37476 29.232 6.3044 27.3039 8.68317 27.3039L23.5425 27.2869L28.1016 25.0067Z" fill="#A2BCFF"/>
<path d="M56.8918 14.1756V19.9701C56.8918 21.6038 55.5678 22.9278 53.9341 22.9278H48.1256V33.8659L47.0314 35.2331H40.4692L39.3747 33.8659V22.9446H38.1001L34.3719 26.6742C34.2043 26.8418 34.0099 26.9813 33.7987 27.0869L28.1015 29.9363V25.0068L31.5071 23.3039L35.6282 19.1828C36.0424 18.7687 36.6029 18.5363 37.1874 18.5363L52.5283 18.5532V14.1758C52.5283 12.9702 53.5057 11.994 54.7101 11.994C55.9158 11.9939 56.8918 12.9699 56.8918 14.1756Z" fill="#8AC9FE"/>
<path d="M37.1875 18.5361L39.1918 18.539C38.6467 18.5658 38.1298 18.794 37.7411 19.1827L33.62 23.3038L30.2143 25.0066V28.8799L28.1016 29.9362V25.0066L31.5073 23.3038L35.6284 19.1827C36.0425 18.7686 36.6031 18.5361 37.1875 18.5361Z" fill="#60B7FF"/>
<path d="M41.4876 22.9447V35.2331H40.4693L39.3749 33.8659V22.9447H41.4876Z" fill="#60B7FF"/>
<path d="M55.7665 12.2672C55.096 12.6391 54.6412 13.3532 54.6412 14.1757V18.5531L52.5285 18.5503V14.1755C52.5285 12.9699 53.5059 11.9938 54.7102 11.9938C55.0933 11.9939 55.4538 12.0925 55.7665 12.2672Z" fill="#60B7FF"/>
<path d="M39.3002 18.5361L52.5285 18.5502V18.5531L39.2144 18.539C39.2426 18.5361 39.2721 18.5361 39.3002 18.5361Z" fill="#60B7FF"/>
<path d="M9.80672 43.6723C9.22334 43.6723 8.75043 43.1993 8.75043 42.616V33.8251C8.75043 33.2416 9.22334 32.7688 9.80672 32.7688C10.3901 32.7688 10.863 33.2417 10.863 33.8251V42.616C10.863 43.1993 10.3901 43.6723 9.80672 43.6723Z" fill="#A2BCFF"/>
<path d="M25.0074 47.1868L17.5003 42.6158H13.1253H8.75031V64.5196H13.1253V46.4298L21.8585 50.5723V61.4829H26.2671V49.1782C26.267 48.3269 25.7767 47.5515 25.0074 47.1868Z" fill="#68748F"/>
<path d="M8.75085 42.6152H10.8636V64.5196H8.75085V42.6152Z" fill="#5D6980"/>
<path d="M23.9707 50.573V61.4825H21.8579V50.573L15.2382 47.4322V46.4293L23.9707 50.573Z" fill="#5D6980"/>
<path d="M55.6323 38.4369L48.1252 33.866H43.7502H39.3752V57.108H43.7502V37.6799L52.5285 41.8223V51.3658L53.8957 52.733H56.8919V40.4283C56.8919 39.577 56.4016 38.8016 55.6323 38.4369Z" fill="#68748F"/>
<path d="M39.3749 33.866H41.4876V57.1079H39.3749V33.866Z" fill="#5D6980"/>
<path d="M54.5961 41.8222V52.7331H53.8956L52.5285 51.3658V41.8222L45.8622 38.6814V37.6799L54.5961 41.8222Z" fill="#5D6980"/>
<path d="M36.3675 69.9998H17.5003V61.0728C17.5003 60.5442 17.9288 60.1157 18.4573 60.1157H36.3675V69.9998Z" fill="#FFE177"/>
<path d="M20.3171 60.1152V70.0001H17.5002V61.0723C17.5002 60.5437 17.9287 60.1152 18.4572 60.1152H20.3171Z" fill="#FFD15B"/>
<path d="M35.0003 69.9998H53.8962V55.7407H35.9574C35.4288 55.7407 35.0003 56.1692 35.0003 56.6978V69.9998Z" fill="#8AC9FE"/>
<path d="M37.8171 55.7405V70H35.0002V56.6975C35.0002 56.169 35.4287 55.7405 35.9572 55.7405H37.8171Z" fill="#60B7FF"/>
<path d="M52.529 69.9998H70V52.3228C70 51.7942 69.5716 51.3657 69.043 51.3657H52.529V69.9998Z" fill="#BDCEFA"/>
<path d="M52.5285 51.3658H55.3454V70H52.5285V51.3658Z" fill="#A9C1FF"/>
</g>
<defs>
<clipPath id="clip0">
<rect width="70" height="70" fill="white"/>
</clipPath>
</defs>
</svg>
