<svg width="30" height="30" viewBox="0 0 30 30" fill="none" xmlns="http://www.w3.org/2000/svg">
<g clip-path="url(#clip0)">
<path d="M15 0C10.1697 0.00550781 6.25551 3.9198 6.25 8.74998V14.375C6.25 14.7202 6.52984 15 6.87502 15H9.37498C9.72016 15 10 14.7202 10 14.375V8.74998C10 5.98857 12.2386 3.75 15 3.75C17.7614 3.75 20 5.98857 20 8.74998V14.375C20 14.7202 20.2798 15 20.625 15H23.125C23.4702 15 23.75 14.7202 23.75 14.375V8.74998C23.7445 3.9198 19.8302 0.00550781 15 0Z" fill="#455A64"/>
<path d="M23.125 13.75H6.875C5.83947 13.75 5 14.5895 5 15.625V26.875C5 28.6009 6.3991 30 8.12498 30H21.875C23.6009 30 25 28.6009 25 26.875V15.625C25 14.5895 24.1606 13.75 23.125 13.75Z" fill="#FEB600"/>
<path d="M16.6887 21.8375C17.2078 21.3679 17.5027 20.6999 17.5 20C17.5 18.6193 16.3807 17.5 15 17.5C13.6193 17.5 12.4999 18.6193 12.4999 20C12.4972 20.6999 12.7921 21.3679 13.3112 21.8375L12.5312 24.1775C12.4221 24.505 12.5991 24.8589 12.9266 24.968C12.9905 24.9893 13.0575 25.0001 13.1249 25.0001H16.8749C17.2201 25.0005 17.5003 24.721 17.5007 24.3759C17.5007 24.3085 17.49 24.2415 17.4686 24.1776L16.6887 21.8375Z" fill="#455A64"/>
</g>
<defs>
<clipPath id="clip0">
<rect width="30" height="30" fill="white"/>
</clipPath>
</defs>
</svg>
