<svg width="70" height="70" viewBox="0 0 70 70" fill="none" xmlns="http://www.w3.org/2000/svg">
<path d="M34.8045 65.4359C34.2347 65.4359 33.7653 64.9825 33.7487 64.4095C33.7321 63.8263 34.1914 63.3403 34.7746 63.3238C35.3589 63.297 35.8497 63.7494 35.8753 64.3326C35.9015 64.9152 35.4486 65.4087 34.8654 65.4343L34.835 65.4354C34.8248 65.4359 34.8147 65.4359 34.8045 65.4359V65.4359ZM30.5566 65.2768C30.515 65.2768 30.4739 65.2747 30.4317 65.2699L30.429 65.2693C29.8485 65.2111 29.4282 64.6941 29.4864 64.1131C29.5446 63.5326 30.0658 63.1101 30.6458 63.1678L30.6784 63.171C31.2579 63.2394 31.6723 63.7643 31.6039 64.3438C31.5409 64.8816 31.0848 65.2768 30.5566 65.2768V65.2768ZM39.0428 64.951C38.5483 64.951 38.1066 64.6023 38.0078 64.0987C37.8946 63.5262 38.2674 62.9707 38.8399 62.8581L38.8596 62.8543C39.4327 62.7448 39.986 63.1208 40.0954 63.6939C40.2049 64.2664 39.8295 64.8202 39.2564 64.9297L39.2484 64.9313C39.179 64.9446 39.1106 64.951 39.0428 64.951V64.951ZM26.3654 64.472C26.2735 64.472 26.18 64.4597 26.0866 64.4346L26.0807 64.433C25.5173 64.2829 25.1808 63.7045 25.3303 63.1411C25.4799 62.5771 26.0577 62.2412 26.6212 62.3902L26.6431 62.3961C27.206 62.5499 27.5376 63.1304 27.3838 63.6933C27.2556 64.1633 26.83 64.472 26.3654 64.472ZM43.1593 63.8226C42.7273 63.8226 42.3225 63.5566 42.166 63.1272C41.9668 62.5787 42.2498 61.9726 42.7978 61.7734L42.8154 61.7675C43.3639 61.5704 43.969 61.8551 44.1666 62.4041C44.3642 62.9531 44.0784 63.5582 43.5294 63.7558L43.5204 63.759C43.4007 63.8023 43.279 63.8226 43.1593 63.8226ZM22.3418 63.0311C22.1976 63.0311 22.0512 63.0012 21.9108 62.9376L21.8964 62.9312C21.365 62.6904 21.1295 62.0644 21.3703 61.5331C21.6112 61.0017 22.2366 60.7661 22.7685 61.007C23.3004 61.2473 23.5423 61.8754 23.3025 62.4073C23.1258 62.7988 22.7434 63.0311 22.3418 63.0311ZM47.0505 62.0767C46.6724 62.0767 46.3076 61.8738 46.1175 61.5176C45.8424 61.0027 46.0374 60.3624 46.5522 60.0879C47.0633 59.807 47.7058 59.9934 47.9872 60.5045C48.2681 61.0156 48.0823 61.658 47.5706 61.9389L47.5466 61.9523C47.388 62.0367 47.2182 62.0767 47.0505 62.0767ZM56.6448 52.6335L56.6518 52.6383L56.5401 52.5588L56.6448 52.6335ZM7.88108 48.0289C7.46398 48.0289 7.06878 47.78 6.90162 47.3698L6.89895 47.3624C6.67625 46.823 6.93313 46.2051 7.472 45.9829C8.01139 45.7602 8.6293 46.0171 8.85147 46.5559L8.85894 46.5746C9.07897 47.1151 8.81835 47.7314 8.27789 47.9509C8.14811 48.0038 8.013 48.0289 7.88108 48.0289V48.0289ZM60.317 46.0016C60.2064 46.0016 60.0938 45.984 59.9827 45.9471C59.4331 45.7639 59.1341 45.1722 59.3108 44.6216C59.4833 44.0667 60.0719 43.7532 60.6278 43.922C61.1859 44.0918 61.501 44.6798 61.3322 45.2374L61.3189 45.279C61.1715 45.7217 60.7592 46.0016 60.317 46.0016ZM6.5892 43.962C6.11122 43.962 5.6781 43.6357 5.56221 43.1508L5.559 43.1369C5.42388 42.5692 5.77369 41.9994 6.3414 41.8637C6.9091 41.7281 7.47894 42.0784 7.61405 42.6461L7.61726 42.66C7.75291 43.2272 7.40257 43.797 6.8354 43.9327C6.75262 43.9524 6.67037 43.962 6.5892 43.962ZM61.2884 41.8466C61.2276 41.8466 61.1661 41.8413 61.1037 41.8301C60.5333 41.7297 60.1509 41.1881 60.2449 40.6183C60.3336 40.0442 60.8692 39.6479 61.4439 39.7323C62.0206 39.8177 62.4196 40.3523 62.3347 40.9296L62.3277 40.9734C62.2375 41.4856 61.7915 41.8466 61.2884 41.8466V41.8466ZM5.93711 39.743C5.39505 39.743 4.93415 39.3296 4.88609 38.7801L4.88288 38.7363C4.8487 38.1536 5.29304 37.6543 5.8757 37.6196C6.45301 37.5843 6.95129 38.0238 6.99134 38.6006C7.03781 39.1795 6.60842 39.6896 6.02897 39.7392C5.998 39.7419 5.96755 39.743 5.93711 39.743V39.743ZM61.6121 37.5918C61.0284 37.5918 60.5557 37.1191 60.5557 36.5354V36.5215C60.5557 36.5141 60.5557 36.5066 60.5557 36.4996C60.5557 36.4906 60.5557 36.4809 60.5557 36.4719V36.458C60.5557 35.8743 61.0284 35.4011 61.6121 35.4011C62.1953 35.4011 62.6685 35.8743 62.6685 36.458V36.4719C62.6685 36.4793 62.6685 36.4868 62.6679 36.4938C62.6685 36.5028 62.6685 36.5119 62.6685 36.5215V36.5354C62.6685 37.1191 62.1958 37.5918 61.6121 37.5918ZM5.93444 35.478C5.904 35.478 5.87303 35.4764 5.84205 35.4737C5.26153 35.4235 4.83161 34.913 4.88075 34.333C4.92134 33.7562 5.41481 33.3167 5.99639 33.353C6.57905 33.3872 7.02339 33.887 6.98921 34.4692L6.98547 34.5129C6.93794 35.063 6.47651 35.478 5.93444 35.478ZM61.2804 33.2745C60.7774 33.2745 60.332 32.914 60.2417 32.4013L60.2342 32.3575C60.1498 31.7802 60.5488 31.2434 61.1261 31.1585C61.7002 31.0736 62.238 31.4715 62.324 32.0472C62.4174 32.6165 62.0356 33.157 61.4652 33.2579C61.4033 33.2691 61.3413 33.2745 61.2804 33.2745ZM61.4577 32.1775L61.2794 32.2037L61.4577 32.1775ZM6.57531 31.26C6.49414 31.26 6.41136 31.2504 6.32911 31.2306C5.76248 31.0955 5.41214 30.5267 5.54618 29.9601C5.67115 29.3967 6.22711 29.0367 6.79374 29.1553C7.36465 29.2749 7.73101 29.8346 7.61138 30.4055L7.60177 30.4488C7.48641 30.9337 7.05329 31.26 6.57531 31.26ZM60.3111 29.1259C59.8668 29.1259 59.4518 28.8418 59.3039 28.398L59.2921 28.3611C59.1202 27.8036 59.4331 27.2124 59.9912 27.0409C60.5493 26.869 61.1394 27.1819 61.3114 27.74L61.3119 27.7416C61.4962 28.2954 61.1955 28.8877 60.6417 29.072C60.5328 29.1088 60.4211 29.1259 60.3111 29.1259V29.1259ZM7.85598 27.1867C7.72354 27.1867 7.58895 27.1616 7.45864 27.1088C6.91818 26.8893 6.65809 26.273 6.87759 25.7325L6.88293 25.7197C7.10243 25.1792 7.7182 24.9186 8.2592 25.1381C8.79966 25.3576 9.05975 25.9739 8.84025 26.5144L8.83491 26.5277C8.66828 26.9379 8.27308 27.1867 7.85598 27.1867ZM58.7089 25.1691C58.3244 25.1691 57.9527 24.9581 57.7647 24.5939L57.7487 24.5629C57.4913 24.039 57.7071 23.4062 58.231 23.1487C58.7543 22.8913 59.3872 23.1071 59.6452 23.6305L59.6457 23.6326C59.9138 24.1506 59.7082 24.784 59.1896 25.0516C59.0358 25.1312 58.8713 25.1691 58.7089 25.1691ZM9.74761 23.3597C9.56016 23.3597 9.37004 23.31 9.1986 23.2048C8.7014 22.902 8.54385 22.2542 8.84452 21.757C9.13558 21.2598 9.77378 21.0867 10.2769 21.3719C10.7842 21.6598 10.9626 22.3044 10.6753 22.8117C10.6673 22.8256 10.6587 22.8395 10.6502 22.8534C10.4515 23.1797 10.1038 23.3597 9.74761 23.3597ZM56.5156 21.5044C56.1775 21.5044 55.8448 21.342 55.6408 21.0413C55.3017 20.5666 55.4143 19.9113 55.8897 19.5722C56.3639 19.233 57.0272 19.3478 57.3663 19.8226L57.3888 19.8547C57.7161 20.3375 57.5906 20.9943 57.1078 21.3223C56.9263 21.4456 56.7201 21.5044 56.5156 21.5044ZM12.2021 19.8675C11.964 19.8675 11.7252 19.7874 11.5276 19.624C11.079 19.2512 11.0171 18.5852 11.3898 18.1361L11.3989 18.1254C11.7717 17.6762 12.4371 17.6148 12.8863 17.9871C13.3354 18.3598 13.3974 19.0258 13.0246 19.475L13.0155 19.4856C12.8067 19.7377 12.5055 19.8675 12.2021 19.8675ZM53.794 18.2178C53.5163 18.2178 53.2391 18.1094 53.0319 17.8931C52.6234 17.4765 52.6292 16.8063 53.0463 16.3977C53.4624 15.9897 54.1305 15.9956 54.5385 16.4121L54.5561 16.4298C54.9604 16.8506 54.9465 17.5198 54.5257 17.9235C54.3206 18.1206 54.0573 18.2178 53.794 18.2178ZM15.1587 16.7892C14.866 16.7892 14.5755 16.669 14.3667 16.433C13.98 15.9961 14.0211 15.3285 14.458 14.9419L14.4623 14.9381C14.8965 14.5499 15.5646 14.5851 15.9539 15.0193C16.3427 15.453 16.3085 16.1189 15.8754 16.5088L15.8583 16.5243C15.657 16.7021 15.407 16.7892 15.1587 16.7892ZM50.6041 15.3819C50.3873 15.3819 50.1694 15.3157 49.9808 15.1779L49.9451 15.1507C49.4847 14.7923 49.4014 14.129 49.7597 13.6681C50.1176 13.2083 50.7793 13.125 51.2396 13.4812C51.701 13.8278 51.7993 14.4826 51.4575 14.9494C51.2503 15.2324 50.9293 15.3819 50.6041 15.3819ZM50.6992 14.1814L50.5934 14.317L50.6992 14.1814ZM18.5467 14.1958C18.198 14.1958 17.8567 14.0233 17.6554 13.7077C17.3419 13.2163 17.4856 12.5648 17.9753 12.2502C18.457 11.9319 19.107 12.0596 19.4317 12.5386C19.7596 13.0214 19.6336 13.6783 19.1508 14.0057L19.1139 14.0302C18.9382 14.1424 18.7417 14.1958 18.5467 14.1958ZM47.0179 13.0631C46.8513 13.0631 46.682 13.0235 46.5244 12.9397L46.4993 12.9258C45.9882 12.6449 45.8018 12.0024 46.0828 11.4913C46.3637 10.9802 47.0061 10.7938 47.5172 11.0748L47.5204 11.0764C48.0305 11.3546 48.2233 11.9949 47.9477 12.5066C47.7565 12.8612 47.3933 13.0631 47.0179 13.0631ZM22.29 12.1493C21.8873 12.1493 21.5022 11.918 21.326 11.5276C21.0857 10.9963 21.3217 10.3709 21.8531 10.1306L21.8777 10.1199C22.4117 9.88542 23.0344 10.1295 23.2689 10.6641C23.5023 11.1987 23.2587 11.8214 22.7241 12.0553C22.5832 12.1188 22.4352 12.1493 22.29 12.1493Z" fill="#A7C7D3"/>
<path d="M41.907 57.0288L26.0022 41.1241C25.0051 40.1275 25.004 38.5147 25.9995 37.5197C26.3926 37.1266 26.8839 36.8885 27.3945 36.8078C28.1737 36.6823 29.0009 36.92 29.6039 37.5229L25.5082 33.4272C25.0104 32.9295 24.7605 32.2769 24.7605 31.6259C24.7605 31.4902 24.7712 31.354 24.7931 31.2184C24.8748 30.7067 25.1119 30.2165 25.5055 29.8229C25.8948 29.4335 26.3776 29.1975 26.8818 29.1136C27.568 28.9994 28.2912 29.1665 28.8674 29.6157L27.309 28.0573C26.8107 27.559 26.5608 26.9048 26.5608 26.2532C26.5597 26.1149 26.572 25.9755 26.595 25.8393C26.6767 25.3309 26.9133 24.8433 27.3047 24.4519C27.6983 24.0583 28.1891 23.8201 28.7024 23.7394C29.481 23.6139 30.3088 23.8521 30.9112 24.4545L32.6961 26.2393C32.0947 25.638 31.8555 24.8091 31.981 24.0305C32.0616 23.5194 32.2987 23.0291 32.6934 22.635C33.6873 21.6411 35.3017 21.6422 36.2977 22.6382L46.6339 32.9743L46.6627 32.9332C47.1866 32.4093 47.804 32.0371 48.4625 31.8149C50.0876 31.267 51.9585 31.6413 53.2551 32.9386L58.0745 37.7579C59.0011 38.684 59.5207 39.939 59.5228 41.2474L59.5255 44.2627C59.5266 45.6716 60.0873 47.0233 61.0855 48.0214L62.16 49.0959L49.8676 61.3883L48.494 60.0147C47.5808 59.1015 46.3658 58.5514 45.0782 58.467C43.8819 58.3885 42.7556 57.8774 41.907 57.0288Z" fill="#FECBAA"/>
<path d="M49.0686 62.1867L63.0214 48.2339C63.4813 47.7741 64.2263 47.7741 64.6861 48.2339L69.655 53.2028C70.1148 53.6626 70.1148 54.4082 69.655 54.8675L55.7027 68.8203C55.2429 69.2801 54.4973 69.2801 54.0381 68.8203L49.0686 63.8514C48.6094 63.3916 48.6094 62.646 49.0686 62.1867V62.1867Z" fill="#8498DD"/>
<path d="M63.3926 54.4968C63.8054 54.9097 64.4735 54.9102 64.8853 54.4984C65.297 54.0867 65.2965 53.418 64.8842 53.0057C64.4714 52.5929 63.8033 52.5924 63.3915 53.0041C62.9797 53.4164 62.9803 54.0845 63.3926 54.4968V54.4968Z" fill="white"/>
<path d="M50.1928 36.5328L46.6339 32.9743L46.6627 32.9332C47.1866 32.4093 47.804 32.037 48.4625 31.8149L51.6866 35.039C52.0989 35.4513 52.0989 36.1205 51.6866 36.5328C51.2732 36.9461 50.6051 36.9451 50.1928 36.5328Z" fill="#FFAE85"/>
<path d="M28.093 57.0304L43.9978 41.1257C44.9949 40.1286 44.996 38.5163 44.001 37.5213C43.6074 37.1277 43.1166 36.8895 42.6055 36.8089C41.8263 36.6834 40.9991 36.9216 40.3961 37.524L44.4918 33.4288C44.9895 32.9311 45.2395 32.2785 45.2395 31.6269C45.2395 31.4918 45.2288 31.3551 45.2069 31.22C45.1252 30.7078 44.8881 30.2181 44.4945 29.8245C44.1051 29.4351 43.6224 29.1991 43.1182 29.1152C42.4319 29.001 41.7088 29.1681 41.1326 29.6173L42.691 28.0583C43.1892 27.5606 43.4392 26.9064 43.4392 26.2548C43.4402 26.116 43.428 25.9766 43.405 25.8404C43.3238 25.3325 43.0867 24.8444 42.6952 24.4529C42.3016 24.0599 41.8108 23.8217 41.2976 23.741C40.519 23.6155 39.6912 23.8532 39.0887 24.4561L37.3039 26.2409C37.9053 25.6391 38.1445 24.8107 38.019 24.0316C37.9384 23.521 37.7013 23.0307 37.3066 22.6361C36.3127 21.6422 34.6983 21.6432 33.7022 22.6393L23.3661 32.9754L23.3372 32.9348C22.8133 32.4109 22.196 32.0387 21.5375 31.8165C19.9118 31.2686 18.0415 31.6429 16.7448 32.9396L11.9255 37.7595C10.9989 38.6856 10.4793 39.9406 10.4771 41.249L10.4739 44.2638C10.4734 45.6732 9.91264 47.0249 8.91449 48.023L7.83997 49.0975L20.1324 61.3899L21.506 60.0163C22.4192 59.1031 23.6342 58.553 24.9218 58.4687C26.1181 58.3901 27.2444 57.8791 28.093 57.0304V57.0304Z" fill="#FECBAA"/>
<path d="M20.9313 62.1878L6.97852 48.2356C6.5187 47.7757 5.77369 47.7757 5.31386 48.2356L0.34499 53.2044C-0.114834 53.6642 -0.114834 54.4093 0.34499 54.8691L14.2972 68.8219C14.7571 69.2817 15.5026 69.2817 15.9624 68.8219L20.9313 63.853C21.3911 63.3932 21.3911 62.6476 20.9313 62.1878Z" fill="#CEE3FB"/>
<path d="M16.1691 64.0591C16.5819 63.6463 16.5825 62.9782 16.1707 62.5664C15.759 62.1541 15.0903 62.1547 14.678 62.5675C14.2652 62.9798 14.2647 63.6484 14.6764 64.0602C15.0887 64.4719 15.7568 64.4714 16.1691 64.0591V64.0591Z" fill="white"/>
<path d="M19.8076 36.5344L23.3661 32.9754L23.3372 32.9348C22.8133 32.4109 22.1959 32.0387 21.5374 31.8165L18.3133 35.0401C17.901 35.4524 17.901 36.1221 18.3133 36.5344C18.7267 36.9477 19.3948 36.9467 19.8076 36.5344Z" fill="#FFAE85"/>
<path d="M45.1722 18.9131V41.4061C45.1722 42.816 44.033 43.9567 42.6258 43.9567C42.0693 43.9567 41.5539 43.7778 41.1352 43.4734C40.496 43.0114 40.0789 42.2579 40.0789 41.4061V47.1979C40.0789 47.9018 39.7942 48.54 39.3339 49.0004C39.2383 49.0965 39.1336 49.1851 39.0225 49.2652C38.6027 49.5697 38.089 49.7486 37.5325 49.7486C36.9819 49.7486 36.4729 49.5739 36.0574 49.277C35.4913 48.8727 35.0983 48.2431 35.0085 47.5173V49.7219C35.0085 50.4263 34.7223 51.0656 34.2619 51.5259C34.1647 51.6247 34.0574 51.715 33.9452 51.7951C33.5281 52.0968 33.0154 52.2741 32.4616 52.2741C31.9057 52.2741 31.3898 52.0952 30.97 51.7897C30.3307 51.3278 29.9136 50.5742 29.9136 49.7219V47.1979C29.9136 48.0487 29.4971 48.8033 28.8573 49.2652C28.4391 49.5697 27.9248 49.7486 27.3672 49.7486C25.9611 49.7486 24.8203 48.6062 24.8203 47.1979V32.5802L24.7712 32.5888C24.0304 32.5888 23.3303 32.4152 22.7076 32.107C21.1711 31.3449 20.1131 29.7577 20.1131 27.9238V21.1076C20.1131 19.7981 20.6328 18.543 21.5567 17.6159L23.6865 15.4824C24.6825 14.4847 25.2417 13.133 25.2417 11.7215V10.2016H42.6253V12.144C42.6253 13.4353 43.0958 14.6834 43.9465 15.6538C44.7369 16.5553 45.1722 17.7131 45.1722 18.9131V18.9131Z" fill="#FEDFC5"/>
<path d="M44.001 37.5213C43.6074 37.1277 43.1166 36.8901 42.6055 36.8089C41.8263 36.6834 40.999 36.9216 40.3961 37.5245L44.4918 33.4288C44.9895 32.9311 45.24 32.2785 45.24 31.6275C45.24 31.4918 45.2288 31.3551 45.2069 31.22C45.1252 30.7078 44.8886 30.2181 44.495 29.8245C44.1057 29.4351 43.6223 29.1991 43.1187 29.1152C42.4325 29.001 41.7093 29.1681 41.1326 29.6173L42.6915 28.0583C43.1892 27.5606 43.4392 26.9064 43.4392 26.2548C43.4402 26.1165 43.4285 25.9771 43.4055 25.8404C43.3238 25.3325 43.0867 24.8444 42.6952 24.4529C42.3021 24.0599 41.8108 23.8217 41.2981 23.741C40.5195 23.6155 39.6911 23.8537 39.0887 24.4561L37.3039 26.2409C37.9052 25.6391 38.1445 24.8107 38.019 24.0316C37.9384 23.521 37.7012 23.0307 37.3071 22.6361C36.3127 21.6422 34.6982 21.6432 33.7022 22.6393L23.3661 32.9754L23.3372 32.9348C22.8133 32.4109 22.1959 32.0387 21.5374 31.8165C20.7577 31.5538 19.9219 31.5052 19.1192 31.667C19.7654 32.6438 20.6691 33.4539 21.7703 34.0003C22.0758 34.1514 22.3887 34.2785 22.7081 34.3811V47.1979C22.7081 49.7694 24.7984 51.8613 27.3672 51.8613C27.6764 51.8613 27.9809 51.8314 28.2773 51.7726C28.6089 52.4504 29.1034 53.0469 29.7267 53.4971C30.1133 53.7791 30.5352 53.9949 30.9791 54.1444L43.9978 41.1257C44.9949 40.1286 44.9959 38.5163 44.001 37.5213V37.5213Z" fill="#FFAE85"/>
<path d="M47.2838 41.406V32.4104C47.0654 32.5637 46.8571 32.7383 46.6617 32.9332L46.6328 32.9743L36.2967 22.6382C35.3007 21.6422 33.6862 21.6411 32.6923 22.635C32.2976 23.0291 32.0605 23.5194 31.9799 24.0305C31.8544 24.8091 32.0936 25.638 32.695 26.2393L30.9102 24.4545C30.3077 23.8521 29.48 23.6139 28.7013 23.7394C28.1881 23.8201 27.6973 24.0583 27.3037 24.4519C26.9122 24.8433 26.6751 25.3309 26.5934 25.8393C26.5709 25.9755 26.5587 26.1149 26.5597 26.2532C26.5597 26.9048 26.8097 27.559 27.3079 28.0573L28.8663 29.6157C28.2895 29.1665 27.567 28.9994 26.8807 29.1136C26.3765 29.1975 25.8938 29.4335 25.5044 29.8229C25.1108 30.2165 24.8737 30.7067 24.792 31.2184C24.7701 31.354 24.7589 31.4902 24.7594 31.6259C24.7589 32.2774 25.0094 32.9295 25.5071 33.4272L29.6028 37.5229C29.0004 36.9205 28.1726 36.6823 27.3939 36.8078C26.8828 36.8885 26.3915 37.1266 25.9984 37.5197C25.0035 38.5152 25.0046 40.1275 26.0011 41.1246L36.6561 51.779C36.9423 51.8335 37.235 51.8613 37.5314 51.8613C38.5189 51.8613 39.4631 51.5553 40.2578 50.979C40.4602 50.8327 40.6519 50.6698 40.8271 50.4946C41.7067 49.615 42.1911 48.4444 42.1911 47.1979V46.0497C42.3342 46.063 42.4795 46.0694 42.6247 46.0694C45.1935 46.0694 47.2838 43.9775 47.2838 41.406V41.406Z" fill="#FFAE85"/>
<path d="M45.1722 18.9131V41.4061C45.1722 42.816 44.033 43.9567 42.6258 43.9567C42.5879 43.9567 42.5468 43.9567 42.5062 43.954C41.9972 43.93 41.5256 43.757 41.1384 43.475C41.1368 43.475 41.1368 43.4734 41.1352 43.4734C40.496 43.0114 40.0789 42.2579 40.0789 41.4061V47.1979C40.0789 47.9018 39.7942 48.54 39.3339 49.0004C39.2383 49.0965 39.1336 49.1851 39.0225 49.2652C38.6027 49.5697 38.089 49.7486 37.5325 49.7486C36.9819 49.7486 36.4729 49.5739 36.0574 49.277C35.4913 48.8727 35.0983 48.2431 35.0085 47.5173V49.7219C35.0085 50.4263 34.7223 51.0656 34.2619 51.5259C34.1647 51.6247 34.0574 51.715 33.9452 51.7951C33.5281 52.0968 33.0154 52.2741 32.4616 52.2741C31.9057 52.2741 31.3898 52.0952 30.97 51.7897C30.3307 51.3278 29.9136 50.5742 29.9136 49.7219V47.1979C29.9136 48.0487 29.4971 48.8033 28.8573 49.2652C28.4391 49.5697 27.9248 49.7486 27.3672 49.7486C25.9611 49.7486 24.8203 48.6062 24.8203 47.1979V32.5802L24.7712 32.5888C24.0304 32.5888 23.3303 32.4152 22.7076 32.107C21.1711 31.3449 20.1131 29.7577 20.1131 27.9238V21.1076C20.1131 19.7981 20.6328 18.543 21.5567 17.6159L23.6865 15.4824C24.3023 14.8655 24.7514 14.113 25.0035 13.2933C25.1616 12.7864 25.2417 12.2524 25.2417 11.7215V10.2016H42.6253V12.144C42.6253 12.5792 42.6723 13.0385 42.793 13.4577C42.9959 14.2652 43.3906 15.0188 43.9465 15.6538C44.73 16.5483 45.1722 17.7217 45.1722 18.9131V18.9131Z" fill="#FEDFC5"/>
<path d="M45.1722 18.9131V41.4061C45.1722 42.816 44.033 43.9567 42.6258 43.9567C42.5879 43.9567 42.5467 43.9567 42.5061 43.954C41.9972 43.93 41.5256 43.757 41.1384 43.475L41.1817 21.8008C41.1817 21.67 41.1523 21.4627 41.0973 21.1994C40.1253 16.465 36.1295 13.2933 31.2968 13.2933H25.0035C25.1616 12.7859 25.2417 12.2524 25.2417 11.7215V10.2016H42.6252V12.144C42.6252 12.5792 42.6722 13.0385 42.7929 13.4577C42.9959 14.2652 43.3905 15.0188 43.9465 15.6538C44.73 16.5483 45.1722 17.7217 45.1722 18.9131V18.9131Z" fill="#FECBAA"/>
<path d="M43.7553 10.2021H24.023C23.373 10.2021 22.8459 9.67502 22.8459 9.02507V1.99741C22.8459 1.34746 23.373 0.820343 24.023 0.820343H43.7553C44.4053 0.820343 44.9324 1.34746 44.9324 1.99741V9.02507C44.9324 9.67502 44.4053 10.2021 43.7553 10.2021Z" fill="#83D9FF"/>
<path d="M28.4225 5.51151C28.4225 4.92778 27.9504 4.45514 27.3678 4.45514C26.7851 4.45514 26.313 4.92778 26.313 5.51151C26.313 6.0947 26.7851 6.56787 27.3678 6.56787C27.9504 6.56787 28.4225 6.0947 28.4225 5.51151Z" fill="white"/>
<path d="M41.1358 29.6349V43.4734C40.496 43.0115 40.0789 42.2579 40.0789 41.4055V47.1974C40.0789 47.9018 39.7948 48.54 39.3339 49.0004C39.2383 49.0965 39.1341 49.1852 39.0225 49.2653V29.6349C39.0225 29.0517 39.4962 28.5786 40.0789 28.5786C40.6621 28.5786 41.1358 29.0517 41.1358 29.6349V29.6349Z" fill="#FECBAA"/>
<path d="M36.058 29.6349V49.2765C35.4913 48.8722 35.0988 48.2426 35.0086 47.5173V49.7219C35.0086 50.4258 34.7228 51.0656 34.2619 51.5259C34.1647 51.6247 34.0579 51.7145 33.9453 51.7951V29.6349C33.9453 29.0517 34.4184 28.5786 35.0016 28.5786C35.5848 28.5786 36.058 29.0517 36.058 29.6349V29.6349Z" fill="#FECBAA"/>
<path d="M30.97 29.6349V51.7892C30.3307 51.3273 29.9136 50.5737 29.9136 49.7219V47.1974C29.9136 48.0482 29.4971 48.8033 28.8573 49.2653V29.6349C28.8573 29.0517 29.331 28.5786 29.9136 28.5786C30.4984 28.5786 30.97 29.0517 30.97 29.6349V29.6349Z" fill="#FECBAA"/>
<path d="M24.8209 27.5473V32.5802L24.7712 32.5882C24.0305 32.5882 23.3303 32.4152 22.7081 32.1071V27.5473C22.7081 26.9641 23.1813 26.4909 23.7645 26.4909C24.3488 26.4909 24.8209 26.9641 24.8209 27.5473Z" fill="#FECBAA"/>
</svg>
