<svg width="369" height="404" viewBox="0 0 369 404" fill="none" xmlns="http://www.w3.org/2000/svg">
<g clip-path="url(#clip0)">
<path fill-rule="evenodd" clip-rule="evenodd" d="M153.691 108.665L405.96 254.425L153.53 400.278L-98.7387 254.517L153.691 108.665ZM153.542 377.923L135.075 388.594L153.53 399.259L172 388.588L153.542 377.923ZM134.206 366.751L115.736 377.422L134.194 388.088L152.664 377.413L134.206 366.751ZM114.869 355.576L96.3992 366.247L114.855 376.913L133.325 366.242L114.869 355.576ZM95.5302 344.404L77.0601 355.075L95.5188 365.741L113.989 355.07L95.5302 344.404ZM76.1939 333.229L57.7238 343.901L76.1796 354.566L94.6497 343.895L76.1939 333.229ZM56.8548 322.058L38.3847 332.729L56.8434 343.394L75.3134 332.723L56.8548 322.058ZM37.5185 310.883L19.0484 321.557L37.5042 332.22L55.9743 321.548L37.5185 310.883ZM18.1794 299.711L-0.290686 310.382L18.168 321.048L36.638 310.376L18.1794 299.711ZM-1.15688 288.536L-19.627 299.21L-1.16831 309.873L17.2989 299.202L-1.15688 288.536ZM-20.496 277.364L-38.9661 288.036L-20.5074 298.701L-2.03736 288.03L-20.496 277.364ZM-39.8323 266.192L-58.3024 276.864L-39.8437 287.526L-21.3765 276.855L-39.8323 266.192ZM-59.1714 255.018L-77.6386 265.689L-59.1828 276.354L-40.7128 265.683L-59.1714 255.018ZM-78.5077 243.846L-96.9778 254.517L-78.5191 265.183L-60.049 254.508L-78.5077 243.846ZM172.892 366.742L154.422 377.413L172.881 388.079L191.351 377.408L172.892 366.742ZM153.556 355.57L135.086 366.242L153.542 376.907L172.012 366.233L153.556 355.57ZM134.217 344.396L115.747 355.07L134.206 365.732L152.676 355.061L134.217 344.396ZM114.881 333.224L96.4107 343.895L114.869 354.56L133.337 343.889L114.881 333.224ZM95.5416 322.049L77.0715 332.723L95.5302 343.386L114 332.714L95.5416 322.049ZM76.2053 310.877L57.7353 321.548L76.1939 332.214L94.6612 321.543L76.2053 310.877ZM56.8662 299.702L38.3961 310.376L56.8548 321.039L75.3249 310.368L56.8662 299.702ZM37.53 288.53L19.0599 299.202L37.5185 309.867L55.9886 299.196L37.53 288.53ZM18.1937 277.359L-0.276396 288.03L18.1794 298.692L36.6495 288.021L18.1937 277.359ZM-1.14544 266.184L-19.6155 276.855L-1.15688 287.521L17.3132 276.849L-1.14544 266.184ZM-20.4817 255.012L-38.9518 265.683L-20.496 276.349L-2.02592 265.675L-20.4817 255.012ZM-39.8208 243.837L-58.2909 254.508L-39.8323 265.174L-21.3622 254.503L-39.8208 243.837ZM-59.1571 232.665L-77.6272 243.337L-59.1714 254.002L-40.7013 243.328L-59.1571 232.665ZM192.243 355.562L173.773 366.233L192.232 376.899L210.699 366.227L192.243 355.562ZM172.904 344.39L154.437 355.061L172.892 365.727L191.363 355.055L172.904 344.39ZM153.568 333.215L135.098 343.889L153.556 354.552L172.026 343.881L153.568 333.215ZM134.231 322.043L115.761 332.714L134.217 343.38L152.687 332.709L134.231 322.043ZM114.892 310.868L96.4221 321.543L114.881 332.205L133.351 321.534L114.892 310.868ZM95.5559 299.697L77.0858 310.368L95.5416 321.033L114.012 310.362L95.5559 299.697ZM76.2168 288.522L57.7467 299.196L76.2053 309.859L94.6754 299.187L76.2168 288.522ZM56.8805 277.35L38.4104 288.021L56.8662 298.687L75.3363 288.015L56.8805 277.35ZM37.5414 266.178L19.0713 276.849L37.53 287.515L56.0001 276.841L37.5414 266.178ZM18.2051 255.003L-0.264959 265.675L18.1937 276.34L36.6609 265.669L18.2051 255.003ZM-1.13401 243.831L-19.6041 254.503L-1.14544 265.168L17.3246 254.494L-1.13401 243.831ZM-20.4703 232.657L-38.9404 243.328L-20.4817 253.993L-2.01449 243.322L-20.4703 232.657ZM-39.8094 221.485L-58.2766 232.156L-39.8208 242.822L-21.3508 232.15L-39.8094 221.485ZM211.594 344.381L193.123 355.055L211.579 365.718L230.049 355.047L211.594 344.381ZM192.254 333.209L173.784 343.881L192.243 354.546L210.713 343.875L192.254 333.209ZM172.918 322.035L154.448 332.709L172.904 343.371L191.374 332.7L172.918 322.035ZM153.579 310.863L135.109 321.534L153.568 332.2L172.038 321.528L153.579 310.863ZM134.243 299.691L115.773 310.362L134.231 321.025L152.699 310.354L134.243 299.691ZM114.904 288.516L96.4335 299.187L114.892 309.853L133.362 299.182L114.904 288.516ZM95.5673 277.344L77.0973 288.015L95.5559 298.678L114.023 288.007L95.5673 277.344ZM76.2311 266.17L57.761 276.841L76.2168 287.506L94.6869 276.835L76.2311 266.17ZM56.892 254.998L38.4219 265.669L56.8805 276.334L75.3506 265.66L56.892 254.998ZM37.5557 243.823L19.0856 254.494L37.5414 265.16L56.0115 254.488L37.5557 243.823ZM18.2166 232.651L-0.253521 243.322L18.2051 253.988L36.6752 243.314L18.2166 232.651ZM-1.11972 221.476L-19.5898 232.15L-1.13401 242.813L17.3361 232.142L-1.11972 221.476ZM-20.4588 210.304L-38.9289 220.976L-20.4703 231.641L-2.00019 220.97L-20.4588 210.304ZM230.941 333.201L212.471 343.875L230.93 354.538L249.4 343.866L230.941 333.201ZM211.605 322.029L193.135 332.7L211.594 343.366L230.061 332.694L211.605 322.029ZM192.269 310.857L173.799 321.528L192.254 332.191L210.725 321.52L192.269 310.857ZM172.93 299.682L154.459 310.354L172.918 321.019L191.388 310.348L172.93 299.682ZM153.593 288.51L135.123 299.182L153.579 309.844L172.049 299.173L153.593 288.51ZM134.254 277.336L115.784 288.007L134.243 298.672L152.713 288.001L134.254 277.336ZM114.918 266.164L96.4478 276.835L114.904 287.501L133.374 276.826L114.918 266.164ZM95.5788 254.989L77.1087 265.66L95.5673 276.326L114.037 265.655L95.5788 254.989ZM76.2425 243.817L57.7724 254.488L76.2311 265.154L94.6983 254.48L76.2425 243.817ZM56.9034 232.642L38.4333 243.314L56.892 253.979L75.362 243.308L56.9034 232.642ZM37.5671 221.471L19.097 232.142L37.5557 242.807L56.0229 232.136L37.5671 221.471ZM18.228 210.296L-0.239231 220.97L18.2166 231.633L36.6866 220.961L18.228 210.296ZM-1.10828 199.124L-19.5784 209.795L-1.11972 220.461L17.3504 209.789L-1.10828 199.124ZM250.292 322.02L231.822 332.694L250.28 343.357L268.75 332.686L250.292 322.02ZM230.956 310.848L212.485 321.52L230.941 332.185L249.411 321.514L230.956 310.848ZM211.616 299.677L193.146 310.348L211.605 321.01L230.075 310.339L211.616 299.677ZM192.28 288.502L173.81 299.173L192.269 309.839L210.739 299.167L192.28 288.502ZM172.941 277.33L154.471 288.001L172.93 298.667L191.4 287.993L172.941 277.33ZM153.605 266.155L135.135 276.826L153.593 287.492L172.063 276.821L153.605 266.155ZM134.266 254.983L115.796 265.655L134.254 276.32L152.724 265.646L134.266 254.983ZM114.929 243.809L96.4593 254.48L114.918 265.145L133.388 254.474L114.929 243.809ZM95.5931 232.637L77.123 243.308L95.5788 253.973L114.049 243.299L95.5931 232.637ZM76.254 221.462L57.7839 232.136L76.2425 242.799L94.7126 232.127L76.254 221.462ZM56.9177 210.29L38.4476 220.961L56.9034 231.627L75.3735 220.956L56.9177 210.29ZM37.5786 199.115L19.1085 209.789L37.5671 220.452L56.0372 209.781L37.5786 199.115ZM18.2423 187.943L-0.227803 198.615L18.228 209.28L36.6981 198.609L18.2423 187.943ZM269.642 310.84L251.172 321.514L269.631 332.177L288.101 321.505L269.642 310.84ZM250.303 299.668L231.836 310.339L250.292 321.005L268.762 310.334L250.303 299.668ZM230.967 288.496L212.497 299.167L230.956 309.83L249.426 299.159L230.967 288.496ZM211.631 277.321L193.161 287.993L211.616 298.658L230.087 287.987L211.631 277.321ZM192.292 266.149L173.821 276.821L192.28 287.486L210.75 276.812L192.292 266.149ZM172.955 254.975L154.485 265.646L172.941 276.311L191.411 265.64L172.955 254.975ZM153.616 243.803L135.146 254.474L153.605 265.14L172.075 254.466L153.616 243.803ZM134.28 232.628L115.81 243.299L134.266 253.965L152.736 243.294L134.28 232.628ZM114.941 221.456L96.4736 232.127L114.929 242.793L133.399 232.122L114.941 221.456ZM95.6045 210.281L77.1344 220.956L95.5931 231.618L114.063 220.947L95.6045 210.281ZM76.2654 199.11L57.7982 209.781L76.254 220.446L94.724 209.775L76.2654 199.11ZM56.9291 187.935L38.459 198.609L56.9177 209.272L75.3878 198.6L56.9291 187.935ZM37.5928 176.763L19.1228 187.434L37.5786 198.1L56.0486 187.428L37.5928 176.763ZM288.993 299.662L270.523 310.334L288.979 320.996L307.449 310.325L288.993 299.662ZM269.654 288.488L251.184 299.159L269.642 309.824L288.112 299.153L269.654 288.488ZM250.318 277.316L231.847 287.987L250.303 298.65L268.773 287.978L250.318 277.316ZM230.978 266.141L212.511 276.812L230.967 287.478L249.437 276.806L230.978 266.141ZM211.642 254.969L193.172 265.64L211.631 276.306L230.101 265.632L211.642 254.969ZM192.303 243.794L173.836 254.466L192.292 265.131L210.762 254.46L192.303 243.794ZM172.967 232.622L154.497 243.294L172.955 253.959L191.425 243.285L172.967 232.622ZM153.63 221.448L135.16 232.122L153.616 242.784L172.086 232.113L153.63 221.448ZM134.291 210.276L115.821 220.947L134.28 231.612L152.75 220.941L134.291 210.276ZM114.955 199.101L96.485 209.775L114.941 220.438L133.411 209.767L114.955 199.101ZM95.616 187.929L77.1459 198.6L95.6045 209.266L114.075 198.595L95.616 187.929ZM76.2797 176.757L57.8096 187.428L76.2654 198.091L94.7355 187.42L76.2797 176.757ZM56.9405 165.582L38.4705 176.254L56.9291 186.919L75.3992 176.248L56.9405 165.582ZM308.341 288.482L289.873 299.153L308.329 309.819L326.799 299.144L308.341 288.482ZM289.004 277.307L270.534 287.978L288.993 298.644L307.463 287.973L289.004 277.307ZM269.668 266.135L251.198 276.806L269.654 287.472L288.124 276.798L269.668 266.135ZM250.329 254.96L231.859 265.632L250.318 276.297L268.788 265.626L250.329 254.96ZM230.993 243.789L212.523 254.46L230.978 265.125L249.449 254.451L230.993 243.789ZM211.654 232.614L193.184 243.285L211.642 253.951L230.112 243.279L211.654 232.614ZM192.317 221.442L173.847 232.113L192.303 242.779L210.773 232.107L192.317 221.442ZM172.978 210.267L154.508 220.941L172.967 231.604L191.437 220.933L172.978 210.267ZM153.642 199.095L135.172 209.767L153.63 220.432L172.098 209.761L153.642 199.095ZM134.303 187.921L115.833 198.595L134.291 209.257L152.761 198.586L134.303 187.921ZM114.966 176.749L96.4964 187.42L114.955 198.085L133.422 187.414L114.966 176.749ZM95.6302 165.577L77.1602 176.248L95.616 186.911L114.086 176.239L95.6302 165.577ZM76.2911 154.402L57.821 165.073L76.2797 175.739L94.7498 165.068L76.2911 154.402ZM327.691 277.301L309.221 287.973L327.68 298.638L346.15 287.964L327.691 277.301ZM308.355 266.127L289.885 276.798L308.341 287.463L326.811 276.792L308.355 266.127ZM289.016 254.955L270.546 265.626L289.004 276.291L307.474 265.617L289.016 254.955ZM269.68 243.78L251.209 254.451L269.668 265.117L288.135 254.445L269.68 243.78ZM250.34 232.608L231.873 243.279L250.329 253.945L268.799 243.274L250.34 232.608ZM231.004 221.433L212.534 232.107L230.993 242.77L249.463 232.099L231.004 221.433ZM211.665 210.261L193.198 220.933L211.654 231.598L230.124 220.927L211.665 210.261ZM192.329 199.087L173.859 209.761L192.317 220.423L210.787 209.752L192.329 199.087ZM172.992 187.915L154.522 198.586L172.978 209.252L191.448 198.58L172.992 187.915ZM153.653 176.743L135.183 187.414L153.642 198.077L172.112 187.406L153.653 176.743ZM134.317 165.568L115.847 176.239L134.303 186.905L152.773 176.234L134.317 165.568ZM114.978 154.396L96.5079 165.068L114.966 175.73L133.437 165.059L114.978 154.396ZM95.6417 143.222L77.1716 153.893L95.6302 164.558L114.097 153.887L95.6417 143.222ZM347.042 266.121L328.572 276.792L347.03 287.458L365.5 276.784L347.042 266.121ZM327.703 254.946L309.235 265.617L327.691 276.283L346.161 265.612L327.703 254.946ZM308.366 243.774L289.896 254.445L308.355 265.111L326.825 254.44L308.366 243.774ZM289.03 232.6L270.56 243.274L289.016 253.936L307.486 243.265L289.03 232.6ZM269.691 221.428L251.221 232.099L269.68 242.764L288.15 232.093L269.691 221.428ZM250.355 210.253L231.885 220.927L250.34 231.59L268.81 220.918L250.355 210.253ZM231.016 199.081L212.546 209.752L231.004 220.418L249.474 209.746L231.016 199.081ZM211.679 187.909L193.209 198.58L211.665 209.243L230.135 198.572L211.679 187.909ZM192.34 176.734L173.87 187.406L192.329 198.071L210.799 187.4L192.34 176.734ZM173.004 165.562L154.534 176.234L172.992 186.899L191.46 176.225L173.004 165.562ZM153.665 154.388L135.195 165.059L153.653 175.724L172.123 165.053L153.665 154.388ZM134.329 143.216L115.858 153.887L134.317 164.553L152.787 153.878L134.329 143.216ZM114.992 132.041L96.5222 142.712L114.978 153.378L133.448 142.707L114.992 132.041ZM366.392 254.94L347.922 265.612L366.378 276.277L384.848 265.606L366.392 254.94ZM347.053 243.766L328.583 254.44L347.042 265.102L365.512 254.431L347.053 243.766ZM327.717 232.594L309.247 243.265L327.703 253.931L346.173 243.259L327.717 232.594ZM308.378 221.419L289.908 232.093L308.366 242.756L326.836 232.085L308.378 221.419ZM289.042 210.247L270.571 220.918L289.03 231.584L307.497 220.913L289.042 210.247ZM269.702 199.072L251.232 209.746L269.691 220.409L288.161 209.738L269.702 199.072ZM250.366 187.901L231.896 198.572L250.355 209.237L268.825 198.566L250.366 187.901ZM231.03 176.729L212.56 187.4L231.016 198.062L249.486 187.391L231.03 176.729ZM211.691 165.554L193.221 176.225L211.679 186.891L230.149 176.219L211.691 165.554ZM192.354 154.382L173.884 165.053L192.34 175.719L210.81 165.045L192.354 154.382ZM173.015 143.207L154.545 153.878L173.004 164.544L191.474 153.873L173.015 143.207ZM153.679 132.035L135.209 142.707L153.665 153.372L172.135 142.698L153.679 132.035ZM134.34 120.861L115.87 131.535L134.329 142.197L152.799 131.526L134.34 120.861ZM385.74 243.76L367.273 254.431L385.729 265.097L404.199 254.425L385.74 243.76ZM366.404 232.585L347.934 243.259L366.392 253.922L384.862 243.251L366.404 232.585ZM347.067 221.413L328.597 232.085L347.053 242.75L365.523 232.079L347.067 221.413ZM327.728 210.241L309.258 220.913L327.717 231.575L346.187 220.904L327.728 210.241ZM308.392 199.067L289.922 209.738L308.378 220.403L326.848 209.732L308.392 199.067ZM289.053 187.895L270.583 198.566L289.042 209.229L307.512 198.557L289.053 187.895ZM269.717 176.72L251.247 187.391L269.702 198.057L288.173 187.386L269.717 176.72ZM250.378 165.548L231.908 176.219L250.366 186.885L268.836 176.211L250.378 165.548ZM231.041 154.373L212.571 165.045L231.03 175.71L249.497 165.039L231.041 154.373ZM211.702 143.202L193.232 153.873L211.691 164.538L230.161 153.864L211.702 143.202ZM192.366 132.027L173.896 142.698L192.354 153.364L210.822 142.692L192.366 132.027ZM173.027 120.855L154.56 131.526L173.015 142.192L191.485 131.518L173.027 120.855ZM153.691 109.68L135.22 120.354L153.679 131.017L172.149 120.346L153.691 109.68Z" fill="url(#paint0_radial)"/>
<path d="M239.177 173.112L236.001 174.949C234.346 175.905 234.346 177.455 236.001 178.411L239.177 180.248C240.832 181.203 243.517 181.203 245.172 180.248L248.345 178.411C250 177.455 250 175.905 248.345 174.949L245.172 173.112C243.517 172.157 240.832 172.157 239.177 173.112Z" fill="#BEDAFF"/>
<path d="M237.568 205.326C239.223 206.285 239.223 207.835 237.568 208.791L235.332 210.084C233.677 211.04 233.677 212.59 235.332 213.546L238.505 215.382C240.161 216.338 242.845 216.338 244.5 215.382L247.676 213.546C249.331 212.59 249.331 211.04 247.676 210.084L245.243 208.679C243.588 207.724 243.588 206.173 245.243 205.215L256.664 198.617C258.319 197.662 261.003 197.662 262.659 198.617L263.43 199.064C265.086 200.019 267.77 200.019 269.425 199.064L272.601 197.23C274.256 196.272 274.256 194.721 272.601 193.765L269.425 191.932C267.77 190.976 265.086 190.976 263.43 191.932L261.415 193.096C259.76 194.054 257.075 194.054 255.42 193.096L244.306 186.676C242.65 185.718 239.966 185.718 238.311 186.676L233.966 189.188C232.311 190.143 229.626 190.143 227.971 189.188L225.018 187.48C223.363 186.524 220.678 186.524 219.023 187.48L215.85 189.317C214.195 190.272 214.195 191.823 215.85 192.778L218.803 194.483C220.458 195.442 220.458 196.993 218.803 197.948L214.206 200.603C212.551 201.559 212.551 203.109 214.206 204.068L220.984 207.984C222.64 208.94 225.324 208.94 226.979 207.984L231.573 205.326C233.228 204.371 235.913 204.371 237.568 205.326Z" fill="#BEDAFF"/>
<path d="M41.3206 325.316L44.791 323.311C46.6006 322.264 46.6006 320.57 44.791 319.523L41.3206 317.517C39.511 316.473 36.578 316.473 34.7656 317.517L31.2951 319.523C29.4856 320.57 29.4856 322.264 31.2951 323.311L34.7656 325.316C36.578 326.363 39.511 326.363 41.3206 325.316Z" fill="#BEDAFF"/>
<path d="M43.0787 290.095C41.2691 289.051 41.2691 287.355 43.0787 286.31L45.5257 284.897C47.3353 283.85 47.3353 282.156 45.5257 281.109L42.0524 279.104C40.2429 278.059 37.3098 278.059 35.5003 279.104L32.0298 281.109C30.2202 282.156 30.2202 283.85 32.0298 284.897L34.6884 286.433C36.498 287.478 36.498 289.174 34.6855 290.218L22.2016 297.434C20.392 298.478 17.4561 298.478 15.6466 297.434L14.8033 296.944C12.9937 295.9 10.0578 295.9 8.24826 296.944L4.77779 298.95C2.96823 299.997 2.96823 301.691 4.77779 302.738L8.24826 304.743C10.0578 305.788 12.9937 305.788 14.8033 304.743L17.0073 303.467C18.8169 302.423 21.7528 302.423 23.5623 303.467L35.7118 310.488C37.5214 311.535 40.4573 311.535 42.2668 310.488L47.018 307.744C48.8275 306.697 51.7634 306.697 53.573 307.744L56.8005 309.61C58.61 310.654 61.5431 310.654 63.3526 309.61L66.8259 307.601C68.6355 306.557 68.6355 304.861 66.8259 303.816L63.5956 301.951C61.786 300.904 61.786 299.21 63.5956 298.163L68.6212 295.262C70.4308 294.215 70.4308 292.521 68.6212 291.474L61.2114 287.192C59.4019 286.147 56.466 286.147 54.6564 287.192L49.6337 290.095C47.8241 291.142 44.8883 291.142 43.0787 290.095Z" fill="#BEDAFF"/>
<path fill-rule="evenodd" clip-rule="evenodd" d="M58.0297 128.576C58.0297 132.67 55.1567 137.651 51.6119 139.7C48.0671 141.748 45.1913 140.089 45.1913 135.992C45.1913 131.895 48.0671 126.914 51.6119 124.866C55.1567 122.817 58.0297 124.48 58.0297 128.576ZM55.8257 129.85C55.8257 127.16 53.9389 126.067 51.6119 127.415C49.2821 128.76 47.3953 132.03 47.3953 134.719C47.3953 137.408 49.2821 138.498 51.6119 137.154C53.9389 135.809 55.8257 132.539 55.8257 129.85Z" fill="#00E9FF"/>
<path d="M48.9162 152.502C48.9162 154.742 47.3467 157.466 45.4085 158.585C43.4703 159.706 41.8981 158.799 41.8981 156.559C41.8981 154.319 43.4703 151.595 45.4085 150.474C47.3467 149.355 48.9162 150.262 48.9162 152.502Z" fill="#3A55CA"/>
<path d="M52.5553 111.073C52.5553 113.314 50.9859 116.037 49.0477 117.156C47.1095 118.277 45.5372 117.367 45.5372 115.13C45.5372 112.89 47.1095 110.166 49.0477 109.045C50.9859 107.926 52.5553 108.833 52.5553 111.073Z" fill="#3A55CA"/>
<path d="M40.4887 141.823L35.486 150.494L30.4832 147.604L35.486 138.933L40.4887 141.823Z" fill="#0382FF"/>
<path d="M37.4871 123.544L34.5598 125.235V121.853C34.5598 121.233 34.1252 120.981 33.5878 121.293C33.0504 121.602 32.6158 122.357 32.6158 122.978V126.359L29.6885 128.05C29.1511 128.359 28.7166 129.114 28.7166 129.735C28.7166 130.356 29.1511 130.608 29.6885 130.299L32.6158 128.608V131.99C32.6158 132.61 33.0504 132.862 33.5878 132.55C34.1252 132.238 34.5598 131.486 34.5598 130.865V127.484L37.4871 125.793C38.0245 125.481 38.459 124.729 38.459 124.108C38.459 123.484 38.0245 123.235 37.4871 123.544Z" fill="#C3E0FE"/>
<path fill-rule="evenodd" clip-rule="evenodd" d="M204.575 68.091C204.575 72.1878 201.702 77.1687 198.158 79.2171C194.613 81.2655 191.74 79.6033 191.74 75.5093C191.74 71.4125 194.613 66.4316 198.158 64.3832C201.702 62.3348 204.575 63.9941 204.575 68.091ZM202.371 69.3641C202.371 66.6748 200.485 65.5848 198.158 66.9294C195.831 68.2741 193.944 71.5441 193.944 74.2362C193.944 76.9255 195.831 78.0155 198.158 76.6709C200.485 75.3262 202.371 72.0534 202.371 69.3641Z" fill="#BEDAFF"/>
<path d="M193.466 87.9228C193.466 90.163 191.894 92.8866 189.956 94.0052C188.018 95.1267 186.446 94.2197 186.446 91.9796C186.446 89.7395 188.018 87.0159 189.956 85.8945C191.894 84.7758 193.466 85.6827 193.466 87.9228Z" fill="#00E9FF"/>
<path d="M198.695 50.173C198.695 52.4131 197.123 55.1367 195.185 56.2582C193.246 57.3768 191.674 56.4699 191.674 54.2298C191.674 51.9897 193.246 49.2661 195.185 48.1446C197.123 47.026 198.695 47.9329 198.695 50.173Z" fill="#3A55CA"/>
<path d="M185.036 77.243L180.033 85.9145L175.031 83.025L180.033 74.3535L185.036 77.243Z" fill="#0382FF"/>
<path d="M186.906 58.7558L183.978 60.4466V57.065C183.978 56.4442 183.544 56.1924 183.007 56.5043C182.469 56.8132 182.035 57.5685 182.035 58.1893V61.5709L179.107 63.2617C178.57 63.5707 178.135 64.326 178.135 64.9468C178.135 65.5676 178.57 65.8194 179.107 65.5076L182.035 63.8167V67.1984C182.035 67.8192 182.469 68.0709 183.007 67.762C183.544 67.4501 183.978 66.6977 183.978 66.074V62.6924L186.906 61.0045C187.443 60.6926 187.878 59.9374 187.878 59.3165C187.878 58.6957 187.443 58.444 186.906 58.7558Z" fill="#C3E0FE"/>
<path d="M343.814 203.596L233.02 139.577C228.929 137.214 226.41 132.848 226.41 128.119V26.3073C226.41 16.1252 237.425 9.7597 246.238 14.8521L357.036 78.8681C361.124 81.2312 363.645 85.5998 363.645 90.326V192.138C363.645 202.322 352.628 208.688 343.814 203.596Z" fill="url(#paint1_linear)"/>
<path fill-rule="evenodd" clip-rule="evenodd" d="M350.404 200.952C348.88 200.952 347.408 200.549 346.033 199.753L235.235 135.735C232.525 134.17 230.841 131.251 230.841 128.119V26.3073C230.841 20.8658 235.412 17.4956 239.649 17.4956C241.175 17.4956 242.648 17.899 244.023 18.6915L354.818 82.7103C357.528 84.278 359.211 87.1962 359.211 90.326V192.138C359.211 197.582 354.64 200.952 350.404 200.952ZM239.649 18.3539C235.827 18.3539 231.699 21.3951 231.699 26.3073V128.119C231.699 130.945 233.22 133.58 235.664 134.991L346.461 199.009C347.705 199.728 349.031 200.094 350.404 200.094C354.226 200.094 358.354 197.053 358.354 192.138V90.326C358.354 87.4994 356.833 84.8674 354.389 83.4541L243.594 19.4353C242.35 18.7172 241.024 18.3539 239.649 18.3539Z" fill="url(#paint2_linear)"/>
<path d="M345.118 105.194L249.443 49.9156C247.307 48.6796 245.561 45.3381 245.561 42.4858C245.561 39.6363 247.307 38.3145 249.443 39.5476L345.118 94.8262C347.253 96.0622 349 99.4037 349 102.256C349 105.106 347.253 106.427 345.118 105.194Z" fill="url(#paint3_linear)"/>
<path d="M281.2 121.313L250.846 103.772C248.708 102.539 246.959 99.1949 246.959 96.3397V62.6524C246.959 59.8 248.708 58.4783 250.846 59.7113L281.2 77.2516C283.338 78.4876 285.088 81.832 285.088 84.6843V118.372C285.088 121.224 283.338 122.549 281.2 121.313Z" fill="url(#paint4_linear)"/>
<path d="M338.246 154.273L307.892 136.736C305.754 135.5 304.004 132.156 304.004 129.3V95.613C304.004 92.7607 305.754 91.4389 307.892 92.6748L338.246 110.212C340.384 111.448 342.133 114.793 342.133 117.645V151.332C342.133 154.185 340.384 155.509 338.246 154.273Z" fill="url(#paint5_linear)"/>
<path d="M343.769 172.303L245.323 115.422C244.715 115.07 244.22 114.123 244.22 113.308C244.22 112.492 244.715 112.118 245.323 112.472L343.769 169.353C344.38 169.705 344.875 170.652 344.875 171.467C344.875 172.283 344.38 172.658 343.769 172.303Z" fill="url(#paint6_linear)"/>
<path d="M343.769 177.927L245.323 121.047C244.715 120.692 244.22 119.745 244.22 118.932C244.22 118.117 244.715 117.742 245.323 118.094L343.769 174.975C344.38 175.327 344.875 176.274 344.875 177.089C344.875 177.904 344.38 178.279 343.769 177.927Z" fill="url(#paint7_linear)"/>
<path d="M343.769 183.549L245.323 126.668C244.715 126.316 244.22 125.369 244.22 124.554C244.22 123.739 244.715 123.364 245.323 123.719L343.769 180.599C344.38 180.951 344.875 181.898 344.875 182.714C344.875 183.529 344.38 183.904 343.769 183.549Z" fill="url(#paint8_linear)"/>
<path d="M72.8349 281.673V86.8443C72.8349 81.4601 76.1081 75.2032 80.1418 72.8716L163.564 24.6708C167.601 22.3392 170.871 24.8139 170.871 30.1981V225.027C170.871 230.414 167.598 236.671 163.564 239.002L80.1418 287.203C76.1081 289.535 72.8349 287.057 72.8349 281.673Z" fill="url(#paint9_linear)"/>
<path d="M168.371 24.3113L168.374 24.3026L168.221 24.2159C168.273 24.2448 168.319 24.2824 168.371 24.3113Z" fill="#A9BDEA"/>
<path d="M74.8303 287.203C73.5954 286.17 72.8349 284.262 72.8349 281.673V86.8443C72.8349 81.46 76.1082 75.2032 80.1418 72.8716L163.564 24.6708C165.328 23.6523 166.946 23.5493 168.207 24.2102L163.756 21.6697C162.43 20.6255 160.58 20.5683 158.533 21.7498L75.1105 69.9506C71.074 72.2822 67.8036 78.539 67.8036 83.9261V278.752C67.8036 281.982 68.9843 284.153 70.7967 284.88V284.891L74.8303 287.203Z" fill="#A9BDEA"/>
<path d="M76.011 287.878L76.0239 287.885C76.0207 287.881 76.0142 287.878 76.011 287.878Z" fill="#A9BDEA"/>
<path style="mix-blend-mode:screen" d="M76.0224 287.884C76.0195 287.881 76.0138 287.878 76.011 287.878L76.0224 287.884ZM162.861 24.4362L79.4414 72.637C75.4049 74.9686 72.1346 81.2254 72.1346 86.6097V281.438C72.1346 283.721 72.7263 285.469 73.7097 286.562L74.8303 287.203C73.5954 286.17 72.835 284.262 72.835 281.673V86.8443C72.835 81.46 76.1082 75.2032 80.1418 72.8715L163.564 24.6708C164.931 23.8783 166.212 23.6466 167.306 23.8898C166.074 23.3376 164.536 23.4692 162.861 24.4362ZM168.221 24.2159C168.273 24.2445 168.318 24.2817 168.37 24.3103L168.373 24.3017L168.221 24.2159Z" fill="url(#paint10_linear)"/>
<path d="M163.018 28.6704L148.625 36.9871L146.464 42.4085C145.412 45.0463 143.516 47.3865 141.47 48.5681L102.24 71.2351C100.19 72.4195 98.2945 72.2708 97.2425 70.8489L95.0814 67.9222L80.6878 76.2389C78.1121 77.7294 76.0224 81.3485 76.0224 84.3267V280.506C76.0224 283.484 78.1121 284.691 80.6878 283.201L163.018 235.632C165.594 234.142 167.684 230.522 167.684 227.544V31.3654C167.684 28.3872 165.594 27.1798 163.018 28.6704Z" fill="url(#paint11_linear)"/>
<path d="M134.6 48.5194L109.106 63.2503C108.649 63.5135 108.277 63.2303 108.277 62.6238C108.277 62.0144 108.649 61.2992 109.106 61.036L134.6 46.3051C135.057 46.0419 135.429 46.3251 135.429 46.9316C135.429 47.541 135.057 48.2562 134.6 48.5194Z" fill="#A3B9E8"/>
<path d="M70.7481 138.052L70.6223 137.98C70.1592 137.714 69.779 136.988 69.779 136.373V118.503C69.779 117.885 70.1592 117.599 70.6223 117.865L70.7481 117.937C71.2112 118.206 71.5885 118.929 71.5885 119.547V137.417C71.5885 138.035 71.2112 138.321 70.7481 138.052Z" fill="#7B97C9"/>
<path d="M69.8105 138.052L69.6875 137.98C69.2244 137.714 68.8442 136.988 68.8442 136.373V118.503C68.8442 117.885 69.2244 117.599 69.6875 117.865L69.8105 117.937C70.2736 118.206 70.6538 118.929 70.6538 119.547V137.417C70.6538 138.035 70.2736 138.321 69.8105 138.052Z" fill="#90A9D6"/>
<path d="M152.87 27.4516C153.673 27.9151 153.673 28.6675 152.87 29.1338C152.067 29.5973 150.763 29.5973 149.96 29.1338C149.157 28.6675 149.157 27.9151 149.96 27.4516C150.763 26.9882 152.067 26.9882 152.87 27.4516Z" fill="#90A9D6"/>
<path d="M152.871 27.4516C152.067 26.9882 150.764 26.9882 149.96 27.4516C149.752 27.5718 149.6 27.712 149.5 27.8579C149.557 27.8178 149.612 27.772 149.677 27.7349C150.481 27.2685 151.784 27.2685 152.588 27.7349C153.185 28.0782 153.337 28.5817 153.048 29.008C153.662 28.5416 153.608 27.8779 152.871 27.4516Z" fill="#7B97C9"/>
<g opacity="0.322">
<path opacity="0.322" d="M167.658 124.151V58.7815L75.9995 150.514V215.883L167.658 124.151Z" fill="white"/>
<path opacity="0.322" d="M75.9995 131.306L167.658 39.5733V31.3654C167.658 28.3872 165.571 27.1798 162.993 28.6704L155.629 32.9246L146.629 41.9307L146.438 42.4085C145.389 45.0463 143.491 47.3865 141.444 48.5681L138.022 50.545L75.9995 112.615V131.306Z" fill="white"/>
<path opacity="0.322" d="M167.658 176.377V138.824L75.9995 230.557V268.106L167.658 176.377Z" fill="white"/>
<path opacity="0.322" d="M167.658 210.184V201.596L93.5605 275.751L113.869 264.015L167.658 210.184Z" fill="white"/>
</g>
<path d="M141.47 48.5681L102.24 71.2351C100.19 72.4195 98.2946 72.2708 97.2426 70.8489L95.0814 67.9222L80.6878 76.2389C79.3671 77.0027 78.1779 78.3245 77.3317 79.8322C78.0378 78.9281 78.864 78.1557 79.753 77.6436L94.1466 69.3269L96.3078 72.2536C97.3598 73.6755 99.2551 73.8214 101.302 72.6398L140.532 49.9728C142.093 49.0716 143.562 47.4981 144.64 45.6328C143.708 46.8715 142.616 47.9043 141.47 48.5681ZM163.018 28.6704L148.625 36.9871L148.176 38.1086L162.084 30.0722C164.659 28.5846 166.749 29.7919 166.749 32.7701V228.949C166.749 230.402 166.249 232.004 165.44 233.443C166.783 231.718 167.684 229.495 167.684 227.544V31.3654C167.684 28.3872 165.594 27.1798 163.018 28.6704Z" fill="url(#paint12_linear)"/>
<path d="M109.738 140.18L84.4641 154.783C82.7003 155.804 81.271 154.72 81.271 152.368C81.271 150.013 82.7003 147.278 84.4641 146.26L109.738 131.658C111.502 130.639 112.931 131.721 112.931 134.072C112.931 136.427 111.502 139.162 109.738 140.18Z" fill="#C3E0FE"/>
<path d="M118.777 146.821L84.4641 166.647C82.7003 167.665 81.271 166.584 81.271 164.229C81.271 161.878 82.7003 159.143 84.4641 158.124L118.777 138.298C120.541 137.277 121.97 138.361 121.97 140.713C121.97 143.067 120.541 145.802 118.777 146.821Z" fill="#C3E0FE"/>
<path d="M103.703 167.393L84.4641 178.511C82.7003 179.529 81.271 178.448 81.271 176.094C81.271 173.739 82.7003 171.004 84.4641 169.985L103.703 158.871C105.467 157.852 106.896 158.934 106.896 161.288C106.896 163.64 105.467 166.375 103.703 167.393Z" fill="#C3E0FE"/>
<path d="M158.785 226.529L86.3252 268.395C83.5065 270.023 81.1995 268.278 81.1995 264.516V224.901C81.1995 221.139 83.5065 216.727 86.3252 215.099L158.785 173.23C161.606 171.602 163.913 173.347 163.913 177.109V216.727C163.913 220.489 161.606 224.898 158.785 226.529Z" fill="url(#paint13_linear)"/>
<path d="M164.013 58.8044V55.194C164.013 52.087 161.832 50.8282 159.142 52.3817L86.0679 94.6031C83.3807 96.1566 81.1995 99.9359 81.1995 103.046V106.656L164.013 58.8044Z" fill="#0382FF"/>
<path d="M89.8042 97.0635C89.8042 98.3166 88.9266 99.8357 87.8431 100.462C86.7625 101.089 85.8849 100.58 85.8849 99.3293C85.8849 98.0791 86.7625 96.5571 87.8431 95.9334C88.9266 95.3069 89.8042 95.8133 89.8042 97.0635Z" fill="#00E9FF"/>
<path d="M96.6937 93.084C96.6937 94.3342 95.8161 95.8562 94.7326 96.4827C93.6492 97.1064 92.7715 96.6 92.7715 95.3498C92.7715 94.0996 93.6492 92.5776 94.7326 91.951C95.8161 91.3273 96.6937 91.8337 96.6937 93.084Z" fill="#00E9FF"/>
<path d="M103.58 89.1044C103.58 90.3546 102.703 91.8766 101.622 92.5003C100.539 93.1269 99.661 92.6205 99.661 91.3703C99.661 90.1172 100.539 88.598 101.622 87.9715C102.703 87.345 103.58 87.8542 103.58 89.1044Z" fill="#00E9FF"/>
<path d="M94.0151 121.233L100.827 129.841C95.3672 136.956 88.1261 139.751 84.0639 136.315C82.3544 134.868 81.3567 132.444 81.2166 129.395L94.0151 121.233Z" fill="white"/>
<path d="M94.0151 121.233L81.2167 129.395C81.0051 124.794 82.7632 119.213 85.9421 114.395C89.0038 109.752 93.0517 106.333 96.8967 105.134L94.0151 121.233Z" fill="#00E9FF"/>
<path d="M100.845 125.206L103.723 109.111C106.508 108.244 108.998 108.602 110.799 110.124C115.227 113.874 114.38 123.767 108.92 132.041C108.517 132.65 108.097 133.243 107.657 133.815L100.845 125.206Z" fill="#0382FF"/>
<path d="M103.723 109.111L96.8966 105.134L94.0151 121.233L100.845 125.206L103.723 109.111Z" fill="#2645B5"/>
<path d="M110.058 109.589L103.274 105.641C101.553 104.556 99.338 104.376 96.8967 105.134L103.723 109.111C106.145 108.356 108.343 108.53 110.058 109.589Z" fill="#3A55CA"/>
<path d="M100.839 129.824L107.657 133.815L100.845 125.206L94.0151 121.233L100.827 129.841C100.833 129.835 100.836 129.83 100.839 129.824Z" fill="#3A55CA"/>
<path d="M164.013 164.804L81.8313 212.287V210.45L164.013 162.965V164.804Z" fill="#C3E0FE"/>
<path d="M164.013 141.445L81.8313 188.928V187.091L164.013 139.608V141.445Z" fill="#C3E0FE"/>
<path d="M129.992 178.148L115.129 186.733C113.929 187.428 112.954 186.69 112.954 185.088V178.934C112.954 177.329 113.929 175.467 115.129 174.775L129.992 166.186C131.192 165.491 132.167 166.229 132.167 167.831V173.988C132.167 175.59 131.192 177.452 129.992 178.148Z" fill="#BEDAFF"/>
<path d="M157.413 162.304L142.55 170.89C141.349 171.585 140.375 170.847 140.375 169.244V163.091C140.375 161.486 141.349 159.623 142.55 158.928L157.413 150.342C158.613 149.647 159.588 150.385 159.588 151.987V158.141C159.588 159.746 158.613 161.609 157.413 162.304Z" fill="#BEDAFF"/>
<path d="M93.4633 207.824C93.8578 208.139 94.4067 208.159 95.0185 207.804L109.881 199.218C111.082 198.523 112.056 196.661 112.056 195.056V188.902C112.056 188.081 111.799 187.494 111.387 187.202L104.126 182.01C103.732 181.698 103.18 181.678 102.568 182.03L87.7088 190.618C86.5053 191.311 85.5333 193.173 85.5333 194.778V200.932C85.5333 201.753 85.7906 202.342 86.1994 202.631L93.4633 207.824Z" fill="#9CC0E8"/>
<path d="M109.881 199.218L95.0185 207.804C93.8178 208.499 92.843 207.761 92.843 206.159V200.005C92.843 198.4 93.8178 196.538 95.0185 195.842L109.881 187.257C111.082 186.562 112.056 187.3 112.056 188.902V195.056C112.056 196.661 111.082 198.523 109.881 199.218Z" fill="#BEDAFF"/>
<path d="M161.055 91.7279L118.974 116.04C117.402 116.95 116.124 115.986 116.124 113.886V103.014C116.124 100.914 117.402 98.4768 118.974 97.567L161.055 73.2521C162.627 72.3423 163.905 73.3093 163.905 75.4063V86.2807C163.905 88.3777 162.627 90.8181 161.055 91.7279Z" fill="#C3E0FE"/>
<path d="M134.84 102.176L118.914 111.38C118.534 111.597 118.228 111.365 118.228 110.859V110.819C118.228 110.312 118.534 109.726 118.914 109.506L134.84 100.305C135.22 100.085 135.526 100.316 135.526 100.823V100.863C135.526 101.369 135.22 101.959 134.84 102.176Z" fill="url(#paint14_linear)"/>
<path d="M139.328 95.9792L118.914 107.775C118.534 107.992 118.228 107.76 118.228 107.254V107.214C118.228 106.708 118.534 106.121 118.914 105.904L139.328 94.1082C139.706 93.8879 140.014 94.1196 140.014 94.626V94.666C140.014 95.1724 139.706 95.7589 139.328 95.9792Z" fill="url(#paint15_linear)"/>
<path d="M139.328 92.3744L118.914 104.17C118.534 104.387 118.228 104.156 118.228 103.649V103.609C118.228 103.106 118.534 102.516 118.914 102.299L139.328 90.5034C139.706 90.2831 140.014 90.5177 140.014 91.0212V91.0613C140.014 91.5677 139.706 92.157 139.328 92.3744Z" fill="url(#paint16_linear)"/>
<path d="M170.002 94.2054L159.588 100.222V90.4776L170.002 84.4583V94.2054Z" fill="url(#paint17_linear)"/>
<path d="M170.002 84.4583L169.934 84.4983L159.688 78.4847V78.4074L149.274 84.4239V94.1682L159.588 100.222V90.4776L170.002 84.4583Z" fill="#BDCEFA"/>
<path d="M169.193 139.405L148.07 151.61C146.175 152.705 144.64 151.541 144.64 149.012V125.833C144.64 123.304 146.175 120.366 148.07 119.27L169.193 107.068C171.089 105.972 172.624 107.134 172.624 109.663V132.842C172.624 135.371 171.089 138.309 169.193 139.405Z" fill="#0382FF"/>
<path d="M144.64 149.012V125.833C144.64 123.304 146.175 120.366 148.07 119.27L169.193 107.068C170.014 106.593 170.766 106.542 171.357 106.845L162.801 102.001C162.204 101.667 161.429 101.701 160.58 102.193L139.46 114.395C137.565 115.491 136.027 118.429 136.027 120.958V144.137C136.027 145.57 136.521 146.563 137.296 146.958L145.849 151.801C145.112 151.387 144.64 150.411 144.64 149.012Z" fill="#3A55CA"/>
<path d="M160.54 128.614C162.398 126.668 163.707 123.81 163.707 121.353C163.707 118.111 161.435 116.801 158.633 118.42C155.829 120.04 153.556 123.979 153.556 127.218C153.556 129.675 154.868 131.02 156.724 130.819C152.396 134.313 149.108 140.524 148.902 145.879L168.361 134.636C168.156 129.515 164.868 127.109 160.54 128.614Z" fill="url(#paint18_linear)"/>
<path d="M193.601 165.208L163.865 181.807C162.55 182.568 160.226 182.47 158.705 181.592L141.384 171.582C139.863 170.704 139.694 169.362 141.012 168.601L170.746 152.002C172.063 151.241 174.385 151.338 175.906 152.216L193.229 162.227C194.75 163.105 194.916 164.447 193.601 165.208Z" fill="white"/>
<path d="M194.464 245.225V164.152C194.381 164.55 194.098 164.919 193.601 165.208L163.865 181.807C163.233 182.173 162.367 182.333 161.469 182.313V263.852C162.367 263.875 163.233 263.712 163.865 263.346L193.601 246.747C194.287 246.349 194.567 245.791 194.464 245.225Z" fill="url(#paint19_linear)"/>
<path d="M158.705 181.592L141.384 171.582C140.658 171.164 140.243 170.638 140.149 170.123V251.196C140.015 251.851 140.435 252.574 141.384 253.124L158.705 263.131C159.497 263.589 160.5 263.829 161.469 263.852V182.313C160.5 182.287 159.497 182.047 158.705 181.592Z" fill="url(#paint20_linear)"/>
<path d="M158.705 181.592L141.384 171.582C140.658 171.164 140.243 170.638 140.149 170.123V251.196C140.015 251.851 140.435 252.574 141.384 253.124L158.705 263.131C159.497 263.589 160.5 263.829 161.469 263.852V182.313C160.5 182.287 159.497 182.047 158.705 181.592Z" fill="#BDCEFA"/>
<path d="M210.907 188.424L181.174 205.509C179.859 206.27 177.535 206.173 176.014 205.295L166.126 199.39C164.605 198.512 164.436 197.17 165.754 196.409L195.376 179.406C196.691 178.645 199.012 178.743 200.533 179.621L210.539 185.443C212.06 186.321 212.225 187.663 210.907 188.424Z" fill="white"/>
<path d="M211.774 190.284V187.368C211.691 187.766 211.408 188.135 210.907 188.424L181.174 205.509C180.542 205.876 179.676 206.039 178.779 206.016V209.397C179.676 209.42 180.542 209.257 181.174 208.891L210.907 191.806C211.596 191.408 211.877 190.85 211.774 190.284Z" fill="url(#paint21_linear)"/>
<path d="M176.014 205.295L166.126 199.39C165.4 198.972 164.985 198.446 164.891 197.931V200.846C164.757 201.501 165.18 202.225 166.126 202.774L176.014 208.677C176.806 209.134 177.809 209.375 178.779 209.397V206.016C177.809 205.993 176.806 205.753 176.014 205.295Z" fill="url(#paint22_linear)"/>
<path d="M176.014 205.295L166.126 199.39C165.4 198.972 164.985 198.446 164.891 197.931V200.846C164.757 201.501 165.18 202.225 166.126 202.774L176.014 208.677C176.806 209.134 177.809 209.375 178.779 209.397V206.016C177.809 205.993 176.806 205.753 176.014 205.295Z" fill="#BDCEFA"/>
<path d="M223.617 206.147L193.884 223.233C192.569 223.994 190.245 223.897 188.724 223.018L178.836 217.116C177.315 216.235 177.146 214.893 178.464 214.132L208.083 197.13C209.401 196.369 211.722 196.466 213.243 197.344L223.248 203.166C224.769 204.045 224.935 205.386 223.617 206.147Z" fill="white"/>
<path d="M224.483 208.01V205.092C224.401 205.489 224.118 205.861 223.617 206.147L193.884 223.233C193.252 223.599 192.386 223.762 191.488 223.739V227.121C192.386 227.144 193.252 226.981 193.884 226.614L223.617 209.529C224.306 209.131 224.586 208.576 224.483 208.01Z" fill="url(#paint23_linear)"/>
<path d="M188.724 223.018L178.836 217.116C178.11 216.696 177.695 216.172 177.601 215.654V218.57C177.466 219.225 177.889 219.951 178.836 220.498L188.724 226.403C189.516 226.858 190.519 227.098 191.488 227.121V223.739C190.519 223.716 189.516 223.476 188.724 223.018Z" fill="url(#paint24_linear)"/>
<path d="M188.724 223.018L178.836 217.116C178.11 216.696 177.695 216.172 177.601 215.654V218.57C177.466 219.225 177.889 219.951 178.836 220.498L188.724 226.403C189.516 226.858 190.519 227.098 191.488 227.121V223.739C190.519 223.716 189.516 223.476 188.724 223.018Z" fill="#BDCEFA"/>
<path d="M236.327 223.871L206.594 240.956C205.279 241.717 202.955 241.623 201.434 240.745L191.545 234.84C190.025 233.961 189.856 232.62 191.174 231.859L220.793 214.856C222.111 214.095 224.432 214.189 225.953 215.068L235.958 220.89C237.479 221.768 237.645 223.11 236.327 223.871Z" fill="white"/>
<path d="M237.193 225.733V222.818C237.193 222.818 237.193 222.818 237.193 222.815C237.11 223.213 236.825 223.585 236.327 223.871L206.594 240.956C205.962 241.322 205.096 241.486 204.198 241.463V244.847C205.096 244.867 205.962 244.704 206.594 244.341L236.327 227.255C237.016 226.855 237.296 226.3 237.193 225.733Z" fill="url(#paint25_linear)"/>
<path d="M201.434 240.745L191.545 234.84C190.819 234.419 190.405 233.895 190.311 233.378V236.296C190.176 236.948 190.596 237.675 191.545 238.221L201.434 244.126C202.226 244.581 203.229 244.821 204.198 244.847V241.463C203.229 241.44 202.226 241.199 201.434 240.745Z" fill="url(#paint26_linear)"/>
<path d="M201.434 240.745L191.545 234.84C190.819 234.419 190.405 233.895 190.311 233.378V236.296C190.176 236.948 190.596 237.675 191.545 238.221L201.434 244.126C202.226 244.581 203.229 244.821 204.198 244.847V241.463C203.229 241.44 202.226 241.199 201.434 240.745Z" fill="#BDCEFA"/>
<path d="M249.037 241.594L219.303 258.682C217.988 259.443 215.664 259.346 214.144 258.468L204.252 252.563C202.734 251.685 202.566 250.343 203.884 249.582L233.503 232.579C234.821 231.818 237.142 231.913 238.663 232.794L248.668 238.613C250.189 239.494 250.355 240.833 249.037 241.594Z" fill="white"/>
<path d="M249.9 243.457V240.541C249.903 240.541 249.903 240.541 249.903 240.541C249.82 240.936 249.534 241.308 249.037 241.594L219.304 258.683C218.672 259.046 217.806 259.209 216.908 259.189V262.571C217.806 262.593 218.672 262.43 219.304 262.064L249.037 244.979C249.726 244.581 250.006 244.023 249.9 243.457Z" fill="url(#paint27_linear)"/>
<path d="M214.144 258.468L204.252 252.563C203.529 252.142 203.115 251.619 203.02 251.104V254.019C202.886 254.672 203.306 255.398 204.252 255.945L214.144 261.85C214.935 262.307 215.939 262.545 216.908 262.571V259.189C215.939 259.163 214.935 258.923 214.144 258.468Z" fill="url(#paint28_linear)"/>
<path d="M214.144 258.468L204.252 252.563C203.529 252.142 203.115 251.619 203.02 251.104V254.019C202.886 254.672 203.306 255.398 204.252 255.945L214.144 261.85C214.935 262.307 215.939 262.545 216.908 262.571V259.189C215.939 259.163 214.935 258.923 214.144 258.468Z" fill="#BDCEFA"/>
<path d="M261.747 259.32L232.013 276.406C230.695 277.167 228.374 277.07 226.853 276.191L216.962 270.286C215.441 269.408 215.276 268.066 216.593 267.305L246.212 250.303C247.53 249.542 249.852 249.639 251.372 250.517L261.378 256.339C262.899 257.218 263.065 258.559 261.747 259.32Z" fill="white"/>
<path d="M262.61 261.18V258.265C262.53 258.662 262.244 259.032 261.747 259.32L232.013 276.406C231.381 276.772 230.515 276.932 229.618 276.912V280.294C230.515 280.317 231.381 280.154 232.013 279.788L261.747 262.702C262.436 262.304 262.716 261.747 262.61 261.18Z" fill="url(#paint29_linear)"/>
<path d="M226.853 276.191L216.962 270.286C216.239 269.869 215.824 269.342 215.73 268.827V271.743C215.596 272.395 216.016 273.122 216.962 273.668L226.853 279.573C227.645 280.031 228.649 280.271 229.618 280.294V276.912C228.649 276.887 227.645 276.646 226.853 276.191Z" fill="url(#paint30_linear)"/>
<path d="M226.853 276.191L216.962 270.286C216.239 269.869 215.824 269.342 215.73 268.827V271.743C215.596 272.395 216.016 273.122 216.962 273.668L226.853 279.573C227.645 280.031 228.649 280.271 229.618 280.294V276.912C228.649 276.887 227.645 276.646 226.853 276.191Z" fill="#BDCEFA"/>
<path d="M161.018 170.423C160.976 171.138 162.053 172.14 163.694 173.09C165.875 174.348 166.647 175.945 169.346 174.388C170.118 173.942 170.441 173.587 170.458 173.278V171.602C170.535 170.821 168.666 170.334 167.096 169.428C164.915 168.169 162.565 167.482 161.444 168.129C161.161 168.292 161.027 168.503 161.018 168.747V170.423Z" fill="black"/>
<path d="M163.693 171.393C161.512 170.134 160.326 168.775 161.443 168.129C162.564 167.482 164.914 168.169 167.095 169.428C169.276 170.689 172.04 171.136 169.345 172.695C166.646 174.251 165.874 172.655 163.693 171.393Z" fill="#2D0D60"/>
<path d="M167.081 166.243C167.041 166.959 168.116 167.96 169.757 168.907C171.938 170.169 172.713 171.765 175.409 170.209C176.18 169.762 176.503 169.408 176.521 169.099V167.419C176.598 166.641 174.728 166.155 173.159 165.248C170.978 163.986 168.628 163.302 167.507 163.949C167.224 164.112 167.09 164.324 167.081 164.567V166.243Z" fill="black"/>
<path d="M169.756 167.213C167.575 165.954 166.389 164.595 167.507 163.949C168.627 163.302 170.977 163.986 173.158 165.248C175.339 166.509 178.104 166.956 175.408 168.512C172.712 170.071 171.938 168.475 169.756 167.213Z" fill="#2D0D60"/>
<path d="M164.682 116.123C165.517 115.597 166.626 115.851 167.152 116.687L174.593 128.534C175.119 129.366 174.865 130.479 174.03 131.003C173.198 131.529 172.086 131.274 171.563 130.439L164.119 118.592C163.596 117.759 163.848 116.646 164.682 116.123Z" fill="#FCC4B7"/>
<path d="M169.562 129.094L171.963 132.917C172.772 134.207 174.49 134.599 175.78 133.786C177.069 132.977 177.461 131.257 176.652 129.967L174.25 126.145C172.243 125.389 170.68 126.371 169.562 129.094Z" fill="#0382FF"/>
<path d="M170.38 170.835C170.468 170.669 170.505 170.48 170.505 170.292V151.57C170.505 150.385 169.285 149.418 167.795 149.418C166.303 149.418 165.085 150.385 165.085 151.57V171.928C165.085 172.228 165.28 172.494 165.566 172.583C166.606 172.898 169.07 173.347 170.38 170.835Z" fill="#293677"/>
<path d="M176.46 166.446C176.543 166.278 176.577 166.089 176.574 165.9L176.163 147.184C176.137 146 174.896 145.058 173.407 145.09C171.915 145.124 170.717 146.117 170.743 147.301L171.189 167.657C171.194 167.957 171.394 168.217 171.683 168.3C172.732 168.592 175.205 168.987 176.46 166.446Z" fill="#3A55CA"/>
<path d="M165.977 154.937C166.043 154.977 166.12 155.006 166.206 155.011C167.407 155.106 171.715 154.165 176.026 149.304C176.38 148.903 176.609 148.36 176.609 147.905V134.107C176.609 133.068 176.237 132.339 175.642 132.001L172.401 130.11C171.809 129.758 170.991 129.801 170.091 130.322L165.668 132.877C163.885 133.906 162.424 136.438 162.424 138.501V152.379C162.424 152.703 162.538 152.94 162.735 153.043L165.977 154.937Z" fill="#BEDAFF"/>
<path d="M167.232 133.732C167.226 134.075 167.447 134.419 167.901 134.682C168.793 135.197 170.24 135.197 171.134 134.682C171.586 134.419 171.809 134.075 171.8 133.732V130.725C171.809 130.382 171.586 130.038 171.131 129.778C170.24 129.26 168.793 129.26 167.901 129.778C167.447 130.038 167.226 130.382 167.232 130.725V133.732Z" fill="#DD936F"/>
<path d="M175.811 125.93C175.811 129.409 172.992 132.23 169.516 132.23C166.04 132.23 163.224 129.409 163.224 125.93C163.224 122.451 166.04 119.63 169.516 119.63C172.992 119.63 175.811 122.451 175.811 125.93Z" fill="#FCC4B7"/>
<path d="M150.966 124.923C151.609 124.176 152.744 124.091 153.49 124.734L163.602 133.904C164.348 134.547 164.434 135.683 163.79 136.43C163.147 137.176 162.012 137.262 161.266 136.619L151.155 127.449C150.409 126.808 150.323 125.67 150.966 124.923Z" fill="#FCC4B7"/>
<path d="M158.956 135.923L162.375 138.87C163.53 139.863 165.288 139.731 166.28 138.575C167.275 137.422 167.144 135.663 165.989 134.667L162.57 131.724C160.428 131.592 159.225 132.991 158.956 135.923Z" fill="#0382FF"/>
<path d="M173.064 131.672C171.08 132.831 169.562 131.95 169.022 131.111C167.664 129.006 167.441 130.41 166.629 129.42C165.568 127.675 165.809 125.298 164.336 124.199C162.227 122.623 162.804 119.485 168.31 118.08C175.708 116.192 178.621 125.521 174.004 130.911C173.673 131.297 173.504 131.417 173.064 131.672Z" fill="#B25E02"/>
<path d="M167.318 129.681C166.786 130.213 166.2 130.056 166.006 129.329C165.811 128.602 166.083 127.584 166.615 127.055C167.146 126.522 167.732 126.68 167.927 127.406C168.121 128.13 167.85 129.149 167.318 129.681Z" fill="#FCC4B7"/>
<path d="M172.115 285.598L138.114 305.247C136.736 306.042 134.309 305.939 132.72 305.021L97.103 284.442C95.5136 283.524 95.3392 282.122 96.7142 281.327L130.718 261.678C132.094 260.883 134.521 260.986 136.11 261.904L171.729 282.482C173.319 283.401 173.493 284.803 172.115 285.598Z" fill="#FEFEFE"/>
<path d="M172.115 285.598L138.113 305.247C136.736 306.042 134.308 305.939 132.719 305.021L97.1025 284.442C96.2163 283.93 95.7703 283.266 95.7875 282.643V283.99C95.7589 284.62 96.2048 285.292 97.1025 285.81L132.719 306.391C134.308 307.31 136.736 307.41 138.113 306.614L172.115 286.968C172.724 286.617 173.03 286.144 173.044 285.65V284.302C173.021 284.791 172.715 285.252 172.115 285.598Z" fill="#BDCEFA"/>
<path d="M125.787 281.015L112.076 288.94C111.608 289.211 110.784 289.177 110.241 288.862L101.216 283.647C100.673 283.335 100.613 282.86 101.085 282.588L114.795 274.664C115.267 274.392 116.09 274.426 116.633 274.741L125.655 279.956C126.198 280.268 126.258 280.743 125.787 281.015Z" fill="url(#paint31_linear)"/>
<path d="M149.082 273.657L117.296 292.024C116.859 292.275 116.093 292.244 115.587 291.952C115.081 291.66 115.027 291.217 115.464 290.965L147.25 272.598C147.69 272.346 148.453 272.378 148.959 272.67C149.465 272.961 149.52 273.402 149.082 273.657Z" fill="url(#paint32_linear)"/>
<path d="M152.573 275.673L120.787 294.038C120.347 294.292 119.583 294.261 119.077 293.969C118.571 293.674 118.517 293.234 118.954 292.979L150.74 274.615C151.178 274.36 151.944 274.392 152.45 274.686C152.956 274.978 153.01 275.419 152.573 275.673Z" fill="url(#paint33_linear)"/>
<path d="M156.06 277.688L124.274 296.055C123.837 296.306 123.074 296.275 122.568 295.983C122.062 295.691 122.005 295.251 122.445 294.996L154.231 276.632C154.668 276.377 155.434 276.409 155.937 276.701C156.443 276.992 156.501 277.436 156.06 277.688Z" fill="url(#paint34_linear)"/>
<path d="M141.595 290.081L127.765 298.072C127.328 298.323 126.561 298.292 126.055 298C125.549 297.708 125.495 297.265 125.933 297.013L139.763 289.023C140.2 288.768 140.966 288.802 141.472 289.094C141.978 289.386 142.033 289.826 141.595 290.081Z" fill="url(#paint35_linear)"/>
<path d="M143.745 270.641L130.035 278.563C129.563 278.835 128.74 278.8 128.197 278.486L119.175 273.273C118.631 272.959 118.571 272.484 119.043 272.212L132.753 264.29C133.222 264.018 134.045 264.052 134.589 264.364L143.614 269.58C144.157 269.894 144.217 270.369 143.745 270.641Z" fill="url(#paint36_linear)"/>
<path d="M167.875 284.582L136.207 302.881C135.738 303.153 134.915 303.118 134.371 302.804L130.055 300.309C129.512 299.997 129.452 299.522 129.923 299.25L161.589 280.952C162.061 280.68 162.881 280.714 163.427 281.026L167.744 283.521C168.287 283.836 168.347 284.311 167.875 284.582Z" fill="url(#paint37_linear)"/>
<path d="M172.115 288.038L138.113 307.684C136.736 308.48 134.308 308.38 132.719 307.461L97.1025 286.883C96.2163 286.37 95.7703 285.707 95.7875 285.083V286.431C95.7589 287.06 96.2048 287.732 97.1025 288.25L132.719 308.829C134.308 309.747 136.736 309.85 138.113 309.055L172.115 289.406C172.724 289.054 173.03 288.585 173.044 288.09V286.742C173.021 287.229 172.715 287.692 172.115 288.038Z" fill="#BDCEFA"/>
<path d="M172.117 286.968L138.115 306.614C136.737 307.41 134.31 307.31 132.721 306.391L97.1042 285.81C96.4896 285.455 96.1037 285.029 95.9207 284.591C95.5777 285.341 95.9779 286.23 97.1042 286.883L132.721 307.461C134.31 308.38 136.737 308.48 138.115 307.684L172.117 288.038C172.969 287.546 173.223 286.825 172.923 286.13C172.783 286.442 172.525 286.734 172.117 286.968Z" fill="url(#paint38_linear)"/>
<path d="M172.115 290.476L138.113 310.122C136.736 310.917 134.308 310.817 132.719 309.899L97.1025 289.317C96.2163 288.805 95.7703 288.144 95.7875 287.521V288.865C95.7589 289.497 96.2048 290.17 97.1025 290.688L132.719 311.266C134.308 312.185 136.736 312.285 138.113 311.489L172.115 291.843C172.724 291.491 173.03 291.022 173.044 290.527V289.18C173.021 289.666 172.715 290.13 172.115 290.476Z" fill="#BDCEFA"/>
<path d="M172.117 289.403L138.115 309.052C136.737 309.847 134.31 309.747 132.721 308.829L97.1042 288.247C96.4896 287.892 96.1037 287.463 95.9207 287.028C95.5777 287.778 95.9779 288.668 97.1042 289.317L132.721 309.899C134.31 310.817 136.737 310.917 138.115 310.122L172.117 290.476C172.969 289.984 173.223 289.263 172.923 288.565C172.783 288.879 172.525 289.168 172.117 289.403Z" fill="url(#paint39_linear)"/>
<path d="M172.115 292.913L138.113 312.559C136.736 313.355 134.308 313.255 132.719 312.336L97.1025 291.755C96.2163 291.243 95.7703 290.579 95.7875 289.955V291.303C95.7589 291.932 96.2048 292.604 97.1025 293.122L132.719 313.704C134.308 314.622 136.736 314.722 138.113 313.927L172.115 294.281C172.724 293.929 173.03 293.457 173.044 292.962V291.617C173.021 292.104 172.715 292.564 172.115 292.913Z" fill="#BDCEFA"/>
<path d="M172.117 291.84L138.115 311.489C136.737 312.285 134.31 312.182 132.721 311.263L97.1042 290.685C96.4896 290.33 96.1037 289.901 95.9207 289.466C95.5777 290.213 95.9779 291.105 97.1042 291.755L132.721 312.336C134.31 313.255 136.737 313.355 138.115 312.559L172.117 292.91C172.969 292.421 173.223 291.7 172.923 291.002C172.783 291.314 172.525 291.606 172.117 291.84Z" fill="url(#paint40_linear)"/>
<path d="M172.115 295.348L138.113 314.997C136.736 315.792 134.308 315.689 132.719 314.771L97.1025 294.192C96.2163 293.68 95.7703 293.016 95.7875 292.393V293.74C95.7589 294.37 96.2048 295.042 97.1025 295.56L132.719 316.141C134.308 317.06 136.736 317.16 138.113 316.364L172.115 296.718C172.724 296.367 173.03 295.894 173.044 295.4V294.052C173.021 294.541 172.715 295.002 172.115 295.348Z" fill="#BDCEFA"/>
<path d="M172.117 294.278L138.115 313.924C136.737 314.719 134.31 314.619 132.721 313.701L97.1042 293.122C96.4896 292.767 96.1037 292.338 95.9207 291.901C95.5777 292.65 95.9779 293.54 97.1042 294.192L132.721 314.771C134.31 315.689 136.737 315.792 138.115 314.997L172.117 295.348C172.969 294.859 173.223 294.135 172.923 293.44C172.783 293.752 172.525 294.043 172.117 294.278Z" fill="url(#paint41_linear)"/>
<path d="M172.115 297.786L138.113 317.432C136.736 318.227 134.308 318.127 132.719 317.208L97.1025 296.63C96.2163 296.118 95.7703 295.454 95.7875 294.83V296.178C95.7589 296.807 96.2048 297.479 97.1025 297.997L132.719 318.576C134.308 319.497 136.736 319.597 138.113 318.802L172.115 299.153C172.724 298.801 173.03 298.332 173.044 297.837V296.49C173.021 296.976 172.715 297.439 172.115 297.786Z" fill="#BDCEFA"/>
<path d="M172.117 296.716L138.115 316.362C136.737 317.157 134.31 317.057 132.721 316.138L97.1042 295.557C96.4896 295.202 96.1037 294.776 95.9207 294.338C95.5777 295.088 95.9779 295.977 97.1042 296.63L132.721 317.208C134.31 318.127 136.737 318.227 138.115 317.432L172.117 297.786C172.969 297.293 173.223 296.573 172.923 295.877C172.783 296.189 172.525 296.481 172.117 296.716Z" fill="url(#paint42_linear)"/>
<path d="M172.115 300.223L138.113 319.869C136.736 320.664 134.308 320.564 132.719 319.646L97.1025 299.064C96.2163 298.552 95.7703 297.891 95.7875 297.268V298.612C95.7589 299.245 96.2048 299.917 97.1025 300.435L132.719 321.013C134.308 321.932 136.736 322.032 138.113 321.236L172.115 301.591C172.724 301.239 173.03 300.769 173.044 300.274V298.927C173.021 299.413 172.715 299.877 172.115 300.223Z" fill="#BDCEFA"/>
<path d="M172.117 299.153L138.115 318.799C136.737 319.594 134.31 319.494 132.721 318.576L97.1042 297.994C96.4896 297.64 96.1037 297.213 95.9207 296.776C95.5777 297.525 95.9779 298.415 97.1042 299.064L132.721 319.646C134.31 320.564 136.737 320.664 138.115 319.869L172.117 300.223C172.969 299.731 173.223 299.01 172.923 298.312C172.783 298.627 172.525 298.916 172.117 299.153Z" fill="url(#paint43_linear)"/>
<path d="M254.137 223.982L288.141 243.628C289.516 244.427 291.943 244.324 293.533 243.405L329.152 222.827C330.741 221.908 330.916 220.506 329.538 219.711L295.537 200.062C294.159 199.267 291.732 199.367 290.142 200.288L254.526 220.867C252.933 221.785 252.759 223.187 254.137 223.982Z" fill="white"/>
<path d="M254.137 223.982L288.141 243.628C289.516 244.427 291.943 244.324 293.533 243.405L329.152 222.827C330.038 222.315 330.481 221.651 330.464 221.027V222.375C330.493 223.004 330.047 223.676 329.152 224.194L293.533 244.776C291.943 245.694 289.516 245.794 288.141 244.999L254.137 225.353C253.528 225.001 253.225 224.529 253.211 224.034V222.686C253.233 223.176 253.536 223.636 254.137 223.982Z" fill="#BDCEFA"/>
<path d="M277.169 212.041L308.955 230.405C309.396 230.66 310.159 230.628 310.665 230.337C311.171 230.042 311.225 229.601 310.788 229.347L279.002 210.982C278.564 210.728 277.798 210.762 277.292 211.054C276.786 211.346 276.732 211.786 277.169 212.041Z" fill="url(#paint44_linear)"/>
<path d="M273.682 214.058L305.468 232.422C305.905 232.677 306.671 232.645 307.174 232.351C307.68 232.059 307.737 231.618 307.297 231.364L275.511 212.999C275.074 212.745 274.311 212.776 273.805 213.068C273.299 213.363 273.241 213.803 273.682 214.058Z" fill="url(#paint45_linear)"/>
<path d="M270.191 216.072L301.977 234.439C302.415 234.691 303.181 234.659 303.687 234.368C304.193 234.076 304.247 233.632 303.81 233.381L272.024 215.013C271.583 214.762 270.82 214.793 270.314 215.085C269.808 215.377 269.754 215.82 270.191 216.072Z" fill="url(#paint46_linear)"/>
<path d="M284.659 228.465L298.487 236.456C298.927 236.708 299.69 236.676 300.196 236.385C300.702 236.093 300.756 235.649 300.319 235.397L286.489 227.407C286.051 227.152 285.288 227.184 284.782 227.478C284.276 227.77 284.222 228.211 284.659 228.465Z" fill="url(#paint47_linear)"/>
<path d="M282.509 209.026L314.175 227.347C314.647 227.622 315.467 227.587 316.013 227.272L325.035 222.057C325.579 221.745 325.639 221.27 325.167 220.998L293.501 202.674C293.029 202.403 292.206 202.437 291.663 202.749L282.641 207.964C282.098 208.279 282.038 208.754 282.509 209.026Z" fill="url(#paint48_linear)"/>
<path d="M258.376 222.967L290.045 241.265C290.517 241.537 291.337 241.503 291.883 241.188L296.2 238.693C296.743 238.379 296.803 237.904 296.331 237.632L264.663 219.336C264.194 219.065 263.37 219.099 262.827 219.411L258.511 221.905C257.965 222.22 257.907 222.695 258.376 222.967Z" fill="url(#paint49_linear)"/>
<path d="M254.137 226.423L288.141 246.069C289.516 246.864 291.943 246.764 293.533 245.846L329.152 225.264C330.038 224.752 330.481 224.091 330.464 223.467V224.812C330.493 225.444 330.047 226.117 329.152 226.634L293.533 247.213C291.943 248.131 289.516 248.232 288.141 247.436L254.137 227.79C253.528 227.438 253.225 226.969 253.211 226.474V225.127C253.233 225.613 253.536 226.077 254.137 226.423Z" fill="#BDCEFA"/>
<path d="M254.138 225.353L288.142 244.999C289.517 245.794 291.945 245.694 293.534 244.776L329.153 224.194C329.765 223.839 330.151 223.413 330.337 222.975C330.677 223.725 330.28 224.615 329.153 225.264L293.534 245.846C291.945 246.764 289.517 246.864 288.142 246.069L254.138 226.423C253.289 225.931 253.035 225.21 253.335 224.512C253.472 224.826 253.732 225.115 254.138 225.353Z" fill="url(#paint50_linear)"/>
<path d="M254.137 228.86L288.141 248.506C289.516 249.302 291.943 249.201 293.533 248.283L329.152 227.702C330.038 227.19 330.481 226.529 330.464 225.902V227.25C330.493 227.882 330.047 228.551 329.152 229.072L293.533 249.651C291.943 250.569 289.516 250.669 288.141 249.874L254.137 230.228C253.528 229.876 253.225 229.404 253.211 228.909V227.564C253.233 228.051 253.536 228.511 254.137 228.86Z" fill="#BDCEFA"/>
<path d="M254.138 227.787L288.142 247.436C289.517 248.232 291.945 248.129 293.534 247.21L329.153 226.632C329.765 226.277 330.151 225.848 330.337 225.413C330.677 226.16 330.28 227.052 329.153 227.702L293.534 248.283C291.945 249.201 289.517 249.302 288.142 248.506L254.138 228.86C253.289 228.368 253.035 227.647 253.335 226.949C253.472 227.264 253.732 227.553 254.138 227.787Z" fill="url(#paint51_linear)"/>
<path d="M254.137 231.295L288.141 250.944C289.516 251.739 291.943 251.636 293.533 250.718L329.152 230.139C330.038 229.627 330.481 228.963 330.464 228.34V229.687C330.493 230.317 330.047 230.989 329.152 231.507L293.533 252.088C291.943 253.006 289.516 253.107 288.141 252.311L254.137 232.665C253.528 232.313 253.225 231.841 253.211 231.346V229.999C253.233 230.488 253.536 230.949 254.137 231.295Z" fill="#BDCEFA"/>
<path d="M254.138 230.225L288.142 249.871C289.517 250.666 291.945 250.566 293.534 249.648L329.153 229.069C329.765 228.714 330.151 228.285 330.337 227.85C330.677 228.597 330.28 229.49 329.153 230.139L293.534 250.718C291.945 251.636 289.517 251.739 288.142 250.944L254.138 231.295C253.289 230.806 253.035 230.082 253.335 229.387C253.472 229.699 253.732 229.99 254.138 230.225Z" fill="url(#paint52_linear)"/>
<path d="M207.743 329.058C214.635 333.041 214.635 339.498 207.743 343.48C200.851 347.462 189.676 347.462 182.784 343.48C175.891 339.498 175.891 333.041 182.784 329.058C189.676 325.076 200.851 325.076 207.743 329.058Z" fill="white"/>
<path d="M207.743 343.48C200.851 347.462 189.676 347.462 182.784 343.48C179.365 341.503 177.644 338.92 177.618 336.331V342.622C177.592 345.254 179.31 347.889 182.784 349.894C189.676 353.877 200.851 353.877 207.743 349.894C211.216 347.889 212.937 345.254 212.911 342.622V336.331C212.883 338.92 211.162 341.503 207.743 343.48Z" fill="url(#paint53_linear)"/>
<path d="M184.427 333.458C190.413 329.999 200.116 329.999 206.099 333.458C208.329 334.746 209.727 336.331 210.296 337.993C211.253 335.192 209.855 332.177 206.099 330.008C200.116 326.549 190.413 326.549 184.427 330.008C180.674 332.177 179.276 335.192 180.234 337.993C180.802 336.331 182.2 334.746 184.427 333.458Z" fill="url(#paint54_linear)"/>
<path d="M206.099 333.458C200.116 330 190.413 330 184.427 333.458C182.2 334.746 180.805 336.331 180.234 337.99C180.802 339.652 182.2 341.24 184.43 342.527C190.413 345.986 200.116 345.986 206.099 342.527C208.329 341.24 209.724 339.652 210.293 337.99C209.724 336.331 208.326 334.746 206.099 333.458Z" fill="#00E9FF"/>
<path d="M193.958 270.078H191.951V268.066C191.951 267.697 191.651 267.4 191.282 267.4C190.914 267.4 190.614 267.697 190.614 268.066V270.078H188.607C188.235 270.078 187.938 270.375 187.938 270.744C187.938 271.113 188.235 271.414 188.607 271.414H190.614V273.425C190.614 273.794 190.914 274.091 191.282 274.091C191.651 274.091 191.951 273.794 191.951 273.425V271.414H193.958C194.327 271.414 194.627 271.113 194.627 270.744C194.627 270.375 194.327 270.078 193.958 270.078Z" fill="#00E9FF"/>
<path d="M204.933 286.622H202.923V284.611C202.923 284.242 202.626 283.942 202.257 283.942C201.888 283.942 201.588 284.242 201.588 284.611V286.622H199.578C199.21 286.622 198.912 286.92 198.912 287.289C198.912 287.658 199.21 287.958 199.578 287.958H201.588V289.969C201.588 290.339 201.888 290.636 202.257 290.636C202.626 290.636 202.923 290.339 202.923 289.969V287.958H204.933C205.302 287.958 205.602 287.658 205.602 287.289C205.602 286.92 205.302 286.622 204.933 286.622Z" fill="#00E9FF"/>
<path d="M192.037 307.867H190.03V305.859C190.03 305.49 189.73 305.19 189.361 305.19C188.993 305.19 188.692 305.49 188.692 305.859V307.867H186.686C186.314 307.867 186.017 308.168 186.017 308.537C186.017 308.906 186.314 309.206 186.686 309.206H188.692V311.217C188.692 311.587 188.993 311.884 189.361 311.884C189.73 311.884 190.03 311.587 190.03 311.217V309.206H192.037C192.406 309.206 192.706 308.906 192.706 308.537C192.706 308.168 192.406 307.867 192.037 307.867Z" fill="#00E9FF"/>
<path d="M201.125 323.665H199.115V321.657C199.115 321.285 198.818 320.988 198.449 320.988C198.08 320.988 197.78 321.285 197.78 321.657V323.665H195.771C195.402 323.665 195.105 323.966 195.105 324.335C195.105 324.704 195.402 325.001 195.771 325.001H197.78V327.013C197.78 327.382 198.08 327.682 198.449 327.682C198.818 327.682 199.115 327.382 199.115 327.013V325.001H201.125C201.494 325.001 201.791 324.704 201.791 324.335C201.791 323.966 201.494 323.665 201.125 323.665Z" fill="#00E9FF"/>
<path d="M199.873 277.45C199.873 278.237 199.235 278.875 198.449 278.875C197.663 278.875 197.026 278.237 197.026 277.45C197.026 276.663 197.663 276.025 198.449 276.025C199.235 276.025 199.873 276.663 199.873 277.45Z" fill="#0382FF"/>
<path d="M205.104 300.492C205.104 301.279 204.467 301.917 203.681 301.917C202.895 301.917 202.257 301.279 202.257 300.492C202.257 299.705 202.895 299.067 203.681 299.067C204.467 299.067 205.104 299.705 205.104 300.492Z" fill="#0382FF"/>
<path d="M194.421 316.216C194.421 317.002 193.784 317.64 192.998 317.64C192.212 317.64 191.574 317.002 191.574 316.216C191.574 315.429 192.212 314.791 192.998 314.791C193.784 314.791 194.421 315.429 194.421 316.216Z" fill="#0382FF"/>
<path d="M199.227 305.19C199.227 305.976 198.589 306.614 197.803 306.614C197.017 306.614 196.38 305.976 196.38 305.19C196.38 304.403 197.017 303.765 197.803 303.765C198.589 303.765 199.227 304.403 199.227 305.19Z" fill="#0382FF"/>
<path d="M188.304 300.492C188.304 301.279 187.666 301.917 186.88 301.917C186.094 301.917 185.456 301.279 185.456 300.492C185.456 299.705 186.094 299.067 186.88 299.067C187.666 299.067 188.304 299.705 188.304 300.492Z" fill="#0382FF"/>
<path d="M193.738 287.615C193.738 288.402 193.101 289.04 192.314 289.04C191.528 289.04 190.891 288.402 190.891 287.615C190.891 286.828 191.528 286.19 192.314 286.19C193.101 286.19 193.738 286.828 193.738 287.615Z" fill="#0382FF"/>
<path d="M203.681 266.956C203.681 267.743 203.043 268.381 202.257 268.381C201.471 268.381 200.833 267.743 200.833 266.956C200.833 266.169 201.471 265.531 202.257 265.531C203.043 265.531 203.681 266.169 203.681 266.956Z" fill="#0382FF"/>
<path d="M189.361 262.639C189.361 263.426 188.724 264.064 187.938 264.064C187.152 264.064 186.514 263.426 186.514 262.639C186.514 261.852 187.152 261.214 187.938 261.214C188.724 261.214 189.361 261.852 189.361 262.639Z" fill="#0382FF"/>
<path d="M190.542 282.259L186.963 285.841L183.387 282.259L186.963 278.677L190.542 282.259Z" fill="#3A55CA"/>
<path d="M201.382 258.002L197.803 261.583L194.224 258.002L197.803 254.423L201.382 258.002Z" fill="#3A55CA"/>
<path d="M207.257 311.452L203.681 315.034L200.102 311.452L203.681 307.87L207.257 311.452Z" fill="#3A55CA"/>
<path d="M197.317 295.872L193.738 299.453L190.162 295.872L193.738 292.293L197.317 295.872Z" fill="#3A55CA"/>
<path d="M179.971 335.902C179.805 338.285 181.277 340.702 184.43 342.522C190.413 345.981 200.116 345.981 206.099 342.522C209.249 340.702 210.724 338.285 210.556 335.902V227.621C210.724 225.238 209.249 222.821 206.099 221.001C200.116 217.542 190.413 217.542 184.43 221.001C181.277 222.821 179.805 225.238 179.971 227.621V335.902Z" fill="url(#paint55_linear)"/>
<path d="M71.8001 165.376L9.17735 201.561C4.27467 204.394 0.263908 211.346 0.263908 217.01V224.535C0.263908 230.199 4.27467 232.516 9.17735 229.684L55.7828 202.754L52.9498 217.482L69.0787 195.073L71.8001 193.499C76.7028 190.667 80.7136 183.715 80.7136 178.05V170.526C80.7136 164.862 76.7028 162.544 71.8001 165.376Z" fill="url(#paint56_linear)"/>
<path d="M70.9453 177.656L10.0321 212.851C9.40032 213.217 8.8829 212.825 8.8829 211.981C8.8829 211.137 9.40032 210.15 10.0321 209.784L70.9453 174.589C71.5771 174.222 72.0945 174.614 72.0945 175.458C72.0945 176.302 71.5771 177.292 70.9453 177.656Z" fill="url(#paint57_linear)"/>
<path d="M39.714 203.621L9.88058 220.861C9.33171 221.179 8.8829 220.838 8.8829 220.106V219.702C8.8829 218.97 9.33171 218.109 9.88058 217.791L39.714 200.554C40.2658 200.237 40.7146 200.577 40.7146 201.31V201.713C40.7146 202.445 40.2658 203.304 39.714 203.621Z" fill="url(#paint58_linear)"/>
<path d="M107.408 205.046C107.385 205.275 107.568 205.469 107.871 205.664C107.96 205.718 107.86 204.434 108.16 204.648C108.246 204.708 112.374 207.927 114.681 207.332C114.935 207.266 115.015 207.032 115.024 206.837V206.316C115.055 205.733 114.186 204.84 112.865 203.553C111.41 202.134 110.481 201.247 108.306 202.503C107.685 202.863 107.437 203.132 107.434 203.361L107.408 205.046Z" fill="black"/>
<path d="M112.867 203.553C114.625 205.266 115.583 206.279 114.682 206.803C113.779 207.323 111.975 206.537 110.123 205.138C108.502 203.913 106.132 203.761 108.307 202.503C110.483 201.247 111.412 202.134 112.867 203.553Z" fill="#484968"/>
<path d="M111.113 202.577L110.999 189.056C110.993 188.404 110.59 187.823 109.984 187.589L108.926 187.18L104.481 190.138L106.651 191.242C106.382 193.742 106.602 196.157 107.314 198.483C107.811 199.499 108.008 201.189 107.911 203.555C109.492 204.048 110.558 203.721 111.113 202.577Z" fill="#F1AC85"/>
<path d="M100.922 208.282C100.899 208.508 101.082 208.705 101.385 208.9C101.471 208.954 101.373 207.667 101.671 207.881C101.759 207.944 105.887 211.163 108.191 210.568C108.446 210.502 108.529 210.267 108.534 210.073V209.552C108.569 208.968 107.697 208.076 106.376 206.788C104.921 205.366 103.995 204.482 101.819 205.738C101.196 206.099 100.947 206.368 100.945 206.597L100.922 208.282Z" fill="black"/>
<path d="M106.378 206.788C108.136 208.502 109.097 209.515 108.194 210.035C107.29 210.559 105.486 209.772 103.634 208.373C102.013 207.146 99.6461 206.994 101.822 205.738C103.997 204.482 104.923 205.366 106.378 206.788Z" fill="#484968"/>
<path d="M104.609 205.967L104.481 190.138L99.2522 191.834L100.147 194.412C99.8783 196.712 100.098 199.024 100.807 201.353C101.305 202.368 101.505 204.056 101.408 206.422C102.688 207.152 103.755 207 104.609 205.967Z" fill="#F1AC85"/>
<path d="M99.9297 174.022C103.815 170.489 104.572 165.577 102.202 159.291L99.4724 169.079L99.9297 174.022Z" fill="#943BBB"/>
<path d="M106.828 186.942C105.924 187.208 104.967 186.688 104.701 185.781L100.03 169.854C99.7639 168.947 100.284 167.989 101.188 167.722C102.094 167.456 103.051 167.977 103.317 168.881L107.988 184.811C108.254 185.715 107.734 186.673 106.828 186.942Z" fill="#F1AC85"/>
<path d="M102.068 182.705L109.984 187.589C108.146 187.139 104.867 189.414 100.147 194.412L92.3627 189.917L102.068 182.705Z" fill="#8800BF"/>
<path d="M93.3862 190.601C93.4491 190.641 93.5234 190.667 93.6063 190.676C94.7527 190.764 98.8778 189.863 103.003 185.211C103.343 184.828 103.563 184.307 103.563 183.872V170.663C103.563 169.668 103.209 168.97 102.637 168.649L99.5353 166.838C98.9692 166.501 98.1859 166.541 97.3226 167.039L93.0917 169.485C91.3822 170.472 89.9843 172.895 89.9843 174.869V188.155C89.9843 188.464 90.0958 188.69 90.2845 188.79L93.3862 190.601Z" fill="#FFFFEB"/>
<path d="M93.855 170.306C93.8493 170.632 94.0608 170.964 94.4953 171.213C95.3501 171.708 96.7337 171.708 97.5885 171.213C98.023 170.964 98.2345 170.632 98.2288 170.306V167.428C98.2345 167.099 98.023 166.77 97.5885 166.518C96.7337 166.026 95.3501 166.026 94.4953 166.518C94.0608 166.77 93.8493 167.099 93.855 167.428V170.306Z" fill="#DD936F"/>
<path d="M102.068 162.836C102.068 166.166 99.3694 168.867 96.0419 168.867C92.7144 168.867 90.0186 166.166 90.0186 162.836C90.0186 159.506 92.7144 156.808 96.0419 156.808C99.3694 156.808 102.068 159.506 102.068 162.836Z" fill="#F1AC85"/>
<path d="M97.8287 174.022C94.8413 170.726 94.3839 166.029 96.4565 159.929L102.034 161.849C103.315 158.676 101.851 156.634 97.6457 155.718C94.8413 155.109 92.9517 155.961 91.974 158.281C89.7185 158.465 89.0181 160.873 89.8729 165.511C89.9929 169.903 92.6458 172.741 97.8287 174.022Z" fill="#943BBB"/>
<path d="M112.485 186.868L101.136 193.402L92.4314 188.653L104.046 182.001L112.485 186.868Z" fill="#BDCEFA"/>
<path d="M112.485 186.868L114.272 175.478L101.674 182.748L101.136 193.402L112.485 186.868Z" fill="url(#paint59_linear)"/>
<path d="M103.386 187.34C102.668 187.955 101.582 187.869 100.97 187.151L90.253 174.589C89.6413 173.873 89.727 172.783 90.4446 172.171C91.1621 171.559 92.2484 171.645 92.8602 172.363L103.575 184.922C104.189 185.64 104.103 186.728 103.386 187.34Z" fill="#F1AC85"/>
<path d="M191.837 198.375C191.634 198.464 191.557 198.713 191.537 199.062C191.531 199.162 192.572 198.464 192.532 198.819C192.52 198.922 191.777 203.945 193.378 205.611C193.555 205.794 193.792 205.751 193.958 205.665L194.398 205.416C194.907 205.164 195.245 204.003 195.702 202.275C196.205 200.366 196.508 199.159 194.41 197.92C193.812 197.568 193.467 197.486 193.272 197.591L191.837 198.375Z" fill="#010400"/>
<path d="M195.702 202.274C195.093 204.577 194.696 205.87 193.824 205.355C192.955 204.84 192.758 202.943 193.055 200.709C193.315 198.755 192.314 196.681 194.41 197.919C196.508 199.158 196.205 200.366 195.702 202.274Z" fill="#484968"/>
<path d="M209.227 187.543L204.919 189.119L203.169 191.108C201.102 191.974 199.255 193.265 197.632 194.976C197.011 195.88 195.679 196.855 193.638 197.899C193.635 199.327 194.27 200.16 195.548 200.388L207.826 193.316C208.683 192.821 209.252 191.949 209.358 190.962C209.444 190.166 209.444 189.056 209.227 187.543Z" fill="#E28C66"/>
<path d="M200.17 209.254C200.147 209.475 200.325 209.666 200.619 209.852C200.702 209.907 200.608 208.659 200.896 208.868C200.982 208.928 204.984 212.047 207.22 211.472C207.468 211.409 207.546 211.18 207.554 210.991V210.487C207.586 209.921 206.742 209.054 205.462 207.807C204.049 206.431 203.149 205.57 201.039 206.788C200.436 207.137 200.196 207.398 200.193 207.621L200.17 209.254Z" fill="#2D0D60"/>
<path d="M205.464 207.807C207.168 209.469 208.097 210.45 207.222 210.957C206.348 211.463 204.598 210.702 202.803 209.343C201.231 208.153 198.932 208.007 201.042 206.788C203.152 205.57 204.052 206.431 205.464 207.807Z" fill="#484968"/>
<path d="M203.746 207.011L203.621 191.66L199.461 193.007L199.421 195.805C199.158 198.034 199.373 200.277 200.062 202.534C200.542 203.518 200.736 205.158 200.642 207.452C201.883 208.159 202.917 208.013 203.746 207.011Z" fill="#F1AC85"/>
<path d="M215.093 185.503C214.261 185.881 213.272 185.509 212.894 184.673L206.308 170.114C205.93 169.282 206.302 168.292 207.134 167.914C207.969 167.536 208.958 167.908 209.335 168.741L215.919 183.3C216.296 184.133 215.925 185.123 215.093 185.503Z" fill="#E28C66"/>
<path d="M215.733 183.847L205.424 177.89V169.568L215.733 175.527V183.847Z" fill="#BDCEFA"/>
<path d="M213.194 181.601V175.287L213.415 175.415V181.727L213.194 181.601Z" fill="url(#paint60_linear)"/>
<path d="M212.697 179.441V174.998L212.917 175.127V179.57L212.697 179.441Z" fill="url(#paint61_linear)"/>
<path d="M212.2 180.536V174.712L212.42 174.838V180.665L212.2 180.536Z" fill="url(#paint62_linear)"/>
<path d="M211.699 180.734V174.423L211.919 174.551V180.863L211.699 180.734Z" fill="url(#paint63_linear)"/>
<path d="M211.202 176.448V174.134L211.422 174.263V176.574L211.202 176.448Z" fill="url(#paint64_linear)"/>
<path d="M196.76 188.075V193.745C201.185 195.239 205.476 193.351 209.638 188.075V182.588L196.76 188.075Z" fill="url(#paint65_linear)"/>
<path d="M199.767 189.832C199.83 189.872 199.899 189.897 199.981 189.903C201.094 189.989 205.093 189.116 209.095 184.602C209.424 184.23 209.638 183.726 209.638 183.306V170.498C209.638 169.531 209.292 168.855 208.738 168.544L205.73 166.787C205.181 166.461 204.421 166.498 203.583 166.982L199.481 169.353C197.823 170.312 196.468 172.66 196.468 174.574V187.457C196.468 187.757 196.577 187.978 196.76 188.075L199.767 189.832Z" fill="#B6B9FE"/>
<path d="M200.931 170.149C200.925 170.466 201.131 170.787 201.551 171.03C202.38 171.507 203.724 171.507 204.553 171.03C204.973 170.787 205.179 170.466 205.173 170.149V167.359C205.179 167.039 204.973 166.721 204.553 166.478C203.724 165.997 202.38 165.997 201.551 166.478C201.131 166.721 200.925 167.039 200.931 167.359V170.149Z" fill="#DD936F"/>
<path d="M189.607 188.473C188.793 188.061 188.464 187.057 188.875 186.238L196.111 171.891C196.522 171.073 197.529 170.744 198.343 171.156C199.158 171.568 199.49 172.575 199.075 173.39L191.843 187.74C191.428 188.556 190.425 188.888 189.607 188.473Z" fill="#F9AB83"/>
<path d="M208.449 161.314L210.547 169.462C210.742 170.22 209.987 170.878 209.264 170.575L204.435 168.566C204.018 168.392 203.781 167.948 203.869 167.505L205.45 159.492C205.619 158.642 206.739 158.439 207.191 159.177L208.34 161.054C208.389 161.137 208.426 161.222 208.449 161.314Z" fill="#2D0D60"/>
<path d="M201.105 166.192C201.105 166.887 200.616 167.17 200.013 166.821C199.41 166.472 198.918 165.625 198.918 164.927C198.918 164.232 199.41 163.949 200.013 164.298C200.616 164.647 201.105 165.494 201.105 166.192Z" fill="#F9AB83"/>
<path d="M208.869 162.865C208.869 166.092 206.254 168.709 203.026 168.709C199.801 168.709 197.186 166.092 197.186 162.865C197.186 159.635 199.801 157.017 203.026 157.017C206.254 157.017 208.869 159.635 208.869 162.865Z" fill="#F9AB83"/>
<path d="M197.346 163.643C200.639 165.451 203.086 164.003 204.69 159.306C205.547 161.291 207.048 162.064 209.187 161.626C209.187 158.536 207.594 156.691 204.407 156.09C198.775 155.526 196.42 158.047 197.346 163.643Z" fill="#2D0D60"/>
<path d="M200.067 163.875L202.166 172.022C202.36 172.783 201.605 173.439 200.879 173.138L196.054 171.127C195.636 170.955 195.399 170.509 195.485 170.066L197.068 162.052C197.234 161.202 198.358 161.002 198.809 161.74L199.959 163.617C200.007 163.697 200.044 163.786 200.067 163.875Z" fill="#2D0D60"/>
<path d="M233.68 289.083C234.486 289.449 235.444 289.088 235.81 288.282L240.998 276.841C241.364 276.034 241.004 275.076 240.198 274.709C239.392 274.343 238.434 274.704 238.071 275.51L232.882 286.954C232.516 287.758 232.877 288.716 233.68 289.083Z" fill="#FCC4B7"/>
<path d="M236.453 276.949L238.125 273.259C238.691 272.012 240.172 271.454 241.418 272.02C242.662 272.587 243.219 274.068 242.653 275.313L240.981 279.006C239.286 279.922 237.776 279.235 236.453 276.949Z" fill="#BDCEFA"/>
<path d="M244.02 289.14C244.1 289.289 244.137 289.457 244.14 289.626L244.134 295.088C244.151 296.149 243.068 297.036 241.73 297.056C240.389 297.076 239.283 296.221 239.266 295.159L239.252 288.227C239.246 287.958 239.417 287.715 239.675 287.635C240.604 287.338 242.811 286.9 244.02 289.14Z" fill="#2D2D4F"/>
<path d="M255.429 299.986C256.075 300.267 255.643 301.949 255.669 303.577C255.709 305.84 255.223 307.985 254.228 308.583C253.977 308.735 253.754 308.749 253.562 308.652L252.556 308.094C251.967 307.808 251.57 306.48 251.029 304.498C250.435 302.312 250.075 300.93 252.47 299.491C253.156 299.079 253.551 298.979 253.777 299.102L255.429 299.986Z" fill="#010400"/>
<path d="M251.029 304.497C251.75 307.135 252.216 308.617 253.211 308.019C254.205 307.421 254.417 305.238 254.054 302.678C253.737 300.438 254.869 298.049 252.47 299.491C250.075 300.93 250.435 302.311 251.029 304.497Z" fill="#1C1C38"/>
<path d="M250.578 302.455C250.409 302.452 250.246 302.397 250.097 302.317L240.201 296.824C239.271 296.309 239.043 294.93 239.692 293.757C240.343 292.584 241.633 292.049 242.562 292.564L253.742 298.767C253.98 298.898 254.102 299.167 254.048 299.431C253.842 300.386 253.119 302.52 250.578 302.455Z" fill="#2D2D4F"/>
<path d="M249.061 310.597C249.133 311.298 247.452 311.733 246.042 312.548C244.084 313.681 241.974 314.296 240.968 313.715C240.714 313.566 240.594 313.38 240.585 313.163V312.01C240.551 311.361 241.517 310.368 242.986 308.932C244.607 307.352 245.642 306.365 248.061 307.767C248.755 308.165 249.032 308.465 249.035 308.72L249.061 310.597Z" fill="#010400"/>
<path d="M242.985 308.932C241.03 310.84 239.96 311.97 240.967 312.551C241.973 313.131 243.98 312.256 246.041 310.697C247.845 309.332 250.48 309.166 248.059 307.767C245.638 306.365 244.606 307.352 242.985 308.932Z" fill="#1C1C38"/>
<path d="M244.552 307.547C244.474 307.398 244.44 307.229 244.44 307.061V290.25C244.44 289.186 245.535 288.316 246.873 288.316C248.214 288.316 249.308 289.186 249.308 290.25V308.528C249.308 308.8 249.134 309.04 248.874 309.118C247.942 309.401 245.726 309.804 244.552 307.547Z" fill="#46466C"/>
<path d="M248.505 293.271C248.445 293.308 248.376 293.334 248.299 293.34C247.224 293.423 243.354 292.579 239.483 288.213C239.166 287.855 238.96 287.366 238.96 286.957V274.569C238.96 273.636 239.292 272.981 239.829 272.678L242.739 270.979C243.268 270.664 244.003 270.701 244.812 271.168L248.782 273.462C250.386 274.389 251.695 276.661 251.695 278.514V290.977C251.695 291.265 251.593 291.48 251.415 291.572L248.505 293.271Z" fill="white"/>
<path d="M247.379 274.232C247.385 274.541 247.184 274.85 246.779 275.084C245.978 275.548 244.677 275.548 243.877 275.084C243.471 274.85 243.271 274.541 243.277 274.232V271.531C243.271 271.225 243.471 270.916 243.877 270.681C244.677 270.218 245.978 270.218 246.779 270.681C247.184 270.916 247.385 271.225 247.379 271.531V274.232Z" fill="#E5A89C"/>
<path d="M258.333 291.958C259.122 291.557 259.44 290.585 259.042 289.795L253.376 278.583C252.976 277.793 252.004 277.473 251.215 277.874C250.426 278.271 250.109 279.244 250.506 280.034L256.172 291.248C256.572 292.038 257.544 292.358 258.333 291.958Z" fill="#FCC4B7"/>
<path d="M250.615 282.199L248.788 278.58C248.171 277.359 248.662 275.854 249.883 275.236C251.104 274.618 252.607 275.113 253.225 276.334L255.052 279.953C254.706 281.847 253.225 282.597 250.615 282.199Z" fill="#BDCEFA"/>
<path d="M239.623 267.225C239.623 270.349 242.153 272.881 245.275 272.881C248.394 272.881 250.924 270.349 250.924 267.225C250.924 264.104 248.394 261.572 245.275 261.572C242.153 261.572 239.623 264.104 239.623 267.225Z" fill="#FCC4B7"/>
<path d="M249.989 260.539C254.817 262.199 252.416 269.256 248.903 271.803C247.187 270.864 249.274 269.182 246.933 270.352C246.464 268.078 247.513 268.77 246.879 265.912C244.423 267.194 239.643 265.64 238.9 263.271C239.755 262.891 240.652 260.462 242.653 259.569C245.226 258.422 248.522 258.929 249.989 260.539Z" fill="#E58800"/>
<path d="M247.162 270.404C247.162 271.079 247.633 271.351 248.219 271.013C248.802 270.676 249.274 269.857 249.274 269.182C249.274 268.507 248.802 268.235 248.219 268.573C247.633 268.907 247.162 269.729 247.162 270.404Z" fill="#FCC4B7"/>
</g>
<defs>
<radialGradient id="paint0_radial" cx="0" cy="0" r="1" gradientUnits="userSpaceOnUse" gradientTransform="translate(153.611 254.47) scale(190.565 190.713)">
<stop stop-color="#E4F6F2"/>
<stop offset="1" stop-color="white" stop-opacity="0"/>
</radialGradient>
<linearGradient id="paint1_linear" x1="98.7312" y1="93.4307" x2="309.842" y2="-33.0144" gradientUnits="userSpaceOnUse">
<stop stop-color="#DBF2FB" stop-opacity="0"/>
<stop offset="0.999" stop-color="#ADCCE9"/>
</linearGradient>
<linearGradient id="paint2_linear" x1="464.366" y1="146.106" x2="139.589" y2="313.9" gradientUnits="userSpaceOnUse">
<stop stop-color="white"/>
<stop offset="0.999" stop-color="#ADCCE9" stop-opacity="0"/>
</linearGradient>
<linearGradient id="paint3_linear" x1="424.275" y1="66.69" x2="99.4979" y2="234.484" gradientUnits="userSpaceOnUse">
<stop stop-color="white"/>
<stop offset="0.999" stop-color="#ADCCE9" stop-opacity="0"/>
</linearGradient>
<linearGradient id="paint4_linear" x1="417.364" y1="53.9575" x2="92.5869" y2="221.752" gradientUnits="userSpaceOnUse">
<stop stop-color="white"/>
<stop offset="0.999" stop-color="#ADCCE9" stop-opacity="0"/>
</linearGradient>
<linearGradient id="paint5_linear" x1="442.834" y1="102.863" x2="118.057" y2="270.657" gradientUnits="userSpaceOnUse">
<stop stop-color="white"/>
<stop offset="0.999" stop-color="#ADCCE9" stop-opacity="0"/>
</linearGradient>
<linearGradient id="paint6_linear" x1="450.668" y1="119.146" x2="125.89" y2="286.94" gradientUnits="userSpaceOnUse">
<stop stop-color="white"/>
<stop offset="0.999" stop-color="#ADCCE9" stop-opacity="0"/>
</linearGradient>
<linearGradient id="paint7_linear" x1="452.96" y1="123.591" x2="128.183" y2="291.386" gradientUnits="userSpaceOnUse">
<stop stop-color="white"/>
<stop offset="0.999" stop-color="#ADCCE9" stop-opacity="0"/>
</linearGradient>
<linearGradient id="paint8_linear" x1="455.252" y1="128.037" x2="130.475" y2="295.831" gradientUnits="userSpaceOnUse">
<stop stop-color="white"/>
<stop offset="0.999" stop-color="#ADCCE9" stop-opacity="0"/>
</linearGradient>
<linearGradient id="paint9_linear" x1="244.468" y1="48.4479" x2="136.943" y2="320.243" gradientUnits="userSpaceOnUse">
<stop stop-color="#B3E1F5"/>
<stop offset="0.999" stop-color="#8FB9E1"/>
</linearGradient>
<linearGradient id="paint10_linear" x1="184.398" y1="-4.11176" x2="82.1939" y2="275.669" gradientUnits="userSpaceOnUse">
<stop stop-color="#AEDBF2"/>
<stop offset="1" stop-color="white" stop-opacity="0"/>
</linearGradient>
<linearGradient id="paint11_linear" x1="243.044" y1="34.9183" x2="72.5994" y2="486.037" gradientUnits="userSpaceOnUse">
<stop stop-color="#DBF2FB"/>
<stop offset="0.999" stop-color="#ADCCE9"/>
</linearGradient>
<linearGradient id="paint12_linear" x1="169.399" y1="28.8798" x2="169.399" y2="249.839" gradientUnits="userSpaceOnUse">
<stop offset="0.001" stop-color="#95BDE3"/>
<stop offset="1" stop-color="white" stop-opacity="0"/>
</linearGradient>
<linearGradient id="paint13_linear" x1="122.672" y1="141.851" x2="212.462" y2="207.694" gradientUnits="userSpaceOnUse">
<stop stop-color="#58D1E5"/>
<stop offset="0.999" stop-color="#2D7BC3"/>
</linearGradient>
<linearGradient id="paint14_linear" x1="143.486" y1="96.1202" x2="106.767" y2="131.747" gradientUnits="userSpaceOnUse">
<stop stop-color="white"/>
<stop offset="0.999" stop-color="#ADCCE9" stop-opacity="0"/>
</linearGradient>
<linearGradient id="paint15_linear" x1="142.651" y1="95.0548" x2="105.767" y2="130.841" gradientUnits="userSpaceOnUse">
<stop stop-color="white"/>
<stop offset="0.999" stop-color="#ADCCE9" stop-opacity="0"/>
</linearGradient>
<linearGradient id="paint16_linear" x1="140.851" y1="93.1658" x2="103.967" y2="128.952" gradientUnits="userSpaceOnUse">
<stop stop-color="white"/>
<stop offset="0.999" stop-color="#ADCCE9" stop-opacity="0"/>
</linearGradient>
<linearGradient id="paint17_linear" x1="176.247" y1="86.9802" x2="165.556" y2="105.109" gradientUnits="userSpaceOnUse">
<stop stop-color="#DBF2FB"/>
<stop offset="0.999" stop-color="#ADCCE9"/>
</linearGradient>
<linearGradient id="paint18_linear" x1="173.44" y1="126.287" x2="153.824" y2="175.807" gradientUnits="userSpaceOnUse">
<stop stop-color="white"/>
<stop offset="0.999" stop-color="#ADCCE9" stop-opacity="0"/>
</linearGradient>
<linearGradient id="paint19_linear" x1="225.052" y1="220.947" x2="145.731" y2="292.094" gradientUnits="userSpaceOnUse">
<stop stop-color="#DBF2FB"/>
<stop offset="0.999" stop-color="#ADCCE9"/>
</linearGradient>
<linearGradient id="paint20_linear" x1="138.418" y1="283.191" x2="138.418" y2="162.012" gradientUnits="userSpaceOnUse">
<stop offset="0.072" stop-color="#59D4F7"/>
<stop offset="1" stop-color="#030609" stop-opacity="0"/>
</linearGradient>
<linearGradient id="paint21_linear" x1="214.103" y1="191.736" x2="168.929" y2="222.512" gradientUnits="userSpaceOnUse">
<stop stop-color="#DBF2FB"/>
<stop offset="0.999" stop-color="#ADCCE9"/>
</linearGradient>
<linearGradient id="paint22_linear" x1="163.165" y1="211.764" x2="163.165" y2="196.938" gradientUnits="userSpaceOnUse">
<stop offset="0.072" stop-color="#59D4F7"/>
<stop offset="1" stop-color="#030609" stop-opacity="0"/>
</linearGradient>
<linearGradient id="paint23_linear" x1="226.381" y1="209.755" x2="181.207" y2="240.532" gradientUnits="userSpaceOnUse">
<stop stop-color="#DBF2FB"/>
<stop offset="0.999" stop-color="#ADCCE9"/>
</linearGradient>
<linearGradient id="paint24_linear" x1="175.874" y1="229.488" x2="175.874" y2="214.662" gradientUnits="userSpaceOnUse">
<stop offset="0.072" stop-color="#59D4F7"/>
<stop offset="1" stop-color="#030609" stop-opacity="0"/>
</linearGradient>
<linearGradient id="paint25_linear" x1="238.658" y1="227.775" x2="193.485" y2="258.551" gradientUnits="userSpaceOnUse">
<stop stop-color="#DBF2FB"/>
<stop offset="0.999" stop-color="#ADCCE9"/>
</linearGradient>
<linearGradient id="paint26_linear" x1="188.584" y1="247.212" x2="188.584" y2="232.386" gradientUnits="userSpaceOnUse">
<stop offset="0.072" stop-color="#59D4F7"/>
<stop offset="1" stop-color="#030609" stop-opacity="0"/>
</linearGradient>
<linearGradient id="paint27_linear" x1="250.936" y1="245.794" x2="205.762" y2="276.57" gradientUnits="userSpaceOnUse">
<stop stop-color="#DBF2FB"/>
<stop offset="0.999" stop-color="#ADCCE9"/>
</linearGradient>
<linearGradient id="paint28_linear" x1="201.294" y1="264.936" x2="201.294" y2="250.111" gradientUnits="userSpaceOnUse">
<stop offset="0.072" stop-color="#59D4F7"/>
<stop offset="1" stop-color="#030609" stop-opacity="0"/>
</linearGradient>
<linearGradient id="paint29_linear" x1="263.214" y1="263.813" x2="218.04" y2="294.59" gradientUnits="userSpaceOnUse">
<stop stop-color="#DBF2FB"/>
<stop offset="0.999" stop-color="#ADCCE9"/>
</linearGradient>
<linearGradient id="paint30_linear" x1="214.003" y1="282.66" x2="214.003" y2="267.835" gradientUnits="userSpaceOnUse">
<stop offset="0.072" stop-color="#59D4F7"/>
<stop offset="1" stop-color="#030609" stop-opacity="0"/>
</linearGradient>
<linearGradient id="paint31_linear" x1="185.424" y1="289.781" x2="93.5914" y2="291.069" gradientUnits="userSpaceOnUse">
<stop stop-color="white"/>
<stop offset="0.999" stop-color="#ADCCE9"/>
</linearGradient>
<linearGradient id="paint32_linear" x1="185.892" y1="292.928" x2="93.7166" y2="294.22" gradientUnits="userSpaceOnUse">
<stop stop-color="white"/>
<stop offset="0.999" stop-color="#ADCCE9"/>
</linearGradient>
<linearGradient id="paint33_linear" x1="185.949" y1="294.992" x2="93.7743" y2="296.285" gradientUnits="userSpaceOnUse">
<stop stop-color="white"/>
<stop offset="0.999" stop-color="#ADCCE9"/>
</linearGradient>
<linearGradient id="paint34_linear" x1="186.006" y1="297.057" x2="93.8318" y2="298.349" gradientUnits="userSpaceOnUse">
<stop stop-color="white"/>
<stop offset="0.999" stop-color="#ADCCE9"/>
</linearGradient>
<linearGradient id="paint35_linear" x1="185.518" y1="299.113" x2="94.1763" y2="300.394" gradientUnits="userSpaceOnUse">
<stop stop-color="white"/>
<stop offset="0.999" stop-color="#ADCCE9"/>
</linearGradient>
<linearGradient id="paint36_linear" x1="185.498" y1="279.657" x2="93.6654" y2="280.945" gradientUnits="userSpaceOnUse">
<stop stop-color="white"/>
<stop offset="0.999" stop-color="#ADCCE9"/>
</linearGradient>
<linearGradient id="paint37_linear" x1="186.198" y1="304.06" x2="93.9873" y2="305.353" gradientUnits="userSpaceOnUse">
<stop stop-color="white"/>
<stop offset="0.999" stop-color="#ADCCE9"/>
</linearGradient>
<linearGradient id="paint38_linear" x1="173.212" y1="309.919" x2="96.5871" y2="309.919" gradientUnits="userSpaceOnUse">
<stop stop-color="white"/>
<stop offset="0.999" stop-color="#ADCCE9"/>
</linearGradient>
<linearGradient id="paint39_linear" x1="174.629" y1="311.87" x2="95.879" y2="312.88" gradientUnits="userSpaceOnUse">
<stop stop-color="white"/>
<stop offset="0.999" stop-color="#ADCCE9"/>
</linearGradient>
<linearGradient id="paint40_linear" x1="172.458" y1="315.659" x2="96.1002" y2="313.812" gradientUnits="userSpaceOnUse">
<stop stop-color="white"/>
<stop offset="0.999" stop-color="#ADCCE9"/>
</linearGradient>
<linearGradient id="paint41_linear" x1="173.139" y1="317.23" x2="96.0399" y2="317.23" gradientUnits="userSpaceOnUse">
<stop stop-color="white"/>
<stop offset="0.999" stop-color="#ADCCE9"/>
</linearGradient>
<linearGradient id="paint42_linear" x1="172.164" y1="319.667" x2="95.7869" y2="319.667" gradientUnits="userSpaceOnUse">
<stop stop-color="white"/>
<stop offset="0.999" stop-color="#ADCCE9"/>
</linearGradient>
<linearGradient id="paint43_linear" x1="172.485" y1="322.104" x2="97.1954" y2="322.104" gradientUnits="userSpaceOnUse">
<stop stop-color="white"/>
<stop offset="0.999" stop-color="#ADCCE9"/>
</linearGradient>
<linearGradient id="paint44_linear" x1="329.51" y1="231.729" x2="259.423" y2="233.635" gradientUnits="userSpaceOnUse">
<stop stop-color="white"/>
<stop offset="0.999" stop-color="#ADCCE9"/>
</linearGradient>
<linearGradient id="paint45_linear" x1="329.533" y1="233.649" x2="259.446" y2="235.555" gradientUnits="userSpaceOnUse">
<stop stop-color="white"/>
<stop offset="0.999" stop-color="#ADCCE9"/>
</linearGradient>
<linearGradient id="paint46_linear" x1="329.556" y1="235.57" x2="259.469" y2="237.476" gradientUnits="userSpaceOnUse">
<stop stop-color="white"/>
<stop offset="0.999" stop-color="#ADCCE9"/>
</linearGradient>
<linearGradient id="paint47_linear" x1="329.317" y1="237.483" x2="259.864" y2="239.371" gradientUnits="userSpaceOnUse">
<stop stop-color="white"/>
<stop offset="0.999" stop-color="#ADCCE9"/>
</linearGradient>
<linearGradient id="paint48_linear" x1="329.545" y1="228.829" x2="259.371" y2="230.737" gradientUnits="userSpaceOnUse">
<stop stop-color="white"/>
<stop offset="0.999" stop-color="#ADCCE9"/>
</linearGradient>
<linearGradient id="paint49_linear" x1="329.672" y1="242.083" x2="259.558" y2="243.989" gradientUnits="userSpaceOnUse">
<stop stop-color="white"/>
<stop offset="0.999" stop-color="#ADCCE9"/>
</linearGradient>
<linearGradient id="paint50_linear" x1="333.632" y1="245.232" x2="236.477" y2="252.147" gradientUnits="userSpaceOnUse">
<stop stop-color="white"/>
<stop offset="0.999" stop-color="#ADCCE9"/>
</linearGradient>
<linearGradient id="paint51_linear" x1="333.803" y1="247.657" x2="236.649" y2="254.571" gradientUnits="userSpaceOnUse">
<stop stop-color="white"/>
<stop offset="0.999" stop-color="#ADCCE9"/>
</linearGradient>
<linearGradient id="paint52_linear" x1="333.975" y1="250.082" x2="236.821" y2="256.996" gradientUnits="userSpaceOnUse">
<stop stop-color="white"/>
<stop offset="0.999" stop-color="#ADCCE9"/>
</linearGradient>
<linearGradient id="paint53_linear" x1="231.122" y1="352.52" x2="186.256" y2="355.495" gradientUnits="userSpaceOnUse">
<stop stop-color="#DBF2FB" stop-opacity="0"/>
<stop offset="0.999" stop-color="#ADCCE9"/>
</linearGradient>
<linearGradient id="paint54_linear" x1="180.579" y1="325.829" x2="209.949" y2="325.829" gradientUnits="userSpaceOnUse">
<stop stop-color="#58D1E5"/>
<stop offset="0.999" stop-color="#2D7BC3"/>
</linearGradient>
<linearGradient id="paint55_linear" x1="212.268" y1="237.642" x2="212.268" y2="385.179" gradientUnits="userSpaceOnUse">
<stop stop-color="white" stop-opacity="0"/>
<stop offset="1" stop-color="#58D1E5"/>
</linearGradient>
<linearGradient id="paint56_linear" x1="-7.20245" y1="256.546" x2="13.2283" y2="99.2321" gradientUnits="userSpaceOnUse">
<stop stop-color="#2D7BC3" stop-opacity="0"/>
<stop offset="0.999" stop-color="#A4B5DD"/>
</linearGradient>
<linearGradient id="paint57_linear" x1="55.4326" y1="194.616" x2="-26.628" y2="272.91" gradientUnits="userSpaceOnUse">
<stop stop-color="white"/>
<stop offset="0.999" stop-color="#ADCCE9" stop-opacity="0"/>
</linearGradient>
<linearGradient id="paint58_linear" x1="53.1825" y1="192.927" x2="-28.2771" y2="270.647" gradientUnits="userSpaceOnUse">
<stop stop-color="white"/>
<stop offset="0.999" stop-color="#ADCCE9" stop-opacity="0"/>
</linearGradient>
<linearGradient id="paint59_linear" x1="122.64" y1="177.201" x2="105.805" y2="197.68" gradientUnits="userSpaceOnUse">
<stop stop-color="white"/>
<stop offset="0.999" stop-color="#ADCCE9"/>
</linearGradient>
<linearGradient id="paint60_linear" x1="216.933" y1="174.865" x2="214.773" y2="183.331" gradientUnits="userSpaceOnUse">
<stop stop-color="white"/>
<stop offset="0.999" stop-color="#ADCCE9" stop-opacity="0"/>
</linearGradient>
<linearGradient id="paint61_linear" x1="215.949" y1="174.614" x2="213.789" y2="183.08" gradientUnits="userSpaceOnUse">
<stop stop-color="white"/>
<stop offset="0.999" stop-color="#ADCCE9" stop-opacity="0"/>
</linearGradient>
<linearGradient id="paint62_linear" x1="215.743" y1="174.561" x2="213.583" y2="183.028" gradientUnits="userSpaceOnUse">
<stop stop-color="white"/>
<stop offset="0.999" stop-color="#ADCCE9" stop-opacity="0"/>
</linearGradient>
<linearGradient id="paint63_linear" x1="215.323" y1="174.454" x2="213.163" y2="182.921" gradientUnits="userSpaceOnUse">
<stop stop-color="white"/>
<stop offset="0.999" stop-color="#ADCCE9" stop-opacity="0"/>
</linearGradient>
<linearGradient id="paint64_linear" x1="213.83" y1="174.073" x2="211.671" y2="182.54" gradientUnits="userSpaceOnUse">
<stop stop-color="white"/>
<stop offset="0.999" stop-color="#ADCCE9" stop-opacity="0"/>
</linearGradient>
<linearGradient id="paint65_linear" x1="196.759" y1="181.095" x2="209.637" y2="181.095" gradientUnits="userSpaceOnUse">
<stop offset="0.071" stop-color="#4751AA"/>
<stop offset="1" stop-color="#21257E"/>
</linearGradient>
<clipPath id="clip0">
<rect width="369" height="404" fill="white"/>
</clipPath>
</defs>
</svg>
