<svg width="106" height="111" viewBox="0 0 106 111" fill="none" xmlns="http://www.w3.org/2000/svg">
<path d="M97.5873 3.3501H90.8269V111H97.5873C101.305 111 104.348 107.985 104.348 104.3V10.0503C104.348 6.36519 101.305 3.3501 97.5873 3.3501Z" fill="#4E4CD3"/>
<path d="M97.5872 10.0503C97.5872 6.36519 94.5451 3.3501 90.8269 3.3501H22.7726C19.0544 3.3501 16.0122 6.36519 16.0122 10.0503V104.3C16.0122 107.985 19.0544 111 22.7726 111H90.8269C94.5451 111 97.5872 107.985 97.5872 104.3V87.5493L60.1799 60.5252L97.5872 16.7505V10.0503Z" fill="#666DDC"/>
<path d="M70.5458 58.5151L22.7726 87.5493H4.35081C3.29506 87.5493 2.48111 88.5014 2.68776 89.5275C3.61483 94.1307 7.71476 97.5996 12.632 97.5996H80.6863L70.5458 58.5151Z" fill="#C4F3FF"/>
<path d="M70.5458 58.5151V87.5493C70.5458 93.1 75.0858 97.5996 80.6863 97.5996H87.4467V58.5151H70.5458Z" fill="#ACD2F6"/>
<path d="M90.8269 10.0503L84.0665 97.0254C85.1241 97.3959 86.2612 97.5996 87.4467 97.5996C93.0472 97.5996 97.5872 93.0999 97.5872 87.5493V10.0503H90.8269Z" fill="#C4F3FF"/>
<path d="M66.8661 10.0503C66.8661 13.7508 63.8395 16.7505 60.1058 16.7505C56.372 16.7505 53.3454 13.7508 53.3454 10.0503H22.7726V87.5493H77.3062C77.3062 91.925 80.1284 95.6454 84.0665 97.0254C88.0047 95.6454 90.8269 91.925 90.8269 87.5493V10.0503H66.8661Z" fill="white"/>
<path d="M77.3061 16.7505H73.926L77.3061 23.4507H84.0665C84.0665 19.7502 81.0397 16.7505 77.3061 16.7505Z" fill="#7D8FE5"/>
<path d="M73.926 16.7505H73.882L69.5011 6.26781C67.9931 2.59231 64.3558 0 60.1058 0C55.8569 0 52.2202 2.59119 50.7116 6.26514L46.3295 16.7505H43.0536C39.3199 16.7505 36.2933 19.7502 36.2933 23.4507H77.3061C77.3061 19.7502 75.7927 16.7505 73.926 16.7505V16.7505ZM60.1058 13.4004C58.239 13.4004 56.7256 11.9005 56.7256 10.0503C56.7256 8.20015 58.239 6.7002 60.1058 6.7002C61.9725 6.7002 63.4859 8.20015 63.4859 10.0503C63.4859 11.9005 61.9725 13.4004 60.1058 13.4004Z" fill="#95B0ED"/>
<path d="M77.3062 68.9004H84.0665V75.6006H77.3062V68.9004Z" fill="#ACD2F6"/>
<path d="M77.3062 52.1499H84.0665V58.8501H77.3062V52.1499Z" fill="#ACD2F6"/>
<path d="M77.3062 35.3994H84.0665V42.0996H77.3062V35.3994Z" fill="#ACD2F6"/>
<path d="M70.5458 73.9255H36.2933C35.3599 73.9255 34.6032 73.1756 34.6032 72.2505C34.6032 71.3254 35.3599 70.5754 36.2933 70.5754H70.5458C71.4794 70.5754 72.2359 71.3254 72.2359 72.2505C72.2359 73.1756 71.4792 73.9255 70.5458 73.9255Z" fill="#4E4CD3"/>
<path d="M70.5458 57.1751H36.2933C35.3599 57.1751 34.6032 56.4251 34.6032 55.5C34.6032 54.5749 35.3599 53.825 36.2933 53.825H70.5458C71.4794 53.825 72.2359 54.5749 72.2359 55.5C72.2359 56.4251 71.4792 57.1751 70.5458 57.1751Z" fill="#4E4CD3"/>
<path d="M70.5458 40.4246H36.2933C35.3599 40.4246 34.6032 39.6746 34.6032 38.7495C34.6032 37.8244 35.3599 37.0745 36.2933 37.0745H70.5458C71.4794 37.0745 72.2359 37.8244 72.2359 38.7495C72.2359 39.6746 71.4792 40.4246 70.5458 40.4246Z" fill="#4E4CD3"/>
</svg>
