<svg width="56" height="206" viewBox="0 0 56 206" fill="none" xmlns="http://www.w3.org/2000/svg">
<path d="M2.14092 206C0.957518 206 0 205.065 0 203.902C0 202.746 0.957518 201.804 2.14092 201.804C3.32431 201.804 4.28183 202.746 4.28183 203.902C4.28183 205.065 3.32431 206 2.14092 206ZM2.14092 184.42C0.957518 184.42 0 183.484 0 182.321C0 181.165 0.957518 180.223 2.14092 180.223C3.32431 180.223 4.28183 181.165 4.28183 182.321C4.28183 183.484 3.32431 184.42 2.14092 184.42ZM2.14092 162.839C0.957518 162.839 0 161.904 0 160.74C0 159.584 0.957518 158.643 2.14092 158.643C3.32431 158.643 4.28183 159.584 4.28183 160.74C4.28183 161.904 3.32431 162.839 2.14092 162.839ZM2.14092 141.265C0.957518 141.265 0 140.324 0 139.161C0 138.004 0.957518 137.063 2.14092 137.063C3.32431 137.063 4.28183 138.004 4.28183 139.161C4.28183 140.324 3.32431 141.265 2.14092 141.265ZM2.14092 119.679C0.957518 119.679 0 118.744 0 117.58C0 116.423 0.957518 115.482 2.14092 115.482C3.32431 115.482 4.28183 116.423 4.28183 117.58C4.28183 118.744 3.32431 119.679 2.14092 119.679ZM2.14092 98.0978C0.957518 98.0978 0 97.163 0 96C0 94.8424 0.957518 93.9011 2.14092 93.9011C3.32431 93.9011 4.28183 94.8424 4.28183 96C4.28183 97.163 3.32431 98.0978 2.14092 98.0978ZM2.14092 76.517C0.957518 76.517 0 75.5821 0 74.4191C0 73.2626 0.957518 72.3277 2.14092 72.3277C3.32431 72.3277 4.28183 73.2626 4.28183 74.4191C4.28183 75.5821 3.32431 76.517 2.14092 76.517ZM2.14092 54.9372C0.957518 54.9372 0 54.0023 0 52.8383C0 51.6817 0.957518 50.7404 2.14092 50.7404C3.32431 50.7404 4.28183 51.6817 4.28183 52.8383C4.28183 54.0023 3.32431 54.9372 2.14092 54.9372ZM2.14092 33.3563C0.957518 33.3563 0 32.4214 0 31.2585C0 30.102 0.957518 29.1606 2.14092 29.1606C3.32431 29.1606 4.28183 30.102 4.28183 31.2585C4.28183 32.4214 3.32431 33.3563 2.14092 33.3563ZM2.14092 11.7766C0.957518 11.7766 0 10.8416 0 9.67761C0 8.5211 0.957518 7.57977 2.14092 7.57977C3.32431 7.57977 4.28183 8.5211 4.28183 9.67761C4.28183 10.8416 3.32431 11.7766 2.14092 11.7766ZM2.14092 -9.80432C0.957518 -9.80432 0 -10.7392 0 -11.8957C0 -13.0587 0.957518 -14 2.14092 -14C3.32431 -14 4.28183 -13.0587 4.28183 -11.8957C4.28183 -10.7392 3.32431 -9.80432 2.14092 -9.80432Z" fill="#0074B2"/>
<path d="M27.6055 206C26.4221 206 25.4646 205.065 25.4646 203.902C25.4646 202.746 26.4221 201.804 27.6055 201.804C28.7889 201.804 29.7463 202.746 29.7463 203.902C29.7463 205.065 28.7889 206 27.6055 206ZM27.6055 184.42C26.4221 184.42 25.4646 183.484 25.4646 182.321C25.4646 181.165 26.4221 180.223 27.6055 180.223C28.7889 180.223 29.7463 181.165 29.7463 182.321C29.7463 183.484 28.7889 184.42 27.6055 184.42ZM27.6055 162.839C26.4221 162.839 25.4646 161.904 25.4646 160.74C25.4646 159.584 26.4221 158.643 27.6055 158.643C28.7889 158.643 29.7463 159.584 29.7463 160.74C29.7463 161.904 28.7889 162.839 27.6055 162.839ZM27.6055 141.265C26.4221 141.265 25.4646 140.324 25.4646 139.161C25.4646 138.004 26.4221 137.063 27.6055 137.063C28.7889 137.063 29.7463 138.004 29.7463 139.161C29.7463 140.324 28.7889 141.265 27.6055 141.265ZM27.6055 119.679C26.4221 119.679 25.4646 118.744 25.4646 117.58C25.4646 116.423 26.4221 115.482 27.6055 115.482C28.7889 115.482 29.7463 116.423 29.7463 117.58C29.7463 118.744 28.7889 119.679 27.6055 119.679ZM27.6055 98.0978C26.4221 98.0978 25.4646 97.163 25.4646 96C25.4646 94.8424 26.4221 93.9011 27.6055 93.9011C28.7889 93.9011 29.7463 94.8424 29.7463 96C29.7463 97.163 28.7889 98.0978 27.6055 98.0978ZM27.6055 76.517C26.4221 76.517 25.4646 75.5821 25.4646 74.4191C25.4646 73.2626 26.4221 72.3277 27.6055 72.3277C28.7889 72.3277 29.7463 73.2626 29.7463 74.4191C29.7463 75.5821 28.7889 76.517 27.6055 76.517ZM27.6055 54.9372C26.4221 54.9372 25.4646 54.0023 25.4646 52.8383C25.4646 51.6817 26.4221 50.7404 27.6055 50.7404C28.7889 50.7404 29.7463 51.6817 29.7463 52.8383C29.7463 54.0023 28.7889 54.9372 27.6055 54.9372ZM27.6055 33.3563C26.4221 33.3563 25.4646 32.4214 25.4646 31.2585C25.4646 30.102 26.4221 29.1606 27.6055 29.1606C28.7889 29.1606 29.7463 30.102 29.7463 31.2585C29.7463 32.4214 28.7889 33.3563 27.6055 33.3563ZM27.6055 11.7766C26.4221 11.7766 25.4646 10.8416 25.4646 9.67761C25.4646 8.5211 26.4221 7.57977 27.6055 7.57977C28.7889 7.57977 29.7463 8.5211 29.7463 9.67761C29.7463 10.8416 28.7889 11.7766 27.6055 11.7766ZM27.6055 -9.80432C26.4221 -9.80432 25.4646 -10.7392 25.4646 -11.8957C25.4646 -13.0587 26.4221 -14 27.6055 -14C28.7889 -14 29.7463 -13.0587 29.7463 -11.8957C29.7463 -10.7392 28.7889 -9.80432 27.6055 -9.80432Z" fill="#0074B2"/>
<path d="M53.0807 206C51.8866 206 50.9398 205.065 50.9398 203.902C50.9398 202.746 51.8866 201.804 53.0807 201.804C54.2641 201.804 55.2108 202.746 55.2108 203.902C55.2108 205.065 54.2641 206 53.0807 206ZM53.0807 184.42C51.8866 184.42 50.9398 183.484 50.9398 182.321C50.9398 181.165 51.8866 180.223 53.0807 180.223C54.2641 180.223 55.2108 181.165 55.2108 182.321C55.2108 183.484 54.2641 184.42 53.0807 184.42ZM53.0807 162.839C51.8866 162.839 50.9398 161.904 50.9398 160.74C50.9398 159.584 51.8866 158.643 53.0807 158.643C54.2641 158.643 55.2108 159.584 55.2108 160.74C55.2108 161.904 54.2641 162.839 53.0807 162.839ZM53.0807 141.265C51.8866 141.265 50.9398 140.324 50.9398 139.161C50.9398 138.004 51.8866 137.063 53.0807 137.063C54.2641 137.063 55.2108 138.004 55.2108 139.161C55.2108 140.324 54.2641 141.265 53.0807 141.265ZM53.0807 119.679C51.8866 119.679 50.9398 118.744 50.9398 117.58C50.9398 116.423 51.8866 115.482 53.0807 115.482C54.2641 115.482 55.2108 116.423 55.2108 117.58C55.2108 118.744 54.2641 119.679 53.0807 119.679ZM53.0807 98.0978C51.8866 98.0978 50.9398 97.163 50.9398 96C50.9398 94.8424 51.8866 93.9011 53.0807 93.9011C54.2641 93.9011 55.2108 94.8424 55.2108 96C55.2108 97.163 54.2641 98.0978 53.0807 98.0978ZM53.0807 76.517C51.8866 76.517 50.9398 75.5821 50.9398 74.4191C50.9398 73.2626 51.8866 72.3277 53.0807 72.3277C54.2641 72.3277 55.2108 73.2626 55.2108 74.4191C55.2108 75.5821 54.2641 76.517 53.0807 76.517ZM53.0807 54.9372C51.8866 54.9372 50.9398 54.0023 50.9398 52.8383C50.9398 51.6817 51.8866 50.7404 53.0807 50.7404C54.2641 50.7404 55.2108 51.6817 55.2108 52.8383C55.2108 54.0023 54.2641 54.9372 53.0807 54.9372ZM53.0807 33.3563C51.8866 33.3563 50.9398 32.4214 50.9398 31.2585C50.9398 30.102 51.8866 29.1606 53.0807 29.1606C54.2641 29.1606 55.2108 30.102 55.2108 31.2585C55.2108 32.4214 54.2641 33.3563 53.0807 33.3563ZM53.0807 11.7766C51.8866 11.7766 50.9398 10.8416 50.9398 9.67761C50.9398 8.5211 51.8866 7.57977 53.0807 7.57977C54.2641 7.57977 55.2108 8.5211 55.2108 9.67761C55.2108 10.8416 54.2641 11.7766 53.0807 11.7766ZM53.0807 -9.80432C51.8866 -9.80432 50.9398 -10.7392 50.9398 -11.8957C50.9398 -13.0587 51.8866 -14 53.0807 -14C54.2641 -14 55.2108 -13.0587 55.2108 -11.8957C55.2108 -10.7392 54.2641 -9.80432 53.0807 -9.80432Z" fill="#0074B2"/>
<path d="M2.14092 206C0.957518 206 0 205.065 0 203.902C0 202.746 0.957518 201.804 2.14092 201.804C3.32431 201.804 4.28183 202.746 4.28183 203.902C4.28183 205.065 3.32431 206 2.14092 206ZM2.14092 184.42C0.957518 184.42 0 183.484 0 182.321C0 181.165 0.957518 180.223 2.14092 180.223C3.32431 180.223 4.28183 181.165 4.28183 182.321C4.28183 183.484 3.32431 184.42 2.14092 184.42ZM2.14092 162.839C0.957518 162.839 0 161.904 0 160.74C0 159.584 0.957518 158.643 2.14092 158.643C3.32431 158.643 4.28183 159.584 4.28183 160.74C4.28183 161.904 3.32431 162.839 2.14092 162.839ZM2.14092 141.265C0.957518 141.265 0 140.324 0 139.161C0 138.004 0.957518 137.063 2.14092 137.063C3.32431 137.063 4.28183 138.004 4.28183 139.161C4.28183 140.324 3.32431 141.265 2.14092 141.265ZM2.14092 119.679C0.957518 119.679 0 118.744 0 117.58C0 116.423 0.957518 115.482 2.14092 115.482C3.32431 115.482 4.28183 116.423 4.28183 117.58C4.28183 118.744 3.32431 119.679 2.14092 119.679ZM2.14092 98.0978C0.957518 98.0978 0 97.163 0 96C0 94.8424 0.957518 93.9011 2.14092 93.9011C3.32431 93.9011 4.28183 94.8424 4.28183 96C4.28183 97.163 3.32431 98.0978 2.14092 98.0978ZM2.14092 76.517C0.957518 76.517 0 75.5821 0 74.4191C0 73.2626 0.957518 72.3277 2.14092 72.3277C3.32431 72.3277 4.28183 73.2626 4.28183 74.4191C4.28183 75.5821 3.32431 76.517 2.14092 76.517ZM2.14092 54.9372C0.957518 54.9372 0 54.0023 0 52.8383C0 51.6817 0.957518 50.7404 2.14092 50.7404C3.32431 50.7404 4.28183 51.6817 4.28183 52.8383C4.28183 54.0023 3.32431 54.9372 2.14092 54.9372ZM2.14092 33.3563C0.957518 33.3563 0 32.4214 0 31.2585C0 30.102 0.957518 29.1606 2.14092 29.1606C3.32431 29.1606 4.28183 30.102 4.28183 31.2585C4.28183 32.4214 3.32431 33.3563 2.14092 33.3563ZM2.14092 11.7766C0.957518 11.7766 0 10.8416 0 9.67761C0 8.5211 0.957518 7.57977 2.14092 7.57977C3.32431 7.57977 4.28183 8.5211 4.28183 9.67761C4.28183 10.8416 3.32431 11.7766 2.14092 11.7766ZM2.14092 -9.80432C0.957518 -9.80432 0 -10.7392 0 -11.8957C0 -13.0587 0.957518 -14 2.14092 -14C3.32431 -14 4.28183 -13.0587 4.28183 -11.8957C4.28183 -10.7392 3.32431 -9.80432 2.14092 -9.80432Z" fill="#0074B2"/>
<path d="M27.6055 206C26.4221 206 25.4646 205.065 25.4646 203.902C25.4646 202.746 26.4221 201.804 27.6055 201.804C28.7889 201.804 29.7463 202.746 29.7463 203.902C29.7463 205.065 28.7889 206 27.6055 206ZM27.6055 184.42C26.4221 184.42 25.4646 183.484 25.4646 182.321C25.4646 181.165 26.4221 180.223 27.6055 180.223C28.7889 180.223 29.7463 181.165 29.7463 182.321C29.7463 183.484 28.7889 184.42 27.6055 184.42ZM27.6055 162.839C26.4221 162.839 25.4646 161.904 25.4646 160.74C25.4646 159.584 26.4221 158.643 27.6055 158.643C28.7889 158.643 29.7463 159.584 29.7463 160.74C29.7463 161.904 28.7889 162.839 27.6055 162.839ZM27.6055 141.265C26.4221 141.265 25.4646 140.324 25.4646 139.161C25.4646 138.004 26.4221 137.063 27.6055 137.063C28.7889 137.063 29.7463 138.004 29.7463 139.161C29.7463 140.324 28.7889 141.265 27.6055 141.265ZM27.6055 119.679C26.4221 119.679 25.4646 118.744 25.4646 117.58C25.4646 116.423 26.4221 115.482 27.6055 115.482C28.7889 115.482 29.7463 116.423 29.7463 117.58C29.7463 118.744 28.7889 119.679 27.6055 119.679ZM27.6055 98.0978C26.4221 98.0978 25.4646 97.163 25.4646 96C25.4646 94.8424 26.4221 93.9011 27.6055 93.9011C28.7889 93.9011 29.7463 94.8424 29.7463 96C29.7463 97.163 28.7889 98.0978 27.6055 98.0978ZM27.6055 76.517C26.4221 76.517 25.4646 75.5821 25.4646 74.4191C25.4646 73.2626 26.4221 72.3277 27.6055 72.3277C28.7889 72.3277 29.7463 73.2626 29.7463 74.4191C29.7463 75.5821 28.7889 76.517 27.6055 76.517ZM27.6055 54.9372C26.4221 54.9372 25.4646 54.0023 25.4646 52.8383C25.4646 51.6817 26.4221 50.7404 27.6055 50.7404C28.7889 50.7404 29.7463 51.6817 29.7463 52.8383C29.7463 54.0023 28.7889 54.9372 27.6055 54.9372ZM27.6055 33.3563C26.4221 33.3563 25.4646 32.4214 25.4646 31.2585C25.4646 30.102 26.4221 29.1606 27.6055 29.1606C28.7889 29.1606 29.7463 30.102 29.7463 31.2585C29.7463 32.4214 28.7889 33.3563 27.6055 33.3563ZM27.6055 11.7766C26.4221 11.7766 25.4646 10.8416 25.4646 9.67761C25.4646 8.5211 26.4221 7.57977 27.6055 7.57977C28.7889 7.57977 29.7463 8.5211 29.7463 9.67761C29.7463 10.8416 28.7889 11.7766 27.6055 11.7766ZM27.6055 -9.80432C26.4221 -9.80432 25.4646 -10.7392 25.4646 -11.8957C25.4646 -13.0587 26.4221 -14 27.6055 -14C28.7889 -14 29.7463 -13.0587 29.7463 -11.8957C29.7463 -10.7392 28.7889 -9.80432 27.6055 -9.80432Z" fill="#0074B2"/>
<path d="M53.0807 206C51.8866 206 50.9398 205.065 50.9398 203.902C50.9398 202.746 51.8866 201.804 53.0807 201.804C54.2641 201.804 55.2108 202.746 55.2108 203.902C55.2108 205.065 54.2641 206 53.0807 206ZM53.0807 184.42C51.8866 184.42 50.9398 183.484 50.9398 182.321C50.9398 181.165 51.8866 180.223 53.0807 180.223C54.2641 180.223 55.2108 181.165 55.2108 182.321C55.2108 183.484 54.2641 184.42 53.0807 184.42ZM53.0807 162.839C51.8866 162.839 50.9398 161.904 50.9398 160.74C50.9398 159.584 51.8866 158.643 53.0807 158.643C54.2641 158.643 55.2108 159.584 55.2108 160.74C55.2108 161.904 54.2641 162.839 53.0807 162.839ZM53.0807 141.265C51.8866 141.265 50.9398 140.324 50.9398 139.161C50.9398 138.004 51.8866 137.063 53.0807 137.063C54.2641 137.063 55.2108 138.004 55.2108 139.161C55.2108 140.324 54.2641 141.265 53.0807 141.265ZM53.0807 119.679C51.8866 119.679 50.9398 118.744 50.9398 117.58C50.9398 116.423 51.8866 115.482 53.0807 115.482C54.2641 115.482 55.2108 116.423 55.2108 117.58C55.2108 118.744 54.2641 119.679 53.0807 119.679ZM53.0807 98.0978C51.8866 98.0978 50.9398 97.163 50.9398 96C50.9398 94.8424 51.8866 93.9011 53.0807 93.9011C54.2641 93.9011 55.2108 94.8424 55.2108 96C55.2108 97.163 54.2641 98.0978 53.0807 98.0978ZM53.0807 76.517C51.8866 76.517 50.9398 75.5821 50.9398 74.4191C50.9398 73.2626 51.8866 72.3277 53.0807 72.3277C54.2641 72.3277 55.2108 73.2626 55.2108 74.4191C55.2108 75.5821 54.2641 76.517 53.0807 76.517ZM53.0807 54.9372C51.8866 54.9372 50.9398 54.0023 50.9398 52.8383C50.9398 51.6817 51.8866 50.7404 53.0807 50.7404C54.2641 50.7404 55.2108 51.6817 55.2108 52.8383C55.2108 54.0023 54.2641 54.9372 53.0807 54.9372ZM53.0807 33.3563C51.8866 33.3563 50.9398 32.4214 50.9398 31.2585C50.9398 30.102 51.8866 29.1606 53.0807 29.1606C54.2641 29.1606 55.2108 30.102 55.2108 31.2585C55.2108 32.4214 54.2641 33.3563 53.0807 33.3563ZM53.0807 11.7766C51.8866 11.7766 50.9398 10.8416 50.9398 9.67761C50.9398 8.5211 51.8866 7.57977 53.0807 7.57977C54.2641 7.57977 55.2108 8.5211 55.2108 9.67761C55.2108 10.8416 54.2641 11.7766 53.0807 11.7766ZM53.0807 -9.80432C51.8866 -9.80432 50.9398 -10.7392 50.9398 -11.8957C50.9398 -13.0587 51.8866 -14 53.0807 -14C54.2641 -14 55.2108 -13.0587 55.2108 -11.8957C55.2108 -10.7392 54.2641 -9.80432 53.0807 -9.80432Z" fill="#0074B2"/>
</svg>
