<svg width="70" height="150" viewBox="0 0 70 150" fill="none" xmlns="http://www.w3.org/2000/svg">
<path d="M70 125.24C69.0838 125.301 68.1608 125.343 67.2377 125.343C42.3086 125.343 22.1049 102.804 22.1049 75.0008C22.1049 47.1972 42.3086 24.6578 67.2377 24.6578C68.1608 24.6578 69.0838 24.6993 70 24.7608V0.0683827C69.0838 0.0268906 68.1608 -8.4059e-06 67.2377 -8.4059e-06C30.1023 -8.4059e-06 9.34859e-07 33.5794 9.34859e-07 75.0008C9.34859e-07 116.421 30.1023 150 67.2377 150C68.1608 150 69.0838 149.974 70 149.932V125.24Z" fill="#0094FF" fill-opacity="0.22"/>
</svg>
