<svg width="85" height="131" viewBox="0 0 85 131" fill="none" xmlns="http://www.w3.org/2000/svg">
<path d="M29.135 31.7605C29.0922 31.8168 29.0437 31.8717 28.992 31.9247C28.3585 32.5507 27.3382 32.5414 26.7128 31.9104C24.872 30.0411 23.8842 27.3414 24.0063 24.5C24.1284 21.6585 25.3419 19.0514 27.3392 17.3491C29.2779 15.6933 31.6484 14.9232 33.9412 14.1775C36.3485 13.393 38.6242 12.6541 40.0059 10.9782C41.737 8.88036 41.406 5.23115 39.319 3.47856C38.6381 2.90693 38.5421 1.8962 39.1207 1.21088C39.6924 0.52996 40.7075 0.440985 41.3884 1.01262C44.8568 3.92255 45.3732 9.53285 42.491 13.0268C40.5108 15.4279 37.6789 16.3484 34.9392 17.2383C32.851 17.9179 30.8823 18.5576 29.4294 19.7984C28.1123 20.9226 27.3095 22.6861 27.2259 24.6375C27.1422 26.5889 27.7903 28.4155 29.007 29.6481C29.5793 30.2274 29.6201 31.1331 29.135 31.7605Z" fill="#00E9FF" fill-opacity="0.22"/>
<path d="M40.7357 40.7101C40.6909 40.7695 40.6424 40.8244 40.5901 40.8749C39.9566 41.5009 38.9369 41.4941 38.3134 40.8599C36.4701 38.9913 35.4848 36.291 35.607 33.4496C35.7265 30.6087 36.9426 28.001 38.9374 26.2993C40.8761 24.6436 43.2491 23.8729 45.5419 23.1271C47.9493 22.3426 50.2224 21.6044 51.6066 19.9278C53.3352 17.8306 53.0067 14.1808 50.9178 12.4314C50.2369 11.8597 50.1428 10.8458 50.7189 10.1611C51.2906 9.48021 52.3082 9.39061 52.9892 9.96224C56.455 12.8728 56.9739 18.4824 54.0892 21.977C52.1115 24.3775 49.2771 25.2986 46.5379 26.191C44.4517 26.8675 42.4811 27.5103 41.0275 28.7486C39.7104 29.8728 38.9076 31.6363 38.824 33.5877C38.7404 35.5391 39.391 37.3651 40.6051 38.5983C41.1775 39.1776 41.2207 40.0826 40.7357 40.7101Z" fill="#0094FF" fill-opacity="0.22"/>
<path d="M42.5019 105.445C33.1562 105.445 25.5551 97.8437 25.5551 88.4981C25.5551 79.1563 33.1562 71.5551 42.5019 71.5551C51.8437 71.5551 59.4486 79.1563 59.4486 88.4981C59.4486 97.8437 51.8437 105.445 42.5019 105.445ZM42.5019 65C36.2224 65 30.3242 67.4431 25.8837 71.8837C21.4468 76.3205 19 82.2224 19 88.4981C19 94.7776 21.4468 100.68 25.8837 105.116C30.3242 109.557 36.2224 112 42.5019 112C48.7776 112 54.6795 109.557 59.1163 105.116C63.5569 100.68 66 94.7776 66 88.4981C66 82.2224 63.5569 76.3205 59.1163 71.8837C54.6795 67.4431 48.7776 65 42.5019 65Z" fill="#00E9FF" fill-opacity="0.22"/>
<path d="M42.5 124.494C22.6517 124.494 6.50243 108.346 6.50243 88.4981C6.50243 68.6544 22.6517 52.5059 42.5 52.5059C62.3483 52.5059 78.4938 68.6544 78.4938 88.4981C78.4938 108.346 62.3483 124.494 42.5 124.494ZM59.0428 49.3429C53.7996 47.1243 48.2341 46 42.5 46C36.7621 46 31.1966 47.1243 25.9535 49.3429C20.894 51.4828 16.3479 54.5483 12.4465 58.4496C8.545 62.3509 5.4793 66.8968 3.33931 71.9561C1.12436 77.199 0 82.7642 0 88.4981C0 94.2357 1.12436 99.801 3.33931 105.044C5.4793 110.103 8.545 114.649 12.4465 118.55C16.3479 122.452 20.894 125.517 25.9535 127.657C31.1966 129.876 36.7621 131 42.5 131C48.2341 131 53.7996 129.876 59.0428 127.657C64.1061 125.517 68.6484 122.452 72.5499 118.55C76.4551 114.649 79.517 110.103 81.657 105.044C83.8757 99.801 85 94.2357 85 88.4981C85 82.7642 83.8757 77.199 81.657 71.9561C79.517 66.8968 76.4551 62.3509 72.5499 58.4496C68.6484 54.5483 64.1061 51.4828 59.0428 49.3429Z" fill="#0094FF" fill-opacity="0.22"/>
</svg>
