<svg width="107" height="241" viewBox="0 0 107 241" fill="none" xmlns="http://www.w3.org/2000/svg">
<g clip-path="url(#clip0)">
<path d="M0.683582 77.1534L-50.8087 166.344C-51.1796 165.978 -51.5461 165.612 -51.907 165.237L-0.826107 76.7618C-0.319277 76.8824 0.181253 77.013 0.683582 77.1534Z" fill="#CEE3FB"/>
<path d="M4.13151 78.2364L-48.1476 168.791C-48.5383 168.459 -48.9245 168.118 -49.3008 167.773L2.67312 77.7449C3.16464 77.8997 3.65079 78.0609 4.13151 78.2364Z" fill="#CEE3FB"/>
<path d="M7.45415 79.5291L-45.3705 171.021C-45.7765 170.72 -46.1726 170.409 -46.5687 170.098L6.05703 78.9476C6.52695 79.133 6.99413 79.3293 7.45415 79.5291Z" fill="#CEE3FB"/>
<path d="M10.6626 81.0334L-42.4636 173.051C-42.8849 172.78 -43.3053 172.5 -43.7167 172.209L9.30964 80.3663C9.76606 80.5815 10.217 80.8021 10.6626 81.0334Z" fill="#CEE3FB"/>
<path d="M13.7459 82.7421L-39.4461 174.87C-39.8872 174.63 -40.3184 174.379 -40.7496 174.118L12.4415 81.985C12.8835 82.2308 13.3138 82.4819 13.7459 82.7421Z" fill="#CEE3FB"/>
<path d="M16.7131 84.6514L-36.3087 176.494C-36.7643 176.279 -37.2207 176.058 -37.6672 175.828L15.46 83.8097C15.8813 84.0807 16.3017 84.3607 16.7131 84.6514Z" fill="#CEE3FB"/>
<path d="M19.5696 86.7669L-33.0552 177.913C-33.527 177.727 -33.9978 177.532 -34.4587 177.331L18.3669 85.8352C18.7729 86.1404 19.1735 86.451 19.5696 86.7669Z" fill="#CEE3FB"/>
<path d="M22.2972 89.0878L-29.6768 179.115C-30.1629 178.96 -30.649 178.8 -31.1306 178.624L21.1485 88.0751C21.5347 88.4009 21.9155 88.7421 22.2972 89.0878Z" fill="#CEE3FB"/>
<path d="M24.9025 91.6291L-26.1784 180.098C-26.6843 179.978 -27.1858 179.847 -27.6872 179.702L23.8052 90.5164C24.1805 90.8828 24.5478 91.2537 24.9025 91.6291Z" fill="#CEE3FB"/>
<path d="M27.3736 94.3956L-22.5397 180.855C-23.0654 180.77 -23.5876 180.669 -24.1034 180.565L26.342 93.1884C26.6921 93.5845 27.0378 93.9905 27.3736 94.3956Z" fill="#CEE3FB"/>
<path d="M29.7097 97.4078L-18.7596 181.362C-19.3061 181.311 -19.8525 181.252 -20.3944 181.181L28.7321 96.0907C29.0679 96.521 29.3938 96.9622 29.7097 97.4078Z" fill="#CEE3FB"/>
<path d="M31.8902 100.686L-14.83 181.606C-15.3963 181.592 -15.9634 181.567 -16.5243 181.532L30.9782 99.2532C31.2942 99.724 31.6003 100.2 31.8902 100.686Z" fill="#CEE3FB"/>
<path d="M33.895 104.261L-10.725 181.552C-11.3111 181.582 -11.9034 181.602 -12.4949 181.612L33.0631 102.701C33.3539 103.218 33.6303 103.734 33.895 104.261Z" fill="#CEE3FB"/>
<path d="M35.7043 108.19L-6.4247 181.155C-7.04136 181.236 -7.65799 181.306 -8.28455 181.366L34.958 106.471C35.2182 107.038 35.4694 107.609 35.7043 108.19Z" fill="#CEE3FB"/>
<path d="M37.2734 112.521L-1.88395 180.344C-2.53482 180.495 -3.19195 180.63 -3.85272 180.745L36.637 110.621C36.862 111.248 37.0736 111.884 37.2734 112.521Z" fill="#CEE3FB"/>
<path d="M38.5418 117.378L2.94851 179.025C2.25714 179.256 1.55585 179.466 0.848267 179.662L38.0458 115.232C38.2259 115.944 38.3915 116.657 38.5418 117.378Z" fill="#CEE3FB"/>
<path d="M39.4088 122.921L8.18157 177.015C7.42447 177.356 6.6629 177.672 5.8905 177.978L39.1036 120.455C39.2234 121.273 39.3287 122.095 39.4088 122.921Z" fill="#CEE3FB"/>
<path d="M39.6951 128.431C39.6951 128.791 39.6897 129.152 39.6843 129.508L14.016 173.963C13.1743 174.474 12.3119 174.961 11.4341 175.422L39.66 126.54C39.6843 127.168 39.6951 127.799 39.6951 128.431Z" fill="#CEE3FB"/>
<path d="M39.3989 134.039C39.2585 135.393 39.0686 136.725 38.8219 138.044L21.0036 168.91C19.9765 169.793 18.9079 170.634 17.8105 171.432L39.3989 134.039Z" fill="#CEE3FB"/>
<path d="M36.9421 145.352C34.6672 152.144 31.0528 158.329 26.4166 163.587L36.9421 145.352Z" fill="#CEE3FB"/>
<path d="M-13.4996 195.71C-55.0371 195.71 -88.7085 162.038 -88.7085 120.5C-88.7085 78.9638 -55.0371 45.2916 -13.4996 45.2916C28.038 45.2916 61.7103 78.9638 61.7103 120.5C61.7103 162.038 28.038 195.71 -13.4996 195.71ZM-13.4996 0C-80.0501 0 -134 53.95 -134 120.5C-134 187.051 -80.0501 241.001 -13.4996 241.001C53.0509 241.001 107 187.051 107 120.5C107 53.95 53.0509 0 -13.4996 0Z" fill="#CEE3FB"/>
</g>
<defs>
<clipPath id="clip0">
<rect width="107" height="241" fill="white"/>
</clipPath>
</defs>
</svg>
